<?xml version="1.0" encoding="utf-8"?>
<svg xmlns="http://www.w3.org/2000/svg" xmlns:xlink="http://www.w3.org/1999/xlink" width="600" height="400" viewBox="0 0 2400 1600">
<defs>
  <clipPath id="clip740">
    <rect x="0" y="0" width="2400" height="1600"/>
  </clipPath>
</defs>
<path clip-path="url(#clip740)" d="M0 1600 L2400 1600 L2400 0 L0 0  Z" fill="#ffffff" fill-rule="evenodd" fill-opacity="1"/>
<defs>
  <clipPath id="clip741">
    <rect x="149" y="47" width="2205" height="1377"/>
  </clipPath>
</defs>
<path clip-path="url(#clip740)" d="M149.191 1423.18 L2352.76 1423.18 L2352.76 47.2441 L149.191 47.2441  Z" fill="#ffffff" fill-rule="evenodd" fill-opacity="1"/>
<polyline clip-path="url(#clip741)" style="stroke:#000000; stroke-linecap:round; stroke-linejoin:round; stroke-width:2; stroke-opacity:0.1; fill:none" points="149.191,1423.18 149.191,47.2441 "/>
<polyline clip-path="url(#clip741)" style="stroke:#000000; stroke-linecap:round; stroke-linejoin:round; stroke-width:2; stroke-opacity:0.1; fill:none" points="850.607,1423.18 850.607,47.2441 "/>
<polyline clip-path="url(#clip741)" style="stroke:#000000; stroke-linecap:round; stroke-linejoin:round; stroke-width:2; stroke-opacity:0.1; fill:none" points="1552.02,1423.18 1552.02,47.2441 "/>
<polyline clip-path="url(#clip741)" style="stroke:#000000; stroke-linecap:round; stroke-linejoin:round; stroke-width:2; stroke-opacity:0.1; fill:none" points="2253.44,1423.18 2253.44,47.2441 "/>
<polyline clip-path="url(#clip741)" style="stroke:#000000; stroke-linecap:round; stroke-linejoin:round; stroke-width:2; stroke-opacity:0.1; fill:none" points="149.191,1276.85 2352.76,1276.85 "/>
<polyline clip-path="url(#clip741)" style="stroke:#000000; stroke-linecap:round; stroke-linejoin:round; stroke-width:2; stroke-opacity:0.1; fill:none" points="149.191,1013.71 2352.76,1013.71 "/>
<polyline clip-path="url(#clip741)" style="stroke:#000000; stroke-linecap:round; stroke-linejoin:round; stroke-width:2; stroke-opacity:0.1; fill:none" points="149.191,750.569 2352.76,750.569 "/>
<polyline clip-path="url(#clip741)" style="stroke:#000000; stroke-linecap:round; stroke-linejoin:round; stroke-width:2; stroke-opacity:0.1; fill:none" points="149.191,487.429 2352.76,487.429 "/>
<polyline clip-path="url(#clip741)" style="stroke:#000000; stroke-linecap:round; stroke-linejoin:round; stroke-width:2; stroke-opacity:0.1; fill:none" points="149.191,224.288 2352.76,224.288 "/>
<polyline clip-path="url(#clip740)" style="stroke:#000000; stroke-linecap:round; stroke-linejoin:round; stroke-width:4; stroke-opacity:1; fill:none" points="149.191,1423.18 2352.76,1423.18 "/>
<polyline clip-path="url(#clip740)" style="stroke:#000000; stroke-linecap:round; stroke-linejoin:round; stroke-width:4; stroke-opacity:1; fill:none" points="149.191,1423.18 149.191,1404.28 "/>
<polyline clip-path="url(#clip740)" style="stroke:#000000; stroke-linecap:round; stroke-linejoin:round; stroke-width:4; stroke-opacity:1; fill:none" points="850.607,1423.18 850.607,1404.28 "/>
<polyline clip-path="url(#clip740)" style="stroke:#000000; stroke-linecap:round; stroke-linejoin:round; stroke-width:4; stroke-opacity:1; fill:none" points="1552.02,1423.18 1552.02,1404.28 "/>
<polyline clip-path="url(#clip740)" style="stroke:#000000; stroke-linecap:round; stroke-linejoin:round; stroke-width:4; stroke-opacity:1; fill:none" points="2253.44,1423.18 2253.44,1404.28 "/>
<path clip-path="url(#clip740)" d="M126.575 1454.1 Q122.964 1454.1 121.135 1457.66 Q119.33 1461.2 119.33 1468.33 Q119.33 1475.44 121.135 1479.01 Q122.964 1482.55 126.575 1482.55 Q130.209 1482.55 132.015 1479.01 Q133.844 1475.44 133.844 1468.33 Q133.844 1461.2 132.015 1457.66 Q130.209 1454.1 126.575 1454.1 M126.575 1450.39 Q132.385 1450.39 135.441 1455 Q138.52 1459.58 138.52 1468.33 Q138.52 1477.06 135.441 1481.67 Q132.385 1486.25 126.575 1486.25 Q120.765 1486.25 117.686 1481.67 Q114.631 1477.06 114.631 1468.33 Q114.631 1459.58 117.686 1455 Q120.765 1450.39 126.575 1450.39 Z" fill="#000000" fill-rule="nonzero" fill-opacity="1" /><path clip-path="url(#clip740)" d="M146.737 1479.7 L151.621 1479.7 L151.621 1485.58 L146.737 1485.58 L146.737 1479.7 Z" fill="#000000" fill-rule="nonzero" fill-opacity="1" /><path clip-path="url(#clip740)" d="M171.806 1454.1 Q168.195 1454.1 166.367 1457.66 Q164.561 1461.2 164.561 1468.33 Q164.561 1475.44 166.367 1479.01 Q168.195 1482.55 171.806 1482.55 Q175.441 1482.55 177.246 1479.01 Q179.075 1475.44 179.075 1468.33 Q179.075 1461.2 177.246 1457.66 Q175.441 1454.1 171.806 1454.1 M171.806 1450.39 Q177.617 1450.39 180.672 1455 Q183.751 1459.58 183.751 1468.33 Q183.751 1477.06 180.672 1481.67 Q177.617 1486.25 171.806 1486.25 Q165.996 1486.25 162.918 1481.67 Q159.862 1477.06 159.862 1468.33 Q159.862 1459.58 162.918 1455 Q165.996 1450.39 171.806 1450.39 Z" fill="#000000" fill-rule="nonzero" fill-opacity="1" /><path clip-path="url(#clip740)" d="M828.489 1454.1 Q824.878 1454.1 823.05 1457.66 Q821.244 1461.2 821.244 1468.33 Q821.244 1475.44 823.05 1479.01 Q824.878 1482.55 828.489 1482.55 Q832.124 1482.55 833.929 1479.01 Q835.758 1475.44 835.758 1468.33 Q835.758 1461.2 833.929 1457.66 Q832.124 1454.1 828.489 1454.1 M828.489 1450.39 Q834.3 1450.39 837.355 1455 Q840.434 1459.58 840.434 1468.33 Q840.434 1477.06 837.355 1481.67 Q834.3 1486.25 828.489 1486.25 Q822.679 1486.25 819.601 1481.67 Q816.545 1477.06 816.545 1468.33 Q816.545 1459.58 819.601 1455 Q822.679 1450.39 828.489 1450.39 Z" fill="#000000" fill-rule="nonzero" fill-opacity="1" /><path clip-path="url(#clip740)" d="M848.651 1479.7 L853.536 1479.7 L853.536 1485.58 L848.651 1485.58 L848.651 1479.7 Z" fill="#000000" fill-rule="nonzero" fill-opacity="1" /><path clip-path="url(#clip740)" d="M863.767 1451.02 L882.123 1451.02 L882.123 1454.96 L868.049 1454.96 L868.049 1463.43 Q869.068 1463.08 870.086 1462.92 Q871.105 1462.73 872.123 1462.73 Q877.91 1462.73 881.29 1465.9 Q884.67 1469.08 884.67 1474.49 Q884.67 1480.07 881.198 1483.17 Q877.725 1486.25 871.406 1486.25 Q869.23 1486.25 866.961 1485.88 Q864.716 1485.51 862.309 1484.77 L862.309 1480.07 Q864.392 1481.2 866.614 1481.76 Q868.836 1482.32 871.313 1482.32 Q875.318 1482.32 877.656 1480.21 Q879.994 1478.1 879.994 1474.49 Q879.994 1470.88 877.656 1468.77 Q875.318 1466.67 871.313 1466.67 Q869.438 1466.67 867.563 1467.08 Q865.711 1467.5 863.767 1468.38 L863.767 1451.02 Z" fill="#000000" fill-rule="nonzero" fill-opacity="1" /><path clip-path="url(#clip740)" d="M1519.18 1481.64 L1526.82 1481.64 L1526.82 1455.28 L1518.51 1456.95 L1518.51 1452.69 L1526.77 1451.02 L1531.45 1451.02 L1531.45 1481.64 L1539.08 1481.64 L1539.08 1485.58 L1519.18 1485.58 L1519.18 1481.64 Z" fill="#000000" fill-rule="nonzero" fill-opacity="1" /><path clip-path="url(#clip740)" d="M1548.53 1479.7 L1553.41 1479.7 L1553.41 1485.58 L1548.53 1485.58 L1548.53 1479.7 Z" fill="#000000" fill-rule="nonzero" fill-opacity="1" /><path clip-path="url(#clip740)" d="M1573.6 1454.1 Q1569.99 1454.1 1568.16 1457.66 Q1566.35 1461.2 1566.35 1468.33 Q1566.35 1475.44 1568.16 1479.01 Q1569.99 1482.55 1573.6 1482.55 Q1577.23 1482.55 1579.04 1479.01 Q1580.87 1475.44 1580.87 1468.33 Q1580.87 1461.2 1579.04 1457.66 Q1577.23 1454.1 1573.6 1454.1 M1573.6 1450.39 Q1579.41 1450.39 1582.46 1455 Q1585.54 1459.58 1585.54 1468.33 Q1585.54 1477.06 1582.46 1481.67 Q1579.41 1486.25 1573.6 1486.25 Q1567.79 1486.25 1564.71 1481.67 Q1561.65 1477.06 1561.65 1468.33 Q1561.65 1459.58 1564.71 1455 Q1567.79 1450.39 1573.6 1450.39 Z" fill="#000000" fill-rule="nonzero" fill-opacity="1" /><path clip-path="url(#clip740)" d="M2221.09 1481.64 L2228.73 1481.64 L2228.73 1455.28 L2220.42 1456.95 L2220.42 1452.69 L2228.68 1451.02 L2233.36 1451.02 L2233.36 1481.64 L2241 1481.64 L2241 1485.58 L2221.09 1485.58 L2221.09 1481.64 Z" fill="#000000" fill-rule="nonzero" fill-opacity="1" /><path clip-path="url(#clip740)" d="M2250.44 1479.7 L2255.33 1479.7 L2255.33 1485.58 L2250.44 1485.58 L2250.44 1479.7 Z" fill="#000000" fill-rule="nonzero" fill-opacity="1" /><path clip-path="url(#clip740)" d="M2265.56 1451.02 L2283.91 1451.02 L2283.91 1454.96 L2269.84 1454.96 L2269.84 1463.43 Q2270.86 1463.08 2271.88 1462.92 Q2272.9 1462.73 2273.91 1462.73 Q2279.7 1462.73 2283.08 1465.9 Q2286.46 1469.08 2286.46 1474.49 Q2286.46 1480.07 2282.99 1483.17 Q2279.52 1486.25 2273.2 1486.25 Q2271.02 1486.25 2268.75 1485.88 Q2266.51 1485.51 2264.1 1484.77 L2264.1 1480.07 Q2266.18 1481.2 2268.41 1481.76 Q2270.63 1482.32 2273.1 1482.32 Q2277.11 1482.32 2279.45 1480.21 Q2281.79 1478.1 2281.79 1474.49 Q2281.79 1470.88 2279.45 1468.77 Q2277.11 1466.67 2273.1 1466.67 Q2271.23 1466.67 2269.35 1467.08 Q2267.5 1467.5 2265.56 1468.38 L2265.56 1451.02 Z" fill="#000000" fill-rule="nonzero" fill-opacity="1" /><path clip-path="url(#clip740)" d="M1250.03 1522.27 L1250.03 1532.4 L1262.1 1532.4 L1262.1 1536.95 L1250.03 1536.95 L1250.03 1556.3 Q1250.03 1560.66 1251.21 1561.9 Q1252.42 1563.14 1256.08 1563.14 L1262.1 1563.14 L1262.1 1568.04 L1256.08 1568.04 Q1249.3 1568.04 1246.72 1565.53 Q1244.15 1562.98 1244.15 1556.3 L1244.15 1536.95 L1239.85 1536.95 L1239.85 1532.4 L1244.15 1532.4 L1244.15 1522.27 L1250.03 1522.27 Z" fill="#000000" fill-rule="nonzero" fill-opacity="1" /><polyline clip-path="url(#clip740)" style="stroke:#000000; stroke-linecap:round; stroke-linejoin:round; stroke-width:4; stroke-opacity:1; fill:none" points="149.191,1423.18 149.191,47.2441 "/>
<polyline clip-path="url(#clip740)" style="stroke:#000000; stroke-linecap:round; stroke-linejoin:round; stroke-width:4; stroke-opacity:1; fill:none" points="149.191,1276.85 168.089,1276.85 "/>
<polyline clip-path="url(#clip740)" style="stroke:#000000; stroke-linecap:round; stroke-linejoin:round; stroke-width:4; stroke-opacity:1; fill:none" points="149.191,1013.71 168.089,1013.71 "/>
<polyline clip-path="url(#clip740)" style="stroke:#000000; stroke-linecap:round; stroke-linejoin:round; stroke-width:4; stroke-opacity:1; fill:none" points="149.191,750.569 168.089,750.569 "/>
<polyline clip-path="url(#clip740)" style="stroke:#000000; stroke-linecap:round; stroke-linejoin:round; stroke-width:4; stroke-opacity:1; fill:none" points="149.191,487.429 168.089,487.429 "/>
<polyline clip-path="url(#clip740)" style="stroke:#000000; stroke-linecap:round; stroke-linejoin:round; stroke-width:4; stroke-opacity:1; fill:none" points="149.191,224.288 168.089,224.288 "/>
<path clip-path="url(#clip740)" d="M50.9921 1277.3 L80.6679 1277.3 L80.6679 1281.24 L50.9921 1281.24 L50.9921 1277.3 Z" fill="#000000" fill-rule="nonzero" fill-opacity="1" /><path clip-path="url(#clip740)" d="M103.608 1263.64 L91.8021 1282.09 L103.608 1282.09 L103.608 1263.64 M102.381 1259.57 L108.26 1259.57 L108.26 1282.09 L113.191 1282.09 L113.191 1285.98 L108.26 1285.98 L108.26 1294.13 L103.608 1294.13 L103.608 1285.98 L88.0058 1285.98 L88.0058 1281.47 L102.381 1259.57 Z" fill="#000000" fill-rule="nonzero" fill-opacity="1" /><path clip-path="url(#clip740)" d="M53.0754 1014.16 L82.7512 1014.16 L82.7512 1018.1 L53.0754 1018.1 L53.0754 1014.16 Z" fill="#000000" fill-rule="nonzero" fill-opacity="1" /><path clip-path="url(#clip740)" d="M96.8715 1027.05 L113.191 1027.05 L113.191 1030.99 L91.2465 1030.99 L91.2465 1027.05 Q93.9086 1024.3 98.4919 1019.67 Q103.098 1015.02 104.279 1013.68 Q106.524 1011.15 107.404 1009.42 Q108.307 1007.66 108.307 1005.97 Q108.307 1003.21 106.362 1001.48 Q104.441 999.74 101.339 999.74 Q99.14 999.74 96.6863 1000.5 Q94.2558 1001.27 91.478 1002.82 L91.478 998.097 Q94.3021 996.962 96.7558 996.384 Q99.2095 995.805 101.246 995.805 Q106.617 995.805 109.811 998.49 Q113.006 1001.18 113.006 1005.67 Q113.006 1007.8 112.196 1009.72 Q111.408 1011.62 109.302 1014.21 Q108.723 1014.88 105.621 1018.1 Q102.52 1021.29 96.8715 1027.05 Z" fill="#000000" fill-rule="nonzero" fill-opacity="1" /><path clip-path="url(#clip740)" d="M101.246 736.368 Q97.6354 736.368 95.8067 739.933 Q94.0012 743.475 94.0012 750.604 Q94.0012 757.711 95.8067 761.275 Q97.6354 764.817 101.246 764.817 Q104.881 764.817 106.686 761.275 Q108.515 757.711 108.515 750.604 Q108.515 743.475 106.686 739.933 Q104.881 736.368 101.246 736.368 M101.246 732.664 Q107.057 732.664 110.112 737.271 Q113.191 741.854 113.191 750.604 Q113.191 759.331 110.112 763.937 Q107.057 768.521 101.246 768.521 Q95.4363 768.521 92.3576 763.937 Q89.3021 759.331 89.3021 750.604 Q89.3021 741.854 92.3576 737.271 Q95.4363 732.664 101.246 732.664 Z" fill="#000000" fill-rule="nonzero" fill-opacity="1" /><path clip-path="url(#clip740)" d="M96.8715 500.774 L113.191 500.774 L113.191 504.709 L91.2465 504.709 L91.2465 500.774 Q93.9086 498.019 98.4919 493.389 Q103.098 488.737 104.279 487.394 Q106.524 484.871 107.404 483.135 Q108.307 481.376 108.307 479.686 Q108.307 476.931 106.362 475.195 Q104.441 473.459 101.339 473.459 Q99.14 473.459 96.6863 474.223 Q94.2558 474.987 91.478 476.538 L91.478 471.815 Q94.3021 470.681 96.7558 470.102 Q99.2095 469.524 101.246 469.524 Q106.617 469.524 109.811 472.209 Q113.006 474.894 113.006 479.385 Q113.006 481.514 112.196 483.436 Q111.408 485.334 109.302 487.926 Q108.723 488.598 105.621 491.815 Q102.52 495.01 96.8715 500.774 Z" fill="#000000" fill-rule="nonzero" fill-opacity="1" /><path clip-path="url(#clip740)" d="M103.608 211.082 L91.8021 229.531 L103.608 229.531 L103.608 211.082 M102.381 207.008 L108.26 207.008 L108.26 229.531 L113.191 229.531 L113.191 233.42 L108.26 233.42 L108.26 241.568 L103.608 241.568 L103.608 233.42 L88.0058 233.42 L88.0058 228.906 L102.381 207.008 Z" fill="#000000" fill-rule="nonzero" fill-opacity="1" /><polyline clip-path="url(#clip741)" style="stroke:#009af9; stroke-linecap:round; stroke-linejoin:round; stroke-width:4; stroke-opacity:1; fill:none" points="149.191,98.4575 165.593,105.781 181.996,112.93 198.398,119.905 214.801,126.705 232.386,133.798 249.97,140.689 267.685,147.426 285.4,153.959 305.227,161.031 325.055,167.852 345.982,174.784 366.91,181.444 391.226,188.849 415.542,195.903 439.75,202.588 463.958,208.944 488.041,214.952 512.125,220.655 536.052,226.03 559.98,231.123 583.753,235.916 607.525,240.45 631.139,244.707 654.754,248.728 678.223,252.499 701.693,256.052 725.307,259.417 748.922,262.578 772.699,265.562 796.476,268.353 820.4,270.975 844.324,273.416 868.425,275.698 892.525,277.808 916.626,279.751 940.727,281.534 964.771,283.156 988.816,284.627 1012.71,285.942 1036.61,287.115 1060.26,288.139 1083.92,289.03 1107.46,289.785 1131.01,290.412 1154.45,290.911 1177.89,291.285 1201.58,291.538 1225.28,291.666 1249.05,291.669 1272.82,291.545 1296.67,291.295 1320.52,290.917 1344.64,290.404 1368.75,289.757 1393.33,288.96 1417.91,288.021 1441.88,286.966 1465.84,285.77 1486.16,284.644 1506.48,283.413 1525.69,282.149 1544.89,280.788 1563.03,279.41 1581.17,277.94 1598.58,276.441 1615.99,274.853 1632.93,273.22 1649.88,271.5 1666.57,269.717 1683.26,267.845 1699.76,265.903 1716.26,263.869 1733.21,261.681 1750.15,259.391 1767.56,256.93 1784.97,254.355 1801.63,251.781 1818.28,249.098 1834.23,246.423 1850.17,243.642 1866.01,240.772 1881.85,237.792 1897.49,234.738 1913.13,231.571 1928.87,228.267 1944.61,224.844 1960.91,221.172 1977.2,217.366 1993.54,213.409 2009.88,209.312 2027.41,204.756 2044.93,200.03 2062.62,195.085 2080.3,189.958 2099.9,184.062 2119.5,177.934 2140.37,171.151 2161.23,164.095 2184.8,155.795 2208.36,147.137 2232.52,137.887 2256.67,128.255 2280.79,118.26 2304.9,107.885 2328.83,97.2169 2352.76,86.1857 "/>
<polyline clip-path="url(#clip741)" style="stroke:#e26f46; stroke-linecap:round; stroke-linejoin:round; stroke-width:4; stroke-opacity:1; fill:none" points="149.191,1384.24 165.593,1369.5 181.996,1354.61 198.398,1339.6 214.801,1324.54 232.386,1308.36 249.97,1292.2 267.685,1275.99 285.4,1259.88 305.227,1242.03 325.055,1224.39 345.982,1206.05 366.91,1188.04 391.226,1167.57 415.542,1147.63 439.75,1128.33 463.958,1109.6 488.041,1091.55 512.125,1074.09 536.052,1057.33 559.98,1041.15 583.753,1025.65 607.525,1010.7 631.139,996.384 654.754,982.592 678.223,969.384 701.693,956.656 725.307,944.316 748.922,932.422 772.699,920.878 796.476,909.744 820.4,898.933 844.324,888.492 868.425,878.327 892.525,868.492 916.626,858.964 940.727,849.721 964.771,840.76 988.816,832.037 1012.71,823.583 1036.61,815.32 1060.26,807.31 1083.92,799.447 1107.46,791.747 1131.01,784.154 1154.45,776.68 1177.89,769.273 1201.58,761.836 1225.28,754.429 1249.05,747.006 1272.82,739.574 1296.67,732.09 1320.52,724.557 1344.64,716.868 1368.75,709.087 1393.33,701.042 1417.91,692.857 1441.88,684.72 1465.84,676.408 1486.16,669.209 1506.48,661.855 1525.69,654.75 1544.89,647.483 1563.03,640.464 1581.17,633.28 1598.58,626.223 1615.99,618.997 1632.93,611.795 1649.88,604.416 1666.57,596.97 1683.26,589.339 1699.76,581.602 1716.26,573.67 1733.21,565.31 1750.15,556.728 1767.56,547.672 1784.97,538.366 1801.63,529.219 1818.28,519.829 1834.23,510.605 1850.17,501.146 1866.01,491.515 1881.85,481.643 1897.49,471.652 1913.13,461.42 1928.87,450.875 1944.61,440.08 1960.91,428.642 1977.2,416.934 1993.54,404.918 2009.88,392.631 2027.41,379.156 2044.93,365.376 2062.62,351.171 2080.3,336.672 2099.9,320.278 2119.5,303.557 2140.37,285.425 2161.23,266.987 2184.8,245.848 2208.36,224.444 2232.52,202.315 2256.67,180.099 2280.79,157.955 2304.9,135.971 2328.83,114.456 2352.76,93.3971 "/>
<path clip-path="url(#clip740)" d="M1969.85 1377.32 L2279.3 1377.32 L2279.3 1221.8 L1969.85 1221.8  Z" fill="#ffffff" fill-rule="evenodd" fill-opacity="1"/>
<polyline clip-path="url(#clip740)" style="stroke:#000000; stroke-linecap:round; stroke-linejoin:round; stroke-width:4; stroke-opacity:1; fill:none" points="1969.85,1377.32 2279.3,1377.32 2279.3,1221.8 1969.85,1221.8 1969.85,1377.32 "/>
<polyline clip-path="url(#clip740)" style="stroke:#009af9; stroke-linecap:round; stroke-linejoin:round; stroke-width:4; stroke-opacity:1; fill:none" points="1994.33,1273.64 2141.24,1273.64 "/>
<path clip-path="url(#clip740)" d="M2165.72 1280.68 L2165.72 1264.99 L2169.98 1264.99 L2169.98 1280.52 Q2169.98 1284.2 2171.42 1286.05 Q2172.85 1287.88 2175.72 1287.88 Q2179.17 1287.88 2181.16 1285.68 Q2183.18 1283.48 2183.18 1279.69 L2183.18 1264.99 L2187.44 1264.99 L2187.44 1290.92 L2183.18 1290.92 L2183.18 1286.93 Q2181.63 1289.29 2179.57 1290.45 Q2177.53 1291.59 2174.82 1291.59 Q2170.35 1291.59 2168.04 1288.81 Q2165.72 1286.03 2165.72 1280.68 M2176.44 1264.36 L2176.44 1264.36 Z" fill="#000000" fill-rule="nonzero" fill-opacity="1" /><path clip-path="url(#clip740)" d="M2195.82 1254.9 L2205.63 1254.9 L2205.63 1258.21 L2200.07 1258.21 L2200.07 1293.86 L2205.63 1293.86 L2205.63 1297.17 L2195.82 1297.17 L2195.82 1254.9 Z" fill="#000000" fill-rule="nonzero" fill-opacity="1" /><path clip-path="url(#clip740)" d="M2216.12 1286.98 L2223.76 1286.98 L2223.76 1260.61 L2215.44 1262.28 L2215.44 1258.02 L2223.71 1256.36 L2228.38 1256.36 L2228.38 1286.98 L2236.02 1286.98 L2236.02 1290.92 L2216.12 1290.92 L2216.12 1286.98 Z" fill="#000000" fill-rule="nonzero" fill-opacity="1" /><path clip-path="url(#clip740)" d="M2254.82 1254.9 L2254.82 1297.17 L2245 1297.17 L2245 1293.86 L2250.54 1293.86 L2250.54 1258.21 L2245 1258.21 L2245 1254.9 L2254.82 1254.9 Z" fill="#000000" fill-rule="nonzero" fill-opacity="1" /><polyline clip-path="url(#clip740)" style="stroke:#e26f46; stroke-linecap:round; stroke-linejoin:round; stroke-width:4; stroke-opacity:1; fill:none" points="1994.33,1325.48 2141.24,1325.48 "/>
<path clip-path="url(#clip740)" d="M2165.72 1332.52 L2165.72 1316.83 L2169.98 1316.83 L2169.98 1332.36 Q2169.98 1336.04 2171.42 1337.89 Q2172.85 1339.72 2175.72 1339.72 Q2179.17 1339.72 2181.16 1337.52 Q2183.18 1335.32 2183.18 1331.53 L2183.18 1316.83 L2187.44 1316.83 L2187.44 1342.76 L2183.18 1342.76 L2183.18 1338.77 Q2181.63 1341.13 2179.57 1342.29 Q2177.53 1343.43 2174.82 1343.43 Q2170.35 1343.43 2168.04 1340.65 Q2165.72 1337.87 2165.72 1332.52 M2176.44 1316.2 L2176.44 1316.2 Z" fill="#000000" fill-rule="nonzero" fill-opacity="1" /><path clip-path="url(#clip740)" d="M2195.82 1306.74 L2205.63 1306.74 L2205.63 1310.05 L2200.07 1310.05 L2200.07 1345.7 L2205.63 1345.7 L2205.63 1349.01 L2195.82 1349.01 L2195.82 1306.74 Z" fill="#000000" fill-rule="nonzero" fill-opacity="1" /><path clip-path="url(#clip740)" d="M2219.33 1338.82 L2235.65 1338.82 L2235.65 1342.76 L2213.71 1342.76 L2213.71 1338.82 Q2216.37 1336.07 2220.95 1331.44 Q2225.56 1326.78 2226.74 1325.44 Q2228.99 1322.92 2229.87 1321.18 Q2230.77 1319.42 2230.77 1317.73 Q2230.77 1314.98 2228.82 1313.24 Q2226.9 1311.51 2223.8 1311.51 Q2221.6 1311.51 2219.15 1312.27 Q2216.72 1313.03 2213.94 1314.58 L2213.94 1309.86 Q2216.76 1308.73 2219.22 1308.15 Q2221.67 1307.57 2223.71 1307.57 Q2229.08 1307.57 2232.27 1310.26 Q2235.47 1312.94 2235.47 1317.43 Q2235.47 1319.56 2234.66 1321.48 Q2233.87 1323.38 2231.76 1325.97 Q2231.19 1326.64 2228.08 1329.86 Q2224.98 1333.06 2219.33 1338.82 Z" fill="#000000" fill-rule="nonzero" fill-opacity="1" /><path clip-path="url(#clip740)" d="M2254.82 1306.74 L2254.82 1349.01 L2245 1349.01 L2245 1345.7 L2250.54 1345.7 L2250.54 1310.05 L2245 1310.05 L2245 1306.74 L2254.82 1306.74 Z" fill="#000000" fill-rule="nonzero" fill-opacity="1" /></svg>
