<?xml version="1.0" encoding="utf-8"?>
<svg xmlns="http://www.w3.org/2000/svg" xmlns:xlink="http://www.w3.org/1999/xlink" width="600" height="400" viewBox="0 0 2400 1600">
<defs>
  <clipPath id="clip040">
    <rect x="0" y="0" width="2400" height="1600"/>
  </clipPath>
</defs>
<path clip-path="url(#clip040)" d="M0 1600 L2400 1600 L2400 0 L0 0  Z" fill="#ffffff" fill-rule="evenodd" fill-opacity="1"/>
<defs>
  <clipPath id="clip041">
    <rect x="149" y="47" width="2205" height="1377"/>
  </clipPath>
</defs>
<path clip-path="url(#clip040)" d="M149.191 1423.18 L2352.76 1423.18 L2352.76 47.2441 L149.191 47.2441  Z" fill="#ffffff" fill-rule="evenodd" fill-opacity="1"/>
<polyline clip-path="url(#clip041)" style="stroke:#000000; stroke-linecap:round; stroke-linejoin:round; stroke-width:2; stroke-opacity:0.1; fill:none" points="149.191,1423.18 149.191,47.2441 "/>
<polyline clip-path="url(#clip041)" style="stroke:#000000; stroke-linecap:round; stroke-linejoin:round; stroke-width:2; stroke-opacity:0.1; fill:none" points="850.607,1423.18 850.607,47.2441 "/>
<polyline clip-path="url(#clip041)" style="stroke:#000000; stroke-linecap:round; stroke-linejoin:round; stroke-width:2; stroke-opacity:0.1; fill:none" points="1552.02,1423.18 1552.02,47.2441 "/>
<polyline clip-path="url(#clip041)" style="stroke:#000000; stroke-linecap:round; stroke-linejoin:round; stroke-width:2; stroke-opacity:0.1; fill:none" points="2253.44,1423.18 2253.44,47.2441 "/>
<polyline clip-path="url(#clip041)" style="stroke:#000000; stroke-linecap:round; stroke-linejoin:round; stroke-width:2; stroke-opacity:0.1; fill:none" points="149.191,1279.92 2352.76,1279.92 "/>
<polyline clip-path="url(#clip041)" style="stroke:#000000; stroke-linecap:round; stroke-linejoin:round; stroke-width:2; stroke-opacity:0.1; fill:none" points="149.191,1013.08 2352.76,1013.08 "/>
<polyline clip-path="url(#clip041)" style="stroke:#000000; stroke-linecap:round; stroke-linejoin:round; stroke-width:2; stroke-opacity:0.1; fill:none" points="149.191,746.237 2352.76,746.237 "/>
<polyline clip-path="url(#clip041)" style="stroke:#000000; stroke-linecap:round; stroke-linejoin:round; stroke-width:2; stroke-opacity:0.1; fill:none" points="149.191,479.395 2352.76,479.395 "/>
<polyline clip-path="url(#clip041)" style="stroke:#000000; stroke-linecap:round; stroke-linejoin:round; stroke-width:2; stroke-opacity:0.1; fill:none" points="149.191,212.553 2352.76,212.553 "/>
<polyline clip-path="url(#clip040)" style="stroke:#000000; stroke-linecap:round; stroke-linejoin:round; stroke-width:4; stroke-opacity:1; fill:none" points="149.191,1423.18 2352.76,1423.18 "/>
<polyline clip-path="url(#clip040)" style="stroke:#000000; stroke-linecap:round; stroke-linejoin:round; stroke-width:4; stroke-opacity:1; fill:none" points="149.191,1423.18 149.191,1404.28 "/>
<polyline clip-path="url(#clip040)" style="stroke:#000000; stroke-linecap:round; stroke-linejoin:round; stroke-width:4; stroke-opacity:1; fill:none" points="850.607,1423.18 850.607,1404.28 "/>
<polyline clip-path="url(#clip040)" style="stroke:#000000; stroke-linecap:round; stroke-linejoin:round; stroke-width:4; stroke-opacity:1; fill:none" points="1552.02,1423.18 1552.02,1404.28 "/>
<polyline clip-path="url(#clip040)" style="stroke:#000000; stroke-linecap:round; stroke-linejoin:round; stroke-width:4; stroke-opacity:1; fill:none" points="2253.44,1423.18 2253.44,1404.28 "/>
<path clip-path="url(#clip040)" d="M126.575 1454.1 Q122.964 1454.1 121.135 1457.66 Q119.33 1461.2 119.33 1468.33 Q119.33 1475.44 121.135 1479.01 Q122.964 1482.55 126.575 1482.55 Q130.209 1482.55 132.015 1479.01 Q133.844 1475.44 133.844 1468.33 Q133.844 1461.2 132.015 1457.66 Q130.209 1454.1 126.575 1454.1 M126.575 1450.39 Q132.385 1450.39 135.441 1455 Q138.52 1459.58 138.52 1468.33 Q138.52 1477.06 135.441 1481.67 Q132.385 1486.25 126.575 1486.25 Q120.765 1486.25 117.686 1481.67 Q114.631 1477.06 114.631 1468.33 Q114.631 1459.58 117.686 1455 Q120.765 1450.39 126.575 1450.39 Z" fill="#000000" fill-rule="nonzero" fill-opacity="1" /><path clip-path="url(#clip040)" d="M146.737 1479.7 L151.621 1479.7 L151.621 1485.58 L146.737 1485.58 L146.737 1479.7 Z" fill="#000000" fill-rule="nonzero" fill-opacity="1" /><path clip-path="url(#clip040)" d="M171.806 1454.1 Q168.195 1454.1 166.367 1457.66 Q164.561 1461.2 164.561 1468.33 Q164.561 1475.44 166.367 1479.01 Q168.195 1482.55 171.806 1482.55 Q175.441 1482.55 177.246 1479.01 Q179.075 1475.44 179.075 1468.33 Q179.075 1461.2 177.246 1457.66 Q175.441 1454.1 171.806 1454.1 M171.806 1450.39 Q177.617 1450.39 180.672 1455 Q183.751 1459.58 183.751 1468.33 Q183.751 1477.06 180.672 1481.67 Q177.617 1486.25 171.806 1486.25 Q165.996 1486.25 162.918 1481.67 Q159.862 1477.06 159.862 1468.33 Q159.862 1459.58 162.918 1455 Q165.996 1450.39 171.806 1450.39 Z" fill="#000000" fill-rule="nonzero" fill-opacity="1" /><path clip-path="url(#clip040)" d="M828.489 1454.1 Q824.878 1454.1 823.05 1457.66 Q821.244 1461.2 821.244 1468.33 Q821.244 1475.44 823.05 1479.01 Q824.878 1482.55 828.489 1482.55 Q832.124 1482.55 833.929 1479.01 Q835.758 1475.44 835.758 1468.33 Q835.758 1461.2 833.929 1457.66 Q832.124 1454.1 828.489 1454.1 M828.489 1450.39 Q834.3 1450.39 837.355 1455 Q840.434 1459.58 840.434 1468.33 Q840.434 1477.06 837.355 1481.67 Q834.3 1486.25 828.489 1486.25 Q822.679 1486.25 819.601 1481.67 Q816.545 1477.06 816.545 1468.33 Q816.545 1459.58 819.601 1455 Q822.679 1450.39 828.489 1450.39 Z" fill="#000000" fill-rule="nonzero" fill-opacity="1" /><path clip-path="url(#clip040)" d="M848.651 1479.7 L853.536 1479.7 L853.536 1485.58 L848.651 1485.58 L848.651 1479.7 Z" fill="#000000" fill-rule="nonzero" fill-opacity="1" /><path clip-path="url(#clip040)" d="M863.767 1451.02 L882.123 1451.02 L882.123 1454.96 L868.049 1454.96 L868.049 1463.43 Q869.068 1463.08 870.086 1462.92 Q871.105 1462.73 872.123 1462.73 Q877.91 1462.73 881.29 1465.9 Q884.67 1469.08 884.67 1474.49 Q884.67 1480.07 881.198 1483.17 Q877.725 1486.25 871.406 1486.25 Q869.23 1486.25 866.961 1485.88 Q864.716 1485.51 862.309 1484.77 L862.309 1480.07 Q864.392 1481.2 866.614 1481.76 Q868.836 1482.32 871.313 1482.32 Q875.318 1482.32 877.656 1480.21 Q879.994 1478.1 879.994 1474.49 Q879.994 1470.88 877.656 1468.77 Q875.318 1466.67 871.313 1466.67 Q869.438 1466.67 867.563 1467.08 Q865.711 1467.5 863.767 1468.38 L863.767 1451.02 Z" fill="#000000" fill-rule="nonzero" fill-opacity="1" /><path clip-path="url(#clip040)" d="M1519.18 1481.64 L1526.82 1481.64 L1526.82 1455.28 L1518.51 1456.95 L1518.51 1452.69 L1526.77 1451.02 L1531.45 1451.02 L1531.45 1481.64 L1539.08 1481.64 L1539.08 1485.58 L1519.18 1485.58 L1519.18 1481.64 Z" fill="#000000" fill-rule="nonzero" fill-opacity="1" /><path clip-path="url(#clip040)" d="M1548.53 1479.7 L1553.41 1479.7 L1553.41 1485.58 L1548.53 1485.58 L1548.53 1479.7 Z" fill="#000000" fill-rule="nonzero" fill-opacity="1" /><path clip-path="url(#clip040)" d="M1573.6 1454.1 Q1569.99 1454.1 1568.16 1457.66 Q1566.35 1461.2 1566.35 1468.33 Q1566.35 1475.44 1568.16 1479.01 Q1569.99 1482.55 1573.6 1482.55 Q1577.23 1482.55 1579.04 1479.01 Q1580.87 1475.44 1580.87 1468.33 Q1580.87 1461.2 1579.04 1457.66 Q1577.23 1454.1 1573.6 1454.1 M1573.6 1450.39 Q1579.41 1450.39 1582.46 1455 Q1585.54 1459.58 1585.54 1468.33 Q1585.54 1477.06 1582.46 1481.67 Q1579.41 1486.25 1573.6 1486.25 Q1567.79 1486.25 1564.71 1481.67 Q1561.65 1477.06 1561.65 1468.33 Q1561.65 1459.58 1564.71 1455 Q1567.79 1450.39 1573.6 1450.39 Z" fill="#000000" fill-rule="nonzero" fill-opacity="1" /><path clip-path="url(#clip040)" d="M2221.09 1481.64 L2228.73 1481.64 L2228.73 1455.28 L2220.42 1456.95 L2220.42 1452.69 L2228.68 1451.02 L2233.36 1451.02 L2233.36 1481.64 L2241 1481.64 L2241 1485.58 L2221.09 1485.58 L2221.09 1481.64 Z" fill="#000000" fill-rule="nonzero" fill-opacity="1" /><path clip-path="url(#clip040)" d="M2250.44 1479.7 L2255.33 1479.7 L2255.33 1485.58 L2250.44 1485.58 L2250.44 1479.7 Z" fill="#000000" fill-rule="nonzero" fill-opacity="1" /><path clip-path="url(#clip040)" d="M2265.56 1451.02 L2283.91 1451.02 L2283.91 1454.96 L2269.84 1454.96 L2269.84 1463.43 Q2270.86 1463.08 2271.88 1462.92 Q2272.9 1462.73 2273.91 1462.73 Q2279.7 1462.73 2283.08 1465.9 Q2286.46 1469.08 2286.46 1474.49 Q2286.46 1480.07 2282.99 1483.17 Q2279.52 1486.25 2273.2 1486.25 Q2271.02 1486.25 2268.75 1485.88 Q2266.51 1485.51 2264.1 1484.77 L2264.1 1480.07 Q2266.18 1481.2 2268.41 1481.76 Q2270.63 1482.32 2273.1 1482.32 Q2277.11 1482.32 2279.45 1480.21 Q2281.79 1478.1 2281.79 1474.49 Q2281.79 1470.88 2279.45 1468.77 Q2277.11 1466.67 2273.1 1466.67 Q2271.23 1466.67 2269.35 1467.08 Q2267.5 1467.5 2265.56 1468.38 L2265.56 1451.02 Z" fill="#000000" fill-rule="nonzero" fill-opacity="1" /><path clip-path="url(#clip040)" d="M1250.03 1522.27 L1250.03 1532.4 L1262.1 1532.4 L1262.1 1536.95 L1250.03 1536.95 L1250.03 1556.3 Q1250.03 1560.66 1251.21 1561.9 Q1252.42 1563.14 1256.08 1563.14 L1262.1 1563.14 L1262.1 1568.04 L1256.08 1568.04 Q1249.3 1568.04 1246.72 1565.53 Q1244.15 1562.98 1244.15 1556.3 L1244.15 1536.95 L1239.85 1536.95 L1239.85 1532.4 L1244.15 1532.4 L1244.15 1522.27 L1250.03 1522.27 Z" fill="#000000" fill-rule="nonzero" fill-opacity="1" /><polyline clip-path="url(#clip040)" style="stroke:#000000; stroke-linecap:round; stroke-linejoin:round; stroke-width:4; stroke-opacity:1; fill:none" points="149.191,1423.18 149.191,47.2441 "/>
<polyline clip-path="url(#clip040)" style="stroke:#000000; stroke-linecap:round; stroke-linejoin:round; stroke-width:4; stroke-opacity:1; fill:none" points="149.191,1279.92 168.089,1279.92 "/>
<polyline clip-path="url(#clip040)" style="stroke:#000000; stroke-linecap:round; stroke-linejoin:round; stroke-width:4; stroke-opacity:1; fill:none" points="149.191,1013.08 168.089,1013.08 "/>
<polyline clip-path="url(#clip040)" style="stroke:#000000; stroke-linecap:round; stroke-linejoin:round; stroke-width:4; stroke-opacity:1; fill:none" points="149.191,746.237 168.089,746.237 "/>
<polyline clip-path="url(#clip040)" style="stroke:#000000; stroke-linecap:round; stroke-linejoin:round; stroke-width:4; stroke-opacity:1; fill:none" points="149.191,479.395 168.089,479.395 "/>
<polyline clip-path="url(#clip040)" style="stroke:#000000; stroke-linecap:round; stroke-linejoin:round; stroke-width:4; stroke-opacity:1; fill:none" points="149.191,212.553 168.089,212.553 "/>
<path clip-path="url(#clip040)" d="M50.9921 1280.37 L80.6679 1280.37 L80.6679 1284.31 L50.9921 1284.31 L50.9921 1280.37 Z" fill="#000000" fill-rule="nonzero" fill-opacity="1" /><path clip-path="url(#clip040)" d="M103.608 1266.71 L91.8021 1285.16 L103.608 1285.16 L103.608 1266.71 M102.381 1262.64 L108.26 1262.64 L108.26 1285.16 L113.191 1285.16 L113.191 1289.05 L108.26 1289.05 L108.26 1297.2 L103.608 1297.2 L103.608 1289.05 L88.0058 1289.05 L88.0058 1284.54 L102.381 1262.64 Z" fill="#000000" fill-rule="nonzero" fill-opacity="1" /><path clip-path="url(#clip040)" d="M53.0754 1013.53 L82.7512 1013.53 L82.7512 1017.47 L53.0754 1017.47 L53.0754 1013.53 Z" fill="#000000" fill-rule="nonzero" fill-opacity="1" /><path clip-path="url(#clip040)" d="M96.8715 1026.42 L113.191 1026.42 L113.191 1030.36 L91.2465 1030.36 L91.2465 1026.42 Q93.9086 1023.67 98.4919 1019.04 Q103.098 1014.39 104.279 1013.04 Q106.524 1010.52 107.404 1008.78 Q108.307 1007.03 108.307 1005.34 Q108.307 1002.58 106.362 1000.85 Q104.441 999.109 101.339 999.109 Q99.14 999.109 96.6863 999.873 Q94.2558 1000.64 91.478 1002.19 L91.478 997.466 Q94.3021 996.331 96.7558 995.753 Q99.2095 995.174 101.246 995.174 Q106.617 995.174 109.811 997.859 Q113.006 1000.54 113.006 1005.03 Q113.006 1007.16 112.196 1009.09 Q111.408 1010.98 109.302 1013.58 Q108.723 1014.25 105.621 1017.47 Q102.52 1020.66 96.8715 1026.42 Z" fill="#000000" fill-rule="nonzero" fill-opacity="1" /><path clip-path="url(#clip040)" d="M101.246 732.036 Q97.6354 732.036 95.8067 735.601 Q94.0012 739.142 94.0012 746.272 Q94.0012 753.378 95.8067 756.943 Q97.6354 760.485 101.246 760.485 Q104.881 760.485 106.686 756.943 Q108.515 753.378 108.515 746.272 Q108.515 739.142 106.686 735.601 Q104.881 732.036 101.246 732.036 M101.246 728.332 Q107.057 728.332 110.112 732.939 Q113.191 737.522 113.191 746.272 Q113.191 754.999 110.112 759.605 Q107.057 764.188 101.246 764.188 Q95.4363 764.188 92.3576 759.605 Q89.3021 754.999 89.3021 746.272 Q89.3021 737.522 92.3576 732.939 Q95.4363 728.332 101.246 728.332 Z" fill="#000000" fill-rule="nonzero" fill-opacity="1" /><path clip-path="url(#clip040)" d="M96.8715 492.74 L113.191 492.74 L113.191 496.675 L91.2465 496.675 L91.2465 492.74 Q93.9086 489.985 98.4919 485.356 Q103.098 480.703 104.279 479.361 Q106.524 476.837 107.404 475.101 Q108.307 473.342 108.307 471.652 Q108.307 468.898 106.362 467.162 Q104.441 465.425 101.339 465.425 Q99.14 465.425 96.6863 466.189 Q94.2558 466.953 91.478 468.504 L91.478 463.782 Q94.3021 462.648 96.7558 462.069 Q99.2095 461.49 101.246 461.49 Q106.617 461.49 109.811 464.175 Q113.006 466.861 113.006 471.351 Q113.006 473.481 112.196 475.402 Q111.408 477.3 109.302 479.893 Q108.723 480.564 105.621 483.782 Q102.52 486.976 96.8715 492.74 Z" fill="#000000" fill-rule="nonzero" fill-opacity="1" /><path clip-path="url(#clip040)" d="M103.608 199.347 L91.8021 217.796 L103.608 217.796 L103.608 199.347 M102.381 195.273 L108.26 195.273 L108.26 217.796 L113.191 217.796 L113.191 221.685 L108.26 221.685 L108.26 229.833 L103.608 229.833 L103.608 221.685 L88.0058 221.685 L88.0058 217.171 L102.381 195.273 Z" fill="#000000" fill-rule="nonzero" fill-opacity="1" /><polyline clip-path="url(#clip041)" style="stroke:#009af9; stroke-linecap:round; stroke-linejoin:round; stroke-width:4; stroke-opacity:1; fill:none" points="149.191,965.233 150.267,965.057 151.343,964.957 152.419,964.857 153.495,964.756 154.571,964.653 155.647,964.55 156.723,964.445 157.799,964.339 158.875,964.233 159.95,964.125 161.026,964.016 162.102,963.907 163.178,963.797 164.254,963.686 165.33,963.574 166.406,963.461 167.482,963.347 168.558,963.233 169.634,963.117 170.71,963.001 171.786,962.883 172.862,962.765 173.938,962.646 175.014,962.526 176.09,962.405 177.166,962.283 178.242,962.16 179.318,962.036 180.394,961.911 181.47,961.785 182.546,961.659 183.622,961.531 184.698,961.402 185.773,961.273 186.849,961.143 187.925,961.011 189.001,960.879 190.077,960.746 191.153,960.612 192.229,960.477 193.305,960.341 194.381,960.204 195.457,960.066 196.533,959.927 197.609,959.787 198.685,959.647 199.761,959.505 200.837,959.363 201.913,959.219 202.989,959.075 204.065,958.93 205.141,958.784 206.217,958.636 207.293,958.488 208.369,958.339 209.445,958.19 210.521,958.039 211.597,957.887 212.672,957.734 213.748,957.581 214.824,957.426 215.9,957.271 216.976,957.115 218.052,956.957 219.128,956.799 220.204,956.64 221.28,956.48 222.356,956.319 223.432,956.157 224.508,955.994 225.584,955.83 226.66,955.666 227.736,955.5 228.812,955.333 229.888,955.166 230.964,954.998 232.04,954.828 233.116,954.658 234.192,954.487 235.268,954.315 236.344,954.142 237.42,953.968 238.496,953.793 239.571,953.617 240.647,953.44 241.723,953.263 242.799,953.084 243.875,952.905 244.951,952.724 246.027,952.543 247.103,952.361 248.179,952.178 249.255,951.994 250.331,951.809 251.407,951.623 252.483,951.436 253.559,951.248 254.635,951.059 255.711,950.87 256.787,950.679 257.863,950.488 258.939,950.295 260.015,950.102 261.091,949.908 262.167,949.712 263.243,949.516 264.319,949.319 265.394,949.122 266.47,948.923 267.546,948.723 268.622,948.522 269.698,948.321 270.774,948.118 271.85,947.915 272.926,947.71 274.002,947.505 275.078,947.299 276.154,947.092 277.23,946.884 278.306,946.675 279.382,946.465 280.458,946.254 281.534,946.043 282.61,945.83 283.686,945.616 284.762,945.402 285.838,945.187 286.914,944.97 287.99,944.753 289.066,944.535 290.142,944.316 291.218,944.096 292.293,943.875 293.369,943.654 294.445,943.431 295.521,943.208 296.597,942.983 297.673,942.758 298.749,942.531 299.825,942.304 300.901,942.076 301.977,941.847 303.053,941.617 304.129,941.386 305.205,941.155 306.281,940.922 307.357,940.688 308.433,940.454 309.509,940.218 310.585,939.982 311.661,939.745 312.737,939.507 313.813,939.268 314.889,939.028 315.965,938.787 317.041,938.545 318.117,938.303 319.192,938.059 320.268,937.815 321.344,937.57 322.42,937.323 323.496,937.076 324.572,936.828 325.648,936.579 326.724,936.329 327.8,936.079 328.876,935.827 329.952,935.575 331.028,935.321 332.104,935.067 333.18,934.812 334.256,934.556 335.332,934.299 336.408,934.041 337.484,933.782 338.56,933.522 339.636,933.262 340.712,933 341.788,932.738 342.864,932.474 343.94,932.21 345.015,931.945 346.091,931.679 347.167,931.413 348.243,931.145 349.319,930.876 350.395,930.607 351.471,930.336 352.547,930.065 353.623,929.793 354.699,929.52 355.775,929.246 356.851,928.971 357.927,928.696 359.003,928.419 360.079,928.142 361.155,927.863 362.231,927.584 363.307,927.304 364.383,927.023 365.459,926.741 366.535,926.458 367.611,926.175 368.687,925.89 369.763,925.605 370.839,925.319 371.914,925.032 372.99,924.744 374.066,924.455 375.142,924.165 376.218,923.875 377.294,923.583 378.37,923.291 379.446,922.998 380.522,922.703 381.598,922.409 382.674,922.113 383.75,921.816 384.826,921.519 385.902,921.22 386.978,920.921 388.054,920.621 389.13,920.32 390.206,920.018 391.282,919.715 392.358,919.412 393.434,919.107 394.51,918.802 395.586,918.496 396.662,918.189 397.738,917.881 398.813,917.572 399.889,917.263 400.965,916.952 402.041,916.641 403.117,916.329 404.193,916.016 405.269,915.702 406.345,915.388 407.421,915.072 408.497,914.756 409.573,914.439 410.649,914.121 411.725,913.802 412.801,913.482 413.877,913.162 414.953,912.84 416.029,912.518 417.105,912.195 418.181,911.871 419.257,911.546 420.333,911.221 421.409,910.894 422.485,910.567 423.561,910.239 424.636,909.91 425.712,909.58 426.788,909.25 427.864,908.918 428.94,908.586 430.016,908.253 431.092,907.919 432.168,907.584 433.244,907.249 434.32,906.913 435.396,906.575 436.472,906.237 437.548,905.899 438.624,905.559 439.7,905.219 440.776,904.877 441.852,904.535 442.928,904.192 444.004,903.849 445.08,903.504 446.156,903.159 447.232,902.813 448.308,902.466 449.384,902.118 450.46,901.77 451.535,901.42 452.611,901.07 453.687,900.719 454.763,900.368 455.839,900.015 456.915,899.662 457.991,899.308 459.067,898.953 460.143,898.597 461.219,898.241 462.295,897.883 463.371,897.525 464.447,897.166 465.523,896.807 466.599,896.446 467.675,896.085 468.751,895.723 469.827,895.36 470.903,894.997 471.979,894.632 473.055,894.267 474.131,893.901 475.207,893.535 476.283,893.167 477.359,892.799 478.434,892.43 479.51,892.06 480.586,891.69 481.662,891.319 482.738,890.947 483.814,890.574 484.89,890.2 485.966,889.826 487.042,889.451 488.118,889.075 489.194,888.698 490.27,888.321 491.346,887.943 492.422,887.564 493.498,887.185 494.574,886.804 495.65,886.423 496.726,886.041 497.802,885.659 498.878,885.275 499.954,884.891 501.03,884.506 502.106,884.121 503.182,883.735 504.257,883.348 505.333,882.96 506.409,882.571 507.485,882.182 508.561,881.792 509.637,881.402 510.713,881.01 511.789,880.618 512.865,880.225 513.941,879.832 515.017,879.437 516.093,879.042 517.169,878.647 518.245,878.25 519.321,877.853 520.397,877.455 521.473,877.057 522.549,876.657 523.625,876.257 524.701,875.857 525.777,875.455 526.853,875.053 527.929,874.651 529.005,874.247 530.081,873.843 531.156,873.438 532.232,873.033 533.308,872.626 534.384,872.219 535.46,871.812 536.536,871.404 537.612,870.995 538.688,870.585 539.764,870.175 540.84,869.764 541.916,869.352 542.992,868.94 544.068,868.527 545.144,868.113 546.22,867.698 547.296,867.283 548.372,866.868 549.448,866.451 550.524,866.034 551.6,865.617 552.676,865.198 553.752,864.779 554.828,864.36 555.904,863.94 556.98,863.519 558.055,863.097 559.131,862.675 560.207,862.252 561.283,861.828 562.359,861.404 563.435,860.979 564.511,860.554 565.587,860.128 566.663,859.701 567.739,859.274 568.815,858.846 569.891,858.418 570.967,857.988 572.043,857.559 573.119,857.128 574.195,856.697 575.271,856.265 576.347,855.833 577.423,855.4 578.499,854.967 579.575,854.533 580.651,854.098 581.727,853.663 582.803,853.227 583.879,852.79 584.954,852.353 586.03,851.916 587.106,851.477 588.182,851.038 589.258,850.599 590.334,850.159 591.41,849.718 592.486,849.277 593.562,848.835 594.638,848.393 595.714,847.95 596.79,847.506 597.866,847.062 598.942,846.618 600.018,846.173 601.094,845.727 602.17,845.28 603.246,844.834 604.322,844.386 605.398,843.938 606.474,843.49 607.55,843.04 608.626,842.591 609.702,842.141 610.777,841.69 611.853,841.239 612.929,840.787 614.005,840.334 615.081,839.882 616.157,839.428 617.233,838.974 618.309,838.52 619.385,838.065 620.461,837.609 621.537,837.153 622.613,836.697 623.689,836.24 624.765,835.782 625.841,835.324 626.917,834.865 627.993,834.406 629.069,833.947 630.145,833.486 631.221,833.026 632.297,832.565 633.373,832.103 634.449,831.641 635.525,831.179 636.601,830.715 637.676,830.252 638.752,829.788 639.828,829.323 640.904,828.858 641.98,828.393 643.056,827.927 644.132,827.461 645.208,826.994 646.284,826.526 647.36,826.059 648.436,825.59 649.512,825.122 650.588,824.653 651.664,824.183 652.74,823.713 653.816,823.242 654.892,822.772 655.968,822.3 657.044,821.828 658.12,821.356 659.196,820.883 660.272,820.41 661.348,819.937 662.424,819.463 663.5,818.988 664.575,818.514 665.651,818.038 666.727,817.563 667.803,817.087 668.879,816.61 669.955,816.133 671.031,815.656 672.107,815.178 673.183,814.7 674.259,814.222 675.335,813.743 676.411,813.264 677.487,812.784 678.563,812.304 679.639,811.823 680.715,811.343 681.791,810.861 682.867,810.38 683.943,809.898 685.019,809.416 686.095,808.933 687.171,808.45 688.247,807.967 689.323,807.483 690.398,806.999 691.474,806.514 692.55,806.029 693.626,805.544 694.702,805.059 695.778,804.573 696.854,804.087 697.93,803.6 699.006,803.113 700.082,802.626 701.158,802.139 702.234,801.651 703.31,801.163 704.386,800.674 705.462,800.185 706.538,799.696 707.614,799.207 708.69,798.717 709.766,798.227 710.842,797.737 711.918,797.246 712.994,796.755 714.07,796.264 715.146,795.772 716.222,795.28 717.297,794.788 718.373,794.296 719.449,793.803 720.525,793.31 721.601,792.817 722.677,792.323 723.753,791.83 724.829,791.336 725.905,790.841 726.981,790.347 728.057,789.852 729.133,789.357 730.209,788.861 731.285,788.366 732.361,787.87 733.437,787.374 734.513,786.877 735.589,786.381 736.665,785.884 737.741,785.387 738.817,784.89 739.893,784.392 740.969,783.895 742.045,783.397 743.121,782.898 744.196,782.4 745.272,781.901 746.348,781.403 747.424,780.904 748.5,780.404 749.576,779.905 750.652,779.405 751.728,778.906 752.804,778.406 753.88,777.905 754.956,777.405 756.032,776.904 757.108,776.404 758.184,775.903 759.26,775.402 760.336,774.9 761.412,774.399 762.488,773.897 763.564,773.396 764.64,772.894 765.716,772.392 766.792,771.889 767.868,771.387 768.944,770.885 770.019,770.382 771.095,769.879 772.171,769.376 773.247,768.873 774.323,768.37 775.399,767.866 776.475,767.363 777.551,766.859 778.627,766.356 779.703,765.852 780.779,765.348 781.855,764.844 782.931,764.339 784.007,763.835 785.083,763.331 786.159,762.826 787.235,762.322 788.311,761.817 789.387,761.312 790.463,760.807 791.539,760.302 792.615,759.797 793.691,759.292 794.767,758.787 795.843,758.282 796.918,757.776 797.994,757.271 799.07,756.765 800.146,756.26 801.222,755.754 802.298,755.249 803.374,754.743 804.45,754.237 805.526,753.731 806.602,753.225 807.678,752.719 808.754,752.213 809.83,751.708 810.906,751.202 811.982,750.695 813.058,750.189 814.134,749.683 815.21,749.177 816.286,748.671 817.362,748.165 818.438,747.659 819.514,747.153 820.59,746.646 821.666,746.14 822.742,745.634 823.817,745.128 824.893,744.622 825.969,744.116 827.045,743.609 828.121,743.103 829.197,742.597 830.273,742.091 831.349,741.585 832.425,741.079 833.501,740.573 834.577,740.067 835.653,739.561 836.729,739.055 837.805,738.549 838.881,738.043 839.957,737.538 841.033,737.032 842.109,736.526 843.185,736.021 844.261,735.515 845.337,735.009 846.413,734.504 847.489,733.999 848.565,733.493 849.64,732.988 850.716,732.483 851.792,731.978 852.868,731.473 853.944,730.968 855.02,730.463 856.096,729.958 857.172,729.454 858.248,728.949 859.324,728.445 860.4,727.941 861.476,727.436 862.552,726.932 863.628,726.428 864.704,725.924 865.78,725.421 866.856,724.917 867.932,724.413 869.008,723.91 870.084,723.407 871.16,722.903 872.236,722.4 873.312,721.898 874.388,721.395 875.464,720.892 876.539,720.39 877.615,719.887 878.691,719.385 879.767,718.883 880.843,718.381 881.919,717.88 882.995,717.378 884.071,716.877 885.147,716.376 886.223,715.875 887.299,715.374 888.375,714.873 889.451,714.373 890.527,713.872 891.603,713.372 892.679,712.872 893.755,712.373 894.831,711.873 895.907,711.374 896.983,710.875 898.059,710.376 899.135,709.877 900.211,709.378 901.287,708.88 902.363,708.382 903.438,707.884 904.514,707.386 905.59,706.889 906.666,706.392 907.742,705.895 908.818,705.398 909.894,704.901 910.97,704.405 912.046,703.909 913.122,703.413 914.198,702.918 915.274,702.422 916.35,701.927 917.426,701.432 918.502,700.938 919.578,700.443 920.654,699.949 921.73,699.456 922.806,698.962 923.882,698.469 924.958,697.976 926.034,697.483 927.11,696.991 928.186,696.498 929.261,696.006 930.337,695.515 931.413,695.024 932.489,694.532 933.565,694.042 934.641,693.551 935.717,693.061 936.793,692.571 937.869,692.082 938.945,691.592 940.021,691.104 941.097,690.615 942.173,690.127 943.249,689.639 944.325,689.151 945.401,688.664 946.477,688.176 947.553,687.69 948.629,687.203 949.705,686.717 950.781,686.232 951.857,685.746 952.933,685.261 954.009,684.776 955.085,684.292 956.16,683.808 957.236,683.324 958.312,682.841 959.388,682.358 960.464,681.875 961.54,681.393 962.616,680.911 963.692,680.43 964.768,679.949 965.844,679.468 966.92,678.987 967.996,678.507 969.072,678.028 970.148,677.548 971.224,677.069 972.3,676.591 973.376,676.113 974.452,675.635 975.528,675.158 976.604,674.681 977.68,674.204 978.756,673.728 979.832,673.252 980.908,672.777 981.984,672.302 983.059,671.827 984.135,671.353 985.211,670.879 986.287,670.406 987.363,669.933 988.439,669.46 989.515,668.988 990.591,668.517 991.667,668.045 992.743,667.575 993.819,667.104 994.895,666.634 995.971,666.165 997.047,665.696 998.123,665.227 999.199,664.759 1000.27,664.291 1001.35,663.824 1002.43,663.357 1003.5,662.891 1004.58,662.425 1005.65,661.959 1006.73,661.494 1007.81,661.03 1008.88,660.566 1009.96,660.102 1011.03,659.639 1012.11,659.176 1013.19,658.714 1014.26,658.252 1015.34,657.791 1016.41,657.33 1017.49,656.87 1018.57,656.41 1019.64,655.951 1020.72,655.492 1021.79,655.033 1022.87,654.575 1023.95,654.118 1025.02,653.661 1026.1,653.205 1027.17,652.749 1028.25,652.293 1029.33,651.839 1030.4,651.384 1031.48,650.93 1032.55,650.477 1033.63,650.024 1034.71,649.572 1035.78,649.12 1036.86,648.669 1037.93,648.218 1039.01,647.767 1040.09,647.318 1041.16,646.868 1042.24,646.42 1043.31,645.972 1044.39,645.524 1045.47,645.077 1046.54,644.63 1047.62,644.184 1048.69,643.739 1049.77,643.294 1050.84,642.85 1051.92,642.406 1053,641.962 1054.07,641.52 1055.15,641.077 1056.22,640.636 1057.3,640.195 1058.38,639.754 1059.45,639.314 1060.53,638.875 1061.6,638.436 1062.68,637.998 1063.76,637.56 1064.83,637.123 1065.91,636.686 1066.98,636.25 1068.06,635.815 1069.14,635.38 1070.21,634.946 1071.29,634.512 1072.36,634.079 1073.44,633.647 1074.52,633.215 1075.59,632.783 1076.67,632.353 1077.74,631.922 1078.82,631.493 1079.9,631.064 1080.97,630.636 1082.05,630.208 1083.12,629.781 1084.2,629.354 1085.28,628.928 1086.35,628.503 1087.43,628.078 1088.5,627.654 1089.58,627.23 1090.66,626.808 1091.73,626.385 1092.81,625.964 1093.88,625.543 1094.96,625.122 1096.04,624.702 1097.11,624.283 1098.19,623.864 1099.26,623.447 1100.34,623.029 1101.42,622.613 1102.49,622.197 1103.57,621.781 1104.64,621.366 1105.72,620.952 1106.79,620.539 1107.87,620.126 1108.95,619.714 1110.02,619.302 1111.1,618.891 1112.17,618.481 1113.25,618.071 1114.33,617.662 1115.4,617.254 1116.48,616.846 1117.55,616.439 1118.63,616.033 1119.71,615.627 1120.78,615.222 1121.86,614.818 1122.93,614.414 1124.01,614.011 1125.09,613.608 1126.16,613.207 1127.24,612.806 1128.31,612.405 1129.39,612.005 1130.47,611.606 1131.54,611.208 1132.62,610.81 1133.69,610.413 1134.77,610.017 1135.85,609.621 1136.92,609.226 1138,608.832 1139.07,608.438 1140.15,608.045 1141.23,607.653 1142.3,607.262 1143.38,606.871 1144.45,606.481 1145.53,606.091 1146.61,605.702 1147.68,605.314 1148.76,604.927 1149.83,604.54 1150.91,604.154 1151.99,603.769 1153.06,603.384 1154.14,603 1155.21,602.617 1156.29,602.235 1157.36,601.853 1158.44,601.472 1159.52,601.092 1160.59,600.712 1161.67,600.333 1162.74,599.955 1163.82,599.577 1164.9,599.201 1165.97,598.825 1167.05,598.449 1168.12,598.075 1169.2,597.701 1170.28,597.328 1171.35,596.955 1172.43,596.584 1173.5,596.213 1174.58,595.842 1175.66,595.473 1176.73,595.104 1177.81,594.736 1178.88,594.369 1179.96,594.002 1181.04,593.636 1182.11,593.271 1183.19,592.907 1184.26,592.543 1185.34,592.18 1186.42,591.818 1187.49,591.457 1188.57,591.096 1189.64,590.736 1190.72,590.377 1191.8,590.019 1192.87,589.661 1193.95,589.304 1195.02,588.948 1196.1,588.592 1197.18,588.238 1198.25,587.884 1199.33,587.531 1200.4,587.178 1201.48,586.827 1202.56,586.476 1203.63,586.126 1204.71,585.776 1205.78,585.428 1206.86,585.08 1207.94,584.733 1209.01,584.387 1210.09,584.041 1211.16,583.696 1212.24,583.352 1213.31,583.009 1214.39,582.667 1215.47,582.325 1216.54,581.984 1217.62,581.644 1218.69,581.305 1219.77,580.966 1220.85,580.629 1221.92,580.291 1223,579.955 1224.07,579.62 1225.15,579.285 1226.23,578.951 1227.3,578.618 1228.38,578.286 1229.45,577.954 1230.53,577.624 1231.61,577.294 1232.68,576.965 1233.76,576.636 1234.83,576.309 1235.91,575.982 1236.99,575.656 1238.06,575.331 1239.14,575.006 1240.21,574.683 1241.29,574.36 1242.37,574.038 1243.44,573.717 1244.52,573.396 1245.59,573.077 1246.67,572.758 1247.75,572.44 1248.82,572.122 1249.9,571.806 1250.97,571.49 1252.05,571.176 1253.13,570.862 1254.2,570.548 1255.28,570.236 1256.35,569.925 1257.43,569.614 1258.51,569.304 1259.58,568.995 1260.66,568.686 1261.73,568.379 1262.81,568.072 1263.88,567.766 1264.96,567.461 1266.04,567.157 1267.11,566.854 1268.19,566.551 1269.26,566.249 1270.34,565.948 1271.42,565.648 1272.49,565.349 1273.57,565.05 1274.64,564.752 1275.72,564.456 1276.8,564.16 1277.87,563.864 1278.95,563.57 1280.02,563.276 1281.1,562.984 1282.18,562.692 1283.25,562.401 1284.33,562.11 1285.4,561.821 1286.48,561.532 1287.56,561.245 1288.63,560.958 1289.71,560.672 1290.78,560.386 1291.86,560.102 1292.94,559.818 1294.01,559.536 1295.09,559.254 1296.16,558.973 1297.24,558.692 1298.32,558.413 1299.39,558.134 1300.47,557.857 1301.54,557.58 1302.62,557.304 1303.7,557.029 1304.77,556.754 1305.85,556.481 1306.92,556.208 1308,555.936 1309.08,555.665 1310.15,555.395 1311.23,555.126 1312.3,554.858 1313.38,554.59 1314.45,554.323 1315.53,554.057 1316.61,553.792 1317.68,553.528 1318.76,553.265 1319.83,553.002 1320.91,552.741 1321.99,552.48 1323.06,552.22 1324.14,551.961 1325.21,551.703 1326.29,551.445 1327.37,551.189 1328.44,550.933 1329.52,550.679 1330.59,550.425 1331.67,550.172 1332.75,549.919 1333.82,549.668 1334.9,549.418 1335.97,549.168 1337.05,548.919 1338.13,548.671 1339.2,548.424 1340.28,548.178 1341.35,547.933 1342.43,547.688 1343.51,547.445 1344.58,547.202 1345.66,546.96 1346.73,546.719 1347.81,546.479 1348.89,546.24 1349.96,546.001 1351.04,545.764 1352.11,545.527 1353.19,545.292 1354.27,545.057 1355.34,544.823 1356.42,544.589 1357.49,544.357 1358.57,544.126 1359.65,543.895 1360.72,543.666 1361.8,543.437 1362.87,543.209 1363.95,542.982 1365.03,542.756 1366.1,542.53 1367.18,542.306 1368.25,542.082 1369.33,541.86 1370.4,541.638 1371.48,541.417 1372.56,541.197 1373.63,540.978 1374.71,540.76 1375.78,540.542 1376.86,540.326 1377.94,540.11 1379.01,539.895 1380.09,539.681 1381.16,539.468 1382.24,539.256 1383.32,539.045 1384.39,538.835 1385.47,538.625 1386.54,538.417 1387.62,538.209 1388.7,538.002 1389.77,537.796 1390.85,537.591 1391.92,537.387 1393,537.184 1394.08,536.981 1395.15,536.78 1396.23,536.579 1397.3,536.38 1398.38,536.181 1399.46,535.983 1400.53,535.786 1401.61,535.59 1402.68,535.394 1403.76,535.2 1404.84,535.006 1405.91,534.814 1406.99,534.622 1408.06,534.431 1409.14,534.241 1410.22,534.052 1411.29,533.864 1412.37,533.677 1413.44,533.491 1414.52,533.305 1415.6,533.12 1416.67,532.937 1417.75,532.754 1418.82,532.572 1419.9,532.391 1420.97,532.211 1422.05,532.032 1423.13,531.854 1424.2,531.676 1425.28,531.5 1426.35,531.324 1427.43,531.149 1428.51,530.975 1429.58,530.802 1430.66,530.63 1431.73,530.459 1432.81,530.289 1433.89,530.12 1434.96,529.951 1436.04,529.784 1437.11,529.617 1438.19,529.451 1439.27,529.287 1440.34,529.123 1441.42,528.96 1442.49,528.798 1443.57,528.636 1444.65,528.476 1445.72,528.317 1446.8,528.158 1447.87,528 1448.95,527.844 1450.03,527.688 1451.1,527.533 1452.18,527.379 1453.25,527.226 1454.33,527.074 1455.41,526.922 1456.48,526.772 1457.56,526.622 1458.63,526.474 1459.71,526.326 1460.79,526.179 1461.86,526.034 1462.94,525.889 1464.01,525.745 1465.09,525.601 1466.17,525.459 1467.24,525.318 1468.32,525.177 1469.39,525.038 1470.47,524.899 1471.55,524.762 1472.62,524.625 1473.7,524.489 1474.77,524.354 1475.85,524.22 1476.92,524.087 1478,523.954 1479.08,523.823 1480.15,523.693 1481.23,523.563 1482.3,523.435 1483.38,523.307 1484.46,523.18 1485.53,523.054 1486.61,522.929 1487.68,522.805 1488.76,522.682 1489.84,522.56 1490.91,522.438 1491.99,522.318 1493.06,522.198 1494.14,522.08 1495.22,521.962 1496.29,521.845 1497.37,521.729 1498.44,521.614 1499.52,521.5 1500.6,521.387 1501.67,521.275 1502.75,521.164 1503.82,521.053 1504.9,520.944 1505.98,520.835 1507.05,520.728 1508.13,520.621 1509.2,520.515 1510.28,520.41 1511.36,520.306 1512.43,520.203 1513.51,520.101 1514.58,520 1515.66,519.899 1516.74,519.8 1517.81,519.701 1518.89,519.604 1519.96,519.507 1521.04,519.411 1522.12,519.316 1523.19,519.223 1524.27,519.129 1525.34,519.037 1526.42,518.946 1527.49,518.856 1528.57,518.767 1529.65,518.678 1530.72,518.591 1531.8,518.504 1532.87,518.418 1533.95,518.333 1535.03,518.25 1536.1,518.167 1537.18,518.085 1538.25,518.003 1539.33,517.923 1540.41,517.844 1541.48,517.765 1542.56,517.688 1543.63,517.611 1544.71,517.536 1545.79,517.461 1546.86,517.387 1547.94,517.314 1549.01,517.242 1550.09,517.171 1551.17,517.101 1552.24,517.032 1553.32,516.964 1554.39,516.896 1555.47,516.83 1556.55,516.764 1557.62,516.7 1558.7,516.636 1559.77,516.573 1560.85,516.511 1561.93,516.45 1563,516.39 1564.08,516.331 1565.15,516.273 1566.23,516.216 1567.31,516.159 1568.38,516.104 1569.46,516.049 1570.53,515.996 1571.61,515.943 1572.69,515.891 1573.76,515.84 1574.84,515.79 1575.91,515.741 1576.99,515.693 1578.07,515.646 1579.14,515.6 1580.22,515.554 1581.29,515.51 1582.37,515.466 1583.44,515.424 1584.52,515.382 1585.6,515.341 1586.67,515.302 1587.75,515.263 1588.82,515.225 1589.9,515.187 1590.98,515.151 1592.05,515.116 1593.13,515.082 1594.2,515.048 1595.28,515.016 1596.36,514.984 1597.43,514.953 1598.51,514.924 1599.58,514.895 1600.66,514.867 1601.74,514.84 1602.81,514.814 1603.89,514.789 1604.96,514.764 1606.04,514.741 1607.12,514.718 1608.19,514.697 1609.27,514.676 1610.34,514.657 1611.42,514.638 1612.5,514.62 1613.57,514.603 1614.65,514.587 1615.72,514.572 1616.8,514.558 1617.88,514.545 1618.95,514.532 1620.03,514.521 1621.1,514.51 1622.18,514.501 1623.26,514.492 1624.33,514.484 1625.41,514.477 1626.48,514.471 1627.56,514.466 1628.64,514.462 1629.71,514.459 1630.79,514.457 1631.86,514.456 1632.94,514.455 1634.01,514.456 1635.09,514.457 1636.17,514.459 1637.24,514.462 1638.32,514.467 1639.39,514.472 1640.47,514.478 1641.55,514.485 1642.62,514.492 1643.7,514.501 1644.77,514.511 1645.85,514.521 1646.93,514.533 1648,514.545 1649.08,514.558 1650.15,514.573 1651.23,514.588 1652.31,514.604 1653.38,514.621 1654.46,514.638 1655.53,514.657 1656.61,514.677 1657.69,514.698 1658.76,514.719 1659.84,514.741 1660.91,514.765 1661.99,514.789 1663.07,514.814 1664.14,514.84 1665.22,514.867 1666.29,514.895 1667.37,514.924 1668.45,514.954 1669.52,514.984 1670.6,515.016 1671.67,515.048 1672.75,515.082 1673.83,515.116 1674.9,515.151 1675.98,515.187 1677.05,515.224 1678.13,515.262 1679.21,515.301 1680.28,515.341 1681.36,515.381 1682.43,515.423 1683.51,515.466 1684.59,515.509 1685.66,515.553 1686.74,515.598 1687.81,515.645 1688.89,515.692 1689.96,515.74 1691.04,515.788 1692.12,515.838 1693.19,515.889 1694.27,515.94 1695.34,515.993 1696.42,516.046 1697.5,516.101 1698.57,516.156 1699.65,516.212 1700.72,516.269 1701.8,516.327 1702.88,516.386 1703.95,516.445 1705.03,516.506 1706.1,516.568 1707.18,516.63 1708.26,516.693 1709.33,516.758 1710.41,516.823 1711.48,516.889 1712.56,516.956 1713.64,517.024 1714.71,517.093 1715.79,517.162 1716.86,517.233 1717.94,517.305 1719.02,517.377 1720.09,517.45 1721.17,517.525 1722.24,517.6 1723.32,517.676 1724.4,517.753 1725.47,517.831 1726.55,517.909 1727.62,517.989 1728.7,518.07 1729.78,518.151 1730.85,518.233 1731.93,518.317 1733,518.401 1734.08,518.486 1735.16,518.572 1736.23,518.659 1737.31,518.747 1738.38,518.835 1739.46,518.925 1740.53,519.015 1741.61,519.107 1742.69,519.199 1743.76,519.292 1744.84,519.386 1745.91,519.481 1746.99,519.577 1748.07,519.674 1749.14,519.772 1750.22,519.87 1751.29,519.97 1752.37,520.07 1753.45,520.171 1754.52,520.273 1755.6,520.376 1756.67,520.48 1757.75,520.585 1758.83,520.691 1759.9,520.798 1760.98,520.905 1762.05,521.014 1763.13,521.123 1764.21,521.233 1765.28,521.344 1766.36,521.456 1767.43,521.569 1768.51,521.683 1769.59,521.798 1770.66,521.913 1771.74,522.03 1772.81,522.147 1773.89,522.266 1774.97,522.385 1776.04,522.505 1777.12,522.626 1778.19,522.748 1779.27,522.87 1780.35,522.994 1781.42,523.118 1782.5,523.244 1783.57,523.37 1784.65,523.497 1785.73,523.625 1786.8,523.754 1787.88,523.884 1788.95,524.015 1790.03,524.147 1791.11,524.279 1792.18,524.413 1793.26,524.547 1794.33,524.682 1795.41,524.818 1796.48,524.955 1797.56,525.093 1798.64,525.232 1799.71,525.371 1800.79,525.512 1801.86,525.653 1802.94,525.795 1804.02,525.939 1805.09,526.083 1806.17,526.228 1807.24,526.373 1808.32,526.52 1809.4,526.668 1810.47,526.816 1811.55,526.965 1812.62,527.116 1813.7,527.267 1814.78,527.419 1815.85,527.572 1816.93,527.725 1818,527.88 1819.08,528.036 1820.16,528.192 1821.23,528.349 1822.31,528.507 1823.38,528.666 1824.46,528.826 1825.54,528.987 1826.61,529.149 1827.69,529.311 1828.76,529.475 1829.84,529.639 1830.92,529.804 1831.99,529.97 1833.07,530.137 1834.14,530.305 1835.22,530.474 1836.3,530.643 1837.37,530.814 1838.45,530.985 1839.52,531.157 1840.6,531.33 1841.68,531.504 1842.75,531.679 1843.83,531.854 1844.9,532.031 1845.98,532.208 1847.05,532.387 1848.13,532.566 1849.21,532.746 1850.28,532.927 1851.36,533.108 1852.43,533.291 1853.51,533.475 1854.59,533.659 1855.66,533.844 1856.74,534.03 1857.81,534.217 1858.89,534.405 1859.97,534.594 1861.04,534.783 1862.12,534.974 1863.19,535.165 1864.27,535.357 1865.35,535.55 1866.42,535.744 1867.5,535.939 1868.57,536.134 1869.65,536.331 1870.73,536.528 1871.8,536.726 1872.88,536.925 1873.95,537.125 1875.03,537.326 1876.11,537.528 1877.18,537.73 1878.26,537.934 1879.33,538.138 1880.41,538.343 1881.49,538.549 1882.56,538.756 1883.64,538.963 1884.71,539.172 1885.79,539.381 1886.87,539.591 1887.94,539.803 1889.02,540.014 1890.09,540.227 1891.17,540.441 1892.25,540.655 1893.32,540.871 1894.4,541.087 1895.47,541.304 1896.55,541.522 1897.63,541.741 1898.7,541.96 1899.78,542.181 1900.85,542.402 1901.93,542.624 1903,542.847 1904.08,543.071 1905.16,543.296 1906.23,543.521 1907.31,543.748 1908.38,543.975 1909.46,544.203 1910.54,544.432 1911.61,544.662 1912.69,544.892 1913.76,545.124 1914.84,545.356 1915.92,545.589 1916.99,545.823 1918.07,546.058 1919.14,546.294 1920.22,546.53 1921.3,546.768 1922.37,547.006 1923.45,547.245 1924.52,547.485 1925.6,547.725 1926.68,547.967 1927.75,548.209 1928.83,548.453 1929.9,548.697 1930.98,548.942 1932.06,549.187 1933.13,549.434 1934.21,549.681 1935.28,549.929 1936.36,550.179 1937.44,550.428 1938.51,550.679 1939.59,550.931 1940.66,551.183 1941.74,551.436 1942.82,551.69 1943.89,551.945 1944.97,552.201 1946.04,552.458 1947.12,552.715 1948.2,552.973 1949.27,553.232 1950.35,553.492 1951.42,553.753 1952.5,554.014 1953.57,554.276 1954.65,554.54 1955.73,554.804 1956.8,555.068 1957.88,555.334 1958.95,555.6 1960.03,555.868 1961.11,556.136 1962.18,556.405 1963.26,556.674 1964.33,556.945 1965.41,557.216 1966.49,557.488 1967.56,557.761 1968.64,558.035 1969.71,558.31 1970.79,558.585 1971.87,558.861 1972.94,559.138 1974.02,559.416 1975.09,559.695 1976.17,559.975 1977.25,560.255 1978.32,560.536 1979.4,560.818 1980.47,561.101 1981.55,561.384 1982.63,561.668 1983.7,561.954 1984.78,562.239 1985.85,562.526 1986.93,562.814 1988.01,563.102 1989.08,563.391 1990.16,563.681 1991.23,563.972 1992.31,564.264 1993.39,564.556 1994.46,564.849 1995.54,565.143 1996.61,565.438 1997.69,565.733 1998.77,566.03 1999.84,566.327 2000.92,566.625 2001.99,566.924 2003.07,567.223 2004.15,567.524 2005.22,567.825 2006.3,568.127 2007.37,568.429 2008.45,568.733 2009.52,569.037 2010.6,569.342 2011.68,569.648 2012.75,569.955 2013.83,570.262 2014.9,570.57 2015.98,570.879 2017.06,571.189 2018.13,571.5 2019.21,571.811 2020.28,572.123 2021.36,572.436 2022.44,572.75 2023.51,573.064 2024.59,573.379 2025.66,573.695 2026.74,574.012 2027.82,574.33 2028.89,574.648 2029.97,574.967 2031.04,575.287 2032.12,575.608 2033.2,575.929 2034.27,576.251 2035.35,576.574 2036.42,576.898 2037.5,577.223 2038.58,577.548 2039.65,577.874 2040.73,578.201 2041.8,578.529 2042.88,578.857 2043.96,579.186 2045.03,579.516 2046.11,579.846 2047.18,580.178 2048.26,580.51 2049.34,580.843 2050.41,581.177 2051.49,581.511 2052.56,581.846 2053.64,582.182 2054.72,582.519 2055.79,582.856 2056.87,583.195 2057.94,583.533 2059.02,583.873 2060.09,584.214 2061.17,584.555 2062.25,584.897 2063.32,585.239 2064.4,585.583 2065.47,585.927 2066.55,586.272 2067.63,586.618 2068.7,586.964 2069.78,587.311 2070.85,587.659 2071.93,588.008 2073.01,588.357 2074.08,588.707 2075.16,589.058 2076.23,589.41 2077.31,589.762 2078.39,590.115 2079.46,590.469 2080.54,590.823 2081.61,591.178 2082.69,591.534 2083.77,591.891 2084.84,592.248 2085.92,592.607 2086.99,592.965 2088.07,593.325 2089.15,593.685 2090.22,594.046 2091.3,594.408 2092.37,594.771 2093.45,595.134 2094.53,595.498 2095.6,595.862 2096.68,596.228 2097.75,596.594 2098.83,596.96 2099.91,597.328 2100.98,597.696 2102.06,598.065 2103.13,598.434 2104.21,598.805 2105.29,599.176 2106.36,599.547 2107.44,599.92 2108.51,600.293 2109.59,600.667 2110.67,601.041 2111.74,601.417 2112.82,601.792 2113.89,602.169 2114.97,602.546 2116.04,602.924 2117.12,603.303 2118.2,603.682 2119.27,604.062 2120.35,604.443 2121.42,604.825 2122.5,605.207 2123.58,605.589 2124.65,605.973 2125.73,606.357 2126.8,606.742 2127.88,607.128 2128.96,607.514 2130.03,607.901 2131.11,608.288 2132.18,608.676 2133.26,609.065 2134.34,609.455 2135.41,609.845 2136.49,610.236 2137.56,610.628 2138.64,611.02 2139.72,611.413 2140.79,611.806 2141.87,612.201 2142.94,612.596 2144.02,612.991 2145.1,613.387 2146.17,613.784 2147.25,614.182 2148.32,614.58 2149.4,614.979 2150.48,615.378 2151.55,615.778 2152.63,616.179 2153.7,616.581 2154.78,616.983 2155.86,617.385 2156.93,617.789 2158.01,618.193 2159.08,618.597 2160.16,619.003 2161.24,619.409 2162.31,619.815 2163.39,620.222 2164.46,620.63 2165.54,621.039 2166.61,621.448 2167.69,621.857 2168.77,622.268 2169.84,622.679 2170.92,623.09 2171.99,623.503 2173.07,623.915 2174.15,624.329 2175.22,624.743 2176.3,625.158 2177.37,625.573 2178.45,625.989 2179.53,626.405 2180.6,626.822 2181.68,627.24 2182.75,627.659 2183.83,628.077 2184.91,628.497 2185.98,628.917 2187.06,629.338 2188.13,629.759 2189.21,630.181 2190.29,630.604 2191.36,631.027 2192.44,631.451 2193.51,631.875 2194.59,632.3 2195.67,632.725 2196.74,633.151 2197.82,633.578 2198.89,634.005 2199.97,634.433 2201.05,634.861 2202.12,635.29 2203.2,635.72 2204.27,636.15 2205.35,636.581 2206.43,637.012 2207.5,637.444 2208.58,637.876 2209.65,638.309 2210.73,638.743 2211.81,639.177 2212.88,639.611 2213.96,640.047 2215.03,640.482 2216.11,640.919 2217.19,641.355 2218.26,641.793 2219.34,642.231 2220.41,642.669 2221.49,643.108 2222.56,643.548 2223.64,643.988 2224.72,644.429 2225.79,644.87 2226.87,645.311 2227.94,645.754 2229.02,646.197 2230.1,646.64 2231.17,647.084 2232.25,647.528 2233.32,647.973 2234.4,648.418 2235.48,648.864 2236.55,649.311 2237.63,649.758 2238.7,650.205 2239.78,650.653 2240.86,651.102 2241.93,651.551 2243.01,652 2244.08,652.45 2245.16,652.901 2246.24,653.352 2247.31,653.803 2248.39,654.255 2249.46,654.708 2250.54,655.161 2251.62,655.614 2252.69,656.068 2253.77,656.522 2254.84,656.977 2255.92,657.433 2257,657.889 2258.07,658.345 2259.15,658.802 2260.22,659.259 2261.3,659.717 2262.38,660.175 2263.45,660.634 2264.53,661.093 2265.6,661.553 2266.68,662.013 2267.76,662.473 2268.83,662.934 2269.91,663.396 2270.98,663.858 2272.06,664.32 2273.13,664.783 2274.21,665.246 2275.29,665.71 2276.36,666.174 2277.44,666.638 2278.51,667.103 2279.59,667.569 2280.67,668.035 2281.74,668.501 2282.82,668.968 2283.89,669.435 2284.97,669.902 2286.05,670.37 2287.12,670.839 2288.2,671.307 2289.27,671.777 2290.35,672.246 2291.43,672.716 2292.5,673.187 2293.58,673.658 2294.65,674.129 2295.73,674.6 2296.81,675.073 2297.88,675.545 2298.96,676.018 2300.03,676.491 2301.11,676.965 2302.19,677.439 2303.26,677.913 2304.34,678.388 2305.41,678.863 2306.49,679.338 2307.57,679.814 2308.64,680.29 2309.72,680.767 2310.79,681.244 2311.87,681.721 2312.95,682.199 2314.02,682.677 2315.1,683.155 2316.17,683.634 2317.25,684.113 2318.33,684.592 2319.4,685.071 2320.48,685.551 2321.55,686.031 2322.63,686.511 2323.7,686.992 2324.78,687.472 2325.86,687.952 2326.93,688.433 2328.01,688.913 2329.08,689.393 2330.16,689.873 2331.24,690.352 2332.31,690.83 2333.39,691.308 2334.46,691.785 2335.54,692.261 2336.62,692.736 2337.69,693.209 2338.77,693.681 2339.84,694.151 2340.92,694.62 2342,695.086 2343.07,695.551 2344.15,696.014 2345.22,696.476 2346.3,696.935 2347.38,697.393 2348.45,697.849 2349.53,698.304 2350.6,698.757 2351.68,699.21 2352.76,699.663 "/>
<polyline clip-path="url(#clip041)" style="stroke:#e26f46; stroke-linecap:round; stroke-linejoin:round; stroke-width:4; stroke-opacity:1; fill:none" points="149.191,616.768 150.267,617.677 151.343,616.283 152.419,614.81 153.495,613.294 154.571,611.777 155.647,610.288 156.723,608.851 157.799,607.478 158.875,606.169 159.95,604.918 161.026,603.714 162.102,602.547 163.178,601.402 164.254,600.271 165.33,599.145 166.406,598.019 167.482,596.889 168.558,595.751 169.634,594.606 170.71,593.452 171.786,592.291 172.862,591.122 173.938,589.947 175.014,588.765 176.09,587.579 177.166,586.389 178.242,585.195 179.318,583.998 180.394,582.799 181.47,581.597 182.546,580.395 183.622,579.191 184.698,577.986 185.773,576.781 186.849,575.575 187.925,574.368 189.001,573.161 190.077,571.955 191.153,570.747 192.229,569.54 193.305,568.333 194.381,567.125 195.457,565.918 196.533,564.71 197.609,563.503 198.685,562.295 199.761,561.088 200.837,559.88 201.913,558.672 202.989,557.465 204.065,556.257 205.141,555.05 206.217,553.842 207.293,552.635 208.369,551.427 209.445,550.22 210.521,549.013 211.597,547.805 212.672,546.598 213.748,545.391 214.824,544.184 215.9,542.976 216.976,541.769 218.052,540.562 219.128,539.356 220.204,538.149 221.28,536.942 222.356,535.735 223.432,534.529 224.508,533.322 225.584,532.116 226.66,530.91 227.736,529.704 228.812,528.498 229.888,527.292 230.964,526.086 232.04,524.881 233.116,523.675 234.192,522.47 235.268,521.265 236.344,520.06 237.42,518.855 238.496,517.65 239.571,516.445 240.647,515.241 241.723,514.037 242.799,512.833 243.875,511.629 244.951,510.425 246.027,509.222 247.103,508.019 248.179,506.816 249.255,505.613 250.331,504.41 251.407,503.208 252.483,502.006 253.559,500.804 254.635,499.602 255.711,498.4 256.787,497.199 257.863,495.998 258.939,494.798 260.015,493.597 261.091,492.397 262.167,491.197 263.243,489.997 264.319,488.798 265.394,487.599 266.47,486.4 267.546,485.202 268.622,484.004 269.698,482.806 270.774,481.608 271.85,480.411 272.926,479.214 274.002,478.018 275.078,476.822 276.154,475.626 277.23,474.431 278.306,473.235 279.382,472.041 280.458,470.846 281.534,469.652 282.61,468.459 283.686,467.265 284.762,466.073 285.838,464.88 286.914,463.688 287.99,462.496 289.066,461.305 290.142,460.114 291.218,458.924 292.293,457.734 293.369,456.545 294.445,455.356 295.521,454.167 296.597,452.979 297.673,451.791 298.749,450.604 299.825,449.417 300.901,448.231 301.977,447.046 303.053,445.86 304.129,444.676 305.205,443.491 306.281,442.308 307.357,441.124 308.433,439.942 309.509,438.76 310.585,437.578 311.661,436.397 312.737,435.217 313.813,434.037 314.889,432.857 315.965,431.679 317.041,430.5 318.117,429.323 319.192,428.146 320.268,426.969 321.344,425.794 322.42,424.618 323.496,423.444 324.572,422.27 325.648,421.097 326.724,419.924 327.8,418.752 328.876,417.581 329.952,416.41 331.028,415.24 332.104,414.071 333.18,412.902 334.256,411.734 335.332,410.567 336.408,409.4 337.484,408.234 338.56,407.069 339.636,405.905 340.712,404.741 341.788,403.578 342.864,402.416 343.94,401.255 345.015,400.094 346.091,398.934 347.167,397.775 348.243,396.616 349.319,395.459 350.395,394.302 351.471,393.146 352.547,391.991 353.623,390.837 354.699,389.683 355.775,388.531 356.851,387.379 357.927,386.228 359.003,385.078 360.079,383.928 361.155,382.78 362.231,381.633 363.307,380.486 364.383,379.34 365.459,378.195 366.535,377.051 367.611,375.909 368.687,374.766 369.763,373.625 370.839,372.485 371.914,371.346 372.99,370.208 374.066,369.07 375.142,367.934 376.218,366.799 377.294,365.664 378.37,364.531 379.446,363.399 380.522,362.267 381.598,361.137 382.674,360.008 383.75,358.879 384.826,357.752 385.902,356.626 386.978,355.501 388.054,354.377 389.13,353.254 390.206,352.132 391.282,351.011 392.358,349.891 393.434,348.773 394.51,347.655 395.586,346.539 396.662,345.424 397.738,344.31 398.813,343.197 399.889,342.085 400.965,340.975 402.041,339.865 403.117,338.757 404.193,337.65 405.269,336.544 406.345,335.44 407.421,334.336 408.497,333.234 409.573,332.133 410.649,331.033 411.725,329.935 412.801,328.838 413.877,327.742 414.953,326.647 416.029,325.554 417.105,324.462 418.181,323.371 419.257,322.282 420.333,321.194 421.409,320.107 422.485,319.021 423.561,317.937 424.636,316.855 425.712,315.773 426.788,314.693 427.864,313.615 428.94,312.537 430.016,311.462 431.092,310.387 432.168,309.314 433.244,308.243 434.32,307.173 435.396,306.104 436.472,305.037 437.548,303.971 438.624,302.907 439.7,301.844 440.776,300.783 441.852,299.723 442.928,298.665 444.004,297.608 445.08,296.553 446.156,295.499 447.232,294.447 448.308,293.396 449.384,292.347 450.46,291.3 451.535,290.254 452.611,289.209 453.687,288.167 454.763,287.126 455.839,286.086 456.915,285.048 457.991,284.012 459.067,282.978 460.143,281.945 461.219,280.913 462.295,279.884 463.371,278.856 464.447,277.83 465.523,276.805 466.599,275.783 467.675,274.762 468.751,273.742 469.827,272.725 470.903,271.709 471.979,270.695 473.055,269.683 474.131,268.672 475.207,267.663 476.283,266.656 477.359,265.651 478.434,264.648 479.51,263.646 480.586,262.647 481.662,261.649 482.738,260.653 483.814,259.659 484.89,258.667 485.966,257.677 487.042,256.688 488.118,255.702 489.194,254.717 490.27,253.734 491.346,252.754 492.422,251.775 493.498,250.798 494.574,249.823 495.65,248.85 496.726,247.879 497.802,246.91 498.878,245.943 499.954,244.978 501.03,244.015 502.106,243.054 503.182,242.096 504.257,241.139 505.333,240.184 506.409,239.231 507.485,238.281 508.561,237.332 509.637,236.386 510.713,235.441 511.789,234.499 512.865,233.559 513.941,232.621 515.017,231.685 516.093,230.752 517.169,229.82 518.245,228.891 519.321,227.964 520.397,227.039 521.473,226.116 522.549,225.196 523.625,224.277 524.701,223.361 525.777,222.447 526.853,221.536 527.929,220.627 529.005,219.72 530.081,218.815 531.156,217.912 532.232,217.012 533.308,216.114 534.384,215.219 535.46,214.326 536.536,213.435 537.612,212.546 538.688,211.66 539.764,210.776 540.84,209.895 541.916,209.016 542.992,208.139 544.068,207.265 545.144,206.393 546.22,205.524 547.296,204.657 548.372,203.792 549.448,202.93 550.524,202.071 551.6,201.214 552.676,200.359 553.752,199.507 554.828,198.657 555.904,197.81 556.98,196.966 558.055,196.124 559.131,195.284 560.207,194.447 561.283,193.613 562.359,192.781 563.435,191.952 564.511,191.125 565.587,190.301 566.663,189.48 567.739,188.661 568.815,187.845 569.891,187.031 570.967,186.22 572.043,185.412 573.119,184.606 574.195,183.804 575.271,183.003 576.347,182.206 577.423,181.411 578.499,180.619 579.575,179.829 580.651,179.043 581.727,178.259 582.803,177.478 583.879,176.699 584.954,175.924 586.03,175.151 587.106,174.381 588.182,173.614 589.258,172.849 590.334,172.087 591.41,171.329 592.486,170.573 593.562,169.82 594.638,169.069 595.714,168.322 596.79,167.577 597.866,166.836 598.942,166.097 600.018,165.361 601.094,164.628 602.17,163.898 603.246,163.171 604.322,162.447 605.398,161.725 606.474,161.007 607.55,160.292 608.626,159.579 609.702,158.87 610.777,158.163 611.853,157.46 612.929,156.759 614.005,156.062 615.081,155.368 616.157,154.676 617.233,153.988 618.309,153.303 619.385,152.62 620.461,151.941 621.537,151.265 622.613,150.592 623.689,149.922 624.765,149.255 625.841,148.592 626.917,147.931 627.993,147.274 629.069,146.619 630.145,145.968 631.221,145.32 632.297,144.675 633.373,144.033 634.449,143.395 635.525,142.76 636.601,142.127 637.676,141.498 638.752,140.873 639.828,140.25 640.904,139.631 641.98,139.015 643.056,138.402 644.132,137.792 645.208,137.186 646.284,136.582 647.36,135.983 648.436,135.386 649.512,134.793 650.588,134.203 651.664,133.616 652.74,133.033 653.816,132.452 654.892,131.876 655.968,131.302 657.044,130.732 658.12,130.165 659.196,129.602 660.272,129.042 661.348,128.485 662.424,127.932 663.5,127.382 664.575,126.835 665.651,126.292 666.727,125.752 667.803,125.216 668.879,124.683 669.955,124.154 671.031,123.628 672.107,123.105 673.183,122.586 674.259,122.07 675.335,121.558 676.411,121.049 677.487,120.543 678.563,120.042 679.639,119.543 680.715,119.048 681.791,118.557 682.867,118.069 683.943,117.584 685.019,117.103 686.095,116.626 687.171,116.152 688.247,115.682 689.323,115.215 690.398,114.752 691.474,114.292 692.55,113.836 693.626,113.383 694.702,112.934 695.778,112.489 696.854,112.047 697.93,111.609 699.006,111.174 700.082,110.743 701.158,110.316 702.234,109.892 703.31,109.471 704.386,109.055 705.462,108.642 706.538,108.232 707.614,107.827 708.69,107.425 709.766,107.026 710.842,106.631 711.918,106.24 712.994,105.853 714.07,105.469 715.146,105.089 716.222,104.712 717.297,104.339 718.373,103.97 719.449,103.605 720.525,103.243 721.601,102.885 722.677,102.531 723.753,102.18 724.829,101.833 725.905,101.49 726.981,101.15 728.057,100.815 729.133,100.483 730.209,100.154 731.285,99.8296 732.361,99.5088 733.437,99.1917 734.513,98.8784 735.589,98.5688 736.665,98.263 737.741,97.9609 738.817,97.6626 739.893,97.3681 740.969,97.0773 742.045,96.7903 743.121,96.5071 744.196,96.2276 745.272,95.952 746.348,95.6801 747.424,95.412 748.5,95.1477 749.576,94.8872 750.652,94.6306 751.728,94.3777 752.804,94.1286 753.88,93.8833 754.956,93.6418 756.032,93.4042 757.108,93.1704 758.184,92.9403 759.26,92.7141 760.336,92.4918 761.412,92.2732 762.488,92.0585 763.564,91.8476 764.64,91.6406 765.716,91.4373 766.792,91.2379 767.868,91.0424 768.944,90.8507 770.019,90.6628 771.095,90.4788 772.171,90.2986 773.247,90.1223 774.323,89.9498 775.399,89.7812 776.475,89.6164 777.551,89.4555 778.627,89.2985 779.703,89.1453 780.779,88.9959 781.855,88.8504 782.931,88.7088 784.007,88.571 785.083,88.4371 786.159,88.3071 787.235,88.1809 788.311,88.0586 789.387,87.9401 790.463,87.8256 791.539,87.7149 792.615,87.608 793.691,87.505 794.767,87.4059 795.843,87.3107 796.918,87.2193 797.994,87.1318 799.07,87.0482 800.146,86.9684 801.222,86.8925 802.298,86.8205 803.374,86.7524 804.45,86.6881 805.526,86.6277 806.602,86.5712 807.678,86.5185 808.754,86.4697 809.83,86.4248 810.906,86.3837 811.982,86.3465 813.058,86.3132 814.134,86.2837 815.21,86.2581 816.286,86.2364 817.362,86.2185 818.438,86.2045 819.514,86.1944 820.59,86.1881 821.666,86.1857 822.742,86.1871 823.817,86.1924 824.893,86.2016 825.969,86.2146 827.045,86.2314 828.121,86.2521 829.197,86.2767 830.273,86.3051 831.349,86.3374 832.425,86.3735 833.501,86.4134 834.577,86.4572 835.653,86.5048 836.729,86.5563 837.805,86.6116 838.881,86.6707 839.957,86.7337 841.033,86.8005 842.109,86.8711 843.185,86.9456 844.261,87.0239 845.337,87.1059 846.413,87.1919 847.489,87.2816 848.565,87.3751 849.64,87.4725 850.716,87.5736 851.792,87.6786 852.868,87.7873 853.944,87.8999 855.02,88.0163 856.096,88.1364 857.172,88.2604 858.248,88.3881 859.324,88.5196 860.4,88.6549 861.476,88.7939 862.552,88.9368 863.628,89.0834 864.704,89.2338 865.78,89.3879 866.856,89.5458 867.932,89.7075 869.008,89.8729 870.084,90.042 871.16,90.2149 872.236,90.3916 873.312,90.5719 874.388,90.7561 875.464,90.9439 876.539,91.1355 877.615,91.3307 878.691,91.5297 879.767,91.7325 880.843,91.9389 881.919,92.149 882.995,92.3628 884.071,92.5804 885.147,92.8016 886.223,93.0265 887.299,93.255 888.375,93.4873 889.451,93.7232 890.527,93.9628 891.603,94.2061 892.679,94.453 893.755,94.7036 894.831,94.9578 895.907,95.2156 896.983,95.4771 898.059,95.7423 899.135,96.011 900.211,96.2834 901.287,96.5594 902.363,96.839 903.438,97.1222 904.514,97.4091 905.59,97.6995 906.666,97.9935 907.742,98.2911 908.818,98.5922 909.894,98.897 910.97,99.2053 912.046,99.5172 913.122,99.8326 914.198,100.152 915.274,100.474 916.35,100.8 917.426,101.13 918.502,101.463 919.578,101.8 920.654,102.14 921.73,102.483 922.806,102.831 923.882,103.181 924.958,103.535 926.034,103.893 927.11,104.254 928.186,104.619 929.261,104.987 930.337,105.358 931.413,105.733 932.489,106.112 933.565,106.494 934.641,106.879 935.717,107.268 936.793,107.66 937.869,108.055 938.945,108.454 940.021,108.857 941.097,109.263 942.173,109.672 943.249,110.084 944.325,110.5 945.401,110.919 946.477,111.342 947.553,111.768 948.629,112.197 949.705,112.63 950.781,113.066 951.857,113.505 952.933,113.948 954.009,114.394 955.085,114.843 956.16,115.296 957.236,115.752 958.312,116.211 959.388,116.673 960.464,117.139 961.54,117.608 962.616,118.08 963.692,118.555 964.768,119.034 965.844,119.516 966.92,120.001 967.996,120.489 969.072,120.981 970.148,121.476 971.224,121.973 972.3,122.475 973.376,122.979 974.452,123.486 975.528,123.997 976.604,124.511 977.68,125.028 978.756,125.548 979.832,126.071 980.908,126.597 981.984,127.126 983.059,127.659 984.135,128.195 985.211,128.733 986.287,129.275 987.363,129.82 988.439,130.368 989.515,130.919 990.591,131.473 991.667,132.03 992.743,132.59 993.819,133.153 994.895,133.719 995.971,134.289 997.047,134.861 998.123,135.436 999.199,136.014 1000.27,136.595 1001.35,137.179 1002.43,137.766 1003.5,138.356 1004.58,138.949 1005.65,139.545 1006.73,140.144 1007.81,140.746 1008.88,141.35 1009.96,141.958 1011.03,142.568 1012.11,143.182 1013.19,143.798 1014.26,144.417 1015.34,145.039 1016.41,145.664 1017.49,146.291 1018.57,146.922 1019.64,147.555 1020.72,148.191 1021.79,148.83 1022.87,149.472 1023.95,150.116 1025.02,150.764 1026.1,151.414 1027.17,152.067 1028.25,152.722 1029.33,153.381 1030.4,154.042 1031.48,154.705 1032.55,155.372 1033.63,156.041 1034.71,156.713 1035.78,157.388 1036.86,158.065 1037.93,158.745 1039.01,159.428 1040.09,160.114 1041.16,160.802 1042.24,161.492 1043.31,162.186 1044.39,162.882 1045.47,163.58 1046.54,164.281 1047.62,164.985 1048.69,165.692 1049.77,166.401 1050.84,167.112 1051.92,167.826 1053,168.543 1054.07,169.262 1055.15,169.984 1056.22,170.708 1057.3,171.435 1058.38,172.165 1059.45,172.897 1060.53,173.631 1061.6,174.368 1062.68,175.107 1063.76,175.849 1064.83,176.593 1065.91,177.34 1066.98,178.089 1068.06,178.841 1069.14,179.595 1070.21,180.352 1071.29,181.111 1072.36,181.872 1073.44,182.636 1074.52,183.402 1075.59,184.17 1076.67,184.941 1077.74,185.714 1078.82,186.49 1079.9,187.268 1080.97,188.048 1082.05,188.831 1083.12,189.616 1084.2,190.403 1085.28,191.193 1086.35,191.984 1087.43,192.779 1088.5,193.575 1089.58,194.374 1090.66,195.175 1091.73,195.978 1092.81,196.783 1093.88,197.591 1094.96,198.401 1096.04,199.213 1097.11,200.027 1098.19,200.844 1099.26,201.662 1100.34,202.483 1101.42,203.306 1102.49,204.132 1103.57,204.959 1104.64,205.788 1105.72,206.62 1106.79,207.454 1107.87,208.29 1108.95,209.128 1110.02,209.968 1111.1,210.81 1112.17,211.655 1113.25,212.501 1114.33,213.35 1115.4,214.2 1116.48,215.053 1117.55,215.908 1118.63,216.764 1119.71,217.623 1120.78,218.484 1121.86,219.347 1122.93,220.212 1124.01,221.079 1125.09,221.947 1126.16,222.818 1127.24,223.691 1128.31,224.566 1129.39,225.442 1130.47,226.321 1131.54,227.202 1132.62,228.084 1133.69,228.969 1134.77,229.855 1135.85,230.743 1136.92,231.634 1138,232.526 1139.07,233.42 1140.15,234.315 1141.23,235.213 1142.3,236.113 1143.38,237.014 1144.45,237.918 1145.53,238.823 1146.61,239.73 1147.68,240.638 1148.76,241.549 1149.83,242.461 1150.91,243.376 1151.99,244.292 1153.06,245.21 1154.14,246.129 1155.21,247.05 1156.29,247.974 1157.36,248.898 1158.44,249.825 1159.52,250.753 1160.59,251.683 1161.67,252.615 1162.74,253.549 1163.82,254.484 1164.9,255.421 1165.97,256.359 1167.05,257.3 1168.12,258.242 1169.2,259.185 1170.28,260.131 1171.35,261.077 1172.43,262.026 1173.5,262.976 1174.58,263.928 1175.66,264.882 1176.73,265.837 1177.81,266.793 1178.88,267.752 1179.96,268.712 1181.04,269.673 1182.11,270.636 1183.19,271.601 1184.26,272.567 1185.34,273.535 1186.42,274.504 1187.49,275.475 1188.57,276.447 1189.64,277.421 1190.72,278.397 1191.8,279.374 1192.87,280.352 1193.95,281.332 1195.02,282.314 1196.1,283.297 1197.18,284.281 1198.25,285.267 1199.33,286.254 1200.4,287.243 1201.48,288.233 1202.56,289.225 1203.63,290.218 1204.71,291.213 1205.78,292.209 1206.86,293.206 1207.94,294.205 1209.01,295.205 1210.09,296.207 1211.16,297.21 1212.24,298.215 1213.31,299.22 1214.39,300.227 1215.47,301.236 1216.54,302.246 1217.62,303.257 1218.69,304.27 1219.77,305.284 1220.85,306.299 1221.92,307.315 1223,308.333 1224.07,309.352 1225.15,310.373 1226.23,311.395 1227.3,312.418 1228.38,313.442 1229.45,314.468 1230.53,315.494 1231.61,316.523 1232.68,317.552 1233.76,318.583 1234.83,319.615 1235.91,320.648 1236.99,321.682 1238.06,322.718 1239.14,323.754 1240.21,324.792 1241.29,325.832 1242.37,326.872 1243.44,327.914 1244.52,328.956 1245.59,330 1246.67,331.046 1247.75,332.092 1248.82,333.139 1249.9,334.188 1250.97,335.238 1252.05,336.289 1253.13,337.341 1254.2,338.394 1255.28,339.449 1256.35,340.504 1257.43,341.561 1258.51,342.618 1259.58,343.677 1260.66,344.737 1261.73,345.798 1262.81,346.86 1263.88,347.923 1264.96,348.987 1266.04,350.053 1267.11,351.119 1268.19,352.186 1269.26,353.255 1270.34,354.324 1271.42,355.395 1272.49,356.466 1273.57,357.539 1274.64,358.613 1275.72,359.687 1276.8,360.763 1277.87,361.84 1278.95,362.917 1280.02,363.996 1281.1,365.076 1282.18,366.156 1283.25,367.238 1284.33,368.32 1285.4,369.404 1286.48,370.488 1287.56,371.574 1288.63,372.66 1289.71,373.748 1290.78,374.836 1291.86,375.925 1292.94,377.015 1294.01,378.106 1295.09,379.198 1296.16,380.291 1297.24,381.385 1298.32,382.48 1299.39,383.575 1300.47,384.672 1301.54,385.769 1302.62,386.867 1303.7,387.967 1304.77,389.067 1305.85,390.168 1306.92,391.269 1308,392.372 1309.08,393.475 1310.15,394.58 1311.23,395.685 1312.3,396.791 1313.38,397.898 1314.45,399.005 1315.53,400.114 1316.61,401.223 1317.68,402.333 1318.76,403.444 1319.83,404.556 1320.91,405.668 1321.99,406.782 1323.06,407.896 1324.14,409.01 1325.21,410.126 1326.29,411.243 1327.37,412.36 1328.44,413.478 1329.52,414.596 1330.59,415.716 1331.67,416.836 1332.75,417.957 1333.82,419.079 1334.9,420.201 1335.97,421.324 1337.05,422.448 1338.13,423.573 1339.2,424.698 1340.28,425.824 1341.35,426.951 1342.43,428.078 1343.51,429.207 1344.58,430.335 1345.66,431.465 1346.73,432.595 1347.81,433.726 1348.89,434.858 1349.96,435.99 1351.04,437.123 1352.11,438.256 1353.19,439.391 1354.27,440.526 1355.34,441.661 1356.42,442.797 1357.49,443.934 1358.57,445.072 1359.65,446.21 1360.72,447.348 1361.8,448.488 1362.87,449.628 1363.95,450.768 1365.03,451.91 1366.1,453.052 1367.18,454.194 1368.25,455.337 1369.33,456.481 1370.4,457.625 1371.48,458.77 1372.56,459.915 1373.63,461.061 1374.71,462.208 1375.78,463.355 1376.86,464.502 1377.94,465.651 1379.01,466.799 1380.09,467.949 1381.16,469.099 1382.24,470.249 1383.32,471.4 1384.39,472.552 1385.47,473.704 1386.54,474.857 1387.62,476.01 1388.7,477.163 1389.77,478.318 1390.85,479.472 1391.92,480.627 1393,481.783 1394.08,482.939 1395.15,484.096 1396.23,485.253 1397.3,486.411 1398.38,487.569 1399.46,488.728 1400.53,489.887 1401.61,491.047 1402.68,492.207 1403.76,493.368 1404.84,494.529 1405.91,495.69 1406.99,496.852 1408.06,498.015 1409.14,499.178 1410.22,500.341 1411.29,501.505 1412.37,502.669 1413.44,503.834 1414.52,504.999 1415.6,506.165 1416.67,507.331 1417.75,508.497 1418.82,509.664 1419.9,510.831 1420.97,511.999 1422.05,513.167 1423.13,514.336 1424.2,515.505 1425.28,516.674 1426.35,517.844 1427.43,519.014 1428.51,520.184 1429.58,521.355 1430.66,522.526 1431.73,523.698 1432.81,524.87 1433.89,526.042 1434.96,527.215 1436.04,528.388 1437.11,529.562 1438.19,530.736 1439.27,531.91 1440.34,533.084 1441.42,534.259 1442.49,535.435 1443.57,536.61 1444.65,537.786 1445.72,538.962 1446.8,540.139 1447.87,541.316 1448.95,542.493 1450.03,543.671 1451.1,544.849 1452.18,546.027 1453.25,547.206 1454.33,548.385 1455.41,549.564 1456.48,550.743 1457.56,551.923 1458.63,553.103 1459.71,554.284 1460.79,555.464 1461.86,556.645 1462.94,557.826 1464.01,559.008 1465.09,560.19 1466.17,561.372 1467.24,562.554 1468.32,563.737 1469.39,564.92 1470.47,566.103 1471.55,567.287 1472.62,568.47 1473.7,569.654 1474.77,570.839 1475.85,572.023 1476.92,573.208 1478,574.393 1479.08,575.578 1480.15,576.764 1481.23,577.949 1482.3,579.135 1483.38,580.321 1484.46,581.508 1485.53,582.694 1486.61,583.881 1487.68,585.068 1488.76,586.256 1489.84,587.443 1490.91,588.631 1491.99,589.819 1493.06,591.007 1494.14,592.195 1495.22,593.384 1496.29,594.572 1497.37,595.761 1498.44,596.95 1499.52,598.14 1500.6,599.329 1501.67,600.519 1502.75,601.709 1503.82,602.899 1504.9,604.089 1505.98,605.279 1507.05,606.47 1508.13,607.661 1509.2,608.852 1510.28,610.043 1511.36,611.234 1512.43,612.425 1513.51,613.617 1514.58,614.808 1515.66,616 1516.74,617.192 1517.81,618.384 1518.89,619.577 1519.96,620.769 1521.04,621.962 1522.12,623.154 1523.19,624.347 1524.27,625.54 1525.34,626.733 1526.42,627.926 1527.49,629.119 1528.57,630.313 1529.65,631.506 1530.72,632.7 1531.8,633.894 1532.87,635.088 1533.95,636.282 1535.03,637.476 1536.1,638.67 1537.18,639.864 1538.25,641.058 1539.33,642.253 1540.41,643.448 1541.48,644.642 1542.56,645.837 1543.63,647.032 1544.71,648.227 1545.79,649.422 1546.86,650.617 1547.94,651.812 1549.01,653.007 1550.09,654.202 1551.17,655.397 1552.24,656.593 1553.32,657.788 1554.39,658.984 1555.47,660.179 1556.55,661.375 1557.62,662.571 1558.7,663.766 1559.77,664.962 1560.85,666.158 1561.93,667.354 1563,668.55 1564.08,669.746 1565.15,670.942 1566.23,672.138 1567.31,673.334 1568.38,674.53 1569.46,675.726 1570.53,676.922 1571.61,678.118 1572.69,679.314 1573.76,680.51 1574.84,681.706 1575.91,682.903 1576.99,684.099 1578.07,685.295 1579.14,686.491 1580.22,687.688 1581.29,688.884 1582.37,690.08 1583.44,691.276 1584.52,692.472 1585.6,693.669 1586.67,694.865 1587.75,696.061 1588.82,697.257 1589.9,698.453 1590.98,699.65 1592.05,700.846 1593.13,702.042 1594.2,703.238 1595.28,704.434 1596.36,705.63 1597.43,706.826 1598.51,708.022 1599.58,709.218 1600.66,710.414 1601.74,711.609 1602.81,712.805 1603.89,714.001 1604.96,715.197 1606.04,716.392 1607.12,717.588 1608.19,718.784 1609.27,719.979 1610.34,721.174 1611.42,722.37 1612.5,723.565 1613.57,724.76 1614.65,725.956 1615.72,727.151 1616.8,728.346 1617.88,729.541 1618.95,730.736 1620.03,731.93 1621.1,733.125 1622.18,734.32 1623.26,735.514 1624.33,736.709 1625.41,737.903 1626.48,739.098 1627.56,740.292 1628.64,741.486 1629.71,742.68 1630.79,743.874 1631.86,745.068 1632.94,746.262 1634.01,747.455 1635.09,748.649 1636.17,749.842 1637.24,751.036 1638.32,752.229 1639.39,753.422 1640.47,754.615 1641.55,755.808 1642.62,757.001 1643.7,758.193 1644.77,759.386 1645.85,760.578 1646.93,761.77 1648,762.963 1649.08,764.155 1650.15,765.346 1651.23,766.538 1652.31,767.73 1653.38,768.921 1654.46,770.113 1655.53,771.304 1656.61,772.495 1657.69,773.686 1658.76,774.876 1659.84,776.067 1660.91,777.257 1661.99,778.448 1663.07,779.638 1664.14,780.828 1665.22,782.018 1666.29,783.207 1667.37,784.397 1668.45,785.586 1669.52,786.775 1670.6,787.964 1671.67,789.153 1672.75,790.342 1673.83,791.53 1674.9,792.718 1675.98,793.906 1677.05,795.094 1678.13,796.282 1679.21,797.47 1680.28,798.657 1681.36,799.844 1682.43,801.031 1683.51,802.218 1684.59,803.405 1685.66,804.591 1686.74,805.777 1687.81,806.963 1688.89,808.149 1689.96,809.335 1691.04,810.52 1692.12,811.705 1693.19,812.89 1694.27,814.075 1695.34,815.26 1696.42,816.444 1697.5,817.628 1698.57,818.812 1699.65,819.996 1700.72,821.179 1701.8,822.362 1702.88,823.545 1703.95,824.728 1705.03,825.911 1706.1,827.093 1707.18,828.275 1708.26,829.457 1709.33,830.638 1710.41,831.82 1711.48,833.001 1712.56,834.182 1713.64,835.362 1714.71,836.543 1715.79,837.723 1716.86,838.903 1717.94,840.082 1719.02,841.262 1720.09,842.441 1721.17,843.62 1722.24,844.798 1723.32,845.977 1724.4,847.155 1725.47,848.333 1726.55,849.51 1727.62,850.688 1728.7,851.865 1729.78,853.041 1730.85,854.218 1731.93,855.394 1733,856.57 1734.08,857.745 1735.16,858.921 1736.23,860.096 1737.31,861.271 1738.38,862.445 1739.46,863.619 1740.53,864.793 1741.61,865.967 1742.69,867.14 1743.76,868.313 1744.84,869.486 1745.91,870.658 1746.99,871.83 1748.07,873.002 1749.14,874.174 1750.22,875.345 1751.29,876.516 1752.37,877.686 1753.45,878.857 1754.52,880.027 1755.6,881.196 1756.67,882.366 1757.75,883.535 1758.83,884.703 1759.9,885.872 1760.98,887.04 1762.05,888.207 1763.13,889.375 1764.21,890.542 1765.28,891.708 1766.36,892.875 1767.43,894.041 1768.51,895.206 1769.59,896.372 1770.66,897.537 1771.74,898.701 1772.81,899.865 1773.89,901.029 1774.97,902.193 1776.04,903.356 1777.12,904.519 1778.19,905.682 1779.27,906.844 1780.35,908.006 1781.42,909.167 1782.5,910.328 1783.57,911.489 1784.65,912.649 1785.73,913.809 1786.8,914.969 1787.88,916.128 1788.95,917.287 1790.03,918.445 1791.11,919.603 1792.18,920.761 1793.26,921.918 1794.33,923.075 1795.41,924.232 1796.48,925.388 1797.56,926.544 1798.64,927.699 1799.71,928.854 1800.79,930.008 1801.86,931.163 1802.94,932.316 1804.02,933.47 1805.09,934.623 1806.17,935.775 1807.24,936.927 1808.32,938.079 1809.4,939.23 1810.47,940.381 1811.55,941.532 1812.62,942.682 1813.7,943.831 1814.78,944.981 1815.85,946.129 1816.93,947.278 1818,948.426 1819.08,949.573 1820.16,950.72 1821.23,951.867 1822.31,953.013 1823.38,954.159 1824.46,955.304 1825.54,956.449 1826.61,957.593 1827.69,958.737 1828.76,959.881 1829.84,961.024 1830.92,962.166 1831.99,963.308 1833.07,964.45 1834.14,965.591 1835.22,966.732 1836.3,967.872 1837.37,969.012 1838.45,970.151 1839.52,971.29 1840.6,972.428 1841.68,973.566 1842.75,974.704 1843.83,975.841 1844.9,976.977 1845.98,978.113 1847.05,979.249 1848.13,980.384 1849.21,981.518 1850.28,982.652 1851.36,983.786 1852.43,984.919 1853.51,986.051 1854.59,987.183 1855.66,988.314 1856.74,989.445 1857.81,990.576 1858.89,991.706 1859.97,992.835 1861.04,993.964 1862.12,995.093 1863.19,996.22 1864.27,997.348 1865.35,998.474 1866.42,999.601 1867.5,1000.73 1868.57,1001.85 1869.65,1002.98 1870.73,1004.1 1871.8,1005.22 1872.88,1006.35 1873.95,1007.47 1875.03,1008.59 1876.11,1009.71 1877.18,1010.83 1878.26,1011.95 1879.33,1013.07 1880.41,1014.19 1881.49,1015.31 1882.56,1016.43 1883.64,1017.55 1884.71,1018.66 1885.79,1019.78 1886.87,1020.9 1887.94,1022.01 1889.02,1023.13 1890.09,1024.24 1891.17,1025.35 1892.25,1026.47 1893.32,1027.58 1894.4,1028.69 1895.47,1029.8 1896.55,1030.91 1897.63,1032.02 1898.7,1033.13 1899.78,1034.24 1900.85,1035.35 1901.93,1036.45 1903,1037.56 1904.08,1038.67 1905.16,1039.77 1906.23,1040.88 1907.31,1041.98 1908.38,1043.08 1909.46,1044.19 1910.54,1045.29 1911.61,1046.39 1912.69,1047.49 1913.76,1048.59 1914.84,1049.69 1915.92,1050.79 1916.99,1051.89 1918.07,1052.99 1919.14,1054.08 1920.22,1055.18 1921.3,1056.28 1922.37,1057.37 1923.45,1058.47 1924.52,1059.56 1925.6,1060.65 1926.68,1061.74 1927.75,1062.84 1928.83,1063.93 1929.9,1065.02 1930.98,1066.11 1932.06,1067.2 1933.13,1068.28 1934.21,1069.37 1935.28,1070.46 1936.36,1071.54 1937.44,1072.63 1938.51,1073.71 1939.59,1074.8 1940.66,1075.88 1941.74,1076.96 1942.82,1078.04 1943.89,1079.13 1944.97,1080.21 1946.04,1081.28 1947.12,1082.36 1948.2,1083.44 1949.27,1084.52 1950.35,1085.6 1951.42,1086.67 1952.5,1087.75 1953.57,1088.82 1954.65,1089.89 1955.73,1090.97 1956.8,1092.04 1957.88,1093.11 1958.95,1094.18 1960.03,1095.25 1961.11,1096.32 1962.18,1097.38 1963.26,1098.45 1964.33,1099.52 1965.41,1100.58 1966.49,1101.65 1967.56,1102.71 1968.64,1103.77 1969.71,1104.84 1970.79,1105.9 1971.87,1106.96 1972.94,1108.02 1974.02,1109.08 1975.09,1110.13 1976.17,1111.19 1977.25,1112.25 1978.32,1113.3 1979.4,1114.36 1980.47,1115.41 1981.55,1116.46 1982.63,1117.52 1983.7,1118.57 1984.78,1119.62 1985.85,1120.67 1986.93,1121.71 1988.01,1122.76 1989.08,1123.81 1990.16,1124.85 1991.23,1125.9 1992.31,1126.94 1993.39,1127.99 1994.46,1129.03 1995.54,1130.07 1996.61,1131.11 1997.69,1132.15 1998.77,1133.19 1999.84,1134.22 2000.92,1135.26 2001.99,1136.3 2003.07,1137.33 2004.15,1138.36 2005.22,1139.4 2006.3,1140.43 2007.37,1141.46 2008.45,1142.49 2009.52,1143.52 2010.6,1144.54 2011.68,1145.57 2012.75,1146.6 2013.83,1147.62 2014.9,1148.65 2015.98,1149.67 2017.06,1150.69 2018.13,1151.71 2019.21,1152.73 2020.28,1153.75 2021.36,1154.77 2022.44,1155.78 2023.51,1156.8 2024.59,1157.81 2025.66,1158.82 2026.74,1159.84 2027.82,1160.85 2028.89,1161.86 2029.97,1162.87 2031.04,1163.88 2032.12,1164.88 2033.2,1165.89 2034.27,1166.89 2035.35,1167.9 2036.42,1168.9 2037.5,1169.9 2038.58,1170.9 2039.65,1171.9 2040.73,1172.9 2041.8,1173.89 2042.88,1174.89 2043.96,1175.88 2045.03,1176.88 2046.11,1177.87 2047.18,1178.86 2048.26,1179.85 2049.34,1180.84 2050.41,1181.83 2051.49,1182.81 2052.56,1183.8 2053.64,1184.78 2054.72,1185.76 2055.79,1186.74 2056.87,1187.73 2057.94,1188.7 2059.02,1189.68 2060.09,1190.66 2061.17,1191.63 2062.25,1192.61 2063.32,1193.58 2064.4,1194.55 2065.47,1195.52 2066.55,1196.49 2067.63,1197.46 2068.7,1198.43 2069.78,1199.39 2070.85,1200.35 2071.93,1201.32 2073.01,1202.28 2074.08,1203.24 2075.16,1204.2 2076.23,1205.15 2077.31,1206.11 2078.39,1207.06 2079.46,1208.02 2080.54,1208.97 2081.61,1209.92 2082.69,1210.87 2083.77,1211.82 2084.84,1212.76 2085.92,1213.71 2086.99,1214.65 2088.07,1215.59 2089.15,1216.53 2090.22,1217.47 2091.3,1218.41 2092.37,1219.35 2093.45,1220.28 2094.53,1221.22 2095.6,1222.15 2096.68,1223.08 2097.75,1224.01 2098.83,1224.94 2099.91,1225.86 2100.98,1226.79 2102.06,1227.71 2103.13,1228.63 2104.21,1229.55 2105.29,1230.47 2106.36,1231.39 2107.44,1232.3 2108.51,1233.22 2109.59,1234.13 2110.67,1235.04 2111.74,1235.95 2112.82,1236.86 2113.89,1237.77 2114.97,1238.67 2116.04,1239.57 2117.12,1240.48 2118.2,1241.38 2119.27,1242.27 2120.35,1243.17 2121.42,1244.07 2122.5,1244.96 2123.58,1245.85 2124.65,1246.74 2125.73,1247.63 2126.8,1248.52 2127.88,1249.4 2128.96,1250.29 2130.03,1251.17 2131.11,1252.05 2132.18,1252.93 2133.26,1253.8 2134.34,1254.68 2135.41,1255.55 2136.49,1256.42 2137.56,1257.29 2138.64,1258.16 2139.72,1259.03 2140.79,1259.89 2141.87,1260.76 2142.94,1261.62 2144.02,1262.48 2145.1,1263.33 2146.17,1264.19 2147.25,1265.04 2148.32,1265.9 2149.4,1266.75 2150.48,1267.59 2151.55,1268.44 2152.63,1269.29 2153.7,1270.13 2154.78,1270.97 2155.86,1271.81 2156.93,1272.65 2158.01,1273.48 2159.08,1274.31 2160.16,1275.15 2161.24,1275.98 2162.31,1276.8 2163.39,1277.63 2164.46,1278.45 2165.54,1279.27 2166.61,1280.09 2167.69,1280.91 2168.77,1281.73 2169.84,1282.54 2170.92,1283.35 2171.99,1284.16 2173.07,1284.97 2174.15,1285.78 2175.22,1286.58 2176.3,1287.38 2177.37,1288.18 2178.45,1288.98 2179.53,1289.77 2180.6,1290.57 2181.68,1291.36 2182.75,1292.15 2183.83,1292.94 2184.91,1293.72 2185.98,1294.5 2187.06,1295.28 2188.13,1296.06 2189.21,1296.84 2190.29,1297.61 2191.36,1298.39 2192.44,1299.16 2193.51,1299.92 2194.59,1300.69 2195.67,1301.45 2196.74,1302.21 2197.82,1302.97 2198.89,1303.73 2199.97,1304.48 2201.05,1305.24 2202.12,1305.99 2203.2,1306.73 2204.27,1307.48 2205.35,1308.22 2206.43,1308.96 2207.5,1309.7 2208.58,1310.44 2209.65,1311.17 2210.73,1311.9 2211.81,1312.63 2212.88,1313.36 2213.96,1314.08 2215.03,1314.81 2216.11,1315.53 2217.19,1316.24 2218.26,1316.96 2219.34,1317.67 2220.41,1318.38 2221.49,1319.09 2222.56,1319.79 2223.64,1320.5 2224.72,1321.2 2225.79,1321.89 2226.87,1322.59 2227.94,1323.28 2229.02,1323.97 2230.1,1324.66 2231.17,1325.35 2232.25,1326.03 2233.32,1326.71 2234.4,1327.39 2235.48,1328.06 2236.55,1328.74 2237.63,1329.41 2238.7,1330.07 2239.78,1330.74 2240.86,1331.4 2241.93,1332.06 2243.01,1332.72 2244.08,1333.37 2245.16,1334.02 2246.24,1334.67 2247.31,1335.32 2248.39,1335.96 2249.46,1336.61 2250.54,1337.24 2251.62,1337.88 2252.69,1338.51 2253.77,1339.14 2254.84,1339.77 2255.92,1340.4 2257,1341.02 2258.07,1341.64 2259.15,1342.26 2260.22,1342.87 2261.3,1343.48 2262.38,1344.09 2263.45,1344.69 2264.53,1345.3 2265.6,1345.9 2266.68,1346.49 2267.76,1347.09 2268.83,1347.68 2269.91,1348.27 2270.98,1348.86 2272.06,1349.44 2273.13,1350.02 2274.21,1350.6 2275.29,1351.17 2276.36,1351.74 2277.44,1352.31 2278.51,1352.88 2279.59,1353.44 2280.67,1354 2281.74,1354.55 2282.82,1355.11 2283.89,1355.66 2284.97,1356.21 2286.05,1356.75 2287.12,1357.29 2288.2,1357.83 2289.27,1358.37 2290.35,1358.9 2291.43,1359.43 2292.5,1359.96 2293.58,1360.48 2294.65,1361 2295.73,1361.52 2296.81,1362.03 2297.88,1362.54 2298.96,1363.05 2300.03,1363.56 2301.11,1364.06 2302.19,1364.56 2303.26,1365.05 2304.34,1365.55 2305.41,1366.04 2306.49,1366.52 2307.57,1367.01 2308.64,1367.49 2309.72,1367.96 2310.79,1368.44 2311.87,1368.91 2312.95,1369.37 2314.02,1369.84 2315.1,1370.3 2316.17,1370.76 2317.25,1371.21 2318.33,1371.66 2319.4,1372.11 2320.48,1372.55 2321.55,1372.99 2322.63,1373.43 2323.7,1373.86 2324.78,1374.29 2325.86,1374.72 2326.93,1375.14 2328.01,1375.56 2329.08,1375.98 2330.16,1376.39 2331.24,1376.8 2332.31,1377.2 2333.39,1377.61 2334.46,1378 2335.54,1378.4 2336.62,1378.79 2337.69,1379.17 2338.77,1379.56 2339.84,1379.93 2340.92,1380.31 2342,1380.68 2343.07,1381.05 2344.15,1381.41 2345.22,1381.78 2346.3,1382.14 2347.38,1382.49 2348.45,1382.85 2349.53,1383.2 2350.6,1383.55 2351.68,1383.89 2352.76,1384.24 "/>
<path clip-path="url(#clip040)" d="M1969.85 248.629 L2279.3 248.629 L2279.3 93.1086 L1969.85 93.1086  Z" fill="#ffffff" fill-rule="evenodd" fill-opacity="1"/>
<polyline clip-path="url(#clip040)" style="stroke:#000000; stroke-linecap:round; stroke-linejoin:round; stroke-width:4; stroke-opacity:1; fill:none" points="1969.85,248.629 2279.3,248.629 2279.3,93.1086 1969.85,93.1086 1969.85,248.629 "/>
<polyline clip-path="url(#clip040)" style="stroke:#009af9; stroke-linecap:round; stroke-linejoin:round; stroke-width:4; stroke-opacity:1; fill:none" points="1994.33,144.949 2141.24,144.949 "/>
<path clip-path="url(#clip040)" d="M2165.72 151.997 L2165.72 136.303 L2169.98 136.303 L2169.98 151.835 Q2169.98 155.516 2171.42 157.368 Q2172.85 159.196 2175.72 159.196 Q2179.17 159.196 2181.16 156.997 Q2183.18 154.798 2183.18 151.002 L2183.18 136.303 L2187.44 136.303 L2187.44 162.229 L2183.18 162.229 L2183.18 158.247 Q2181.63 160.608 2179.57 161.766 Q2177.53 162.9 2174.82 162.9 Q2170.35 162.9 2168.04 160.122 Q2165.72 157.344 2165.72 151.997 M2176.44 135.678 L2176.44 135.678 Z" fill="#000000" fill-rule="nonzero" fill-opacity="1" /><path clip-path="url(#clip040)" d="M2195.82 126.21 L2205.63 126.21 L2205.63 129.52 L2200.07 129.52 L2200.07 165.168 L2205.63 165.168 L2205.63 168.479 L2195.82 168.479 L2195.82 126.21 Z" fill="#000000" fill-rule="nonzero" fill-opacity="1" /><path clip-path="url(#clip040)" d="M2216.12 158.293 L2223.76 158.293 L2223.76 131.928 L2215.44 133.595 L2215.44 129.335 L2223.71 127.669 L2228.38 127.669 L2228.38 158.293 L2236.02 158.293 L2236.02 162.229 L2216.12 162.229 L2216.12 158.293 Z" fill="#000000" fill-rule="nonzero" fill-opacity="1" /><path clip-path="url(#clip040)" d="M2254.82 126.21 L2254.82 168.479 L2245 168.479 L2245 165.168 L2250.54 165.168 L2250.54 129.52 L2245 129.52 L2245 126.21 L2254.82 126.21 Z" fill="#000000" fill-rule="nonzero" fill-opacity="1" /><polyline clip-path="url(#clip040)" style="stroke:#e26f46; stroke-linecap:round; stroke-linejoin:round; stroke-width:4; stroke-opacity:1; fill:none" points="1994.33,196.789 2141.24,196.789 "/>
<path clip-path="url(#clip040)" d="M2165.72 203.837 L2165.72 188.143 L2169.98 188.143 L2169.98 203.675 Q2169.98 207.356 2171.42 209.208 Q2172.85 211.036 2175.72 211.036 Q2179.17 211.036 2181.16 208.837 Q2183.18 206.638 2183.18 202.842 L2183.18 188.143 L2187.44 188.143 L2187.44 214.069 L2183.18 214.069 L2183.18 210.087 Q2181.63 212.448 2179.57 213.606 Q2177.53 214.74 2174.82 214.74 Q2170.35 214.74 2168.04 211.962 Q2165.72 209.184 2165.72 203.837 M2176.44 187.518 L2176.44 187.518 Z" fill="#000000" fill-rule="nonzero" fill-opacity="1" /><path clip-path="url(#clip040)" d="M2195.82 178.05 L2205.63 178.05 L2205.63 181.36 L2200.07 181.36 L2200.07 217.008 L2205.63 217.008 L2205.63 220.319 L2195.82 220.319 L2195.82 178.05 Z" fill="#000000" fill-rule="nonzero" fill-opacity="1" /><path clip-path="url(#clip040)" d="M2219.33 210.133 L2235.65 210.133 L2235.65 214.069 L2213.71 214.069 L2213.71 210.133 Q2216.37 207.379 2220.95 202.749 Q2225.56 198.096 2226.74 196.754 Q2228.99 194.231 2229.87 192.495 Q2230.77 190.735 2230.77 189.046 Q2230.77 186.291 2228.82 184.555 Q2226.9 182.819 2223.8 182.819 Q2221.6 182.819 2219.15 183.583 Q2216.72 184.347 2213.94 185.897 L2213.94 181.175 Q2216.76 180.041 2219.22 179.462 Q2221.67 178.884 2223.71 178.884 Q2229.08 178.884 2232.27 181.569 Q2235.47 184.254 2235.47 188.745 Q2235.47 190.874 2234.66 192.796 Q2233.87 194.694 2231.76 197.286 Q2231.19 197.958 2228.08 201.175 Q2224.98 204.37 2219.33 210.133 Z" fill="#000000" fill-rule="nonzero" fill-opacity="1" /><path clip-path="url(#clip040)" d="M2254.82 178.05 L2254.82 220.319 L2245 220.319 L2245 217.008 L2250.54 217.008 L2250.54 181.36 L2245 181.36 L2245 178.05 L2254.82 178.05 Z" fill="#000000" fill-rule="nonzero" fill-opacity="1" /></svg>
