<?xml version="1.0" encoding="utf-8"?>
<svg xmlns="http://www.w3.org/2000/svg" xmlns:xlink="http://www.w3.org/1999/xlink" width="600" height="400" viewBox="0 0 2400 1600">
<defs>
  <clipPath id="clip530">
    <rect x="0" y="0" width="2400" height="1600"/>
  </clipPath>
</defs>
<path clip-path="url(#clip530)" d="M0 1600 L2400 1600 L2400 0 L0 0  Z" fill="#ffffff" fill-rule="evenodd" fill-opacity="1"/>
<defs>
  <clipPath id="clip531">
    <rect x="480" y="0" width="1681" height="1600"/>
  </clipPath>
</defs>
<path clip-path="url(#clip530)" d="M149.191 1423.18 L2352.76 1423.18 L2352.76 47.2441 L149.191 47.2441  Z" fill="#ffffff" fill-rule="evenodd" fill-opacity="1"/>
<defs>
  <clipPath id="clip532">
    <rect x="149" y="47" width="2205" height="1377"/>
  </clipPath>
</defs>
<polyline clip-path="url(#clip532)" style="stroke:#000000; stroke-linecap:round; stroke-linejoin:round; stroke-width:2; stroke-opacity:0.1; fill:none" points="149.191,1423.18 149.191,47.2441 "/>
<polyline clip-path="url(#clip532)" style="stroke:#000000; stroke-linecap:round; stroke-linejoin:round; stroke-width:2; stroke-opacity:0.1; fill:none" points="850.607,1423.18 850.607,47.2441 "/>
<polyline clip-path="url(#clip532)" style="stroke:#000000; stroke-linecap:round; stroke-linejoin:round; stroke-width:2; stroke-opacity:0.1; fill:none" points="1552.02,1423.18 1552.02,47.2441 "/>
<polyline clip-path="url(#clip532)" style="stroke:#000000; stroke-linecap:round; stroke-linejoin:round; stroke-width:2; stroke-opacity:0.1; fill:none" points="2253.44,1423.18 2253.44,47.2441 "/>
<polyline clip-path="url(#clip532)" style="stroke:#000000; stroke-linecap:round; stroke-linejoin:round; stroke-width:2; stroke-opacity:0.1; fill:none" points="149.191,1276.85 2352.76,1276.85 "/>
<polyline clip-path="url(#clip532)" style="stroke:#000000; stroke-linecap:round; stroke-linejoin:round; stroke-width:2; stroke-opacity:0.1; fill:none" points="149.191,1013.71 2352.76,1013.71 "/>
<polyline clip-path="url(#clip532)" style="stroke:#000000; stroke-linecap:round; stroke-linejoin:round; stroke-width:2; stroke-opacity:0.1; fill:none" points="149.191,750.569 2352.76,750.569 "/>
<polyline clip-path="url(#clip532)" style="stroke:#000000; stroke-linecap:round; stroke-linejoin:round; stroke-width:2; stroke-opacity:0.1; fill:none" points="149.191,487.429 2352.76,487.429 "/>
<polyline clip-path="url(#clip532)" style="stroke:#000000; stroke-linecap:round; stroke-linejoin:round; stroke-width:2; stroke-opacity:0.1; fill:none" points="149.191,224.288 2352.76,224.288 "/>
<polyline clip-path="url(#clip530)" style="stroke:#000000; stroke-linecap:round; stroke-linejoin:round; stroke-width:4; stroke-opacity:1; fill:none" points="149.191,1423.18 2352.76,1423.18 "/>
<polyline clip-path="url(#clip530)" style="stroke:#000000; stroke-linecap:round; stroke-linejoin:round; stroke-width:4; stroke-opacity:1; fill:none" points="149.191,1423.18 149.191,1404.28 "/>
<polyline clip-path="url(#clip530)" style="stroke:#000000; stroke-linecap:round; stroke-linejoin:round; stroke-width:4; stroke-opacity:1; fill:none" points="850.607,1423.18 850.607,1404.28 "/>
<polyline clip-path="url(#clip530)" style="stroke:#000000; stroke-linecap:round; stroke-linejoin:round; stroke-width:4; stroke-opacity:1; fill:none" points="1552.02,1423.18 1552.02,1404.28 "/>
<polyline clip-path="url(#clip530)" style="stroke:#000000; stroke-linecap:round; stroke-linejoin:round; stroke-width:4; stroke-opacity:1; fill:none" points="2253.44,1423.18 2253.44,1404.28 "/>
<path clip-path="url(#clip530)" d="M126.575 1454.1 Q122.964 1454.1 121.135 1457.66 Q119.33 1461.2 119.33 1468.33 Q119.33 1475.44 121.135 1479.01 Q122.964 1482.55 126.575 1482.55 Q130.209 1482.55 132.015 1479.01 Q133.844 1475.44 133.844 1468.33 Q133.844 1461.2 132.015 1457.66 Q130.209 1454.1 126.575 1454.1 M126.575 1450.39 Q132.385 1450.39 135.441 1455 Q138.52 1459.58 138.52 1468.33 Q138.52 1477.06 135.441 1481.67 Q132.385 1486.25 126.575 1486.25 Q120.765 1486.25 117.686 1481.67 Q114.631 1477.06 114.631 1468.33 Q114.631 1459.58 117.686 1455 Q120.765 1450.39 126.575 1450.39 Z" fill="#000000" fill-rule="nonzero" fill-opacity="1" /><path clip-path="url(#clip530)" d="M146.737 1479.7 L151.621 1479.7 L151.621 1485.58 L146.737 1485.58 L146.737 1479.7 Z" fill="#000000" fill-rule="nonzero" fill-opacity="1" /><path clip-path="url(#clip530)" d="M171.806 1454.1 Q168.195 1454.1 166.367 1457.66 Q164.561 1461.2 164.561 1468.33 Q164.561 1475.44 166.367 1479.01 Q168.195 1482.55 171.806 1482.55 Q175.441 1482.55 177.246 1479.01 Q179.075 1475.44 179.075 1468.33 Q179.075 1461.2 177.246 1457.66 Q175.441 1454.1 171.806 1454.1 M171.806 1450.39 Q177.617 1450.39 180.672 1455 Q183.751 1459.58 183.751 1468.33 Q183.751 1477.06 180.672 1481.67 Q177.617 1486.25 171.806 1486.25 Q165.996 1486.25 162.918 1481.67 Q159.862 1477.06 159.862 1468.33 Q159.862 1459.58 162.918 1455 Q165.996 1450.39 171.806 1450.39 Z" fill="#000000" fill-rule="nonzero" fill-opacity="1" /><path clip-path="url(#clip530)" d="M828.489 1454.1 Q824.878 1454.1 823.05 1457.66 Q821.244 1461.2 821.244 1468.33 Q821.244 1475.44 823.05 1479.01 Q824.878 1482.55 828.489 1482.55 Q832.124 1482.55 833.929 1479.01 Q835.758 1475.44 835.758 1468.33 Q835.758 1461.2 833.929 1457.66 Q832.124 1454.1 828.489 1454.1 M828.489 1450.39 Q834.3 1450.39 837.355 1455 Q840.434 1459.58 840.434 1468.33 Q840.434 1477.06 837.355 1481.67 Q834.3 1486.25 828.489 1486.25 Q822.679 1486.25 819.601 1481.67 Q816.545 1477.06 816.545 1468.33 Q816.545 1459.58 819.601 1455 Q822.679 1450.39 828.489 1450.39 Z" fill="#000000" fill-rule="nonzero" fill-opacity="1" /><path clip-path="url(#clip530)" d="M848.651 1479.7 L853.536 1479.7 L853.536 1485.58 L848.651 1485.58 L848.651 1479.7 Z" fill="#000000" fill-rule="nonzero" fill-opacity="1" /><path clip-path="url(#clip530)" d="M863.767 1451.02 L882.123 1451.02 L882.123 1454.96 L868.049 1454.96 L868.049 1463.43 Q869.068 1463.08 870.086 1462.92 Q871.105 1462.73 872.123 1462.73 Q877.91 1462.73 881.29 1465.9 Q884.67 1469.08 884.67 1474.49 Q884.67 1480.07 881.198 1483.17 Q877.725 1486.25 871.406 1486.25 Q869.23 1486.25 866.961 1485.88 Q864.716 1485.51 862.309 1484.77 L862.309 1480.07 Q864.392 1481.2 866.614 1481.76 Q868.836 1482.32 871.313 1482.32 Q875.318 1482.32 877.656 1480.21 Q879.994 1478.1 879.994 1474.49 Q879.994 1470.88 877.656 1468.77 Q875.318 1466.67 871.313 1466.67 Q869.438 1466.67 867.563 1467.08 Q865.711 1467.5 863.767 1468.38 L863.767 1451.02 Z" fill="#000000" fill-rule="nonzero" fill-opacity="1" /><path clip-path="url(#clip530)" d="M1519.18 1481.64 L1526.82 1481.64 L1526.82 1455.28 L1518.51 1456.95 L1518.51 1452.69 L1526.77 1451.02 L1531.45 1451.02 L1531.45 1481.64 L1539.08 1481.64 L1539.08 1485.58 L1519.18 1485.58 L1519.18 1481.64 Z" fill="#000000" fill-rule="nonzero" fill-opacity="1" /><path clip-path="url(#clip530)" d="M1548.53 1479.7 L1553.41 1479.7 L1553.41 1485.58 L1548.53 1485.58 L1548.53 1479.7 Z" fill="#000000" fill-rule="nonzero" fill-opacity="1" /><path clip-path="url(#clip530)" d="M1573.6 1454.1 Q1569.99 1454.1 1568.16 1457.66 Q1566.35 1461.2 1566.35 1468.33 Q1566.35 1475.44 1568.16 1479.01 Q1569.99 1482.55 1573.6 1482.55 Q1577.23 1482.55 1579.04 1479.01 Q1580.87 1475.44 1580.87 1468.33 Q1580.87 1461.2 1579.04 1457.66 Q1577.23 1454.1 1573.6 1454.1 M1573.6 1450.39 Q1579.41 1450.39 1582.46 1455 Q1585.54 1459.58 1585.54 1468.33 Q1585.54 1477.06 1582.46 1481.67 Q1579.41 1486.25 1573.6 1486.25 Q1567.79 1486.25 1564.71 1481.67 Q1561.65 1477.06 1561.65 1468.33 Q1561.65 1459.58 1564.71 1455 Q1567.79 1450.39 1573.6 1450.39 Z" fill="#000000" fill-rule="nonzero" fill-opacity="1" /><path clip-path="url(#clip530)" d="M2221.09 1481.64 L2228.73 1481.64 L2228.73 1455.28 L2220.42 1456.95 L2220.42 1452.69 L2228.68 1451.02 L2233.36 1451.02 L2233.36 1481.64 L2241 1481.64 L2241 1485.58 L2221.09 1485.58 L2221.09 1481.64 Z" fill="#000000" fill-rule="nonzero" fill-opacity="1" /><path clip-path="url(#clip530)" d="M2250.44 1479.7 L2255.33 1479.7 L2255.33 1485.58 L2250.44 1485.58 L2250.44 1479.7 Z" fill="#000000" fill-rule="nonzero" fill-opacity="1" /><path clip-path="url(#clip530)" d="M2265.56 1451.02 L2283.91 1451.02 L2283.91 1454.96 L2269.84 1454.96 L2269.84 1463.43 Q2270.86 1463.08 2271.88 1462.92 Q2272.9 1462.73 2273.91 1462.73 Q2279.7 1462.73 2283.08 1465.9 Q2286.46 1469.08 2286.46 1474.49 Q2286.46 1480.07 2282.99 1483.17 Q2279.52 1486.25 2273.2 1486.25 Q2271.02 1486.25 2268.75 1485.88 Q2266.51 1485.51 2264.1 1484.77 L2264.1 1480.07 Q2266.18 1481.2 2268.41 1481.76 Q2270.63 1482.32 2273.1 1482.32 Q2277.11 1482.32 2279.45 1480.21 Q2281.79 1478.1 2281.79 1474.49 Q2281.79 1470.88 2279.45 1468.77 Q2277.11 1466.67 2273.1 1466.67 Q2271.23 1466.67 2269.35 1467.08 Q2267.5 1467.5 2265.56 1468.38 L2265.56 1451.02 Z" fill="#000000" fill-rule="nonzero" fill-opacity="1" /><path clip-path="url(#clip530)" d="M1250.03 1522.27 L1250.03 1532.4 L1262.1 1532.4 L1262.1 1536.95 L1250.03 1536.95 L1250.03 1556.3 Q1250.03 1560.66 1251.21 1561.9 Q1252.42 1563.14 1256.08 1563.14 L1262.1 1563.14 L1262.1 1568.04 L1256.08 1568.04 Q1249.3 1568.04 1246.72 1565.53 Q1244.15 1562.98 1244.15 1556.3 L1244.15 1536.95 L1239.85 1536.95 L1239.85 1532.4 L1244.15 1532.4 L1244.15 1522.27 L1250.03 1522.27 Z" fill="#000000" fill-rule="nonzero" fill-opacity="1" /><polyline clip-path="url(#clip530)" style="stroke:#000000; stroke-linecap:round; stroke-linejoin:round; stroke-width:4; stroke-opacity:1; fill:none" points="149.191,1423.18 149.191,47.2441 "/>
<polyline clip-path="url(#clip530)" style="stroke:#000000; stroke-linecap:round; stroke-linejoin:round; stroke-width:4; stroke-opacity:1; fill:none" points="149.191,1276.85 168.089,1276.85 "/>
<polyline clip-path="url(#clip530)" style="stroke:#000000; stroke-linecap:round; stroke-linejoin:round; stroke-width:4; stroke-opacity:1; fill:none" points="149.191,1013.71 168.089,1013.71 "/>
<polyline clip-path="url(#clip530)" style="stroke:#000000; stroke-linecap:round; stroke-linejoin:round; stroke-width:4; stroke-opacity:1; fill:none" points="149.191,750.569 168.089,750.569 "/>
<polyline clip-path="url(#clip530)" style="stroke:#000000; stroke-linecap:round; stroke-linejoin:round; stroke-width:4; stroke-opacity:1; fill:none" points="149.191,487.429 168.089,487.429 "/>
<polyline clip-path="url(#clip530)" style="stroke:#000000; stroke-linecap:round; stroke-linejoin:round; stroke-width:4; stroke-opacity:1; fill:none" points="149.191,224.288 168.089,224.288 "/>
<path clip-path="url(#clip530)" d="M50.9921 1277.3 L80.6679 1277.3 L80.6679 1281.24 L50.9921 1281.24 L50.9921 1277.3 Z" fill="#000000" fill-rule="nonzero" fill-opacity="1" /><path clip-path="url(#clip530)" d="M103.608 1263.64 L91.8021 1282.09 L103.608 1282.09 L103.608 1263.64 M102.381 1259.57 L108.26 1259.57 L108.26 1282.09 L113.191 1282.09 L113.191 1285.98 L108.26 1285.98 L108.26 1294.13 L103.608 1294.13 L103.608 1285.98 L88.0058 1285.98 L88.0058 1281.47 L102.381 1259.57 Z" fill="#000000" fill-rule="nonzero" fill-opacity="1" /><path clip-path="url(#clip530)" d="M53.0754 1014.16 L82.7512 1014.16 L82.7512 1018.1 L53.0754 1018.1 L53.0754 1014.16 Z" fill="#000000" fill-rule="nonzero" fill-opacity="1" /><path clip-path="url(#clip530)" d="M96.8715 1027.05 L113.191 1027.05 L113.191 1030.99 L91.2465 1030.99 L91.2465 1027.05 Q93.9086 1024.3 98.4919 1019.67 Q103.098 1015.02 104.279 1013.68 Q106.524 1011.15 107.404 1009.42 Q108.307 1007.66 108.307 1005.97 Q108.307 1003.21 106.362 1001.48 Q104.441 999.74 101.339 999.74 Q99.14 999.74 96.6863 1000.5 Q94.2558 1001.27 91.478 1002.82 L91.478 998.097 Q94.3021 996.962 96.7558 996.384 Q99.2095 995.805 101.246 995.805 Q106.617 995.805 109.811 998.49 Q113.006 1001.18 113.006 1005.67 Q113.006 1007.8 112.196 1009.72 Q111.408 1011.62 109.302 1014.21 Q108.723 1014.88 105.621 1018.1 Q102.52 1021.29 96.8715 1027.05 Z" fill="#000000" fill-rule="nonzero" fill-opacity="1" /><path clip-path="url(#clip530)" d="M101.246 736.368 Q97.6354 736.368 95.8067 739.933 Q94.0012 743.475 94.0012 750.604 Q94.0012 757.711 95.8067 761.275 Q97.6354 764.817 101.246 764.817 Q104.881 764.817 106.686 761.275 Q108.515 757.711 108.515 750.604 Q108.515 743.475 106.686 739.933 Q104.881 736.368 101.246 736.368 M101.246 732.664 Q107.057 732.664 110.112 737.271 Q113.191 741.854 113.191 750.604 Q113.191 759.331 110.112 763.937 Q107.057 768.521 101.246 768.521 Q95.4363 768.521 92.3576 763.937 Q89.3021 759.331 89.3021 750.604 Q89.3021 741.854 92.3576 737.271 Q95.4363 732.664 101.246 732.664 Z" fill="#000000" fill-rule="nonzero" fill-opacity="1" /><path clip-path="url(#clip530)" d="M96.8715 500.774 L113.191 500.774 L113.191 504.709 L91.2465 504.709 L91.2465 500.774 Q93.9086 498.019 98.4919 493.389 Q103.098 488.737 104.279 487.394 Q106.524 484.871 107.404 483.135 Q108.307 481.376 108.307 479.686 Q108.307 476.931 106.362 475.195 Q104.441 473.459 101.339 473.459 Q99.14 473.459 96.6863 474.223 Q94.2558 474.987 91.478 476.538 L91.478 471.815 Q94.3021 470.681 96.7558 470.102 Q99.2095 469.524 101.246 469.524 Q106.617 469.524 109.811 472.209 Q113.006 474.894 113.006 479.385 Q113.006 481.514 112.196 483.436 Q111.408 485.334 109.302 487.926 Q108.723 488.598 105.621 491.815 Q102.52 495.01 96.8715 500.774 Z" fill="#000000" fill-rule="nonzero" fill-opacity="1" /><path clip-path="url(#clip530)" d="M103.608 211.082 L91.8021 229.531 L103.608 229.531 L103.608 211.082 M102.381 207.008 L108.26 207.008 L108.26 229.531 L113.191 229.531 L113.191 233.42 L108.26 233.42 L108.26 241.568 L103.608 241.568 L103.608 233.42 L88.0058 233.42 L88.0058 228.906 L102.381 207.008 Z" fill="#000000" fill-rule="nonzero" fill-opacity="1" /><polyline clip-path="url(#clip532)" style="stroke:#009af9; stroke-linecap:round; stroke-linejoin:round; stroke-width:4; stroke-opacity:1; fill:none" points="149.191,1384.24 171.748,1374.34 194.305,1364.77 217.166,1355.41 240.027,1346.39 263.226,1337.59 286.426,1329.12 308.701,1321.31 330.976,1313.8 352.788,1306.74 374.6,1299.95 395.841,1293.6 417.082,1287.49 438.277,1281.63 459.473,1276 480.734,1270.58 501.995,1265.38 523.565,1260.31 545.135,1255.44 567.089,1250.69 589.043,1246.13 611.293,1241.7 633.543,1237.45 656.552,1233.23 679.561,1229.19 703.067,1225.23 726.572,1221.44 750.585,1217.72 774.597,1214.16 799.442,1210.61 824.286,1207.21 849.81,1203.86 875.333,1200.63 901.453,1197.44 927.572,1194.37 954.299,1191.33 981.026,1188.39 1008.44,1185.47 1035.85,1182.62 1063.77,1179.8 1091.7,1177.04 1119.96,1174.29 1148.22,1171.59 1176.7,1168.89 1205.19,1166.22 1233.76,1163.54 1262.33,1160.87 1290.83,1158.19 1319.34,1155.48 1347.54,1152.77 1375.73,1150.02 1403.51,1147.26 1431.3,1144.43 1458.58,1141.57 1485.87,1138.64 1512.61,1135.67 1539.35,1132.61 1565.46,1129.51 1591.57,1126.29 1616.82,1123.06 1642.07,1119.71 1666.72,1116.29 1691.37,1112.74 1715.47,1109.12 1739.57,1105.35 1762.88,1101.55 1786.18,1097.58 1808.92,1093.54 1831.66,1089.34 1854.01,1085.02 1876.36,1080.52 1898.08,1075.96 1919.81,1071.21 1941.24,1066.33 1962.67,1061.24 1983.87,1056 2005.06,1050.55 2026.07,1044.92 2047.08,1039.06 2068.18,1032.94 2089.29,1026.58 2110.68,1019.87 2132.08,1012.9 2154.66,1005.24 2177.25,997.261 2200.45,988.739 2223.65,979.874 2246.97,970.612 2270.29,960.996 2291.37,951.997 2312.44,942.706 2332.6,933.552 2352.76,924.136 "/>
<polyline clip-path="url(#clip532)" style="stroke:#e26f46; stroke-linecap:round; stroke-linejoin:round; stroke-width:4; stroke-opacity:1; fill:none" points="149.191,124.434 171.748,145.138 194.305,165.886 217.166,186.849 240.027,207.643 263.226,228.481 286.426,248.973 308.701,268.257 330.976,287.106 352.788,305.099 374.6,322.6 395.841,339.145 417.082,355.179 438.277,370.656 459.473,385.6 480.734,400.051 501.995,413.957 523.565,427.511 545.135,440.507 567.089,453.168 589.043,465.264 611.293,476.957 633.543,488.088 656.552,499.023 679.561,509.383 703.067,519.389 726.572,528.827 750.585,537.896 774.597,546.405 799.442,554.636 824.286,562.301 849.81,569.605 875.333,576.348 901.453,582.686 927.572,588.471 954.299,593.835 981.026,598.653 1008.44,603.042 1035.85,606.886 1063.77,610.254 1091.7,613.08 1119.96,615.399 1148.22,617.181 1176.7,618.441 1205.19,619.166 1233.76,619.36 1262.33,619.02 1290.83,618.147 1319.34,616.738 1347.54,614.812 1375.73,612.349 1403.51,609.39 1431.3,605.892 1458.58,601.92 1485.87,597.405 1512.61,592.438 1539.35,586.921 1565.46,580.987 1591.57,574.496 1616.82,567.673 1642.07,560.296 1666.72,552.544 1691.37,544.231 1715.47,535.543 1739.57,526.286 1762.88,516.778 1786.18,506.706 1808.92,496.324 1831.66,485.378 1854.01,474.054 1876.36,462.161 1898.08,450.052 1919.81,437.387 1941.24,424.34 1962.67,410.743 1983.87,396.753 2005.06,382.224 2026.07,367.292 2047.08,351.839 2068.18,335.8 2089.29,319.262 2110.68,302.006 2132.08,284.281 2154.66,265.096 2177.25,245.471 2200.45,224.914 2223.65,204.024 2246.97,182.774 2270.29,161.369 2291.37,141.979 2312.44,122.643 2332.6,104.297 2352.76,86.1857 "/>
<path clip-path="url(#clip530)" d="M1969.85 1377.32 L2279.3 1377.32 L2279.3 1221.8 L1969.85 1221.8  Z" fill="#ffffff" fill-rule="evenodd" fill-opacity="1"/>
<polyline clip-path="url(#clip530)" style="stroke:#000000; stroke-linecap:round; stroke-linejoin:round; stroke-width:4; stroke-opacity:1; fill:none" points="1969.85,1377.32 2279.3,1377.32 2279.3,1221.8 1969.85,1221.8 1969.85,1377.32 "/>
<polyline clip-path="url(#clip530)" style="stroke:#009af9; stroke-linecap:round; stroke-linejoin:round; stroke-width:4; stroke-opacity:1; fill:none" points="1994.33,1273.64 2141.24,1273.64 "/>
<path clip-path="url(#clip530)" d="M2165.72 1280.68 L2165.72 1264.99 L2169.98 1264.99 L2169.98 1280.52 Q2169.98 1284.2 2171.42 1286.05 Q2172.85 1287.88 2175.72 1287.88 Q2179.17 1287.88 2181.16 1285.68 Q2183.18 1283.48 2183.18 1279.69 L2183.18 1264.99 L2187.44 1264.99 L2187.44 1290.92 L2183.18 1290.92 L2183.18 1286.93 Q2181.63 1289.29 2179.57 1290.45 Q2177.53 1291.59 2174.82 1291.59 Q2170.35 1291.59 2168.04 1288.81 Q2165.72 1286.03 2165.72 1280.68 M2176.44 1264.36 L2176.44 1264.36 Z" fill="#000000" fill-rule="nonzero" fill-opacity="1" /><path clip-path="url(#clip530)" d="M2195.82 1254.9 L2205.63 1254.9 L2205.63 1258.21 L2200.07 1258.21 L2200.07 1293.86 L2205.63 1293.86 L2205.63 1297.17 L2195.82 1297.17 L2195.82 1254.9 Z" fill="#000000" fill-rule="nonzero" fill-opacity="1" /><path clip-path="url(#clip530)" d="M2216.12 1286.98 L2223.76 1286.98 L2223.76 1260.61 L2215.44 1262.28 L2215.44 1258.02 L2223.71 1256.36 L2228.38 1256.36 L2228.38 1286.98 L2236.02 1286.98 L2236.02 1290.92 L2216.12 1290.92 L2216.12 1286.98 Z" fill="#000000" fill-rule="nonzero" fill-opacity="1" /><path clip-path="url(#clip530)" d="M2254.82 1254.9 L2254.82 1297.17 L2245 1297.17 L2245 1293.86 L2250.54 1293.86 L2250.54 1258.21 L2245 1258.21 L2245 1254.9 L2254.82 1254.9 Z" fill="#000000" fill-rule="nonzero" fill-opacity="1" /><polyline clip-path="url(#clip530)" style="stroke:#e26f46; stroke-linecap:round; stroke-linejoin:round; stroke-width:4; stroke-opacity:1; fill:none" points="1994.33,1325.48 2141.24,1325.48 "/>
<path clip-path="url(#clip530)" d="M2165.72 1332.52 L2165.72 1316.83 L2169.98 1316.83 L2169.98 1332.36 Q2169.98 1336.04 2171.42 1337.89 Q2172.85 1339.72 2175.72 1339.72 Q2179.17 1339.72 2181.16 1337.52 Q2183.18 1335.32 2183.18 1331.53 L2183.18 1316.83 L2187.44 1316.83 L2187.44 1342.76 L2183.18 1342.76 L2183.18 1338.77 Q2181.63 1341.13 2179.57 1342.29 Q2177.53 1343.43 2174.82 1343.43 Q2170.35 1343.43 2168.04 1340.65 Q2165.72 1337.87 2165.72 1332.52 M2176.44 1316.2 L2176.44 1316.2 Z" fill="#000000" fill-rule="nonzero" fill-opacity="1" /><path clip-path="url(#clip530)" d="M2195.82 1306.74 L2205.63 1306.74 L2205.63 1310.05 L2200.07 1310.05 L2200.07 1345.7 L2205.63 1345.7 L2205.63 1349.01 L2195.82 1349.01 L2195.82 1306.74 Z" fill="#000000" fill-rule="nonzero" fill-opacity="1" /><path clip-path="url(#clip530)" d="M2219.33 1338.82 L2235.65 1338.82 L2235.65 1342.76 L2213.71 1342.76 L2213.71 1338.82 Q2216.37 1336.07 2220.95 1331.44 Q2225.56 1326.78 2226.74 1325.44 Q2228.99 1322.92 2229.87 1321.18 Q2230.77 1319.42 2230.77 1317.73 Q2230.77 1314.98 2228.82 1313.24 Q2226.9 1311.51 2223.8 1311.51 Q2221.6 1311.51 2219.15 1312.27 Q2216.72 1313.03 2213.94 1314.58 L2213.94 1309.86 Q2216.76 1308.73 2219.22 1308.15 Q2221.67 1307.57 2223.71 1307.57 Q2229.08 1307.57 2232.27 1310.26 Q2235.47 1312.94 2235.47 1317.43 Q2235.47 1319.56 2234.66 1321.48 Q2233.87 1323.38 2231.76 1325.97 Q2231.19 1326.64 2228.08 1329.86 Q2224.98 1333.06 2219.33 1338.82 Z" fill="#000000" fill-rule="nonzero" fill-opacity="1" /><path clip-path="url(#clip530)" d="M2254.82 1306.74 L2254.82 1349.01 L2245 1349.01 L2245 1345.7 L2250.54 1345.7 L2250.54 1310.05 L2245 1310.05 L2245 1306.74 L2254.82 1306.74 Z" fill="#000000" fill-rule="nonzero" fill-opacity="1" /></svg>
