<?xml version="1.0" encoding="utf-8"?>
<svg xmlns="http://www.w3.org/2000/svg" xmlns:xlink="http://www.w3.org/1999/xlink" width="600" height="400" viewBox="0 0 2400 1600">
<defs>
  <clipPath id="clip580">
    <rect x="0" y="0" width="2400" height="1600"/>
  </clipPath>
</defs>
<path clip-path="url(#clip580)" d="M0 1600 L2400 1600 L2400 0 L0 0  Z" fill="#ffffff" fill-rule="evenodd" fill-opacity="1"/>
<defs>
  <clipPath id="clip581">
    <rect x="148" y="47" width="2206" height="1377"/>
  </clipPath>
</defs>
<path clip-path="url(#clip580)" d="M148.057 1423.18 L2352.76 1423.18 L2352.76 47.2441 L148.057 47.2441  Z" fill="#ffffff" fill-rule="evenodd" fill-opacity="1"/>
<polyline clip-path="url(#clip581)" style="stroke:#000000; stroke-linecap:round; stroke-linejoin:round; stroke-width:2; stroke-opacity:0.1; fill:none" points="148.057,1423.18 148.057,47.2441 "/>
<polyline clip-path="url(#clip581)" style="stroke:#000000; stroke-linecap:round; stroke-linejoin:round; stroke-width:2; stroke-opacity:0.1; fill:none" points="849.834,1423.18 849.834,47.2441 "/>
<polyline clip-path="url(#clip581)" style="stroke:#000000; stroke-linecap:round; stroke-linejoin:round; stroke-width:2; stroke-opacity:0.1; fill:none" points="1551.61,1423.18 1551.61,47.2441 "/>
<polyline clip-path="url(#clip581)" style="stroke:#000000; stroke-linecap:round; stroke-linejoin:round; stroke-width:2; stroke-opacity:0.1; fill:none" points="2253.39,1423.18 2253.39,47.2441 "/>
<polyline clip-path="url(#clip581)" style="stroke:#000000; stroke-linecap:round; stroke-linejoin:round; stroke-width:2; stroke-opacity:0.1; fill:none" points="148.057,1285.1 2352.76,1285.1 "/>
<polyline clip-path="url(#clip581)" style="stroke:#000000; stroke-linecap:round; stroke-linejoin:round; stroke-width:2; stroke-opacity:0.1; fill:none" points="148.057,1101.81 2352.76,1101.81 "/>
<polyline clip-path="url(#clip581)" style="stroke:#000000; stroke-linecap:round; stroke-linejoin:round; stroke-width:2; stroke-opacity:0.1; fill:none" points="148.057,918.519 2352.76,918.519 "/>
<polyline clip-path="url(#clip581)" style="stroke:#000000; stroke-linecap:round; stroke-linejoin:round; stroke-width:2; stroke-opacity:0.1; fill:none" points="148.057,735.23 2352.76,735.23 "/>
<polyline clip-path="url(#clip581)" style="stroke:#000000; stroke-linecap:round; stroke-linejoin:round; stroke-width:2; stroke-opacity:0.1; fill:none" points="148.057,551.94 2352.76,551.94 "/>
<polyline clip-path="url(#clip581)" style="stroke:#000000; stroke-linecap:round; stroke-linejoin:round; stroke-width:2; stroke-opacity:0.1; fill:none" points="148.057,368.651 2352.76,368.651 "/>
<polyline clip-path="url(#clip581)" style="stroke:#000000; stroke-linecap:round; stroke-linejoin:round; stroke-width:2; stroke-opacity:0.1; fill:none" points="148.057,185.361 2352.76,185.361 "/>
<polyline clip-path="url(#clip580)" style="stroke:#000000; stroke-linecap:round; stroke-linejoin:round; stroke-width:4; stroke-opacity:1; fill:none" points="148.057,1423.18 2352.76,1423.18 "/>
<polyline clip-path="url(#clip580)" style="stroke:#000000; stroke-linecap:round; stroke-linejoin:round; stroke-width:4; stroke-opacity:1; fill:none" points="148.057,1423.18 148.057,1404.28 "/>
<polyline clip-path="url(#clip580)" style="stroke:#000000; stroke-linecap:round; stroke-linejoin:round; stroke-width:4; stroke-opacity:1; fill:none" points="849.834,1423.18 849.834,1404.28 "/>
<polyline clip-path="url(#clip580)" style="stroke:#000000; stroke-linecap:round; stroke-linejoin:round; stroke-width:4; stroke-opacity:1; fill:none" points="1551.61,1423.18 1551.61,1404.28 "/>
<polyline clip-path="url(#clip580)" style="stroke:#000000; stroke-linecap:round; stroke-linejoin:round; stroke-width:4; stroke-opacity:1; fill:none" points="2253.39,1423.18 2253.39,1404.28 "/>
<path clip-path="url(#clip580)" d="M148.057 1454.1 Q144.446 1454.1 142.617 1457.66 Q140.811 1461.2 140.811 1468.33 Q140.811 1475.44 142.617 1479.01 Q144.446 1482.55 148.057 1482.55 Q151.691 1482.55 153.496 1479.01 Q155.325 1475.44 155.325 1468.33 Q155.325 1461.2 153.496 1457.66 Q151.691 1454.1 148.057 1454.1 M148.057 1450.39 Q153.867 1450.39 156.922 1455 Q160.001 1459.58 160.001 1468.33 Q160.001 1477.06 156.922 1481.67 Q153.867 1486.25 148.057 1486.25 Q142.246 1486.25 139.168 1481.67 Q136.112 1477.06 136.112 1468.33 Q136.112 1459.58 139.168 1455 Q142.246 1450.39 148.057 1450.39 Z" fill="#000000" fill-rule="nonzero" fill-opacity="1" /><path clip-path="url(#clip580)" d="M840.216 1481.64 L847.855 1481.64 L847.855 1455.28 L839.545 1456.95 L839.545 1452.69 L847.809 1451.02 L852.485 1451.02 L852.485 1481.64 L860.123 1481.64 L860.123 1485.58 L840.216 1485.58 L840.216 1481.64 Z" fill="#000000" fill-rule="nonzero" fill-opacity="1" /><path clip-path="url(#clip580)" d="M1546.26 1481.64 L1562.58 1481.64 L1562.58 1485.58 L1540.64 1485.58 L1540.64 1481.64 Q1543.3 1478.89 1547.88 1474.26 Q1552.49 1469.61 1553.67 1468.27 Q1555.92 1465.74 1556.8 1464.01 Q1557.7 1462.25 1557.7 1460.56 Q1557.7 1457.8 1555.76 1456.07 Q1553.83 1454.33 1550.73 1454.33 Q1548.53 1454.33 1546.08 1455.09 Q1543.65 1455.86 1540.87 1457.41 L1540.87 1452.69 Q1543.7 1451.55 1546.15 1450.97 Q1548.6 1450.39 1550.64 1450.39 Q1556.01 1450.39 1559.2 1453.08 Q1562.4 1455.77 1562.4 1460.26 Q1562.4 1462.39 1561.59 1464.31 Q1560.8 1466.2 1558.7 1468.8 Q1558.12 1469.47 1555.01 1472.69 Q1551.91 1475.88 1546.26 1481.64 Z" fill="#000000" fill-rule="nonzero" fill-opacity="1" /><path clip-path="url(#clip580)" d="M2257.64 1466.95 Q2260.99 1467.66 2262.87 1469.93 Q2264.77 1472.2 2264.77 1475.53 Q2264.77 1480.65 2261.25 1483.45 Q2257.73 1486.25 2251.25 1486.25 Q2249.07 1486.25 2246.76 1485.81 Q2244.47 1485.39 2242.01 1484.54 L2242.01 1480.02 Q2243.96 1481.16 2246.27 1481.74 Q2248.59 1482.32 2251.11 1482.32 Q2255.51 1482.32 2257.8 1480.58 Q2260.11 1478.84 2260.11 1475.53 Q2260.11 1472.48 2257.96 1470.77 Q2255.83 1469.03 2252.01 1469.03 L2247.98 1469.03 L2247.98 1465.19 L2252.2 1465.19 Q2255.65 1465.19 2257.47 1463.82 Q2259.3 1462.43 2259.3 1459.84 Q2259.3 1457.18 2257.41 1455.77 Q2255.53 1454.33 2252.01 1454.33 Q2250.09 1454.33 2247.89 1454.75 Q2245.69 1455.16 2243.05 1456.04 L2243.05 1451.88 Q2245.72 1451.14 2248.03 1450.77 Q2250.37 1450.39 2252.43 1450.39 Q2257.75 1450.39 2260.85 1452.83 Q2263.96 1455.23 2263.96 1459.35 Q2263.96 1462.22 2262.31 1464.21 Q2260.67 1466.18 2257.64 1466.95 Z" fill="#000000" fill-rule="nonzero" fill-opacity="1" /><path clip-path="url(#clip580)" d="M1249.47 1522.27 L1249.47 1532.4 L1261.53 1532.4 L1261.53 1536.95 L1249.47 1536.95 L1249.47 1556.3 Q1249.47 1560.66 1250.64 1561.9 Q1251.85 1563.14 1255.51 1563.14 L1261.53 1563.14 L1261.53 1568.04 L1255.51 1568.04 Q1248.74 1568.04 1246.16 1565.53 Q1243.58 1562.98 1243.58 1556.3 L1243.58 1536.95 L1239.28 1536.95 L1239.28 1532.4 L1243.58 1532.4 L1243.58 1522.27 L1249.47 1522.27 Z" fill="#000000" fill-rule="nonzero" fill-opacity="1" /><polyline clip-path="url(#clip580)" style="stroke:#000000; stroke-linecap:round; stroke-linejoin:round; stroke-width:4; stroke-opacity:1; fill:none" points="148.057,1423.18 148.057,47.2441 "/>
<polyline clip-path="url(#clip580)" style="stroke:#000000; stroke-linecap:round; stroke-linejoin:round; stroke-width:4; stroke-opacity:1; fill:none" points="148.057,1285.1 166.954,1285.1 "/>
<polyline clip-path="url(#clip580)" style="stroke:#000000; stroke-linecap:round; stroke-linejoin:round; stroke-width:4; stroke-opacity:1; fill:none" points="148.057,1101.81 166.954,1101.81 "/>
<polyline clip-path="url(#clip580)" style="stroke:#000000; stroke-linecap:round; stroke-linejoin:round; stroke-width:4; stroke-opacity:1; fill:none" points="148.057,918.519 166.954,918.519 "/>
<polyline clip-path="url(#clip580)" style="stroke:#000000; stroke-linecap:round; stroke-linejoin:round; stroke-width:4; stroke-opacity:1; fill:none" points="148.057,735.23 166.954,735.23 "/>
<polyline clip-path="url(#clip580)" style="stroke:#000000; stroke-linecap:round; stroke-linejoin:round; stroke-width:4; stroke-opacity:1; fill:none" points="148.057,551.94 166.954,551.94 "/>
<polyline clip-path="url(#clip580)" style="stroke:#000000; stroke-linecap:round; stroke-linejoin:round; stroke-width:4; stroke-opacity:1; fill:none" points="148.057,368.651 166.954,368.651 "/>
<polyline clip-path="url(#clip580)" style="stroke:#000000; stroke-linecap:round; stroke-linejoin:round; stroke-width:4; stroke-opacity:1; fill:none" points="148.057,185.361 166.954,185.361 "/>
<path clip-path="url(#clip580)" d="M50.9921 1285.55 L80.6679 1285.55 L80.6679 1289.48 L50.9921 1289.48 L50.9921 1285.55 Z" fill="#000000" fill-rule="nonzero" fill-opacity="1" /><path clip-path="url(#clip580)" d="M104.927 1283.74 Q108.283 1284.46 110.158 1286.73 Q112.057 1289 112.057 1292.33 Q112.057 1297.45 108.538 1300.25 Q105.02 1303.05 98.5382 1303.05 Q96.3623 1303.05 94.0475 1302.61 Q91.7558 1302.19 89.3021 1301.34 L89.3021 1296.82 Q91.2465 1297.96 93.5613 1298.54 Q95.8761 1299.11 98.3993 1299.11 Q102.797 1299.11 105.089 1297.38 Q107.404 1295.64 107.404 1292.33 Q107.404 1289.28 105.251 1287.56 Q103.121 1285.83 99.3021 1285.83 L95.2743 1285.83 L95.2743 1281.98 L99.4872 1281.98 Q102.936 1281.98 104.765 1280.62 Q106.594 1279.23 106.594 1276.64 Q106.594 1273.98 104.696 1272.56 Q102.821 1271.13 99.3021 1271.13 Q97.3808 1271.13 95.1817 1271.54 Q92.9826 1271.96 90.3438 1272.84 L90.3438 1268.67 Q93.0058 1267.93 95.3206 1267.56 Q97.6585 1267.19 99.7187 1267.19 Q105.043 1267.19 108.145 1269.62 Q111.246 1272.03 111.246 1276.15 Q111.246 1279.02 109.603 1281.01 Q107.959 1282.98 104.927 1283.74 Z" fill="#000000" fill-rule="nonzero" fill-opacity="1" /><path clip-path="url(#clip580)" d="M51.9412 1102.26 L81.617 1102.26 L81.617 1106.2 L51.9412 1106.2 L51.9412 1102.26 Z" fill="#000000" fill-rule="nonzero" fill-opacity="1" /><path clip-path="url(#clip580)" d="M95.7373 1115.15 L112.057 1115.15 L112.057 1119.09 L90.1123 1119.09 L90.1123 1115.15 Q92.7743 1112.4 97.3576 1107.77 Q101.964 1103.12 103.145 1101.77 Q105.39 1099.25 106.27 1097.51 Q107.172 1095.76 107.172 1094.07 Q107.172 1091.31 105.228 1089.57 Q103.307 1087.84 100.205 1087.84 Q98.0058 1087.84 95.5521 1088.6 Q93.1215 1089.37 90.3438 1090.92 L90.3438 1086.2 Q93.1678 1085.06 95.6215 1084.48 Q98.0752 1083.9 100.112 1083.9 Q105.483 1083.9 108.677 1086.59 Q111.871 1089.27 111.871 1093.76 Q111.871 1095.89 111.061 1097.82 Q110.274 1099.71 108.168 1102.31 Q107.589 1102.98 104.487 1106.2 Q101.385 1109.39 95.7373 1115.15 Z" fill="#000000" fill-rule="nonzero" fill-opacity="1" /><path clip-path="url(#clip580)" d="M51.5708 918.971 L81.2466 918.971 L81.2466 922.906 L51.5708 922.906 L51.5708 918.971 Z" fill="#000000" fill-rule="nonzero" fill-opacity="1" /><path clip-path="url(#clip580)" d="M92.1493 931.864 L99.7882 931.864 L99.7882 905.498 L91.478 907.165 L91.478 902.906 L99.7419 901.239 L104.418 901.239 L104.418 931.864 L112.057 931.864 L112.057 935.799 L92.1493 935.799 L92.1493 931.864 Z" fill="#000000" fill-rule="nonzero" fill-opacity="1" /><path clip-path="url(#clip580)" d="M100.112 721.028 Q96.5011 721.028 94.6724 724.593 Q92.8669 728.135 92.8669 735.264 Q92.8669 742.371 94.6724 745.936 Q96.5011 749.477 100.112 749.477 Q103.746 749.477 105.552 745.936 Q107.381 742.371 107.381 735.264 Q107.381 728.135 105.552 724.593 Q103.746 721.028 100.112 721.028 M100.112 717.325 Q105.922 717.325 108.978 721.931 Q112.057 726.514 112.057 735.264 Q112.057 743.991 108.978 748.598 Q105.922 753.181 100.112 753.181 Q94.3021 753.181 91.2234 748.598 Q88.1679 743.991 88.1679 735.264 Q88.1679 726.514 91.2234 721.931 Q94.3021 717.325 100.112 717.325 Z" fill="#000000" fill-rule="nonzero" fill-opacity="1" /><path clip-path="url(#clip580)" d="M92.1493 565.285 L99.7882 565.285 L99.7882 538.919 L91.478 540.586 L91.478 536.327 L99.7419 534.66 L104.418 534.66 L104.418 565.285 L112.057 565.285 L112.057 569.22 L92.1493 569.22 L92.1493 565.285 Z" fill="#000000" fill-rule="nonzero" fill-opacity="1" /><path clip-path="url(#clip580)" d="M95.7373 381.995 L112.057 381.995 L112.057 385.931 L90.1123 385.931 L90.1123 381.995 Q92.7743 379.241 97.3576 374.611 Q101.964 369.959 103.145 368.616 Q105.39 366.093 106.27 364.357 Q107.172 362.597 107.172 360.908 Q107.172 358.153 105.228 356.417 Q103.307 354.681 100.205 354.681 Q98.0058 354.681 95.5521 355.445 Q93.1215 356.209 90.3438 357.76 L90.3438 353.037 Q93.1678 351.903 95.6215 351.324 Q98.0752 350.746 100.112 350.746 Q105.483 350.746 108.677 353.431 Q111.871 356.116 111.871 360.607 Q111.871 362.736 111.061 364.658 Q110.274 366.556 108.168 369.148 Q107.589 369.82 104.487 373.037 Q101.385 376.232 95.7373 381.995 Z" fill="#000000" fill-rule="nonzero" fill-opacity="1" /><path clip-path="url(#clip580)" d="M104.927 184.007 Q108.283 184.725 110.158 186.993 Q112.057 189.262 112.057 192.595 Q112.057 197.711 108.538 200.512 Q105.02 203.312 98.5382 203.312 Q96.3623 203.312 94.0475 202.873 Q91.7558 202.456 89.3021 201.599 L89.3021 197.086 Q91.2465 198.22 93.5613 198.799 Q95.8761 199.377 98.3993 199.377 Q102.797 199.377 105.089 197.641 Q107.404 195.905 107.404 192.595 Q107.404 189.539 105.251 187.826 Q103.121 186.09 99.3021 186.09 L95.2743 186.09 L95.2743 182.248 L99.4872 182.248 Q102.936 182.248 104.765 180.882 Q106.594 179.493 106.594 176.901 Q106.594 174.239 104.696 172.827 Q102.821 171.391 99.3021 171.391 Q97.3808 171.391 95.1817 171.808 Q92.9826 172.225 90.3438 173.104 L90.3438 168.938 Q93.0058 168.197 95.3206 167.827 Q97.6585 167.456 99.7187 167.456 Q105.043 167.456 108.145 169.887 Q111.246 172.294 111.246 176.414 Q111.246 179.285 109.603 181.276 Q107.959 183.243 104.927 184.007 Z" fill="#000000" fill-rule="nonzero" fill-opacity="1" /><polyline clip-path="url(#clip581)" style="stroke:#009af9; stroke-linecap:round; stroke-linejoin:round; stroke-width:4; stroke-opacity:1; fill:none" points="148.057,551.94 170.744,552.62 193.451,554.66 216.195,558.064 239.002,562.838 261.909,568.995 284.959,576.551 308.215,585.536 331.791,596.005 355.848,608.053 380.463,621.74 405.07,636.705 428.392,651.969 450.444,667.258 471.354,682.412 490.962,697.096 509.15,711.022 525.876,724.004 541.011,735.82 555.505,747.132 570.54,758.796 586.461,770.986 603.016,783.388 620.072,795.76 637.483,807.84 655.281,819.479 673.312,830.395 691.581,840.405 709.561,849.084 727.027,856.273 743.941,861.958 760.308,866.173 776.163,868.98 791.424,870.44 806.399,870.65 822.422,869.503 839.958,866.601 858.082,861.794 876.003,855.261 893.626,847.166 910.943,837.674 927.991,826.945 944.759,815.171 961.205,802.579 977.363,789.348 993.135,775.762 1008.45,762.09 1023.09,748.722 1036.98,735.894 1050.19,723.701 1065.45,709.735 1081.54,695.361 1098.15,681.088 1114.94,667.468 1131.71,654.885 1148.46,643.53 1165.25,633.548 1182.16,625.068 1198.98,618.335 1215.72,613.435 1232.39,610.413 1249.01,609.296 1265.62,610.09 1282.22,612.78 1298.85,617.327 1315.51,623.676 1332.25,631.755 1349.01,641.426 1365.75,652.508 1382.5,664.854 1399.32,678.306 1416.24,692.702 1433.21,707.787 1449.81,722.946 1464.73,736.732 1480.41,751.193 1496.52,765.835 1512.9,780.326 1529.5,794.396 1546.31,807.823 1563.31,820.406 1580.51,831.945 1597.97,842.299 1615.65,851.257 1633.61,858.686 1651.77,864.42 1669.59,868.261 1686.23,870.243 1701.56,870.703 1716.4,869.923 1731.93,867.851 1748.02,864.398 1764.68,859.496 1781.86,853.108 1799.64,845.19 1817.92,835.785 1836.41,825.121 1854.75,813.55 1872.88,801.289 1890.74,788.566 1908.22,775.621 1925.29,762.636 1941.59,750.024 1956.96,738.042 1972.37,726.001 1989.15,712.962 2008.06,698.457 2028.4,683.192 2049.96,667.55 2072.6,651.847 2096.45,636.255 2121.21,621.239 2145.63,607.704 2169.45,595.803 2192.87,585.423 2216.02,576.49 2239,568.965 2261.87,562.825 2284.65,558.059 2307.37,554.659 2330.07,552.62 2352.76,551.94 "/>
<polyline clip-path="url(#clip581)" style="stroke:#e26f46; stroke-linecap:round; stroke-linejoin:round; stroke-width:4; stroke-opacity:1; fill:none" points="148.057,735.23 170.744,777.269 193.451,819.278 216.195,861.209 239.002,903.007 261.909,944.598 284.959,985.868 308.215,1026.67 331.791,1066.85 355.848,1106.21 380.463,1144.22 405.07,1179.3 428.392,1209.17 450.444,1233.77 471.354,1253.23 490.962,1267.55 509.15,1277.02 525.876,1282.14 541.011,1283.57 555.505,1281.89 570.54,1276.82 586.461,1267.57 603.016,1253.54 620.072,1234.2 637.483,1209.22 655.281,1178.16 673.312,1141 691.581,1097.61 709.561,1049.48 727.027,997.864 743.941,943.684 760.308,887.752 776.163,830.741 791.424,773.717 806.399,716.216 822.422,653.601 839.958,584.597 858.082,513.788 876.003,445.394 893.626,380.835 910.943,321.087 927.991,266.867 944.759,218.937 961.205,177.974 977.363,144.311 993.135,118.366 1008.45,100.215 1023.09,89.7142 1036.98,86.1857 1050.19,88.7877 1065.45,99.1255 1081.54,118.517 1098.15,147.565 1114.94,185.926 1131.71,232.792 1148.46,287.492 1165.25,349.422 1182.16,418.046 1198.98,491.506 1215.72,568.492 1232.39,647.88 1249.01,728.461 1265.62,809.041 1282.22,888.438 1298.85,965.475 1315.51,1039.03 1332.25,1108.04 1349.01,1171.18 1365.75,1227.32 1382.5,1275.8 1399.32,1315.97 1416.24,1347.31 1433.21,1369.24 1449.81,1381.32 1464.73,1384.24 1480.41,1379.33 1496.52,1366.03 1512.9,1344.29 1529.5,1314.34 1546.31,1276.57 1563.31,1231.49 1580.51,1179.78 1597.97,1121.94 1615.65,1059.02 1633.61,991.773 1651.77,921.488 1669.59,851.501 1686.23,786.12 1701.56,726.653 1716.4,670.309 1731.93,613.217 1748.02,556.612 1764.68,501.277 1781.86,448.154 1799.64,397.879 1817.92,351.502 1836.41,310.389 1854.75,275.515 1872.88,246.878 1890.74,224.321 1908.22,207.554 1925.29,196.094 1941.59,189.497 1956.96,186.979 1972.37,187.86 1989.15,192.449 2008.06,201.802 2028.4,216.354 2049.96,236.267 2072.6,261.501 2096.45,292.129 2121.21,327.523 2145.63,365.308 2169.45,404.325 2192.87,444.262 2216.02,484.893 2239,526.043 2261.87,567.553 2284.65,609.301 2307.37,651.202 2330.07,693.195 2352.76,735.23 "/>
<path clip-path="url(#clip580)" d="M221.547 248.629 L531.113 248.629 L531.113 93.1086 L221.547 93.1086  Z" fill="#ffffff" fill-rule="evenodd" fill-opacity="1"/>
<polyline clip-path="url(#clip580)" style="stroke:#000000; stroke-linecap:round; stroke-linejoin:round; stroke-width:4; stroke-opacity:1; fill:none" points="221.547,248.629 531.113,248.629 531.113,93.1086 221.547,93.1086 221.547,248.629 "/>
<polyline clip-path="url(#clip580)" style="stroke:#009af9; stroke-linecap:round; stroke-linejoin:round; stroke-width:4; stroke-opacity:1; fill:none" points="246.043,144.949 393.023,144.949 "/>
<path clip-path="url(#clip580)" d="M417.52 151.997 L417.52 136.303 L421.779 136.303 L421.779 151.835 Q421.779 155.516 423.214 157.368 Q424.649 159.196 427.52 159.196 Q430.969 159.196 432.96 156.997 Q434.973 154.798 434.973 151.002 L434.973 136.303 L439.233 136.303 L439.233 162.229 L434.973 162.229 L434.973 158.247 Q433.423 160.608 431.362 161.766 Q429.325 162.9 426.617 162.9 Q422.149 162.9 419.835 160.122 Q417.52 157.344 417.52 151.997 M428.237 135.678 L428.237 135.678 Z" fill="#000000" fill-rule="nonzero" fill-opacity="1" /><path clip-path="url(#clip580)" d="M447.612 126.21 L457.427 126.21 L457.427 129.52 L451.872 129.52 L451.872 165.168 L457.427 165.168 L457.427 168.479 L447.612 168.479 L447.612 126.21 Z" fill="#000000" fill-rule="nonzero" fill-opacity="1" /><path clip-path="url(#clip580)" d="M467.913 158.293 L475.552 158.293 L475.552 131.928 L467.242 133.595 L467.242 129.335 L475.506 127.669 L480.182 127.669 L480.182 158.293 L487.82 158.293 L487.82 162.229 L467.913 162.229 L467.913 158.293 Z" fill="#000000" fill-rule="nonzero" fill-opacity="1" /><path clip-path="url(#clip580)" d="M506.617 126.21 L506.617 168.479 L496.802 168.479 L496.802 165.168 L502.334 165.168 L502.334 129.52 L496.802 129.52 L496.802 126.21 L506.617 126.21 Z" fill="#000000" fill-rule="nonzero" fill-opacity="1" /><polyline clip-path="url(#clip580)" style="stroke:#e26f46; stroke-linecap:round; stroke-linejoin:round; stroke-width:4; stroke-opacity:1; fill:none" points="246.043,196.789 393.023,196.789 "/>
<path clip-path="url(#clip580)" d="M417.52 203.837 L417.52 188.143 L421.779 188.143 L421.779 203.675 Q421.779 207.356 423.214 209.208 Q424.649 211.036 427.52 211.036 Q430.969 211.036 432.96 208.837 Q434.973 206.638 434.973 202.842 L434.973 188.143 L439.233 188.143 L439.233 214.069 L434.973 214.069 L434.973 210.087 Q433.423 212.448 431.362 213.606 Q429.325 214.74 426.617 214.74 Q422.149 214.74 419.835 211.962 Q417.52 209.184 417.52 203.837 M428.237 187.518 L428.237 187.518 Z" fill="#000000" fill-rule="nonzero" fill-opacity="1" /><path clip-path="url(#clip580)" d="M447.612 178.05 L457.427 178.05 L457.427 181.36 L451.872 181.36 L451.872 217.008 L457.427 217.008 L457.427 220.319 L447.612 220.319 L447.612 178.05 Z" fill="#000000" fill-rule="nonzero" fill-opacity="1" /><path clip-path="url(#clip580)" d="M471.131 210.133 L487.45 210.133 L487.45 214.069 L465.506 214.069 L465.506 210.133 Q468.168 207.379 472.751 202.749 Q477.358 198.096 478.538 196.754 Q480.783 194.231 481.663 192.495 Q482.566 190.735 482.566 189.046 Q482.566 186.291 480.621 184.555 Q478.7 182.819 475.598 182.819 Q473.399 182.819 470.946 183.583 Q468.515 184.347 465.737 185.897 L465.737 181.175 Q468.561 180.041 471.015 179.462 Q473.469 178.884 475.506 178.884 Q480.876 178.884 484.07 181.569 Q487.265 184.254 487.265 188.745 Q487.265 190.874 486.455 192.796 Q485.668 194.694 483.561 197.286 Q482.982 197.958 479.881 201.175 Q476.779 204.37 471.131 210.133 Z" fill="#000000" fill-rule="nonzero" fill-opacity="1" /><path clip-path="url(#clip580)" d="M506.617 178.05 L506.617 220.319 L496.802 220.319 L496.802 217.008 L502.334 217.008 L502.334 181.36 L496.802 181.36 L496.802 178.05 L506.617 178.05 Z" fill="#000000" fill-rule="nonzero" fill-opacity="1" /></svg>
