<?xml version="1.0" encoding="utf-8"?>
<svg xmlns="http://www.w3.org/2000/svg" xmlns:xlink="http://www.w3.org/1999/xlink" width="600" height="400" viewBox="0 0 2400 1600">
<defs>
  <clipPath id="clip540">
    <rect x="0" y="0" width="2400" height="1600"/>
  </clipPath>
</defs>
<path clip-path="url(#clip540)" d="M0 1600 L2400 1600 L2400 0 L0 0  Z" fill="#ffffff" fill-rule="evenodd" fill-opacity="1"/>
<defs>
  <clipPath id="clip541">
    <rect x="149" y="47" width="2205" height="1377"/>
  </clipPath>
</defs>
<path clip-path="url(#clip540)" d="M149.191 1423.18 L2352.76 1423.18 L2352.76 47.2441 L149.191 47.2441  Z" fill="#ffffff" fill-rule="evenodd" fill-opacity="1"/>
<polyline clip-path="url(#clip541)" style="stroke:#000000; stroke-linecap:round; stroke-linejoin:round; stroke-width:2; stroke-opacity:0.1; fill:none" points="149.191,1423.18 149.191,47.2441 "/>
<polyline clip-path="url(#clip541)" style="stroke:#000000; stroke-linecap:round; stroke-linejoin:round; stroke-width:2; stroke-opacity:0.1; fill:none" points="850.607,1423.18 850.607,47.2441 "/>
<polyline clip-path="url(#clip541)" style="stroke:#000000; stroke-linecap:round; stroke-linejoin:round; stroke-width:2; stroke-opacity:0.1; fill:none" points="1552.02,1423.18 1552.02,47.2441 "/>
<polyline clip-path="url(#clip541)" style="stroke:#000000; stroke-linecap:round; stroke-linejoin:round; stroke-width:2; stroke-opacity:0.1; fill:none" points="2253.44,1423.18 2253.44,47.2441 "/>
<polyline clip-path="url(#clip541)" style="stroke:#000000; stroke-linecap:round; stroke-linejoin:round; stroke-width:2; stroke-opacity:0.1; fill:none" points="149.191,1276.85 2352.76,1276.85 "/>
<polyline clip-path="url(#clip541)" style="stroke:#000000; stroke-linecap:round; stroke-linejoin:round; stroke-width:2; stroke-opacity:0.1; fill:none" points="149.191,1013.71 2352.76,1013.71 "/>
<polyline clip-path="url(#clip541)" style="stroke:#000000; stroke-linecap:round; stroke-linejoin:round; stroke-width:2; stroke-opacity:0.1; fill:none" points="149.191,750.569 2352.76,750.569 "/>
<polyline clip-path="url(#clip541)" style="stroke:#000000; stroke-linecap:round; stroke-linejoin:round; stroke-width:2; stroke-opacity:0.1; fill:none" points="149.191,487.429 2352.76,487.429 "/>
<polyline clip-path="url(#clip541)" style="stroke:#000000; stroke-linecap:round; stroke-linejoin:round; stroke-width:2; stroke-opacity:0.1; fill:none" points="149.191,224.288 2352.76,224.288 "/>
<polyline clip-path="url(#clip540)" style="stroke:#000000; stroke-linecap:round; stroke-linejoin:round; stroke-width:4; stroke-opacity:1; fill:none" points="149.191,1423.18 2352.76,1423.18 "/>
<polyline clip-path="url(#clip540)" style="stroke:#000000; stroke-linecap:round; stroke-linejoin:round; stroke-width:4; stroke-opacity:1; fill:none" points="149.191,1423.18 149.191,1404.28 "/>
<polyline clip-path="url(#clip540)" style="stroke:#000000; stroke-linecap:round; stroke-linejoin:round; stroke-width:4; stroke-opacity:1; fill:none" points="850.607,1423.18 850.607,1404.28 "/>
<polyline clip-path="url(#clip540)" style="stroke:#000000; stroke-linecap:round; stroke-linejoin:round; stroke-width:4; stroke-opacity:1; fill:none" points="1552.02,1423.18 1552.02,1404.28 "/>
<polyline clip-path="url(#clip540)" style="stroke:#000000; stroke-linecap:round; stroke-linejoin:round; stroke-width:4; stroke-opacity:1; fill:none" points="2253.44,1423.18 2253.44,1404.28 "/>
<path clip-path="url(#clip540)" d="M126.575 1454.1 Q122.964 1454.1 121.135 1457.66 Q119.33 1461.2 119.33 1468.33 Q119.33 1475.44 121.135 1479.01 Q122.964 1482.55 126.575 1482.55 Q130.209 1482.55 132.015 1479.01 Q133.844 1475.44 133.844 1468.33 Q133.844 1461.2 132.015 1457.66 Q130.209 1454.1 126.575 1454.1 M126.575 1450.39 Q132.385 1450.39 135.441 1455 Q138.52 1459.58 138.52 1468.33 Q138.52 1477.06 135.441 1481.67 Q132.385 1486.25 126.575 1486.25 Q120.765 1486.25 117.686 1481.67 Q114.631 1477.06 114.631 1468.33 Q114.631 1459.58 117.686 1455 Q120.765 1450.39 126.575 1450.39 Z" fill="#000000" fill-rule="nonzero" fill-opacity="1" /><path clip-path="url(#clip540)" d="M146.737 1479.7 L151.621 1479.7 L151.621 1485.58 L146.737 1485.58 L146.737 1479.7 Z" fill="#000000" fill-rule="nonzero" fill-opacity="1" /><path clip-path="url(#clip540)" d="M171.806 1454.1 Q168.195 1454.1 166.367 1457.66 Q164.561 1461.2 164.561 1468.33 Q164.561 1475.44 166.367 1479.01 Q168.195 1482.55 171.806 1482.55 Q175.441 1482.55 177.246 1479.01 Q179.075 1475.44 179.075 1468.33 Q179.075 1461.2 177.246 1457.66 Q175.441 1454.1 171.806 1454.1 M171.806 1450.39 Q177.617 1450.39 180.672 1455 Q183.751 1459.58 183.751 1468.33 Q183.751 1477.06 180.672 1481.67 Q177.617 1486.25 171.806 1486.25 Q165.996 1486.25 162.918 1481.67 Q159.862 1477.06 159.862 1468.33 Q159.862 1459.58 162.918 1455 Q165.996 1450.39 171.806 1450.39 Z" fill="#000000" fill-rule="nonzero" fill-opacity="1" /><path clip-path="url(#clip540)" d="M828.489 1454.1 Q824.878 1454.1 823.05 1457.66 Q821.244 1461.2 821.244 1468.33 Q821.244 1475.44 823.05 1479.01 Q824.878 1482.55 828.489 1482.55 Q832.124 1482.55 833.929 1479.01 Q835.758 1475.44 835.758 1468.33 Q835.758 1461.2 833.929 1457.66 Q832.124 1454.1 828.489 1454.1 M828.489 1450.39 Q834.3 1450.39 837.355 1455 Q840.434 1459.58 840.434 1468.33 Q840.434 1477.06 837.355 1481.67 Q834.3 1486.25 828.489 1486.25 Q822.679 1486.25 819.601 1481.67 Q816.545 1477.06 816.545 1468.33 Q816.545 1459.58 819.601 1455 Q822.679 1450.39 828.489 1450.39 Z" fill="#000000" fill-rule="nonzero" fill-opacity="1" /><path clip-path="url(#clip540)" d="M848.651 1479.7 L853.536 1479.7 L853.536 1485.58 L848.651 1485.58 L848.651 1479.7 Z" fill="#000000" fill-rule="nonzero" fill-opacity="1" /><path clip-path="url(#clip540)" d="M863.767 1451.02 L882.123 1451.02 L882.123 1454.96 L868.049 1454.96 L868.049 1463.43 Q869.068 1463.08 870.086 1462.92 Q871.105 1462.73 872.123 1462.73 Q877.91 1462.73 881.29 1465.9 Q884.67 1469.08 884.67 1474.49 Q884.67 1480.07 881.198 1483.17 Q877.725 1486.25 871.406 1486.25 Q869.23 1486.25 866.961 1485.88 Q864.716 1485.51 862.309 1484.77 L862.309 1480.07 Q864.392 1481.2 866.614 1481.76 Q868.836 1482.32 871.313 1482.32 Q875.318 1482.32 877.656 1480.21 Q879.994 1478.1 879.994 1474.49 Q879.994 1470.88 877.656 1468.77 Q875.318 1466.67 871.313 1466.67 Q869.438 1466.67 867.563 1467.08 Q865.711 1467.5 863.767 1468.38 L863.767 1451.02 Z" fill="#000000" fill-rule="nonzero" fill-opacity="1" /><path clip-path="url(#clip540)" d="M1519.18 1481.64 L1526.82 1481.64 L1526.82 1455.28 L1518.51 1456.95 L1518.51 1452.69 L1526.77 1451.02 L1531.45 1451.02 L1531.45 1481.64 L1539.08 1481.64 L1539.08 1485.58 L1519.18 1485.58 L1519.18 1481.64 Z" fill="#000000" fill-rule="nonzero" fill-opacity="1" /><path clip-path="url(#clip540)" d="M1548.53 1479.7 L1553.41 1479.7 L1553.41 1485.58 L1548.53 1485.58 L1548.53 1479.7 Z" fill="#000000" fill-rule="nonzero" fill-opacity="1" /><path clip-path="url(#clip540)" d="M1573.6 1454.1 Q1569.99 1454.1 1568.16 1457.66 Q1566.35 1461.2 1566.35 1468.33 Q1566.35 1475.44 1568.16 1479.01 Q1569.99 1482.55 1573.6 1482.55 Q1577.23 1482.55 1579.04 1479.01 Q1580.87 1475.44 1580.87 1468.33 Q1580.87 1461.2 1579.04 1457.66 Q1577.23 1454.1 1573.6 1454.1 M1573.6 1450.39 Q1579.41 1450.39 1582.46 1455 Q1585.54 1459.58 1585.54 1468.33 Q1585.54 1477.06 1582.46 1481.67 Q1579.41 1486.25 1573.6 1486.25 Q1567.79 1486.25 1564.71 1481.67 Q1561.65 1477.06 1561.65 1468.33 Q1561.65 1459.58 1564.71 1455 Q1567.79 1450.39 1573.6 1450.39 Z" fill="#000000" fill-rule="nonzero" fill-opacity="1" /><path clip-path="url(#clip540)" d="M2221.09 1481.64 L2228.73 1481.64 L2228.73 1455.28 L2220.42 1456.95 L2220.42 1452.69 L2228.68 1451.02 L2233.36 1451.02 L2233.36 1481.64 L2241 1481.64 L2241 1485.58 L2221.09 1485.58 L2221.09 1481.64 Z" fill="#000000" fill-rule="nonzero" fill-opacity="1" /><path clip-path="url(#clip540)" d="M2250.44 1479.7 L2255.33 1479.7 L2255.33 1485.58 L2250.44 1485.58 L2250.44 1479.7 Z" fill="#000000" fill-rule="nonzero" fill-opacity="1" /><path clip-path="url(#clip540)" d="M2265.56 1451.02 L2283.91 1451.02 L2283.91 1454.96 L2269.84 1454.96 L2269.84 1463.43 Q2270.86 1463.08 2271.88 1462.92 Q2272.9 1462.73 2273.91 1462.73 Q2279.7 1462.73 2283.08 1465.9 Q2286.46 1469.08 2286.46 1474.49 Q2286.46 1480.07 2282.99 1483.17 Q2279.52 1486.25 2273.2 1486.25 Q2271.02 1486.25 2268.75 1485.88 Q2266.51 1485.51 2264.1 1484.77 L2264.1 1480.07 Q2266.18 1481.2 2268.41 1481.76 Q2270.63 1482.32 2273.1 1482.32 Q2277.11 1482.32 2279.45 1480.21 Q2281.79 1478.1 2281.79 1474.49 Q2281.79 1470.88 2279.45 1468.77 Q2277.11 1466.67 2273.1 1466.67 Q2271.23 1466.67 2269.35 1467.08 Q2267.5 1467.5 2265.56 1468.38 L2265.56 1451.02 Z" fill="#000000" fill-rule="nonzero" fill-opacity="1" /><path clip-path="url(#clip540)" d="M1250.03 1522.27 L1250.03 1532.4 L1262.1 1532.4 L1262.1 1536.95 L1250.03 1536.95 L1250.03 1556.3 Q1250.03 1560.66 1251.21 1561.9 Q1252.42 1563.14 1256.08 1563.14 L1262.1 1563.14 L1262.1 1568.04 L1256.08 1568.04 Q1249.3 1568.04 1246.72 1565.53 Q1244.15 1562.98 1244.15 1556.3 L1244.15 1536.95 L1239.85 1536.95 L1239.85 1532.4 L1244.15 1532.4 L1244.15 1522.27 L1250.03 1522.27 Z" fill="#000000" fill-rule="nonzero" fill-opacity="1" /><polyline clip-path="url(#clip540)" style="stroke:#000000; stroke-linecap:round; stroke-linejoin:round; stroke-width:4; stroke-opacity:1; fill:none" points="149.191,1423.18 149.191,47.2441 "/>
<polyline clip-path="url(#clip540)" style="stroke:#000000; stroke-linecap:round; stroke-linejoin:round; stroke-width:4; stroke-opacity:1; fill:none" points="149.191,1276.85 168.089,1276.85 "/>
<polyline clip-path="url(#clip540)" style="stroke:#000000; stroke-linecap:round; stroke-linejoin:round; stroke-width:4; stroke-opacity:1; fill:none" points="149.191,1013.71 168.089,1013.71 "/>
<polyline clip-path="url(#clip540)" style="stroke:#000000; stroke-linecap:round; stroke-linejoin:round; stroke-width:4; stroke-opacity:1; fill:none" points="149.191,750.569 168.089,750.569 "/>
<polyline clip-path="url(#clip540)" style="stroke:#000000; stroke-linecap:round; stroke-linejoin:round; stroke-width:4; stroke-opacity:1; fill:none" points="149.191,487.429 168.089,487.429 "/>
<polyline clip-path="url(#clip540)" style="stroke:#000000; stroke-linecap:round; stroke-linejoin:round; stroke-width:4; stroke-opacity:1; fill:none" points="149.191,224.288 168.089,224.288 "/>
<path clip-path="url(#clip540)" d="M50.9921 1277.3 L80.6679 1277.3 L80.6679 1281.24 L50.9921 1281.24 L50.9921 1277.3 Z" fill="#000000" fill-rule="nonzero" fill-opacity="1" /><path clip-path="url(#clip540)" d="M103.608 1263.64 L91.8021 1282.09 L103.608 1282.09 L103.608 1263.64 M102.381 1259.57 L108.26 1259.57 L108.26 1282.09 L113.191 1282.09 L113.191 1285.98 L108.26 1285.98 L108.26 1294.13 L103.608 1294.13 L103.608 1285.98 L88.0058 1285.98 L88.0058 1281.47 L102.381 1259.57 Z" fill="#000000" fill-rule="nonzero" fill-opacity="1" /><path clip-path="url(#clip540)" d="M53.0754 1014.16 L82.7512 1014.16 L82.7512 1018.1 L53.0754 1018.1 L53.0754 1014.16 Z" fill="#000000" fill-rule="nonzero" fill-opacity="1" /><path clip-path="url(#clip540)" d="M96.8715 1027.05 L113.191 1027.05 L113.191 1030.99 L91.2465 1030.99 L91.2465 1027.05 Q93.9086 1024.3 98.4919 1019.67 Q103.098 1015.02 104.279 1013.68 Q106.524 1011.15 107.404 1009.42 Q108.307 1007.66 108.307 1005.97 Q108.307 1003.21 106.362 1001.48 Q104.441 999.74 101.339 999.74 Q99.14 999.74 96.6863 1000.5 Q94.2558 1001.27 91.478 1002.82 L91.478 998.097 Q94.3021 996.962 96.7558 996.384 Q99.2095 995.805 101.246 995.805 Q106.617 995.805 109.811 998.49 Q113.006 1001.18 113.006 1005.67 Q113.006 1007.8 112.196 1009.72 Q111.408 1011.62 109.302 1014.21 Q108.723 1014.88 105.621 1018.1 Q102.52 1021.29 96.8715 1027.05 Z" fill="#000000" fill-rule="nonzero" fill-opacity="1" /><path clip-path="url(#clip540)" d="M101.246 736.368 Q97.6354 736.368 95.8067 739.933 Q94.0012 743.475 94.0012 750.604 Q94.0012 757.711 95.8067 761.275 Q97.6354 764.817 101.246 764.817 Q104.881 764.817 106.686 761.275 Q108.515 757.711 108.515 750.604 Q108.515 743.475 106.686 739.933 Q104.881 736.368 101.246 736.368 M101.246 732.664 Q107.057 732.664 110.112 737.271 Q113.191 741.854 113.191 750.604 Q113.191 759.331 110.112 763.937 Q107.057 768.521 101.246 768.521 Q95.4363 768.521 92.3576 763.937 Q89.3021 759.331 89.3021 750.604 Q89.3021 741.854 92.3576 737.271 Q95.4363 732.664 101.246 732.664 Z" fill="#000000" fill-rule="nonzero" fill-opacity="1" /><path clip-path="url(#clip540)" d="M96.8715 500.774 L113.191 500.774 L113.191 504.709 L91.2465 504.709 L91.2465 500.774 Q93.9086 498.019 98.4919 493.389 Q103.098 488.737 104.279 487.394 Q106.524 484.871 107.404 483.135 Q108.307 481.376 108.307 479.686 Q108.307 476.931 106.362 475.195 Q104.441 473.459 101.339 473.459 Q99.14 473.459 96.6863 474.223 Q94.2558 474.987 91.478 476.538 L91.478 471.815 Q94.3021 470.681 96.7558 470.102 Q99.2095 469.524 101.246 469.524 Q106.617 469.524 109.811 472.209 Q113.006 474.894 113.006 479.385 Q113.006 481.514 112.196 483.436 Q111.408 485.334 109.302 487.926 Q108.723 488.598 105.621 491.815 Q102.52 495.01 96.8715 500.774 Z" fill="#000000" fill-rule="nonzero" fill-opacity="1" /><path clip-path="url(#clip540)" d="M103.608 211.082 L91.8021 229.531 L103.608 229.531 L103.608 211.082 M102.381 207.008 L108.26 207.008 L108.26 229.531 L113.191 229.531 L113.191 233.42 L108.26 233.42 L108.26 241.568 L103.608 241.568 L103.608 233.42 L88.0058 233.42 L88.0058 228.906 L102.381 207.008 Z" fill="#000000" fill-rule="nonzero" fill-opacity="1" /><polyline clip-path="url(#clip541)" style="stroke:#009af9; stroke-linecap:round; stroke-linejoin:round; stroke-width:4; stroke-opacity:1; fill:none" points="149.191,814.961 171.748,825.068 194.305,834.996 217.166,844.854 240.027,854.487 263.226,864.014 286.426,873.273 308.701,881.897 330.976,890.247 352.788,898.149 374.6,905.769 395.841,912.913 417.082,919.778 438.277,926.345 459.473,932.625 480.734,938.634 501.995,944.35 523.565,949.847 545.135,955.04 567.089,960.012 589.043,964.667 611.293,969.064 633.543,973.137 656.552,977.01 679.561,980.54 703.067,983.793 726.572,986.692 750.585,989.287 774.597,991.516 799.442,993.438 824.286,994.969 849.81,996.139 875.333,996.899 901.453,997.255 927.572,997.184 954.299,996.669 981.026,995.706 1008.44,994.253 1035.85,992.326 1063.77,989.875 1091.7,986.928 1119.96,983.437 1148.22,979.433 1176.7,974.875 1205.19,969.79 1233.76,964.157 1262.33,957.99 1290.83,951.303 1319.34,944.083 1347.54,936.421 1375.73,928.245 1403.51,919.69 1431.3,910.65 1458.58,901.309 1485.87,891.524 1512.61,881.519 1539.35,871.12 1565.46,860.609 1591.57,849.766 1616.82,838.988 1642.07,827.95 1666.72,816.951 1691.37,805.758 1715.47,794.658 1739.57,783.432 1762.88,772.488 1786.18,761.486 1808.92,750.722 1831.66,739.959 1854.01,729.403 1876.36,718.899 1898.08,708.768 1919.81,698.733 1941.24,688.947 1962.67,679.297 1983.87,669.907 2005.06,660.687 2026.07,651.731 2047.08,642.972 2068.18,634.386 2089.29,626.025 2110.68,617.792 2132.08,609.813 2154.66,601.675 2177.25,593.839 2200.45,586.115 2223.65,578.725 2246.97,571.64 2270.29,564.904 2291.37,559.118 2312.44,553.621 2332.6,548.637 2352.76,543.919 "/>
<polyline clip-path="url(#clip541)" style="stroke:#e26f46; stroke-linecap:round; stroke-linejoin:round; stroke-width:4; stroke-opacity:1; fill:none" points="149.191,1384.24 171.748,1373.79 194.305,1362 217.166,1348.79 240.027,1334.4 263.226,1318.71 286.426,1302.03 308.701,1285.17 330.976,1267.61 352.788,1249.8 374.6,1231.48 395.841,1213.22 417.082,1194.61 438.277,1175.76 459.473,1156.7 480.734,1137.4 501.995,1117.98 523.565,1098.19 545.135,1078.36 567.089,1058.16 589.043,1037.98 611.293,1017.56 633.543,997.208 656.552,976.234 679.561,955.348 703.067,934.11 726.572,912.972 750.585,891.482 774.597,870.088 799.442,848.046 824.286,826.085 849.81,803.592 875.333,781.149 901.453,758.213 927.572,735.284 954.299,711.805 981.026,688.286 1008.44,664.097 1035.85,639.818 1063.77,614.977 1091.7,590.007 1119.96,564.59 1148.22,539.028 1176.7,513.123 1205.19,487.091 1233.76,460.88 1262.33,434.608 1290.83,408.386 1319.34,382.229 1347.54,356.506 1375.73,331.031 1403.51,306.284 1431.3,282.021 1458.58,258.798 1485.87,236.33 1512.61,215.198 1539.35,195.104 1565.46,176.649 1591.57,159.501 1616.82,144.306 1642.07,130.618 1666.72,118.835 1691.37,108.727 1715.47,100.558 1739.57,94.1652 1762.88,89.7338 1786.18,87.0653 1808.92,86.1857 1831.66,87.0168 1854.01,89.4943 1876.36,93.5962 1898.08,99.1035 1919.81,106.065 1941.24,114.307 1962.67,123.848 1983.87,134.491 2005.06,146.262 2026.07,158.966 2047.08,172.621 2068.18,187.215 2089.29,202.602 2110.68,218.925 2132.08,235.894 2154.66,254.42 2177.25,273.483 2200.45,293.531 2223.65,313.966 2246.97,334.817 2270.29,355.904 2291.37,375.113 2312.44,394.419 2332.6,412.935 2352.76,431.476 "/>
<path clip-path="url(#clip540)" d="M222.643 248.629 L532.096 248.629 L532.096 93.1086 L222.643 93.1086  Z" fill="#ffffff" fill-rule="evenodd" fill-opacity="1"/>
<polyline clip-path="url(#clip540)" style="stroke:#000000; stroke-linecap:round; stroke-linejoin:round; stroke-width:4; stroke-opacity:1; fill:none" points="222.643,248.629 532.096,248.629 532.096,93.1086 222.643,93.1086 222.643,248.629 "/>
<polyline clip-path="url(#clip540)" style="stroke:#009af9; stroke-linecap:round; stroke-linejoin:round; stroke-width:4; stroke-opacity:1; fill:none" points="247.127,144.949 394.031,144.949 "/>
<path clip-path="url(#clip540)" d="M418.515 151.997 L418.515 136.303 L422.775 136.303 L422.775 151.835 Q422.775 155.516 424.21 157.368 Q425.645 159.196 428.515 159.196 Q431.964 159.196 433.955 156.997 Q435.969 154.798 435.969 151.002 L435.969 136.303 L440.228 136.303 L440.228 162.229 L435.969 162.229 L435.969 158.247 Q434.418 160.608 432.358 161.766 Q430.321 162.9 427.613 162.9 Q423.145 162.9 420.83 160.122 Q418.515 157.344 418.515 151.997 M429.233 135.678 L429.233 135.678 Z" fill="#000000" fill-rule="nonzero" fill-opacity="1" /><path clip-path="url(#clip540)" d="M448.608 126.21 L458.423 126.21 L458.423 129.52 L452.867 129.52 L452.867 165.168 L458.423 165.168 L458.423 168.479 L448.608 168.479 L448.608 126.21 Z" fill="#000000" fill-rule="nonzero" fill-opacity="1" /><path clip-path="url(#clip540)" d="M468.909 158.293 L476.548 158.293 L476.548 131.928 L468.237 133.595 L468.237 129.335 L476.501 127.669 L481.177 127.669 L481.177 158.293 L488.816 158.293 L488.816 162.229 L468.909 162.229 L468.909 158.293 Z" fill="#000000" fill-rule="nonzero" fill-opacity="1" /><path clip-path="url(#clip540)" d="M507.612 126.21 L507.612 168.479 L497.797 168.479 L497.797 165.168 L503.33 165.168 L503.33 129.52 L497.797 129.52 L497.797 126.21 L507.612 126.21 Z" fill="#000000" fill-rule="nonzero" fill-opacity="1" /><polyline clip-path="url(#clip540)" style="stroke:#e26f46; stroke-linecap:round; stroke-linejoin:round; stroke-width:4; stroke-opacity:1; fill:none" points="247.127,196.789 394.031,196.789 "/>
<path clip-path="url(#clip540)" d="M418.515 203.837 L418.515 188.143 L422.775 188.143 L422.775 203.675 Q422.775 207.356 424.21 209.208 Q425.645 211.036 428.515 211.036 Q431.964 211.036 433.955 208.837 Q435.969 206.638 435.969 202.842 L435.969 188.143 L440.228 188.143 L440.228 214.069 L435.969 214.069 L435.969 210.087 Q434.418 212.448 432.358 213.606 Q430.321 214.74 427.613 214.74 Q423.145 214.74 420.83 211.962 Q418.515 209.184 418.515 203.837 M429.233 187.518 L429.233 187.518 Z" fill="#000000" fill-rule="nonzero" fill-opacity="1" /><path clip-path="url(#clip540)" d="M448.608 178.05 L458.423 178.05 L458.423 181.36 L452.867 181.36 L452.867 217.008 L458.423 217.008 L458.423 220.319 L448.608 220.319 L448.608 178.05 Z" fill="#000000" fill-rule="nonzero" fill-opacity="1" /><path clip-path="url(#clip540)" d="M472.126 210.133 L488.446 210.133 L488.446 214.069 L466.501 214.069 L466.501 210.133 Q469.163 207.379 473.747 202.749 Q478.353 198.096 479.534 196.754 Q481.779 194.231 482.659 192.495 Q483.561 190.735 483.561 189.046 Q483.561 186.291 481.617 184.555 Q479.696 182.819 476.594 182.819 Q474.395 182.819 471.941 183.583 Q469.511 184.347 466.733 185.897 L466.733 181.175 Q469.557 180.041 472.011 179.462 Q474.464 178.884 476.501 178.884 Q481.872 178.884 485.066 181.569 Q488.26 184.254 488.26 188.745 Q488.26 190.874 487.45 192.796 Q486.663 194.694 484.557 197.286 Q483.978 197.958 480.876 201.175 Q477.774 204.37 472.126 210.133 Z" fill="#000000" fill-rule="nonzero" fill-opacity="1" /><path clip-path="url(#clip540)" d="M507.612 178.05 L507.612 220.319 L497.797 220.319 L497.797 217.008 L503.33 217.008 L503.33 181.36 L497.797 181.36 L497.797 178.05 L507.612 178.05 Z" fill="#000000" fill-rule="nonzero" fill-opacity="1" /></svg>
