<?xml version="1.0" encoding="utf-8"?>
<svg xmlns="http://www.w3.org/2000/svg" xmlns:xlink="http://www.w3.org/1999/xlink" width="600" height="400" viewBox="0 0 2400 1600">
<defs>
  <clipPath id="clip420">
    <rect x="0" y="0" width="2400" height="1600"/>
  </clipPath>
</defs>
<path clip-path="url(#clip420)" d="M0 1600 L2400 1600 L2400 0 L0 0  Z" fill="#ffffff" fill-rule="evenodd" fill-opacity="1"/>
<defs>
  <clipPath id="clip421">
    <rect x="480" y="0" width="1681" height="1600"/>
  </clipPath>
</defs>
<path clip-path="url(#clip420)" d="M147.478 1423.18 L2352.76 1423.18 L2352.76 47.2441 L147.478 47.2441  Z" fill="#ffffff" fill-rule="evenodd" fill-opacity="1"/>
<defs>
  <clipPath id="clip422">
    <rect x="147" y="47" width="2206" height="1377"/>
  </clipPath>
</defs>
<polyline clip-path="url(#clip422)" style="stroke:#000000; stroke-linecap:round; stroke-linejoin:round; stroke-width:2; stroke-opacity:0.1; fill:none" points="147.478,1423.18 147.478,47.2441 "/>
<polyline clip-path="url(#clip422)" style="stroke:#000000; stroke-linecap:round; stroke-linejoin:round; stroke-width:2; stroke-opacity:0.1; fill:none" points="698.797,1423.18 698.797,47.2441 "/>
<polyline clip-path="url(#clip422)" style="stroke:#000000; stroke-linecap:round; stroke-linejoin:round; stroke-width:2; stroke-opacity:0.1; fill:none" points="1250.12,1423.18 1250.12,47.2441 "/>
<polyline clip-path="url(#clip422)" style="stroke:#000000; stroke-linecap:round; stroke-linejoin:round; stroke-width:2; stroke-opacity:0.1; fill:none" points="1801.44,1423.18 1801.44,47.2441 "/>
<polyline clip-path="url(#clip422)" style="stroke:#000000; stroke-linecap:round; stroke-linejoin:round; stroke-width:2; stroke-opacity:0.1; fill:none" points="2352.76,1423.18 2352.76,47.2441 "/>
<polyline clip-path="url(#clip422)" style="stroke:#000000; stroke-linecap:round; stroke-linejoin:round; stroke-width:2; stroke-opacity:0.1; fill:none" points="147.478,1384.24 2352.76,1384.24 "/>
<polyline clip-path="url(#clip422)" style="stroke:#000000; stroke-linecap:round; stroke-linejoin:round; stroke-width:2; stroke-opacity:0.1; fill:none" points="147.478,1059.21 2352.76,1059.21 "/>
<polyline clip-path="url(#clip422)" style="stroke:#000000; stroke-linecap:round; stroke-linejoin:round; stroke-width:2; stroke-opacity:0.1; fill:none" points="147.478,734.183 2352.76,734.183 "/>
<polyline clip-path="url(#clip422)" style="stroke:#000000; stroke-linecap:round; stroke-linejoin:round; stroke-width:2; stroke-opacity:0.1; fill:none" points="147.478,409.155 2352.76,409.155 "/>
<polyline clip-path="url(#clip422)" style="stroke:#000000; stroke-linecap:round; stroke-linejoin:round; stroke-width:2; stroke-opacity:0.1; fill:none" points="147.478,84.1268 2352.76,84.1268 "/>
<polyline clip-path="url(#clip420)" style="stroke:#000000; stroke-linecap:round; stroke-linejoin:round; stroke-width:4; stroke-opacity:1; fill:none" points="147.478,1423.18 2352.76,1423.18 "/>
<polyline clip-path="url(#clip420)" style="stroke:#000000; stroke-linecap:round; stroke-linejoin:round; stroke-width:4; stroke-opacity:1; fill:none" points="147.478,1423.18 147.478,1404.28 "/>
<polyline clip-path="url(#clip420)" style="stroke:#000000; stroke-linecap:round; stroke-linejoin:round; stroke-width:4; stroke-opacity:1; fill:none" points="698.797,1423.18 698.797,1404.28 "/>
<polyline clip-path="url(#clip420)" style="stroke:#000000; stroke-linecap:round; stroke-linejoin:round; stroke-width:4; stroke-opacity:1; fill:none" points="1250.12,1423.18 1250.12,1404.28 "/>
<polyline clip-path="url(#clip420)" style="stroke:#000000; stroke-linecap:round; stroke-linejoin:round; stroke-width:4; stroke-opacity:1; fill:none" points="1801.44,1423.18 1801.44,1404.28 "/>
<polyline clip-path="url(#clip420)" style="stroke:#000000; stroke-linecap:round; stroke-linejoin:round; stroke-width:4; stroke-opacity:1; fill:none" points="2352.76,1423.18 2352.76,1404.28 "/>
<path clip-path="url(#clip420)" d="M94.006 1468.75 L123.682 1468.75 L123.682 1472.69 L94.006 1472.69 L94.006 1468.75 Z" fill="#000000" fill-rule="nonzero" fill-opacity="1" /><path clip-path="url(#clip420)" d="M134.584 1481.64 L142.223 1481.64 L142.223 1455.28 L133.913 1456.95 L133.913 1452.69 L142.177 1451.02 L146.853 1451.02 L146.853 1481.64 L154.492 1481.64 L154.492 1485.58 L134.584 1485.58 L134.584 1481.64 Z" fill="#000000" fill-rule="nonzero" fill-opacity="1" /><path clip-path="url(#clip420)" d="M163.936 1479.7 L168.82 1479.7 L168.82 1485.58 L163.936 1485.58 L163.936 1479.7 Z" fill="#000000" fill-rule="nonzero" fill-opacity="1" /><path clip-path="url(#clip420)" d="M189.005 1454.1 Q185.394 1454.1 183.566 1457.66 Q181.76 1461.2 181.76 1468.33 Q181.76 1475.44 183.566 1479.01 Q185.394 1482.55 189.005 1482.55 Q192.64 1482.55 194.445 1479.01 Q196.274 1475.44 196.274 1468.33 Q196.274 1461.2 194.445 1457.66 Q192.64 1454.1 189.005 1454.1 M189.005 1450.39 Q194.816 1450.39 197.871 1455 Q200.95 1459.58 200.95 1468.33 Q200.95 1477.06 197.871 1481.67 Q194.816 1486.25 189.005 1486.25 Q183.195 1486.25 180.117 1481.67 Q177.061 1477.06 177.061 1468.33 Q177.061 1459.58 180.117 1455 Q183.195 1450.39 189.005 1450.39 Z" fill="#000000" fill-rule="nonzero" fill-opacity="1" /><path clip-path="url(#clip420)" d="M645.823 1468.75 L675.499 1468.75 L675.499 1472.69 L645.823 1472.69 L645.823 1468.75 Z" fill="#000000" fill-rule="nonzero" fill-opacity="1" /><path clip-path="url(#clip420)" d="M695.591 1454.1 Q691.98 1454.1 690.152 1457.66 Q688.346 1461.2 688.346 1468.33 Q688.346 1475.44 690.152 1479.01 Q691.98 1482.55 695.591 1482.55 Q699.226 1482.55 701.031 1479.01 Q702.86 1475.44 702.86 1468.33 Q702.86 1461.2 701.031 1457.66 Q699.226 1454.1 695.591 1454.1 M695.591 1450.39 Q701.402 1450.39 704.457 1455 Q707.536 1459.58 707.536 1468.33 Q707.536 1477.06 704.457 1481.67 Q701.402 1486.25 695.591 1486.25 Q689.781 1486.25 686.703 1481.67 Q683.647 1477.06 683.647 1468.33 Q683.647 1459.58 686.703 1455 Q689.781 1450.39 695.591 1450.39 Z" fill="#000000" fill-rule="nonzero" fill-opacity="1" /><path clip-path="url(#clip420)" d="M715.753 1479.7 L720.638 1479.7 L720.638 1485.58 L715.753 1485.58 L715.753 1479.7 Z" fill="#000000" fill-rule="nonzero" fill-opacity="1" /><path clip-path="url(#clip420)" d="M730.869 1451.02 L749.225 1451.02 L749.225 1454.96 L735.151 1454.96 L735.151 1463.43 Q736.17 1463.08 737.188 1462.92 Q738.207 1462.73 739.225 1462.73 Q745.012 1462.73 748.392 1465.9 Q751.772 1469.08 751.772 1474.49 Q751.772 1480.07 748.299 1483.17 Q744.827 1486.25 738.508 1486.25 Q736.332 1486.25 734.063 1485.88 Q731.818 1485.51 729.411 1484.77 L729.411 1480.07 Q731.494 1481.2 733.716 1481.76 Q735.938 1482.32 738.415 1482.32 Q742.42 1482.32 744.758 1480.21 Q747.096 1478.1 747.096 1474.49 Q747.096 1470.88 744.758 1468.77 Q742.42 1466.67 738.415 1466.67 Q736.54 1466.67 734.665 1467.08 Q732.813 1467.5 730.869 1468.38 L730.869 1451.02 Z" fill="#000000" fill-rule="nonzero" fill-opacity="1" /><path clip-path="url(#clip420)" d="M1227.5 1454.1 Q1223.89 1454.1 1222.06 1457.66 Q1220.26 1461.2 1220.26 1468.33 Q1220.26 1475.44 1222.06 1479.01 Q1223.89 1482.55 1227.5 1482.55 Q1231.14 1482.55 1232.94 1479.01 Q1234.77 1475.44 1234.77 1468.33 Q1234.77 1461.2 1232.94 1457.66 Q1231.14 1454.1 1227.5 1454.1 M1227.5 1450.39 Q1233.31 1450.39 1236.37 1455 Q1239.45 1459.58 1239.45 1468.33 Q1239.45 1477.06 1236.37 1481.67 Q1233.31 1486.25 1227.5 1486.25 Q1221.69 1486.25 1218.61 1481.67 Q1215.56 1477.06 1215.56 1468.33 Q1215.56 1459.58 1218.61 1455 Q1221.69 1450.39 1227.5 1450.39 Z" fill="#000000" fill-rule="nonzero" fill-opacity="1" /><path clip-path="url(#clip420)" d="M1247.66 1479.7 L1252.55 1479.7 L1252.55 1485.58 L1247.66 1485.58 L1247.66 1479.7 Z" fill="#000000" fill-rule="nonzero" fill-opacity="1" /><path clip-path="url(#clip420)" d="M1272.73 1454.1 Q1269.12 1454.1 1267.29 1457.66 Q1265.49 1461.2 1265.49 1468.33 Q1265.49 1475.44 1267.29 1479.01 Q1269.12 1482.55 1272.73 1482.55 Q1276.37 1482.55 1278.17 1479.01 Q1280 1475.44 1280 1468.33 Q1280 1461.2 1278.17 1457.66 Q1276.37 1454.1 1272.73 1454.1 M1272.73 1450.39 Q1278.54 1450.39 1281.6 1455 Q1284.68 1459.58 1284.68 1468.33 Q1284.68 1477.06 1281.6 1481.67 Q1278.54 1486.25 1272.73 1486.25 Q1266.92 1486.25 1263.84 1481.67 Q1260.79 1477.06 1260.79 1468.33 Q1260.79 1459.58 1263.84 1455 Q1266.92 1450.39 1272.73 1450.39 Z" fill="#000000" fill-rule="nonzero" fill-opacity="1" /><path clip-path="url(#clip420)" d="M1779.32 1454.1 Q1775.71 1454.1 1773.88 1457.66 Q1772.07 1461.2 1772.07 1468.33 Q1772.07 1475.44 1773.88 1479.01 Q1775.71 1482.55 1779.32 1482.55 Q1782.95 1482.55 1784.76 1479.01 Q1786.59 1475.44 1786.59 1468.33 Q1786.59 1461.2 1784.76 1457.66 Q1782.95 1454.1 1779.32 1454.1 M1779.32 1450.39 Q1785.13 1450.39 1788.18 1455 Q1791.26 1459.58 1791.26 1468.33 Q1791.26 1477.06 1788.18 1481.67 Q1785.13 1486.25 1779.32 1486.25 Q1773.51 1486.25 1770.43 1481.67 Q1767.37 1477.06 1767.37 1468.33 Q1767.37 1459.58 1770.43 1455 Q1773.51 1450.39 1779.32 1450.39 Z" fill="#000000" fill-rule="nonzero" fill-opacity="1" /><path clip-path="url(#clip420)" d="M1799.48 1479.7 L1804.36 1479.7 L1804.36 1485.58 L1799.48 1485.58 L1799.48 1479.7 Z" fill="#000000" fill-rule="nonzero" fill-opacity="1" /><path clip-path="url(#clip420)" d="M1814.6 1451.02 L1832.95 1451.02 L1832.95 1454.96 L1818.88 1454.96 L1818.88 1463.43 Q1819.9 1463.08 1820.92 1462.92 Q1821.93 1462.73 1822.95 1462.73 Q1828.74 1462.73 1832.12 1465.9 Q1835.5 1469.08 1835.5 1474.49 Q1835.5 1480.07 1832.03 1483.17 Q1828.55 1486.25 1822.23 1486.25 Q1820.06 1486.25 1817.79 1485.88 Q1815.55 1485.51 1813.14 1484.77 L1813.14 1480.07 Q1815.22 1481.2 1817.44 1481.76 Q1819.67 1482.32 1822.14 1482.32 Q1826.15 1482.32 1828.48 1480.21 Q1830.82 1478.1 1830.82 1474.49 Q1830.82 1470.88 1828.48 1468.77 Q1826.15 1466.67 1822.14 1466.67 Q1820.27 1466.67 1818.39 1467.08 Q1816.54 1467.5 1814.6 1468.38 L1814.6 1451.02 Z" fill="#000000" fill-rule="nonzero" fill-opacity="1" /><path clip-path="url(#clip420)" d="M2319.91 1481.64 L2327.55 1481.64 L2327.55 1455.28 L2319.24 1456.95 L2319.24 1452.69 L2327.5 1451.02 L2332.18 1451.02 L2332.18 1481.64 L2339.82 1481.64 L2339.82 1485.58 L2319.91 1485.58 L2319.91 1481.64 Z" fill="#000000" fill-rule="nonzero" fill-opacity="1" /><path clip-path="url(#clip420)" d="M2349.26 1479.7 L2354.14 1479.7 L2354.14 1485.58 L2349.26 1485.58 L2349.26 1479.7 Z" fill="#000000" fill-rule="nonzero" fill-opacity="1" /><path clip-path="url(#clip420)" d="M2374.33 1454.1 Q2370.72 1454.1 2368.89 1457.66 Q2367.08 1461.2 2367.08 1468.33 Q2367.08 1475.44 2368.89 1479.01 Q2370.72 1482.55 2374.33 1482.55 Q2377.96 1482.55 2379.77 1479.01 Q2381.6 1475.44 2381.6 1468.33 Q2381.6 1461.2 2379.77 1457.66 Q2377.96 1454.1 2374.33 1454.1 M2374.33 1450.39 Q2380.14 1450.39 2383.2 1455 Q2386.27 1459.58 2386.27 1468.33 Q2386.27 1477.06 2383.2 1481.67 Q2380.14 1486.25 2374.33 1486.25 Q2368.52 1486.25 2365.44 1481.67 Q2362.39 1477.06 2362.39 1468.33 Q2362.39 1459.58 2365.44 1455 Q2368.52 1450.39 2374.33 1450.39 Z" fill="#000000" fill-rule="nonzero" fill-opacity="1" /><path clip-path="url(#clip420)" d="M1249.18 1522.27 L1249.18 1532.4 L1261.24 1532.4 L1261.24 1536.95 L1249.18 1536.95 L1249.18 1556.3 Q1249.18 1560.66 1250.36 1561.9 Q1251.57 1563.14 1255.23 1563.14 L1261.24 1563.14 L1261.24 1568.04 L1255.23 1568.04 Q1248.45 1568.04 1245.87 1565.53 Q1243.29 1562.98 1243.29 1556.3 L1243.29 1536.95 L1238.99 1536.95 L1238.99 1532.4 L1243.29 1532.4 L1243.29 1522.27 L1249.18 1522.27 Z" fill="#000000" fill-rule="nonzero" fill-opacity="1" /><polyline clip-path="url(#clip420)" style="stroke:#000000; stroke-linecap:round; stroke-linejoin:round; stroke-width:4; stroke-opacity:1; fill:none" points="147.478,1423.18 147.478,47.2441 "/>
<polyline clip-path="url(#clip420)" style="stroke:#000000; stroke-linecap:round; stroke-linejoin:round; stroke-width:4; stroke-opacity:1; fill:none" points="147.478,1384.24 166.376,1384.24 "/>
<polyline clip-path="url(#clip420)" style="stroke:#000000; stroke-linecap:round; stroke-linejoin:round; stroke-width:4; stroke-opacity:1; fill:none" points="147.478,1059.21 166.376,1059.21 "/>
<polyline clip-path="url(#clip420)" style="stroke:#000000; stroke-linecap:round; stroke-linejoin:round; stroke-width:4; stroke-opacity:1; fill:none" points="147.478,734.183 166.376,734.183 "/>
<polyline clip-path="url(#clip420)" style="stroke:#000000; stroke-linecap:round; stroke-linejoin:round; stroke-width:4; stroke-opacity:1; fill:none" points="147.478,409.155 166.376,409.155 "/>
<polyline clip-path="url(#clip420)" style="stroke:#000000; stroke-linecap:round; stroke-linejoin:round; stroke-width:4; stroke-opacity:1; fill:none" points="147.478,84.1268 166.376,84.1268 "/>
<path clip-path="url(#clip420)" d="M51.3625 1384.69 L81.0383 1384.69 L81.0383 1388.62 L51.3625 1388.62 L51.3625 1384.69 Z" fill="#000000" fill-rule="nonzero" fill-opacity="1" /><path clip-path="url(#clip420)" d="M95.1586 1397.58 L111.478 1397.58 L111.478 1401.52 L89.5336 1401.52 L89.5336 1397.58 Q92.1956 1394.83 96.7789 1390.2 Q101.385 1385.55 102.566 1384.2 Q104.811 1381.68 105.691 1379.94 Q106.594 1378.19 106.594 1376.5 Q106.594 1373.74 104.649 1372 Q102.728 1370.27 99.6261 1370.27 Q97.4271 1370.27 94.9734 1371.03 Q92.5428 1371.8 89.7651 1373.35 L89.7651 1368.62 Q92.5891 1367.49 95.0428 1366.91 Q97.4965 1366.33 99.5335 1366.33 Q104.904 1366.33 108.098 1369.02 Q111.293 1371.7 111.293 1376.19 Q111.293 1378.32 110.483 1380.25 Q109.696 1382.14 107.589 1384.74 Q107.01 1385.41 103.909 1388.62 Q100.807 1391.82 95.1586 1397.58 Z" fill="#000000" fill-rule="nonzero" fill-opacity="1" /><path clip-path="url(#clip420)" d="M50.9921 1059.66 L80.6679 1059.66 L80.6679 1063.6 L50.9921 1063.6 L50.9921 1059.66 Z" fill="#000000" fill-rule="nonzero" fill-opacity="1" /><path clip-path="url(#clip420)" d="M91.5706 1072.56 L99.2095 1072.56 L99.2095 1046.19 L90.8993 1047.86 L90.8993 1043.6 L99.1632 1041.93 L103.839 1041.93 L103.839 1072.56 L111.478 1072.56 L111.478 1076.49 L91.5706 1076.49 L91.5706 1072.56 Z" fill="#000000" fill-rule="nonzero" fill-opacity="1" /><path clip-path="url(#clip420)" d="M99.5335 719.981 Q95.9224 719.981 94.0937 723.546 Q92.2882 727.088 92.2882 734.217 Q92.2882 741.324 94.0937 744.888 Q95.9224 748.43 99.5335 748.43 Q103.168 748.43 104.973 744.888 Q106.802 741.324 106.802 734.217 Q106.802 727.088 104.973 723.546 Q103.168 719.981 99.5335 719.981 M99.5335 716.278 Q105.344 716.278 108.399 720.884 Q111.478 725.467 111.478 734.217 Q111.478 742.944 108.399 747.55 Q105.344 752.134 99.5335 752.134 Q93.7234 752.134 90.6447 747.55 Q87.5892 742.944 87.5892 734.217 Q87.5892 725.467 90.6447 720.884 Q93.7234 716.278 99.5335 716.278 Z" fill="#000000" fill-rule="nonzero" fill-opacity="1" /><path clip-path="url(#clip420)" d="M91.5706 422.499 L99.2095 422.499 L99.2095 396.134 L90.8993 397.801 L90.8993 393.541 L99.1632 391.875 L103.839 391.875 L103.839 422.499 L111.478 422.499 L111.478 426.435 L91.5706 426.435 L91.5706 422.499 Z" fill="#000000" fill-rule="nonzero" fill-opacity="1" /><path clip-path="url(#clip420)" d="M95.1586 97.4716 L111.478 97.4716 L111.478 101.407 L89.5336 101.407 L89.5336 97.4716 Q92.1956 94.717 96.7789 90.0874 Q101.385 85.4346 102.566 84.092 Q104.811 81.5689 105.691 79.8328 Q106.594 78.0735 106.594 76.3837 Q106.594 73.6291 104.649 71.893 Q102.728 70.1569 99.6261 70.1569 Q97.4271 70.1569 94.9734 70.9208 Q92.5428 71.6847 89.7651 73.2356 L89.7651 68.5134 Q92.5891 67.3792 95.0428 66.8005 Q97.4965 66.2218 99.5335 66.2218 Q104.904 66.2218 108.098 68.9069 Q111.293 71.5921 111.293 76.0828 Q111.293 78.2124 110.483 80.1337 Q109.696 82.0319 107.589 84.6244 Q107.01 85.2957 103.909 88.5133 Q100.807 91.7077 95.1586 97.4716 Z" fill="#000000" fill-rule="nonzero" fill-opacity="1" /><polyline clip-path="url(#clip422)" style="stroke:#009af9; stroke-linecap:round; stroke-linejoin:round; stroke-width:4; stroke-opacity:1; fill:none" points="147.478,1384.24 152.295,1384.21 156.881,1384.12 161.328,1383.99 165.593,1383.81 169.741,1383.58 173.836,1383.32 177.869,1383.02 181.755,1382.69 185.597,1382.32 189.402,1381.92 193.142,1381.49 196.846,1381.03 200.526,1380.53 204.158,1380.01 207.751,1379.46 211.327,1378.87 214.872,1378.26 218.384,1377.63 221.88,1376.96 225.358,1376.27 228.804,1375.55 232.236,1374.81 235.655,1374.03 239.048,1373.24 242.425,1372.42 245.791,1371.57 249.138,1370.7 252.471,1369.8 255.796,1368.88 259.104,1367.94 262.398,1366.97 265.682,1365.98 268.956,1364.96 272.214,1363.93 275.465,1362.87 278.707,1361.78 281.936,1360.68 285.158,1359.55 288.373,1358.4 291.576,1357.23 294.77,1356.03 297.96,1354.82 301.138,1353.58 304.308,1352.33 307.474,1351.05 310.631,1349.75 313.78,1348.43 316.924,1347.09 320.06,1345.73 323.189,1344.35 326.314,1342.95 329.432,1341.53 332.543,1340.09 335.651,1338.63 338.752,1337.16 341.846,1335.66 344.936,1334.14 348.022,1332.61 351.1,1331.06 354.174,1329.49 357.244,1327.9 360.308,1326.29 363.369,1324.66 366.425,1323.02 369.476,1321.36 372.522,1319.68 375.564,1317.99 378.602,1316.28 381.636,1314.55 384.666,1312.8 387.692,1311.04 390.714,1309.26 393.732,1307.47 396.746,1305.66 399.756,1303.83 402.763,1301.99 405.766,1300.13 408.765,1298.26 411.761,1296.37 414.753,1294.46 417.742,1292.55 420.728,1290.61 423.709,1288.67 426.687,1286.7 429.662,1284.73 432.634,1282.74 435.602,1280.73 438.568,1278.72 441.53,1276.69 444.488,1274.64 447.444,1272.59 450.396,1270.52 453.345,1268.43 456.291,1266.34 459.234,1264.23 462.173,1262.11 465.11,1259.98 468.043,1257.84 470.973,1255.68 473.9,1253.52 476.824,1251.34 479.745,1249.15 482.662,1246.95 485.577,1244.74 488.488,1242.52 491.396,1240.29 494.301,1238.05 497.202,1235.8 500.101,1233.54 502.996,1231.27 505.887,1229 508.776,1226.71 511.661,1224.41 514.543,1222.11 517.421,1219.8 520.296,1217.48 523.168,1215.15 526.036,1212.81 528.9,1210.47 531.761,1208.12 534.618,1205.77 537.471,1203.4 540.321,1201.03 543.166,1198.66 546.008,1196.27 548.847,1193.89 551.681,1191.49 554.511,1189.1 557.337,1186.69 560.158,1184.29 562.975,1181.87 565.788,1179.46 568.596,1177.04 571.4,1174.61 574.2,1172.19 576.994,1169.76 579.784,1167.32 582.569,1164.89 585.348,1162.45 588.123,1160.01 590.892,1157.57 593.655,1155.13 596.414,1152.68 599.167,1150.24 601.914,1147.8 604.655,1145.35 607.389,1142.91 610.117,1140.46 612.839,1138.02 615.554,1135.58 618.263,1133.14 620.965,1130.7 623.658,1128.26 626.345,1125.83 629.025,1123.4 631.695,1120.97 634.359,1118.55 637.014,1116.13 639.659,1113.72 642.298,1111.31 644.925,1108.9 647.544,1106.51 650.153,1104.11 652.751,1101.73 655.341,1099.35 657.919,1096.98 660.485,1094.62 663.042,1092.27 665.585,1089.92 668.118,1087.58 670.64,1085.26 673.146,1082.94 675.642,1080.64 678.123,1078.35 680.588,1076.07 683.048,1073.79 685.478,1071.54 687.905,1069.3 690.307,1067.07 692.687,1064.87 695.065,1062.67 697.392,1060.51 699.69,1058.38 702,1056.24 704.335,1054.08 706.686,1051.91 709.081,1049.69 711.499,1047.45 713.944,1045.19 716.425,1042.89 718.922,1040.58 721.458,1038.24 724.018,1035.87 726.598,1033.49 729.217,1031.08 731.851,1028.65 734.517,1026.19 737.212,1023.71 739.917,1021.22 742.666,1018.69 745.431,1016.15 748.221,1013.59 751.043,1011.01 753.877,1008.41 756.748,1005.79 759.641,1003.15 762.551,1000.5 765.498,997.813 768.46,995.122 771.451,992.408 774.47,989.675 777.501,986.936 780.573,984.165 783.661,981.385 786.774,978.59 789.919,975.771 793.077,972.948 796.273,970.099 799.49,967.237 802.726,964.367 806,961.471 809.289,958.57 812.612,955.65 815.962,952.713 819.325,949.776 822.734,946.808 826.159,943.838 829.613,940.853 833.103,937.849 836.603,934.849 840.15,931.82 843.719,928.786 847.312,925.745 850.947,922.683 854.596,919.624 858.289,916.543 862.01,913.455 865.754,910.364 869.544,907.253 873.352,904.145 877.203,901.02 881.087,897.887 884.996,894.755 888.953,891.605 892.934,888.458 896.958,885.298 901.02,882.131 905.112,878.966 909.252,875.788 913.422,872.613 917.639,869.43 921.898,866.241 926.194,863.054 930.54,859.861 934.922,856.671 939.35,853.48 943.835,850.282 948.359,847.09 952.939,843.895 957.565,840.704 962.234,837.523 966.972,834.334 971.736,831.169 976.583,827.993 981.462,824.84 986.407,821.69 991.417,818.548 996.453,815.438 1001.58,812.325 1006.72,809.254 1011.93,806.196 1017.25,803.134 1022.54,800.146 1028.08,797.079 1033.68,794.046 1039.4,791.019 1045.27,787.986 1051.28,784.958 1057.45,781.934 1063.76,778.931 1070.22,775.95 1076.84,772.996 1083.63,770.07 1090.6,767.177 1097.78,764.319 1105.18,761.506 1112.8,758.744 1120.68,756.036 1128.84,753.395 1137.18,750.864 1145.9,748.407 1155.06,746.03 1164.63,743.776 1172.95,742.006 1178.29,740.965 1181.63,740.351 1184.04,739.926 1185.96,739.598 1187.55,739.333 1188.87,739.119 1190.05,738.93 1191.13,738.762 1192.1,738.613 1192.99,738.479 1193.8,738.357 1194.57,738.245 1195.29,738.139 1195.96,738.044 1196.6,737.953 1197.2,737.868 1197.78,737.788 1198.33,737.713 1198.86,737.641 1199.36,737.574 1199.84,737.509 1200.31,737.447 1200.77,737.388 1201.19,737.332 1201.61,737.278 1202.01,737.227 1202.39,737.178 1202.77,737.13 1203.13,737.084 1203.47,737.041 1203.8,737 1204.1,736.963 1204.39,736.926 1204.67,736.891 1204.94,736.857 1205.2,736.826 1205.44,736.795 1205.65,736.769 1205.86,736.743 1206.08,736.717 1206.29,736.69 1206.53,736.66 1206.78,736.63 1207.03,736.598 1207.3,736.565 1207.57,736.531 1207.84,736.496 1208.13,736.46 1208.42,736.423 1208.72,736.384 1209.04,736.343 1209.36,736.301 1209.68,736.258 1210.01,736.213 1210.34,736.167 1210.68,736.119 1211.03,736.069 1211.38,736.017 1211.74,735.962 1212.1,735.904 1212.47,735.843 1212.84,735.779 1213.22,735.711 1213.6,735.639 1213.99,735.56 1214.39,735.476 1214.8,735.385 1215.21,735.287 1215.62,735.18 1216.04,735.063 1216.48,734.932 1216.92,734.788 1217.37,734.629 1217.82,734.451 1218.29,734.251 1218.77,734.027 1219.26,733.771 1219.76,733.48 1220.27,733.149 1220.79,732.772 1221.34,732.328 1221.91,731.814 1222.49,731.216 1223.1,730.506 1223.74,729.651 1224.42,728.622 1225.16,727.323 1225.98,725.647 1226.83,723.617 1227.67,721.282 1228.47,718.681 1229.25,715.772 1230.02,712.501 1230.78,708.825 1231.52,704.81 1232.25,700.407 1232.97,695.589 1233.68,690.332 1234.38,684.615 1235.08,678.391 1235.77,671.639 1236.46,664.332 1237.16,656.434 1237.85,647.927 1238.55,638.791 1239.24,628.992 1239.94,618.523 1240.65,607.362 1241.36,595.508 1242.07,582.957 1242.79,569.71 1243.51,555.735 1244.24,541.129 1244.97,525.903 1245.72,509.909 1246.47,493.358 1247.23,476.282 1248,458.534 1248.81,439.835 1249.64,420.33 1250.54,399.278 1251.23,382.924 1251.91,367.164 1252.6,351.234 1253.3,335.302 1254.01,319.498 1254.72,304.029 1255.43,288.967 1256.14,274.357 1256.84,260.282 1257.55,246.773 1258.26,233.864 1258.96,221.59 1259.66,209.951 1260.36,198.958 1261.06,188.62 1261.76,178.925 1262.45,169.863 1263.15,161.424 1263.85,153.575 1264.55,146.31 1265.26,139.612 1265.96,133.422 1266.68,127.735 1267.4,122.537 1268.13,117.788 1268.88,113.454 1269.63,109.575 1270.38,106.136 1271.15,103.068 1271.92,100.34 1272.72,97.9265 1273.54,95.7884 1274.43,93.831 1275.24,92.3338 1276,91.1622 1276.68,90.2592 1277.32,89.5289 1277.94,88.9229 1278.55,88.4205 1279.11,88.0123 1279.67,87.6706 1280.21,87.3844 1280.74,87.1467 1281.25,86.948 1281.75,86.7842 1282.24,86.6493 1282.72,86.5377 1283.2,86.4466 1283.66,86.3734 1284.12,86.3152 1284.57,86.2704 1285.01,86.2367 1285.45,86.2124 1285.88,86.1966 1286.3,86.188 1286.72,86.1857 1287.14,86.1888 1287.55,86.1966 1287.95,86.2087 1288.35,86.2243 1288.75,86.2431 1289.15,86.2647 1289.54,86.2888 1289.93,86.315 1290.32,86.3432 1290.71,86.3732 1291.09,86.4048 1291.47,86.4378 1291.86,86.4722 1292.24,86.5079 1292.62,86.5447 1293,86.5826 1293.38,86.6216 1293.77,86.6617 1294.15,86.7028 1294.54,86.7452 1294.93,86.7887 1295.33,86.8331 1295.73,86.8787 1296.13,86.9255 1296.53,86.9732 1296.95,87.0232 1297.37,87.0744 1297.8,87.1269 1298.24,87.1813 1298.68,87.2371 1299.14,87.2946 1299.61,87.3558 1300.1,87.4188 1300.6,87.4842 1301.11,87.5525 1301.64,87.6238 1302.19,87.6989 1302.78,87.7792 1303.38,87.863 1304.01,87.9507 1304.68,88.0469 1305.39,88.1494 1306.14,88.2582 1306.93,88.376 1307.81,88.5085 1308.75,88.6519 1309.77,88.8092 1310.92,88.992 1312.22,89.201 1313.71,89.4471 1315.46,89.744 1317.6,90.1165 1320.42,90.6248 1324.82,91.4615 1334.17,93.4016 1344.01,95.6887 1352.86,97.9524 1361.22,100.275 1369.22,102.663 1376.93,105.112 1384.38,107.618 1391.59,110.177 1398.6,112.782 1405.42,115.431 1412.07,118.118 1418.53,120.833 1424.84,123.575 1431,126.343 1437.03,129.137 1442.94,131.954 1448.73,134.794 1454.41,137.65 1459.97,140.515 1465.41,143.38 1470.74,146.256 1476.02,149.158 1481.09,152.002 1486.11,154.871 1491.11,157.781 1496.06,160.711 1500.96,163.665 1505.81,166.629 1510.59,169.598 1515.33,172.586 1520,175.574 1524.62,178.57 1529.2,181.575 1533.7,184.573 1538.18,187.586 1542.58,190.589 1546.95,193.602 1551.28,196.616 1555.55,199.628 1559.79,202.645 1563.99,205.656 1568.14,208.667 1572.25,211.681 1576.32,214.69 1580.36,217.699 1584.36,220.705 1588.32,223.702 1592.25,226.704 1596.14,229.696 1600,232.685 1603.83,235.675 1607.61,238.646 1611.37,241.623 1615.1,244.588 1618.79,247.548 1622.46,250.504 1626.09,253.448 1629.7,256.388 1633.28,259.32 1636.83,262.243 1640.35,265.16 1643.84,268.066 1647.3,270.963 1650.74,273.854 1654.16,276.732 1657.54,279.603 1660.9,282.464 1664.23,285.31 1667.55,288.152 1670.83,290.979 1674.09,293.795 1677.33,296.606 1680.53,299.393 1683.72,302.178 1686.89,304.948 1690.02,307.703 1693.14,310.452 1696.23,313.18 1699.3,315.9 1702.35,318.607 1705.37,321.297 1708.37,323.978 1711.35,326.642 1714.3,329.291 1717.24,331.929 1720.15,334.55 1723.04,337.156 1725.91,339.748 1728.75,342.323 1731.57,344.885 1734.38,347.43 1737.15,349.956 1739.91,352.471 1742.65,354.966 1745.36,357.444 1748.05,359.91 1750.72,362.349 1753.37,364.779 1755.99,367.188 1758.59,369.576 1761.17,371.952 1763.73,374.301 1766.26,376.636 1768.78,378.953 1771.26,381.244 1773.73,383.521 1776.17,385.774 1778.58,388.007 1780.98,390.222 1783.35,392.411 1785.69,394.58 1788.01,396.727 1790.31,398.849 1792.58,400.95 1794.82,403.026 1797.03,405.076 1799.22,407.105 1801.39,409.107 1803.54,411.099 1805.71,413.114 1807.92,415.156 1810.14,417.211 1812.38,419.285 1814.64,421.376 1816.91,423.475 1819.2,425.597 1821.5,427.725 1823.82,429.867 1826.15,432.02 1828.49,434.183 1830.85,436.359 1833.21,438.543 1835.59,440.736 1837.99,442.94 1840.39,445.151 1842.8,447.37 1845.22,449.598 1847.65,451.832 1850.1,454.074 1852.55,456.323 1855.01,458.577 1857.49,460.839 1859.96,463.104 1862.45,465.375 1864.95,467.651 1867.45,469.931 1869.97,472.215 1872.49,474.503 1875.01,476.794 1877.55,479.088 1880.09,481.385 1882.64,483.683 1885.19,485.985 1887.76,488.288 1890.32,490.592 1892.9,492.898 1895.48,495.205 1898.07,497.513 1900.66,499.82 1903.26,502.128 1905.86,504.436 1908.47,506.743 1911.08,509.049 1913.7,511.355 1916.33,513.659 1918.96,515.961 1921.59,518.263 1924.23,520.561 1926.87,522.858 1929.52,525.152 1932.17,527.444 1934.83,529.732 1937.49,532.018 1940.16,534.299 1942.83,536.578 1945.5,538.853 1948.18,541.123 1950.86,543.389 1953.55,545.651 1956.24,547.908 1958.93,550.16 1961.63,552.407 1964.33,554.649 1967.04,556.885 1969.75,559.115 1972.46,561.339 1975.18,563.557 1977.9,565.768 1980.62,567.974 1983.35,570.172 1986.08,572.363 1988.81,574.548 1991.55,576.725 1994.29,578.894 1997.03,581.055 1999.78,583.209 2002.53,585.354 2005.28,587.492 2008.04,589.621 2010.8,591.741 2013.56,593.852 2016.33,595.954 2019.1,598.047 2021.87,600.131 2024.65,602.205 2027.43,604.269 2030.21,606.324 2032.99,608.369 2035.78,610.403 2038.57,612.427 2041.37,614.44 2044.17,616.442 2046.97,618.434 2049.77,620.415 2052.58,622.384 2055.39,624.342 2058.21,626.288 2061.02,628.223 2063.85,630.145 2066.67,632.056 2069.5,633.954 2072.33,635.841 2075.16,637.714 2078,639.575 2080.84,641.423 2083.69,643.258 2086.53,645.08 2089.39,646.889 2092.24,648.684 2095.1,650.465 2097.96,652.233 2100.83,653.987 2103.7,655.727 2106.57,657.452 2109.45,659.163 2112.33,660.86 2115.22,662.542 2118.1,664.209 2121,665.861 2123.9,667.499 2126.8,669.12 2129.7,670.727 2132.61,672.318 2135.53,673.892 2138.45,675.452 2141.37,676.995 2144.3,678.522 2147.23,680.033 2150.17,681.527 2153.11,683.005 2156.06,684.466 2159.02,685.91 2161.98,687.336 2164.94,688.746 2167.91,690.139 2170.88,691.513 2173.87,692.871 2176.85,694.21 2179.85,695.531 2182.85,696.835 2185.85,698.12 2188.86,699.386 2191.88,700.634 2194.91,701.864 2197.94,703.073 2200.98,704.265 2204.03,705.437 2207.09,706.589 2210.15,707.722 2213.23,708.836 2216.31,709.928 2219.4,711.001 2222.5,712.055 2225.61,713.087 2228.72,714.098 2231.86,715.09 2235,716.059 2238.15,717.007 2241.31,717.935 2244.49,718.84 2247.67,719.723 2250.87,720.585 2254.09,721.424 2257.31,722.239 2260.56,723.033 2263.82,723.804 2267.09,724.55 2270.39,725.274 2273.7,725.973 2277.03,726.647 2280.39,727.298 2283.77,727.924 2287.17,728.523 2290.59,729.097 2294.05,729.646 2297.53,730.167 2301.04,730.66 2304.6,731.128 2308.19,731.566 2311.81,731.973 2315.5,732.353 2319.23,732.701 2323.01,733.016 2326.9,733.301 2330.88,733.552 2334.92,733.763 2339.1,733.937 2343.46,734.069 2347.98,734.152 2352.76,734.183 "/>
<path clip-path="url(#clip420)" d="M1969.62 196.789 L2279.25 196.789 L2279.25 93.1086 L1969.62 93.1086  Z" fill="#ffffff" fill-rule="evenodd" fill-opacity="1"/>
<polyline clip-path="url(#clip420)" style="stroke:#000000; stroke-linecap:round; stroke-linejoin:round; stroke-width:4; stroke-opacity:1; fill:none" points="1969.62,196.789 2279.25,196.789 2279.25,93.1086 1969.62,93.1086 1969.62,196.789 "/>
<polyline clip-path="url(#clip420)" style="stroke:#009af9; stroke-linecap:round; stroke-linejoin:round; stroke-width:4; stroke-opacity:1; fill:none" points="1994.13,144.949 2141.14,144.949 "/>
<path clip-path="url(#clip420)" d="M2165.65 151.997 L2165.65 136.303 L2169.91 136.303 L2169.91 151.835 Q2169.91 155.516 2171.34 157.368 Q2172.78 159.196 2175.65 159.196 Q2179.1 159.196 2181.09 156.997 Q2183.1 154.798 2183.1 151.002 L2183.1 136.303 L2187.36 136.303 L2187.36 162.229 L2183.1 162.229 L2183.1 158.247 Q2181.55 160.608 2179.49 161.766 Q2177.45 162.9 2174.74 162.9 Q2170.28 162.9 2167.96 160.122 Q2165.65 157.344 2165.65 151.997 M2176.36 135.678 L2176.36 135.678 Z" fill="#000000" fill-rule="nonzero" fill-opacity="1" /><path clip-path="url(#clip420)" d="M2195.74 126.21 L2205.55 126.21 L2205.55 129.52 L2200 129.52 L2200 165.168 L2205.55 165.168 L2205.55 168.479 L2195.74 168.479 L2195.74 126.21 Z" fill="#000000" fill-rule="nonzero" fill-opacity="1" /><path clip-path="url(#clip420)" d="M2216.04 158.293 L2223.68 158.293 L2223.68 131.928 L2215.37 133.595 L2215.37 129.335 L2223.63 127.669 L2228.31 127.669 L2228.31 158.293 L2235.95 158.293 L2235.95 162.229 L2216.04 162.229 L2216.04 158.293 Z" fill="#000000" fill-rule="nonzero" fill-opacity="1" /><path clip-path="url(#clip420)" d="M2254.74 126.21 L2254.74 168.479 L2244.93 168.479 L2244.93 165.168 L2250.46 165.168 L2250.46 129.52 L2244.93 129.52 L2244.93 126.21 L2254.74 126.21 Z" fill="#000000" fill-rule="nonzero" fill-opacity="1" /></svg>
