<?xml version="1.0" encoding="utf-8"?>
<svg xmlns="http://www.w3.org/2000/svg" xmlns:xlink="http://www.w3.org/1999/xlink" width="600" height="400" viewBox="0 0 2400 1600">
<defs>
  <clipPath id="clip130">
    <rect x="0" y="0" width="2400" height="1600"/>
  </clipPath>
</defs>
<path clip-path="url(#clip130)" d="M0 1600 L2400 1600 L2400 0 L0 0  Z" fill="#ffffff" fill-rule="evenodd" fill-opacity="1"/>
<defs>
  <clipPath id="clip131">
    <rect x="148" y="47" width="2206" height="1377"/>
  </clipPath>
</defs>
<path clip-path="url(#clip130)" d="M148.057 1423.18 L2352.76 1423.18 L2352.76 47.2441 L148.057 47.2441  Z" fill="#ffffff" fill-rule="evenodd" fill-opacity="1"/>
<polyline clip-path="url(#clip131)" style="stroke:#000000; stroke-linecap:round; stroke-linejoin:round; stroke-width:2; stroke-opacity:0.1; fill:none" points="148.057,1423.18 148.057,47.2441 "/>
<polyline clip-path="url(#clip131)" style="stroke:#000000; stroke-linecap:round; stroke-linejoin:round; stroke-width:2; stroke-opacity:0.1; fill:none" points="849.834,1423.18 849.834,47.2441 "/>
<polyline clip-path="url(#clip131)" style="stroke:#000000; stroke-linecap:round; stroke-linejoin:round; stroke-width:2; stroke-opacity:0.1; fill:none" points="1551.61,1423.18 1551.61,47.2441 "/>
<polyline clip-path="url(#clip131)" style="stroke:#000000; stroke-linecap:round; stroke-linejoin:round; stroke-width:2; stroke-opacity:0.1; fill:none" points="2253.39,1423.18 2253.39,47.2441 "/>
<polyline clip-path="url(#clip131)" style="stroke:#000000; stroke-linecap:round; stroke-linejoin:round; stroke-width:2; stroke-opacity:0.1; fill:none" points="148.057,1285.1 2352.76,1285.1 "/>
<polyline clip-path="url(#clip131)" style="stroke:#000000; stroke-linecap:round; stroke-linejoin:round; stroke-width:2; stroke-opacity:0.1; fill:none" points="148.057,1101.81 2352.76,1101.81 "/>
<polyline clip-path="url(#clip131)" style="stroke:#000000; stroke-linecap:round; stroke-linejoin:round; stroke-width:2; stroke-opacity:0.1; fill:none" points="148.057,918.518 2352.76,918.518 "/>
<polyline clip-path="url(#clip131)" style="stroke:#000000; stroke-linecap:round; stroke-linejoin:round; stroke-width:2; stroke-opacity:0.1; fill:none" points="148.057,735.227 2352.76,735.227 "/>
<polyline clip-path="url(#clip131)" style="stroke:#000000; stroke-linecap:round; stroke-linejoin:round; stroke-width:2; stroke-opacity:0.1; fill:none" points="148.057,551.937 2352.76,551.937 "/>
<polyline clip-path="url(#clip131)" style="stroke:#000000; stroke-linecap:round; stroke-linejoin:round; stroke-width:2; stroke-opacity:0.1; fill:none" points="148.057,368.647 2352.76,368.647 "/>
<polyline clip-path="url(#clip131)" style="stroke:#000000; stroke-linecap:round; stroke-linejoin:round; stroke-width:2; stroke-opacity:0.1; fill:none" points="148.057,185.357 2352.76,185.357 "/>
<polyline clip-path="url(#clip130)" style="stroke:#000000; stroke-linecap:round; stroke-linejoin:round; stroke-width:4; stroke-opacity:1; fill:none" points="148.057,1423.18 2352.76,1423.18 "/>
<polyline clip-path="url(#clip130)" style="stroke:#000000; stroke-linecap:round; stroke-linejoin:round; stroke-width:4; stroke-opacity:1; fill:none" points="148.057,1423.18 148.057,1404.28 "/>
<polyline clip-path="url(#clip130)" style="stroke:#000000; stroke-linecap:round; stroke-linejoin:round; stroke-width:4; stroke-opacity:1; fill:none" points="849.834,1423.18 849.834,1404.28 "/>
<polyline clip-path="url(#clip130)" style="stroke:#000000; stroke-linecap:round; stroke-linejoin:round; stroke-width:4; stroke-opacity:1; fill:none" points="1551.61,1423.18 1551.61,1404.28 "/>
<polyline clip-path="url(#clip130)" style="stroke:#000000; stroke-linecap:round; stroke-linejoin:round; stroke-width:4; stroke-opacity:1; fill:none" points="2253.39,1423.18 2253.39,1404.28 "/>
<path clip-path="url(#clip130)" d="M148.057 1454.1 Q144.446 1454.1 142.617 1457.66 Q140.811 1461.2 140.811 1468.33 Q140.811 1475.44 142.617 1479.01 Q144.446 1482.55 148.057 1482.55 Q151.691 1482.55 153.496 1479.01 Q155.325 1475.44 155.325 1468.33 Q155.325 1461.2 153.496 1457.66 Q151.691 1454.1 148.057 1454.1 M148.057 1450.39 Q153.867 1450.39 156.922 1455 Q160.001 1459.58 160.001 1468.33 Q160.001 1477.06 156.922 1481.67 Q153.867 1486.25 148.057 1486.25 Q142.246 1486.25 139.168 1481.67 Q136.112 1477.06 136.112 1468.33 Q136.112 1459.58 139.168 1455 Q142.246 1450.39 148.057 1450.39 Z" fill="#000000" fill-rule="nonzero" fill-opacity="1" /><path clip-path="url(#clip130)" d="M840.216 1481.64 L847.855 1481.64 L847.855 1455.28 L839.545 1456.95 L839.545 1452.69 L847.809 1451.02 L852.485 1451.02 L852.485 1481.64 L860.123 1481.64 L860.123 1485.58 L840.216 1485.58 L840.216 1481.64 Z" fill="#000000" fill-rule="nonzero" fill-opacity="1" /><path clip-path="url(#clip130)" d="M1546.26 1481.64 L1562.58 1481.64 L1562.58 1485.58 L1540.64 1485.58 L1540.64 1481.64 Q1543.3 1478.89 1547.88 1474.26 Q1552.49 1469.61 1553.67 1468.27 Q1555.92 1465.74 1556.8 1464.01 Q1557.7 1462.25 1557.7 1460.56 Q1557.7 1457.8 1555.76 1456.07 Q1553.83 1454.33 1550.73 1454.33 Q1548.53 1454.33 1546.08 1455.09 Q1543.65 1455.86 1540.87 1457.41 L1540.87 1452.69 Q1543.7 1451.55 1546.15 1450.97 Q1548.6 1450.39 1550.64 1450.39 Q1556.01 1450.39 1559.2 1453.08 Q1562.4 1455.77 1562.4 1460.26 Q1562.4 1462.39 1561.59 1464.31 Q1560.8 1466.2 1558.7 1468.8 Q1558.12 1469.47 1555.01 1472.69 Q1551.91 1475.88 1546.26 1481.64 Z" fill="#000000" fill-rule="nonzero" fill-opacity="1" /><path clip-path="url(#clip130)" d="M2257.64 1466.95 Q2260.99 1467.66 2262.87 1469.93 Q2264.77 1472.2 2264.77 1475.53 Q2264.77 1480.65 2261.25 1483.45 Q2257.73 1486.25 2251.25 1486.25 Q2249.07 1486.25 2246.76 1485.81 Q2244.47 1485.39 2242.01 1484.54 L2242.01 1480.02 Q2243.96 1481.16 2246.27 1481.74 Q2248.59 1482.32 2251.11 1482.32 Q2255.51 1482.32 2257.8 1480.58 Q2260.11 1478.84 2260.11 1475.53 Q2260.11 1472.48 2257.96 1470.77 Q2255.83 1469.03 2252.01 1469.03 L2247.98 1469.03 L2247.98 1465.19 L2252.2 1465.19 Q2255.65 1465.19 2257.47 1463.82 Q2259.3 1462.43 2259.3 1459.84 Q2259.3 1457.18 2257.41 1455.77 Q2255.53 1454.33 2252.01 1454.33 Q2250.09 1454.33 2247.89 1454.75 Q2245.69 1455.16 2243.05 1456.04 L2243.05 1451.88 Q2245.72 1451.14 2248.03 1450.77 Q2250.37 1450.39 2252.43 1450.39 Q2257.75 1450.39 2260.85 1452.83 Q2263.96 1455.23 2263.96 1459.35 Q2263.96 1462.22 2262.31 1464.21 Q2260.67 1466.18 2257.64 1466.95 Z" fill="#000000" fill-rule="nonzero" fill-opacity="1" /><path clip-path="url(#clip130)" d="M1249.47 1522.27 L1249.47 1532.4 L1261.53 1532.4 L1261.53 1536.95 L1249.47 1536.95 L1249.47 1556.3 Q1249.47 1560.66 1250.64 1561.9 Q1251.85 1563.14 1255.51 1563.14 L1261.53 1563.14 L1261.53 1568.04 L1255.51 1568.04 Q1248.74 1568.04 1246.16 1565.53 Q1243.58 1562.98 1243.58 1556.3 L1243.58 1536.95 L1239.28 1536.95 L1239.28 1532.4 L1243.58 1532.4 L1243.58 1522.27 L1249.47 1522.27 Z" fill="#000000" fill-rule="nonzero" fill-opacity="1" /><polyline clip-path="url(#clip130)" style="stroke:#000000; stroke-linecap:round; stroke-linejoin:round; stroke-width:4; stroke-opacity:1; fill:none" points="148.057,1423.18 148.057,47.2441 "/>
<polyline clip-path="url(#clip130)" style="stroke:#000000; stroke-linecap:round; stroke-linejoin:round; stroke-width:4; stroke-opacity:1; fill:none" points="148.057,1285.1 166.954,1285.1 "/>
<polyline clip-path="url(#clip130)" style="stroke:#000000; stroke-linecap:round; stroke-linejoin:round; stroke-width:4; stroke-opacity:1; fill:none" points="148.057,1101.81 166.954,1101.81 "/>
<polyline clip-path="url(#clip130)" style="stroke:#000000; stroke-linecap:round; stroke-linejoin:round; stroke-width:4; stroke-opacity:1; fill:none" points="148.057,918.518 166.954,918.518 "/>
<polyline clip-path="url(#clip130)" style="stroke:#000000; stroke-linecap:round; stroke-linejoin:round; stroke-width:4; stroke-opacity:1; fill:none" points="148.057,735.227 166.954,735.227 "/>
<polyline clip-path="url(#clip130)" style="stroke:#000000; stroke-linecap:round; stroke-linejoin:round; stroke-width:4; stroke-opacity:1; fill:none" points="148.057,551.937 166.954,551.937 "/>
<polyline clip-path="url(#clip130)" style="stroke:#000000; stroke-linecap:round; stroke-linejoin:round; stroke-width:4; stroke-opacity:1; fill:none" points="148.057,368.647 166.954,368.647 "/>
<polyline clip-path="url(#clip130)" style="stroke:#000000; stroke-linecap:round; stroke-linejoin:round; stroke-width:4; stroke-opacity:1; fill:none" points="148.057,185.357 166.954,185.357 "/>
<path clip-path="url(#clip130)" d="M50.9921 1285.55 L80.6679 1285.55 L80.6679 1289.48 L50.9921 1289.48 L50.9921 1285.55 Z" fill="#000000" fill-rule="nonzero" fill-opacity="1" /><path clip-path="url(#clip130)" d="M104.927 1283.74 Q108.283 1284.46 110.158 1286.73 Q112.057 1289 112.057 1292.33 Q112.057 1297.45 108.538 1300.25 Q105.02 1303.05 98.5382 1303.05 Q96.3623 1303.05 94.0475 1302.61 Q91.7558 1302.19 89.3021 1301.34 L89.3021 1296.82 Q91.2465 1297.96 93.5613 1298.54 Q95.8761 1299.11 98.3993 1299.11 Q102.797 1299.11 105.089 1297.38 Q107.404 1295.64 107.404 1292.33 Q107.404 1289.28 105.251 1287.56 Q103.121 1285.83 99.3021 1285.83 L95.2743 1285.83 L95.2743 1281.98 L99.4872 1281.98 Q102.936 1281.98 104.765 1280.62 Q106.594 1279.23 106.594 1276.64 Q106.594 1273.98 104.696 1272.56 Q102.821 1271.13 99.3021 1271.13 Q97.3808 1271.13 95.1817 1271.55 Q92.9826 1271.96 90.3438 1272.84 L90.3438 1268.67 Q93.0058 1267.93 95.3206 1267.56 Q97.6585 1267.19 99.7187 1267.19 Q105.043 1267.19 108.145 1269.62 Q111.246 1272.03 111.246 1276.15 Q111.246 1279.02 109.603 1281.01 Q107.959 1282.98 104.927 1283.74 Z" fill="#000000" fill-rule="nonzero" fill-opacity="1" /><path clip-path="url(#clip130)" d="M51.9412 1102.26 L81.617 1102.26 L81.617 1106.19 L51.9412 1106.19 L51.9412 1102.26 Z" fill="#000000" fill-rule="nonzero" fill-opacity="1" /><path clip-path="url(#clip130)" d="M95.7373 1115.15 L112.057 1115.15 L112.057 1119.09 L90.1123 1119.09 L90.1123 1115.15 Q92.7743 1112.4 97.3576 1107.77 Q101.964 1103.12 103.145 1101.77 Q105.39 1099.25 106.27 1097.51 Q107.172 1095.75 107.172 1094.07 Q107.172 1091.31 105.228 1089.57 Q103.307 1087.84 100.205 1087.84 Q98.0058 1087.84 95.5521 1088.6 Q93.1215 1089.37 90.3438 1090.92 L90.3438 1086.19 Q93.1678 1085.06 95.6215 1084.48 Q98.0752 1083.9 100.112 1083.9 Q105.483 1083.9 108.677 1086.59 Q111.871 1089.27 111.871 1093.76 Q111.871 1095.89 111.061 1097.81 Q110.274 1099.71 108.168 1102.31 Q107.589 1102.98 104.487 1106.19 Q101.385 1109.39 95.7373 1115.15 Z" fill="#000000" fill-rule="nonzero" fill-opacity="1" /><path clip-path="url(#clip130)" d="M51.5708 918.969 L81.2466 918.969 L81.2466 922.904 L51.5708 922.904 L51.5708 918.969 Z" fill="#000000" fill-rule="nonzero" fill-opacity="1" /><path clip-path="url(#clip130)" d="M92.1493 931.863 L99.7882 931.863 L99.7882 905.497 L91.478 907.164 L91.478 902.904 L99.7419 901.238 L104.418 901.238 L104.418 931.863 L112.057 931.863 L112.057 935.798 L92.1493 935.798 L92.1493 931.863 Z" fill="#000000" fill-rule="nonzero" fill-opacity="1" /><path clip-path="url(#clip130)" d="M100.112 721.026 Q96.5011 721.026 94.6724 724.591 Q92.8669 728.133 92.8669 735.262 Q92.8669 742.369 94.6724 745.933 Q96.5011 749.475 100.112 749.475 Q103.746 749.475 105.552 745.933 Q107.381 742.369 107.381 735.262 Q107.381 728.133 105.552 724.591 Q103.746 721.026 100.112 721.026 M100.112 717.323 Q105.922 717.323 108.978 721.929 Q112.057 726.512 112.057 735.262 Q112.057 743.989 108.978 748.595 Q105.922 753.179 100.112 753.179 Q94.3021 753.179 91.2234 748.595 Q88.1679 743.989 88.1679 735.262 Q88.1679 726.512 91.2234 721.929 Q94.3021 717.323 100.112 717.323 Z" fill="#000000" fill-rule="nonzero" fill-opacity="1" /><path clip-path="url(#clip130)" d="M92.1493 565.282 L99.7882 565.282 L99.7882 538.916 L91.478 540.583 L91.478 536.324 L99.7419 534.657 L104.418 534.657 L104.418 565.282 L112.057 565.282 L112.057 569.217 L92.1493 569.217 L92.1493 565.282 Z" fill="#000000" fill-rule="nonzero" fill-opacity="1" /><path clip-path="url(#clip130)" d="M95.7373 381.992 L112.057 381.992 L112.057 385.927 L90.1123 385.927 L90.1123 381.992 Q92.7743 379.237 97.3576 374.608 Q101.964 369.955 103.145 368.612 Q105.39 366.089 106.27 364.353 Q107.172 362.594 107.172 360.904 Q107.172 358.149 105.228 356.413 Q103.307 354.677 100.205 354.677 Q98.0058 354.677 95.5521 355.441 Q93.1215 356.205 90.3438 357.756 L90.3438 353.034 Q93.1678 351.899 95.6215 351.321 Q98.0752 350.742 100.112 350.742 Q105.483 350.742 108.677 353.427 Q111.871 356.112 111.871 360.603 Q111.871 362.733 111.061 364.654 Q110.274 366.552 108.168 369.145 Q107.589 369.816 104.487 373.034 Q101.385 376.228 95.7373 381.992 Z" fill="#000000" fill-rule="nonzero" fill-opacity="1" /><path clip-path="url(#clip130)" d="M104.927 184.003 Q108.283 184.72 110.158 186.989 Q112.057 189.257 112.057 192.59 Q112.057 197.706 108.538 200.507 Q105.02 203.308 98.5382 203.308 Q96.3623 203.308 94.0475 202.868 Q91.7558 202.452 89.3021 201.595 L89.3021 197.081 Q91.2465 198.215 93.5613 198.794 Q95.8761 199.373 98.3993 199.373 Q102.797 199.373 105.089 197.637 Q107.404 195.901 107.404 192.59 Q107.404 189.535 105.251 187.822 Q103.121 186.086 99.3021 186.086 L95.2743 186.086 L95.2743 182.243 L99.4872 182.243 Q102.936 182.243 104.765 180.878 Q106.594 179.489 106.594 176.896 Q106.594 174.234 104.696 172.822 Q102.821 171.387 99.3021 171.387 Q97.3808 171.387 95.1817 171.804 Q92.9826 172.22 90.3438 173.1 L90.3438 168.933 Q93.0058 168.192 95.3206 167.822 Q97.6585 167.452 99.7187 167.452 Q105.043 167.452 108.145 169.882 Q111.246 172.29 111.246 176.41 Q111.246 179.28 109.603 181.271 Q107.959 183.239 104.927 184.003 Z" fill="#000000" fill-rule="nonzero" fill-opacity="1" /><polyline clip-path="url(#clip131)" style="stroke:#009af9; stroke-linecap:round; stroke-linejoin:round; stroke-width:4; stroke-opacity:1; fill:none" points="148.057,551.937 170.741,552.617 193.445,554.656 216.186,558.059 238.99,562.832 261.895,568.988 284.941,576.542 308.194,585.524 331.766,595.991 355.82,608.036 380.43,621.718 405.036,636.681 428.358,651.943 450.409,667.231 471.318,682.384 490.921,697.062 509.11,710.989 525.837,723.971 540.973,735.788 555.463,747.098 570.492,758.757 586.409,770.945 602.96,783.344 620.012,795.715 637.419,807.795 655.215,819.436 673.244,830.353 691.509,840.366 709.485,849.049 726.942,856.239 743.845,861.927 760.201,866.148 776.045,868.962 791.301,870.432 806.238,870.653 822.23,869.523 839.741,866.646 857.847,861.866 875.769,855.356 893.394,847.281 910.712,837.809 927.762,827.096 944.532,815.336 960.98,802.755 977.139,789.534 992.916,775.953 1008.24,762.281 1022.89,748.906 1036.8,736.059 1050.05,723.827 1065.32,709.85 1081.4,695.478 1098.01,681.204 1114.79,667.583 1131.56,654.994 1148.3,643.631 1165.08,633.639 1181.97,625.15 1198.79,618.399 1215.52,613.479 1232.19,610.435 1248.82,609.296 1265.42,610.067 1282.02,612.733 1298.64,617.257 1315.3,623.583 1332.03,631.639 1348.79,641.292 1365.53,652.356 1382.29,664.686 1399.1,678.122 1416.02,692.506 1432.98,707.581 1449.6,722.754 1464.74,736.74 1480.45,751.227 1496.56,765.871 1512.94,780.36 1529.54,794.427 1546.35,807.852 1563.35,820.432 1580.54,831.964 1598,842.314 1615.68,851.268 1633.63,858.694 1651.8,864.427 1669.62,868.266 1686.27,870.244 1701.61,870.701 1716.45,869.917 1731.98,867.841 1748.07,864.384 1764.73,859.477 1781.92,853.085 1799.69,845.162 1817.98,835.752 1836.46,825.086 1854.8,813.514 1872.93,801.254 1890.78,788.529 1908.26,775.586 1925.33,762.603 1941.63,749.995 1956.99,738.015 1972.41,725.97 1989.19,712.93 2008.1,698.425 2028.44,683.165 2049.99,667.524 2072.63,651.823 2096.49,636.232 2121.24,621.218 2145.65,607.687 2169.47,595.789 2192.89,585.411 2216.04,576.481 2239.02,568.958 2261.88,562.819 2284.65,558.054 2307.38,554.655 2330.07,552.617 2352.76,551.937 "/>
<polyline clip-path="url(#clip131)" style="stroke:#e26f46; stroke-linecap:round; stroke-linejoin:round; stroke-width:4; stroke-opacity:1; fill:none" points="148.057,735.227 170.741,777.262 193.445,819.266 216.186,861.191 238.99,902.984 261.895,944.57 284.941,985.835 308.194,1026.63 331.766,1066.81 355.82,1106.16 380.43,1144.17 405.036,1179.25 428.358,1209.13 450.409,1233.74 471.318,1253.2 490.921,1267.53 509.11,1277 525.837,1282.13 540.973,1283.57 555.463,1281.9 570.492,1276.85 586.409,1267.61 602.96,1253.59 620.012,1234.27 637.419,1209.32 655.215,1178.28 673.244,1141.15 691.509,1097.79 709.485,1049.69 726.942,998.125 743.845,944.001 760.201,888.126 776.045,831.172 791.301,774.185 806.238,716.837 822.23,654.351 839.741,585.447 857.847,514.692 875.769,446.266 893.394,381.66 910.712,321.852 927.762,267.558 944.532,219.542 960.98,178.485 977.139,144.724 992.916,118.673 1008.24,100.414 1022.89,89.8077 1036.8,86.1857 1050.05,88.7251 1065.32,98.9993 1081.4,118.313 1098.01,147.274 1114.79,185.54 1131.56,232.314 1148.3,286.92 1165.08,348.754 1181.97,417.259 1198.79,490.638 1215.52,567.573 1232.19,646.928 1248.82,727.492 1265.42,808.069 1282.02,887.477 1298.64,964.541 1315.3,1038.14 1332.03,1107.19 1348.79,1170.42 1365.53,1226.65 1382.29,1275.22 1399.1,1315.5 1416.02,1346.96 1432.98,1369.02 1449.6,1381.22 1464.74,1384.24 1480.45,1379.31 1496.56,1365.99 1512.94,1344.23 1529.54,1314.26 1546.35,1276.48 1563.35,1231.39 1580.54,1179.67 1598,1121.83 1615.68,1058.91 1633.63,991.666 1651.8,921.362 1669.62,851.351 1686.27,785.959 1701.61,726.461 1716.45,670.111 1731.98,613.049 1748.07,556.442 1764.73,501.11 1781.92,447.994 1799.69,397.726 1817.98,351.363 1836.46,310.271 1854.8,275.421 1872.93,246.805 1890.78,224.265 1908.26,207.514 1925.33,196.068 1941.63,189.483 1956.99,186.973 1972.41,187.861 1989.19,192.459 2008.1,201.821 2028.44,216.377 2049.99,236.296 2072.63,261.536 2096.49,292.169 2121.24,327.568 2145.65,365.35 2169.47,404.363 2192.89,444.295 2216.04,484.922 2239.02,526.066 2261.88,567.572 2284.65,609.315 2307.38,651.21 2330.07,693.199 2352.76,735.227 "/>
<path clip-path="url(#clip130)" d="M221.547 248.629 L531.113 248.629 L531.113 93.1086 L221.547 93.1086  Z" fill="#ffffff" fill-rule="evenodd" fill-opacity="1"/>
<polyline clip-path="url(#clip130)" style="stroke:#000000; stroke-linecap:round; stroke-linejoin:round; stroke-width:4; stroke-opacity:1; fill:none" points="221.547,248.629 531.113,248.629 531.113,93.1086 221.547,93.1086 221.547,248.629 "/>
<polyline clip-path="url(#clip130)" style="stroke:#009af9; stroke-linecap:round; stroke-linejoin:round; stroke-width:4; stroke-opacity:1; fill:none" points="246.043,144.949 393.023,144.949 "/>
<path clip-path="url(#clip130)" d="M417.52 151.997 L417.52 136.303 L421.779 136.303 L421.779 151.835 Q421.779 155.516 423.214 157.368 Q424.649 159.196 427.52 159.196 Q430.969 159.196 432.96 156.997 Q434.973 154.798 434.973 151.002 L434.973 136.303 L439.233 136.303 L439.233 162.229 L434.973 162.229 L434.973 158.247 Q433.423 160.608 431.362 161.766 Q429.325 162.9 426.617 162.9 Q422.149 162.9 419.835 160.122 Q417.52 157.344 417.52 151.997 M428.237 135.678 L428.237 135.678 Z" fill="#000000" fill-rule="nonzero" fill-opacity="1" /><path clip-path="url(#clip130)" d="M447.612 126.21 L457.427 126.21 L457.427 129.52 L451.872 129.52 L451.872 165.168 L457.427 165.168 L457.427 168.479 L447.612 168.479 L447.612 126.21 Z" fill="#000000" fill-rule="nonzero" fill-opacity="1" /><path clip-path="url(#clip130)" d="M467.913 158.293 L475.552 158.293 L475.552 131.928 L467.242 133.595 L467.242 129.335 L475.506 127.669 L480.182 127.669 L480.182 158.293 L487.82 158.293 L487.82 162.229 L467.913 162.229 L467.913 158.293 Z" fill="#000000" fill-rule="nonzero" fill-opacity="1" /><path clip-path="url(#clip130)" d="M506.617 126.21 L506.617 168.479 L496.802 168.479 L496.802 165.168 L502.334 165.168 L502.334 129.52 L496.802 129.52 L496.802 126.21 L506.617 126.21 Z" fill="#000000" fill-rule="nonzero" fill-opacity="1" /><polyline clip-path="url(#clip130)" style="stroke:#e26f46; stroke-linecap:round; stroke-linejoin:round; stroke-width:4; stroke-opacity:1; fill:none" points="246.043,196.789 393.023,196.789 "/>
<path clip-path="url(#clip130)" d="M417.52 203.837 L417.52 188.143 L421.779 188.143 L421.779 203.675 Q421.779 207.356 423.214 209.208 Q424.649 211.036 427.52 211.036 Q430.969 211.036 432.96 208.837 Q434.973 206.638 434.973 202.842 L434.973 188.143 L439.233 188.143 L439.233 214.069 L434.973 214.069 L434.973 210.087 Q433.423 212.448 431.362 213.606 Q429.325 214.74 426.617 214.74 Q422.149 214.74 419.835 211.962 Q417.52 209.184 417.52 203.837 M428.237 187.518 L428.237 187.518 Z" fill="#000000" fill-rule="nonzero" fill-opacity="1" /><path clip-path="url(#clip130)" d="M447.612 178.05 L457.427 178.05 L457.427 181.36 L451.872 181.36 L451.872 217.008 L457.427 217.008 L457.427 220.319 L447.612 220.319 L447.612 178.05 Z" fill="#000000" fill-rule="nonzero" fill-opacity="1" /><path clip-path="url(#clip130)" d="M471.131 210.133 L487.45 210.133 L487.45 214.069 L465.506 214.069 L465.506 210.133 Q468.168 207.379 472.751 202.749 Q477.358 198.096 478.538 196.754 Q480.783 194.231 481.663 192.495 Q482.566 190.735 482.566 189.046 Q482.566 186.291 480.621 184.555 Q478.7 182.819 475.598 182.819 Q473.399 182.819 470.946 183.583 Q468.515 184.347 465.737 185.897 L465.737 181.175 Q468.561 180.041 471.015 179.462 Q473.469 178.884 475.506 178.884 Q480.876 178.884 484.07 181.569 Q487.265 184.254 487.265 188.745 Q487.265 190.874 486.455 192.796 Q485.668 194.694 483.561 197.286 Q482.982 197.958 479.881 201.175 Q476.779 204.37 471.131 210.133 Z" fill="#000000" fill-rule="nonzero" fill-opacity="1" /><path clip-path="url(#clip130)" d="M506.617 178.05 L506.617 220.319 L496.802 220.319 L496.802 217.008 L502.334 217.008 L502.334 181.36 L496.802 181.36 L496.802 178.05 L506.617 178.05 Z" fill="#000000" fill-rule="nonzero" fill-opacity="1" /></svg>
