<?xml version="1.0" encoding="utf-8"?>
<svg xmlns="http://www.w3.org/2000/svg" xmlns:xlink="http://www.w3.org/1999/xlink" width="600" height="400" viewBox="0 0 2400 1600">
<defs>
  <clipPath id="clip510">
    <rect x="0" y="0" width="2400" height="1600"/>
  </clipPath>
</defs>
<path clip-path="url(#clip510)" d="M0 1600 L2400 1600 L2400 0 L0 0  Z" fill="#ffffff" fill-rule="evenodd" fill-opacity="1"/>
<defs>
  <clipPath id="clip511">
    <rect x="147" y="47" width="2206" height="1377"/>
  </clipPath>
</defs>
<path clip-path="url(#clip510)" d="M147.478 1423.18 L2352.76 1423.18 L2352.76 47.2441 L147.478 47.2441  Z" fill="#ffffff" fill-rule="evenodd" fill-opacity="1"/>
<polyline clip-path="url(#clip511)" style="stroke:#000000; stroke-linecap:round; stroke-linejoin:round; stroke-width:2; stroke-opacity:0.1; fill:none" points="147.478,1423.18 147.478,47.2441 "/>
<polyline clip-path="url(#clip511)" style="stroke:#000000; stroke-linecap:round; stroke-linejoin:round; stroke-width:2; stroke-opacity:0.1; fill:none" points="698.797,1423.18 698.797,47.2441 "/>
<polyline clip-path="url(#clip511)" style="stroke:#000000; stroke-linecap:round; stroke-linejoin:round; stroke-width:2; stroke-opacity:0.1; fill:none" points="1250.12,1423.18 1250.12,47.2441 "/>
<polyline clip-path="url(#clip511)" style="stroke:#000000; stroke-linecap:round; stroke-linejoin:round; stroke-width:2; stroke-opacity:0.1; fill:none" points="1801.44,1423.18 1801.44,47.2441 "/>
<polyline clip-path="url(#clip511)" style="stroke:#000000; stroke-linecap:round; stroke-linejoin:round; stroke-width:2; stroke-opacity:0.1; fill:none" points="2352.76,1423.18 2352.76,47.2441 "/>
<polyline clip-path="url(#clip511)" style="stroke:#000000; stroke-linecap:round; stroke-linejoin:round; stroke-width:2; stroke-opacity:0.1; fill:none" points="147.478,1384.24 2352.76,1384.24 "/>
<polyline clip-path="url(#clip511)" style="stroke:#000000; stroke-linecap:round; stroke-linejoin:round; stroke-width:2; stroke-opacity:0.1; fill:none" points="147.478,1059.21 2352.76,1059.21 "/>
<polyline clip-path="url(#clip511)" style="stroke:#000000; stroke-linecap:round; stroke-linejoin:round; stroke-width:2; stroke-opacity:0.1; fill:none" points="147.478,734.183 2352.76,734.183 "/>
<polyline clip-path="url(#clip511)" style="stroke:#000000; stroke-linecap:round; stroke-linejoin:round; stroke-width:2; stroke-opacity:0.1; fill:none" points="147.478,409.155 2352.76,409.155 "/>
<polyline clip-path="url(#clip511)" style="stroke:#000000; stroke-linecap:round; stroke-linejoin:round; stroke-width:2; stroke-opacity:0.1; fill:none" points="147.478,84.1268 2352.76,84.1268 "/>
<polyline clip-path="url(#clip510)" style="stroke:#000000; stroke-linecap:round; stroke-linejoin:round; stroke-width:4; stroke-opacity:1; fill:none" points="147.478,1423.18 2352.76,1423.18 "/>
<polyline clip-path="url(#clip510)" style="stroke:#000000; stroke-linecap:round; stroke-linejoin:round; stroke-width:4; stroke-opacity:1; fill:none" points="147.478,1423.18 147.478,1404.28 "/>
<polyline clip-path="url(#clip510)" style="stroke:#000000; stroke-linecap:round; stroke-linejoin:round; stroke-width:4; stroke-opacity:1; fill:none" points="698.797,1423.18 698.797,1404.28 "/>
<polyline clip-path="url(#clip510)" style="stroke:#000000; stroke-linecap:round; stroke-linejoin:round; stroke-width:4; stroke-opacity:1; fill:none" points="1250.12,1423.18 1250.12,1404.28 "/>
<polyline clip-path="url(#clip510)" style="stroke:#000000; stroke-linecap:round; stroke-linejoin:round; stroke-width:4; stroke-opacity:1; fill:none" points="1801.44,1423.18 1801.44,1404.28 "/>
<polyline clip-path="url(#clip510)" style="stroke:#000000; stroke-linecap:round; stroke-linejoin:round; stroke-width:4; stroke-opacity:1; fill:none" points="2352.76,1423.18 2352.76,1404.28 "/>
<path clip-path="url(#clip510)" d="M94.006 1468.75 L123.682 1468.75 L123.682 1472.69 L94.006 1472.69 L94.006 1468.75 Z" fill="#000000" fill-rule="nonzero" fill-opacity="1" /><path clip-path="url(#clip510)" d="M134.584 1481.64 L142.223 1481.64 L142.223 1455.28 L133.913 1456.95 L133.913 1452.69 L142.177 1451.02 L146.853 1451.02 L146.853 1481.64 L154.492 1481.64 L154.492 1485.58 L134.584 1485.58 L134.584 1481.64 Z" fill="#000000" fill-rule="nonzero" fill-opacity="1" /><path clip-path="url(#clip510)" d="M163.936 1479.7 L168.82 1479.7 L168.82 1485.58 L163.936 1485.58 L163.936 1479.7 Z" fill="#000000" fill-rule="nonzero" fill-opacity="1" /><path clip-path="url(#clip510)" d="M189.005 1454.1 Q185.394 1454.1 183.566 1457.66 Q181.76 1461.2 181.76 1468.33 Q181.76 1475.44 183.566 1479.01 Q185.394 1482.55 189.005 1482.55 Q192.64 1482.55 194.445 1479.01 Q196.274 1475.44 196.274 1468.33 Q196.274 1461.2 194.445 1457.66 Q192.64 1454.1 189.005 1454.1 M189.005 1450.39 Q194.816 1450.39 197.871 1455 Q200.95 1459.58 200.95 1468.33 Q200.95 1477.06 197.871 1481.67 Q194.816 1486.25 189.005 1486.25 Q183.195 1486.25 180.117 1481.67 Q177.061 1477.06 177.061 1468.33 Q177.061 1459.58 180.117 1455 Q183.195 1450.39 189.005 1450.39 Z" fill="#000000" fill-rule="nonzero" fill-opacity="1" /><path clip-path="url(#clip510)" d="M645.823 1468.75 L675.499 1468.75 L675.499 1472.69 L645.823 1472.69 L645.823 1468.75 Z" fill="#000000" fill-rule="nonzero" fill-opacity="1" /><path clip-path="url(#clip510)" d="M695.591 1454.1 Q691.98 1454.1 690.152 1457.66 Q688.346 1461.2 688.346 1468.33 Q688.346 1475.44 690.152 1479.01 Q691.98 1482.55 695.591 1482.55 Q699.226 1482.55 701.031 1479.01 Q702.86 1475.44 702.86 1468.33 Q702.86 1461.2 701.031 1457.66 Q699.226 1454.1 695.591 1454.1 M695.591 1450.39 Q701.402 1450.39 704.457 1455 Q707.536 1459.58 707.536 1468.33 Q707.536 1477.06 704.457 1481.67 Q701.402 1486.25 695.591 1486.25 Q689.781 1486.25 686.703 1481.67 Q683.647 1477.06 683.647 1468.33 Q683.647 1459.58 686.703 1455 Q689.781 1450.39 695.591 1450.39 Z" fill="#000000" fill-rule="nonzero" fill-opacity="1" /><path clip-path="url(#clip510)" d="M715.753 1479.7 L720.638 1479.7 L720.638 1485.58 L715.753 1485.58 L715.753 1479.7 Z" fill="#000000" fill-rule="nonzero" fill-opacity="1" /><path clip-path="url(#clip510)" d="M730.869 1451.02 L749.225 1451.02 L749.225 1454.96 L735.151 1454.96 L735.151 1463.43 Q736.17 1463.08 737.188 1462.92 Q738.207 1462.73 739.225 1462.73 Q745.012 1462.73 748.392 1465.9 Q751.772 1469.08 751.772 1474.49 Q751.772 1480.07 748.299 1483.17 Q744.827 1486.25 738.508 1486.25 Q736.332 1486.25 734.063 1485.88 Q731.818 1485.51 729.411 1484.77 L729.411 1480.07 Q731.494 1481.2 733.716 1481.76 Q735.938 1482.32 738.415 1482.32 Q742.42 1482.32 744.758 1480.21 Q747.096 1478.1 747.096 1474.49 Q747.096 1470.88 744.758 1468.77 Q742.42 1466.67 738.415 1466.67 Q736.54 1466.67 734.665 1467.08 Q732.813 1467.5 730.869 1468.38 L730.869 1451.02 Z" fill="#000000" fill-rule="nonzero" fill-opacity="1" /><path clip-path="url(#clip510)" d="M1227.5 1454.1 Q1223.89 1454.1 1222.06 1457.66 Q1220.26 1461.2 1220.26 1468.33 Q1220.26 1475.44 1222.06 1479.01 Q1223.89 1482.55 1227.5 1482.55 Q1231.14 1482.55 1232.94 1479.01 Q1234.77 1475.44 1234.77 1468.33 Q1234.77 1461.2 1232.94 1457.66 Q1231.14 1454.1 1227.5 1454.1 M1227.5 1450.39 Q1233.31 1450.39 1236.37 1455 Q1239.45 1459.58 1239.45 1468.33 Q1239.45 1477.06 1236.37 1481.67 Q1233.31 1486.25 1227.5 1486.25 Q1221.69 1486.25 1218.61 1481.67 Q1215.56 1477.06 1215.56 1468.33 Q1215.56 1459.58 1218.61 1455 Q1221.69 1450.39 1227.5 1450.39 Z" fill="#000000" fill-rule="nonzero" fill-opacity="1" /><path clip-path="url(#clip510)" d="M1247.66 1479.7 L1252.55 1479.7 L1252.55 1485.58 L1247.66 1485.58 L1247.66 1479.7 Z" fill="#000000" fill-rule="nonzero" fill-opacity="1" /><path clip-path="url(#clip510)" d="M1272.73 1454.1 Q1269.12 1454.1 1267.29 1457.66 Q1265.49 1461.2 1265.49 1468.33 Q1265.49 1475.44 1267.29 1479.01 Q1269.12 1482.55 1272.73 1482.55 Q1276.37 1482.55 1278.17 1479.01 Q1280 1475.44 1280 1468.33 Q1280 1461.2 1278.17 1457.66 Q1276.37 1454.1 1272.73 1454.1 M1272.73 1450.39 Q1278.54 1450.39 1281.6 1455 Q1284.68 1459.58 1284.68 1468.33 Q1284.68 1477.06 1281.6 1481.67 Q1278.54 1486.25 1272.73 1486.25 Q1266.92 1486.25 1263.84 1481.67 Q1260.79 1477.06 1260.79 1468.33 Q1260.79 1459.58 1263.84 1455 Q1266.92 1450.39 1272.73 1450.39 Z" fill="#000000" fill-rule="nonzero" fill-opacity="1" /><path clip-path="url(#clip510)" d="M1779.32 1454.1 Q1775.71 1454.1 1773.88 1457.66 Q1772.07 1461.2 1772.07 1468.33 Q1772.07 1475.44 1773.88 1479.01 Q1775.71 1482.55 1779.32 1482.55 Q1782.95 1482.55 1784.76 1479.01 Q1786.59 1475.44 1786.59 1468.33 Q1786.59 1461.2 1784.76 1457.66 Q1782.95 1454.1 1779.32 1454.1 M1779.32 1450.39 Q1785.13 1450.39 1788.18 1455 Q1791.26 1459.58 1791.26 1468.33 Q1791.26 1477.06 1788.18 1481.67 Q1785.13 1486.25 1779.32 1486.25 Q1773.51 1486.25 1770.43 1481.67 Q1767.37 1477.06 1767.37 1468.33 Q1767.37 1459.58 1770.43 1455 Q1773.51 1450.39 1779.32 1450.39 Z" fill="#000000" fill-rule="nonzero" fill-opacity="1" /><path clip-path="url(#clip510)" d="M1799.48 1479.7 L1804.36 1479.7 L1804.36 1485.58 L1799.48 1485.58 L1799.48 1479.7 Z" fill="#000000" fill-rule="nonzero" fill-opacity="1" /><path clip-path="url(#clip510)" d="M1814.6 1451.02 L1832.95 1451.02 L1832.95 1454.96 L1818.88 1454.96 L1818.88 1463.43 Q1819.9 1463.08 1820.92 1462.92 Q1821.93 1462.73 1822.95 1462.73 Q1828.74 1462.73 1832.12 1465.9 Q1835.5 1469.08 1835.5 1474.49 Q1835.5 1480.07 1832.03 1483.17 Q1828.55 1486.25 1822.23 1486.25 Q1820.06 1486.25 1817.79 1485.88 Q1815.55 1485.51 1813.14 1484.77 L1813.14 1480.07 Q1815.22 1481.2 1817.44 1481.76 Q1819.67 1482.32 1822.14 1482.32 Q1826.15 1482.32 1828.48 1480.21 Q1830.82 1478.1 1830.82 1474.49 Q1830.82 1470.88 1828.48 1468.77 Q1826.15 1466.67 1822.14 1466.67 Q1820.27 1466.67 1818.39 1467.08 Q1816.54 1467.5 1814.6 1468.38 L1814.6 1451.02 Z" fill="#000000" fill-rule="nonzero" fill-opacity="1" /><path clip-path="url(#clip510)" d="M2319.91 1481.64 L2327.55 1481.64 L2327.55 1455.28 L2319.24 1456.95 L2319.24 1452.69 L2327.5 1451.02 L2332.18 1451.02 L2332.18 1481.64 L2339.82 1481.64 L2339.82 1485.58 L2319.91 1485.58 L2319.91 1481.64 Z" fill="#000000" fill-rule="nonzero" fill-opacity="1" /><path clip-path="url(#clip510)" d="M2349.26 1479.7 L2354.14 1479.7 L2354.14 1485.58 L2349.26 1485.58 L2349.26 1479.7 Z" fill="#000000" fill-rule="nonzero" fill-opacity="1" /><path clip-path="url(#clip510)" d="M2374.33 1454.1 Q2370.72 1454.1 2368.89 1457.66 Q2367.08 1461.2 2367.08 1468.33 Q2367.08 1475.44 2368.89 1479.01 Q2370.72 1482.55 2374.33 1482.55 Q2377.96 1482.55 2379.77 1479.01 Q2381.6 1475.44 2381.6 1468.33 Q2381.6 1461.2 2379.77 1457.66 Q2377.96 1454.1 2374.33 1454.1 M2374.33 1450.39 Q2380.14 1450.39 2383.2 1455 Q2386.27 1459.58 2386.27 1468.33 Q2386.27 1477.06 2383.2 1481.67 Q2380.14 1486.25 2374.33 1486.25 Q2368.52 1486.25 2365.44 1481.67 Q2362.39 1477.06 2362.39 1468.33 Q2362.39 1459.58 2365.44 1455 Q2368.52 1450.39 2374.33 1450.39 Z" fill="#000000" fill-rule="nonzero" fill-opacity="1" /><path clip-path="url(#clip510)" d="M1249.18 1522.27 L1249.18 1532.4 L1261.24 1532.4 L1261.24 1536.95 L1249.18 1536.95 L1249.18 1556.3 Q1249.18 1560.66 1250.36 1561.9 Q1251.57 1563.14 1255.23 1563.14 L1261.24 1563.14 L1261.24 1568.04 L1255.23 1568.04 Q1248.45 1568.04 1245.87 1565.53 Q1243.29 1562.98 1243.29 1556.3 L1243.29 1536.95 L1238.99 1536.95 L1238.99 1532.4 L1243.29 1532.4 L1243.29 1522.27 L1249.18 1522.27 Z" fill="#000000" fill-rule="nonzero" fill-opacity="1" /><polyline clip-path="url(#clip510)" style="stroke:#000000; stroke-linecap:round; stroke-linejoin:round; stroke-width:4; stroke-opacity:1; fill:none" points="147.478,1423.18 147.478,47.2441 "/>
<polyline clip-path="url(#clip510)" style="stroke:#000000; stroke-linecap:round; stroke-linejoin:round; stroke-width:4; stroke-opacity:1; fill:none" points="147.478,1384.24 166.376,1384.24 "/>
<polyline clip-path="url(#clip510)" style="stroke:#000000; stroke-linecap:round; stroke-linejoin:round; stroke-width:4; stroke-opacity:1; fill:none" points="147.478,1059.21 166.376,1059.21 "/>
<polyline clip-path="url(#clip510)" style="stroke:#000000; stroke-linecap:round; stroke-linejoin:round; stroke-width:4; stroke-opacity:1; fill:none" points="147.478,734.183 166.376,734.183 "/>
<polyline clip-path="url(#clip510)" style="stroke:#000000; stroke-linecap:round; stroke-linejoin:round; stroke-width:4; stroke-opacity:1; fill:none" points="147.478,409.155 166.376,409.155 "/>
<polyline clip-path="url(#clip510)" style="stroke:#000000; stroke-linecap:round; stroke-linejoin:round; stroke-width:4; stroke-opacity:1; fill:none" points="147.478,84.1268 166.376,84.1268 "/>
<path clip-path="url(#clip510)" d="M51.3625 1384.69 L81.0383 1384.69 L81.0383 1388.62 L51.3625 1388.62 L51.3625 1384.69 Z" fill="#000000" fill-rule="nonzero" fill-opacity="1" /><path clip-path="url(#clip510)" d="M95.1586 1397.58 L111.478 1397.58 L111.478 1401.52 L89.5336 1401.52 L89.5336 1397.58 Q92.1956 1394.83 96.7789 1390.2 Q101.385 1385.55 102.566 1384.2 Q104.811 1381.68 105.691 1379.94 Q106.594 1378.19 106.594 1376.5 Q106.594 1373.74 104.649 1372 Q102.728 1370.27 99.6261 1370.27 Q97.4271 1370.27 94.9734 1371.03 Q92.5428 1371.8 89.7651 1373.35 L89.7651 1368.62 Q92.5891 1367.49 95.0428 1366.91 Q97.4965 1366.33 99.5335 1366.33 Q104.904 1366.33 108.098 1369.02 Q111.293 1371.7 111.293 1376.19 Q111.293 1378.32 110.483 1380.25 Q109.696 1382.14 107.589 1384.74 Q107.01 1385.41 103.909 1388.62 Q100.807 1391.82 95.1586 1397.58 Z" fill="#000000" fill-rule="nonzero" fill-opacity="1" /><path clip-path="url(#clip510)" d="M50.9921 1059.66 L80.6679 1059.66 L80.6679 1063.6 L50.9921 1063.6 L50.9921 1059.66 Z" fill="#000000" fill-rule="nonzero" fill-opacity="1" /><path clip-path="url(#clip510)" d="M91.5706 1072.56 L99.2095 1072.56 L99.2095 1046.19 L90.8993 1047.86 L90.8993 1043.6 L99.1632 1041.93 L103.839 1041.93 L103.839 1072.56 L111.478 1072.56 L111.478 1076.49 L91.5706 1076.49 L91.5706 1072.56 Z" fill="#000000" fill-rule="nonzero" fill-opacity="1" /><path clip-path="url(#clip510)" d="M99.5335 719.981 Q95.9224 719.981 94.0937 723.546 Q92.2882 727.088 92.2882 734.217 Q92.2882 741.324 94.0937 744.888 Q95.9224 748.43 99.5335 748.43 Q103.168 748.43 104.973 744.888 Q106.802 741.324 106.802 734.217 Q106.802 727.088 104.973 723.546 Q103.168 719.981 99.5335 719.981 M99.5335 716.278 Q105.344 716.278 108.399 720.884 Q111.478 725.467 111.478 734.217 Q111.478 742.944 108.399 747.55 Q105.344 752.134 99.5335 752.134 Q93.7234 752.134 90.6447 747.55 Q87.5892 742.944 87.5892 734.217 Q87.5892 725.467 90.6447 720.884 Q93.7234 716.278 99.5335 716.278 Z" fill="#000000" fill-rule="nonzero" fill-opacity="1" /><path clip-path="url(#clip510)" d="M91.5706 422.499 L99.2095 422.499 L99.2095 396.134 L90.8993 397.801 L90.8993 393.541 L99.1632 391.875 L103.839 391.875 L103.839 422.499 L111.478 422.499 L111.478 426.435 L91.5706 426.435 L91.5706 422.499 Z" fill="#000000" fill-rule="nonzero" fill-opacity="1" /><path clip-path="url(#clip510)" d="M95.1586 97.4716 L111.478 97.4716 L111.478 101.407 L89.5336 101.407 L89.5336 97.4716 Q92.1956 94.717 96.7789 90.0874 Q101.385 85.4346 102.566 84.092 Q104.811 81.5689 105.691 79.8328 Q106.594 78.0735 106.594 76.3837 Q106.594 73.6291 104.649 71.893 Q102.728 70.1569 99.6261 70.1569 Q97.4271 70.1569 94.9734 70.9208 Q92.5428 71.6847 89.7651 73.2356 L89.7651 68.5134 Q92.5891 67.3792 95.0428 66.8005 Q97.4965 66.2218 99.5335 66.2218 Q104.904 66.2218 108.098 68.9069 Q111.293 71.5921 111.293 76.0828 Q111.293 78.2124 110.483 80.1337 Q109.696 82.0319 107.589 84.6244 Q107.01 85.2957 103.909 88.5133 Q100.807 91.7077 95.1586 97.4716 Z" fill="#000000" fill-rule="nonzero" fill-opacity="1" /><polyline clip-path="url(#clip511)" style="stroke:#009af9; stroke-linecap:round; stroke-linejoin:round; stroke-width:4; stroke-opacity:1; fill:none" points="147.478,1384.24 152.295,1384.21 156.881,1384.12 161.328,1383.99 165.593,1383.81 169.741,1383.58 173.836,1383.32 177.869,1383.02 181.755,1382.69 185.598,1382.32 189.402,1381.92 193.143,1381.49 196.846,1381.03 200.526,1380.53 204.158,1380.01 207.751,1379.46 211.327,1378.87 214.872,1378.26 218.384,1377.63 221.88,1376.96 225.358,1376.27 228.804,1375.55 232.236,1374.81 235.655,1374.03 239.048,1373.24 242.425,1372.42 245.791,1371.57 249.139,1370.7 252.471,1369.8 255.796,1368.88 259.104,1367.94 262.398,1366.97 265.682,1365.98 268.956,1364.96 272.214,1363.93 275.465,1362.87 278.707,1361.78 281.936,1360.68 285.159,1359.55 288.373,1358.4 291.576,1357.23 294.77,1356.03 297.96,1354.82 301.137,1353.58 304.308,1352.33 307.474,1351.05 310.631,1349.75 313.78,1348.43 316.923,1347.09 320.06,1345.73 323.189,1344.35 326.314,1342.95 329.431,1341.53 332.543,1340.09 335.65,1338.63 338.751,1337.16 341.846,1335.66 344.936,1334.14 348.021,1332.61 351.1,1331.06 354.174,1329.49 357.244,1327.9 360.308,1326.29 363.368,1324.66 366.425,1323.02 369.475,1321.36 372.522,1319.68 375.564,1317.99 378.602,1316.28 381.636,1314.55 384.666,1312.8 387.692,1311.04 390.714,1309.26 393.732,1307.47 396.746,1305.66 399.756,1303.83 402.763,1301.99 405.766,1300.13 408.765,1298.26 411.761,1296.37 414.753,1294.46 417.742,1292.55 420.727,1290.61 423.709,1288.67 426.687,1286.7 429.662,1284.73 432.634,1282.74 435.602,1280.73 438.567,1278.72 441.529,1276.69 444.488,1274.64 447.444,1272.59 450.396,1270.52 453.345,1268.43 456.291,1266.34 459.233,1264.23 462.173,1262.11 465.109,1259.98 468.043,1257.84 470.973,1255.68 473.9,1253.52 476.824,1251.34 479.744,1249.15 482.662,1246.95 485.576,1244.74 488.487,1242.52 491.395,1240.29 494.3,1238.05 497.202,1235.8 500.1,1233.54 502.995,1231.27 505.887,1229 508.775,1226.71 511.66,1224.41 514.542,1222.11 517.42,1219.8 520.295,1217.48 523.167,1215.15 526.035,1212.82 528.899,1210.47 531.76,1208.12 534.617,1205.77 537.47,1203.4 540.32,1201.03 543.166,1198.66 546.008,1196.28 548.846,1193.89 551.68,1191.49 554.51,1189.1 557.336,1186.69 560.158,1184.29 562.975,1181.87 565.788,1179.46 568.596,1177.04 571.4,1174.61 574.2,1172.19 576.994,1169.76 579.784,1167.32 582.568,1164.89 585.348,1162.45 588.122,1160.01 590.891,1157.57 593.655,1155.13 596.414,1152.68 599.166,1150.24 601.913,1147.8 604.654,1145.35 607.389,1142.91 610.117,1140.46 612.839,1138.02 615.553,1135.58 618.262,1133.14 620.964,1130.7 623.657,1128.26 626.345,1125.83 629.024,1123.4 631.695,1120.97 634.359,1118.55 637.013,1116.13 639.659,1113.72 642.298,1111.31 644.924,1108.9 647.543,1106.51 650.152,1104.11 652.75,1101.73 655.341,1099.35 657.918,1096.98 660.485,1094.62 663.041,1092.27 665.584,1089.92 668.118,1087.59 670.64,1085.26 673.145,1082.94 675.641,1080.64 678.122,1078.35 680.587,1076.07 683.048,1073.79 685.478,1071.54 687.904,1069.3 690.307,1067.07 692.686,1064.87 695.064,1062.67 697.391,1060.51 699.69,1058.38 702,1056.25 704.334,1054.08 706.685,1051.91 709.081,1049.69 711.499,1047.45 713.943,1045.19 716.425,1042.89 718.922,1040.58 721.457,1038.24 724.018,1035.87 726.598,1033.49 729.216,1031.08 731.851,1028.65 734.517,1026.19 737.211,1023.71 739.917,1021.22 742.666,1018.69 745.431,1016.15 748.22,1013.59 751.042,1011.01 753.877,1008.41 756.748,1005.79 759.641,1003.15 762.551,1000.5 765.498,997.813 768.459,995.122 771.451,992.408 774.47,989.675 777.5,986.936 780.573,984.165 783.661,981.385 786.773,978.59 789.919,975.772 793.077,972.949 796.272,970.099 799.49,967.238 802.725,964.368 806,961.471 809.289,958.571 812.611,955.65 815.962,952.713 819.325,949.776 822.734,946.809 826.159,943.838 829.613,940.853 833.102,937.85 836.602,934.849 840.15,931.82 843.718,928.787 847.312,925.745 850.947,922.683 854.595,919.624 858.289,916.543 862.01,913.455 865.754,910.365 869.544,907.253 873.351,904.145 877.203,901.02 881.087,897.888 884.996,894.755 888.953,891.605 892.933,888.458 896.957,885.298 901.02,882.132 905.111,878.967 909.252,875.789 913.422,872.613 917.638,869.43 921.898,866.242 926.194,863.055 930.539,859.861 934.921,856.672 939.349,853.481 943.834,850.282 948.358,847.09 952.938,843.895 957.564,840.705 962.233,837.523 966.971,834.335 971.736,831.17 976.582,827.993 981.461,824.841 986.407,821.691 991.416,818.548 996.452,815.439 1001.58,812.325 1006.72,809.254 1011.93,806.197 1017.25,803.135 1022.54,800.146 1028.08,797.079 1033.68,794.047 1039.4,791.019 1045.27,787.987 1051.28,784.959 1057.45,781.935 1063.76,778.931 1070.22,775.951 1076.84,772.996 1083.63,770.07 1090.6,767.177 1097.78,764.319 1105.17,761.506 1112.79,758.744 1120.68,756.036 1128.84,753.395 1137.18,750.864 1145.9,748.407 1155.06,746.03 1164.63,743.776 1172.95,742.007 1178.29,740.965 1181.63,740.351 1184.04,739.926 1185.95,739.598 1187.55,739.333 1188.87,739.119 1190.05,738.93 1191.13,738.762 1192.1,738.613 1192.99,738.479 1193.8,738.357 1194.57,738.245 1195.29,738.139 1195.96,738.044 1196.6,737.954 1197.2,737.868 1197.78,737.788 1198.33,737.713 1198.86,737.641 1199.36,737.574 1199.84,737.509 1200.31,737.447 1200.77,737.388 1201.19,737.332 1201.61,737.278 1202,737.227 1202.39,737.178 1202.77,737.13 1203.13,737.084 1203.47,737.041 1203.79,737 1204.1,736.963 1204.39,736.926 1204.67,736.891 1204.94,736.857 1205.2,736.826 1205.44,736.795 1205.65,736.769 1205.86,736.743 1206.08,736.717 1206.29,736.69 1206.53,736.66 1206.78,736.63 1207.03,736.598 1207.3,736.565 1207.57,736.531 1207.84,736.496 1208.13,736.46 1208.42,736.423 1208.72,736.384 1209.04,736.343 1209.36,736.301 1209.68,736.258 1210.01,736.213 1210.34,736.167 1210.68,736.119 1211.03,736.069 1211.38,736.017 1211.74,735.962 1212.1,735.904 1212.47,735.843 1212.84,735.779 1213.22,735.711 1213.6,735.639 1213.99,735.56 1214.39,735.476 1214.8,735.385 1215.21,735.287 1215.62,735.18 1216.04,735.063 1216.48,734.932 1216.92,734.788 1217.37,734.629 1217.82,734.451 1218.29,734.252 1218.77,734.027 1219.26,733.771 1219.76,733.48 1220.27,733.15 1220.79,732.772 1221.34,732.328 1221.91,731.814 1222.49,731.217 1223.1,730.506 1223.74,729.651 1224.42,728.622 1225.16,727.324 1225.98,725.648 1226.83,723.618 1227.67,721.283 1228.47,718.682 1229.25,715.773 1230.02,712.502 1230.78,708.826 1231.52,704.812 1232.25,700.408 1232.97,695.591 1233.68,690.334 1234.38,684.617 1235.08,678.394 1235.77,671.642 1236.46,664.335 1237.16,656.437 1237.85,647.931 1238.55,638.795 1239.24,628.996 1239.94,618.527 1240.65,607.367 1241.36,595.513 1242.07,582.962 1242.79,569.716 1243.51,555.741 1244.24,541.135 1244.97,525.91 1245.72,509.916 1246.47,493.365 1247.23,476.289 1248,458.541 1248.81,439.843 1249.64,420.339 1250.54,399.287 1251.23,382.931 1251.91,367.171 1252.6,351.241 1253.3,335.308 1254.01,319.505 1254.72,304.036 1255.43,288.973 1256.14,274.364 1256.84,260.288 1257.55,246.779 1258.26,233.87 1258.96,221.595 1259.66,209.956 1260.36,198.963 1261.06,188.624 1261.76,178.929 1262.45,169.867 1263.15,161.427 1263.85,153.578 1264.55,146.313 1265.25,139.614 1265.96,133.424 1266.68,127.737 1267.4,122.539 1268.13,117.79 1268.88,113.456 1269.63,109.577 1270.38,106.138 1271.15,103.069 1271.92,100.341 1272.72,97.9275 1273.54,95.7893 1274.43,93.8318 1275.24,92.3343 1275.99,91.1626 1276.68,90.2595 1277.32,89.5292 1277.94,88.9231 1278.54,88.4207 1279.11,88.0124 1279.67,87.6708 1280.21,87.3846 1280.74,87.1468 1281.25,86.948 1281.75,86.7842 1282.24,86.6494 1282.72,86.5378 1283.2,86.4466 1283.66,86.3735 1284.12,86.3152 1284.57,86.2704 1285.01,86.2367 1285.45,86.2124 1285.88,86.1966 1286.3,86.188 1286.72,86.1857 1287.14,86.1888 1287.55,86.1966 1287.95,86.2086 1288.35,86.2243 1288.75,86.2431 1289.15,86.2647 1289.54,86.2887 1289.93,86.315 1290.32,86.3432 1290.7,86.3732 1291.09,86.4048 1291.47,86.4378 1291.86,86.4722 1292.24,86.5078 1292.62,86.5447 1293,86.5826 1293.38,86.6216 1293.77,86.6616 1294.15,86.7028 1294.54,86.7452 1294.93,86.7886 1295.33,86.8331 1295.73,86.8787 1296.13,86.9254 1296.53,86.9732 1296.95,87.0232 1297.37,87.0744 1297.8,87.1269 1298.24,87.1813 1298.68,87.2371 1299.14,87.2946 1299.61,87.3558 1300.1,87.4188 1300.6,87.4841 1301.11,87.5525 1301.64,87.6238 1302.19,87.6988 1302.78,87.7792 1303.38,87.863 1304.01,87.9507 1304.68,88.0469 1305.39,88.1493 1306.14,88.2582 1306.93,88.3759 1307.81,88.5084 1308.75,88.6518 1309.76,88.8092 1310.92,88.9919 1312.22,89.2009 1313.71,89.447 1315.46,89.7439 1317.6,90.1163 1320.42,90.6246 1324.82,91.4611 1334.16,93.4004 1344.01,95.6875 1352.85,97.9512 1361.21,100.274 1369.22,102.662 1376.93,105.111 1384.37,107.617 1391.59,110.175 1398.6,112.781 1405.42,115.429 1412.06,118.117 1418.53,120.831 1424.83,123.573 1431,126.342 1437.03,129.136 1442.93,131.953 1448.73,134.793 1454.41,137.648 1459.97,140.514 1465.4,143.378 1470.74,146.254 1476.02,149.156 1481.09,152.001 1486.11,154.87 1491.11,157.779 1496.05,160.709 1500.96,163.663 1505.81,166.628 1510.59,169.596 1515.32,172.584 1520,175.572 1524.62,178.568 1529.19,181.573 1533.7,184.571 1538.17,187.584 1542.58,190.588 1546.95,193.6 1551.28,196.615 1555.55,199.626 1559.79,202.643 1563.98,205.655 1568.13,208.666 1572.25,211.68 1576.32,214.689 1580.36,217.697 1584.36,220.704 1588.32,223.7 1592.25,226.702 1596.14,229.695 1600,232.684 1603.83,235.673 1607.61,238.645 1611.37,241.621 1615.1,244.586 1618.79,247.546 1622.46,250.503 1626.09,253.446 1629.7,256.387 1633.28,259.318 1636.82,262.241 1640.35,265.159 1643.84,268.065 1647.3,270.961 1650.74,273.852 1654.15,276.73 1657.54,279.601 1660.9,282.462 1664.23,285.308 1667.55,288.15 1670.83,290.977 1674.09,293.794 1677.33,296.604 1680.53,299.392 1683.72,302.176 1686.88,304.946 1690.02,307.702 1693.14,310.45 1696.23,313.178 1699.3,315.898 1702.35,318.605 1705.37,321.296 1708.37,323.976 1711.35,326.64 1714.3,329.289 1717.24,331.927 1720.15,334.548 1723.04,337.154 1725.9,339.747 1728.75,342.321 1731.57,344.883 1734.37,347.429 1737.15,349.955 1739.91,352.469 1742.64,354.964 1745.36,357.443 1748.05,359.908 1750.72,362.347 1753.37,364.777 1755.99,367.187 1758.59,369.575 1761.17,371.951 1763.73,374.3 1766.26,376.635 1768.77,378.951 1771.26,381.243 1773.73,383.52 1776.17,385.773 1778.58,388.006 1780.98,390.221 1783.35,392.41 1785.69,394.579 1788.01,396.726 1790.3,398.847 1792.57,400.949 1794.82,403.025 1797.03,405.075 1799.22,407.104 1801.38,409.106 1803.53,411.098 1805.71,413.113 1807.92,415.155 1810.14,417.21 1812.38,419.284 1814.64,421.375 1816.9,423.474 1819.2,425.596 1821.5,427.724 1823.82,429.865 1826.15,432.019 1828.49,434.182 1830.85,436.357 1833.21,438.542 1835.59,440.735 1837.98,442.939 1840.39,445.15 1842.8,447.369 1845.22,449.597 1847.65,451.831 1850.1,454.073 1852.55,456.322 1855.01,458.576 1857.48,460.837 1859.96,463.103 1862.45,465.374 1864.95,467.65 1867.45,469.93 1869.97,472.214 1872.49,474.502 1875.01,476.793 1877.55,479.087 1880.09,481.384 1882.64,483.682 1885.19,485.984 1887.75,488.286 1890.32,490.591 1892.9,492.897 1895.48,495.203 1898.06,497.511 1900.66,499.819 1903.25,502.127 1905.86,504.435 1908.47,506.742 1911.08,509.048 1913.7,511.354 1916.32,513.658 1918.95,515.96 1921.59,518.262 1924.23,520.56 1926.87,522.857 1929.52,525.151 1932.17,527.442 1934.83,529.731 1937.49,532.017 1940.16,534.298 1942.83,536.577 1945.5,538.851 1948.18,541.121 1950.86,543.388 1953.55,545.65 1956.24,547.907 1958.93,550.159 1961.63,552.406 1964.33,554.647 1967.04,556.883 1969.75,559.113 1972.46,561.338 1975.18,563.556 1977.89,565.767 1980.62,567.973 1983.35,570.171 1986.08,572.362 1988.81,574.547 1991.55,576.723 1994.29,578.893 1997.03,581.054 1999.78,583.208 2002.53,585.353 2005.28,587.491 2008.04,589.619 2010.8,591.739 2013.56,593.851 2016.33,595.953 2019.1,598.046 2021.87,600.13 2024.64,602.204 2027.42,604.268 2030.21,606.323 2032.99,608.367 2035.78,610.401 2038.57,612.425 2041.37,614.439 2044.17,616.441 2046.97,618.433 2049.77,620.413 2052.58,622.383 2055.39,624.341 2058.21,626.287 2061.02,628.222 2063.84,630.144 2066.67,632.055 2069.5,633.953 2072.33,635.84 2075.16,637.713 2078,639.574 2080.84,641.422 2083.68,643.257 2086.53,645.079 2089.38,646.888 2092.24,648.683 2095.1,650.464 2097.96,652.232 2100.83,653.986 2103.7,655.726 2106.57,657.451 2109.45,659.162 2112.33,660.859 2115.21,662.541 2118.1,664.208 2121,665.861 2123.89,667.498 2126.8,669.119 2129.7,670.726 2132.61,672.317 2135.53,673.892 2138.45,675.451 2141.37,676.995 2144.3,678.521 2147.23,680.032 2150.17,681.526 2153.11,683.004 2156.06,684.465 2159.02,685.909 2161.97,687.336 2164.94,688.746 2167.91,690.138 2170.88,691.513 2173.86,692.87 2176.85,694.209 2179.84,695.53 2182.84,696.834 2185.85,698.119 2188.86,699.386 2191.88,700.634 2194.91,701.863 2197.94,703.073 2200.98,704.264 2204.03,705.436 2207.09,706.588 2210.15,707.721 2213.23,708.835 2216.31,709.928 2219.39,711 2222.5,712.054 2225.6,713.086 2228.72,714.097 2231.86,715.089 2235,716.059 2238.15,717.007 2241.31,717.934 2244.48,718.839 2247.67,719.722 2250.87,720.584 2254.09,721.423 2257.31,722.239 2260.56,723.033 2263.82,723.803 2267.09,724.549 2270.39,725.273 2273.7,725.973 2277.03,726.647 2280.38,727.297 2283.77,727.924 2287.16,728.523 2290.59,729.097 2294.05,729.646 2297.52,730.166 2301.04,730.66 2304.6,731.128 2308.19,731.566 2311.81,731.973 2315.5,732.353 2319.23,732.701 2323,733.015 2326.9,733.301 2330.88,733.551 2334.92,733.763 2339.1,733.937 2343.46,734.069 2347.98,734.152 2352.76,734.183 "/>
<path clip-path="url(#clip510)" d="M1969.62 196.789 L2279.25 196.789 L2279.25 93.1086 L1969.62 93.1086  Z" fill="#ffffff" fill-rule="evenodd" fill-opacity="1"/>
<polyline clip-path="url(#clip510)" style="stroke:#000000; stroke-linecap:round; stroke-linejoin:round; stroke-width:4; stroke-opacity:1; fill:none" points="1969.62,196.789 2279.25,196.789 2279.25,93.1086 1969.62,93.1086 1969.62,196.789 "/>
<polyline clip-path="url(#clip510)" style="stroke:#009af9; stroke-linecap:round; stroke-linejoin:round; stroke-width:4; stroke-opacity:1; fill:none" points="1994.13,144.949 2141.14,144.949 "/>
<path clip-path="url(#clip510)" d="M2165.65 151.997 L2165.65 136.303 L2169.91 136.303 L2169.91 151.835 Q2169.91 155.516 2171.34 157.368 Q2172.78 159.196 2175.65 159.196 Q2179.1 159.196 2181.09 156.997 Q2183.1 154.798 2183.1 151.002 L2183.1 136.303 L2187.36 136.303 L2187.36 162.229 L2183.1 162.229 L2183.1 158.247 Q2181.55 160.608 2179.49 161.766 Q2177.45 162.9 2174.74 162.9 Q2170.28 162.9 2167.96 160.122 Q2165.65 157.344 2165.65 151.997 M2176.36 135.678 L2176.36 135.678 Z" fill="#000000" fill-rule="nonzero" fill-opacity="1" /><path clip-path="url(#clip510)" d="M2195.74 126.21 L2205.55 126.21 L2205.55 129.52 L2200 129.52 L2200 165.168 L2205.55 165.168 L2205.55 168.479 L2195.74 168.479 L2195.74 126.21 Z" fill="#000000" fill-rule="nonzero" fill-opacity="1" /><path clip-path="url(#clip510)" d="M2216.04 158.293 L2223.68 158.293 L2223.68 131.928 L2215.37 133.595 L2215.37 129.335 L2223.63 127.669 L2228.31 127.669 L2228.31 158.293 L2235.95 158.293 L2235.95 162.229 L2216.04 162.229 L2216.04 158.293 Z" fill="#000000" fill-rule="nonzero" fill-opacity="1" /><path clip-path="url(#clip510)" d="M2254.74 126.21 L2254.74 168.479 L2244.93 168.479 L2244.93 165.168 L2250.46 165.168 L2250.46 129.52 L2244.93 129.52 L2244.93 126.21 L2254.74 126.21 Z" fill="#000000" fill-rule="nonzero" fill-opacity="1" /></svg>
