<?xml version="1.0" encoding="utf-8"?>
<svg xmlns="http://www.w3.org/2000/svg" xmlns:xlink="http://www.w3.org/1999/xlink" width="600" height="400" viewBox="0 0 2400 1600">
<defs>
  <clipPath id="clip910">
    <rect x="0" y="0" width="2400" height="1600"/>
  </clipPath>
</defs>
<path clip-path="url(#clip910)" d="M0 1600 L2400 1600 L2400 0 L0 0  Z" fill="#ffffff" fill-rule="evenodd" fill-opacity="1"/>
<defs>
  <clipPath id="clip911">
    <rect x="193" y="47" width="2160" height="1377"/>
  </clipPath>
</defs>
<path clip-path="url(#clip910)" d="M193.936 1423.18 L2352.76 1423.18 L2352.76 47.2441 L193.936 47.2441  Z" fill="#ffffff" fill-rule="evenodd" fill-opacity="1"/>
<polyline clip-path="url(#clip911)" style="stroke:#000000; stroke-linecap:round; stroke-linejoin:round; stroke-width:2; stroke-opacity:0.1; fill:none" points="193.936,1423.18 193.936,47.2441 "/>
<polyline clip-path="url(#clip911)" style="stroke:#000000; stroke-linecap:round; stroke-linejoin:round; stroke-width:2; stroke-opacity:0.1; fill:none" points="733.641,1423.18 733.641,47.2441 "/>
<polyline clip-path="url(#clip911)" style="stroke:#000000; stroke-linecap:round; stroke-linejoin:round; stroke-width:2; stroke-opacity:0.1; fill:none" points="1273.35,1423.18 1273.35,47.2441 "/>
<polyline clip-path="url(#clip911)" style="stroke:#000000; stroke-linecap:round; stroke-linejoin:round; stroke-width:2; stroke-opacity:0.1; fill:none" points="1813.05,1423.18 1813.05,47.2441 "/>
<polyline clip-path="url(#clip911)" style="stroke:#000000; stroke-linecap:round; stroke-linejoin:round; stroke-width:2; stroke-opacity:0.1; fill:none" points="2352.76,1423.18 2352.76,47.2441 "/>
<polyline clip-path="url(#clip911)" style="stroke:#000000; stroke-linecap:round; stroke-linejoin:round; stroke-width:2; stroke-opacity:0.1; fill:none" points="193.936,1384.24 2352.76,1384.24 "/>
<polyline clip-path="url(#clip911)" style="stroke:#000000; stroke-linecap:round; stroke-linejoin:round; stroke-width:2; stroke-opacity:0.1; fill:none" points="193.936,1059.8 2352.76,1059.8 "/>
<polyline clip-path="url(#clip911)" style="stroke:#000000; stroke-linecap:round; stroke-linejoin:round; stroke-width:2; stroke-opacity:0.1; fill:none" points="193.936,735.358 2352.76,735.358 "/>
<polyline clip-path="url(#clip911)" style="stroke:#000000; stroke-linecap:round; stroke-linejoin:round; stroke-width:2; stroke-opacity:0.1; fill:none" points="193.936,410.918 2352.76,410.918 "/>
<polyline clip-path="url(#clip911)" style="stroke:#000000; stroke-linecap:round; stroke-linejoin:round; stroke-width:2; stroke-opacity:0.1; fill:none" points="193.936,86.478 2352.76,86.478 "/>
<polyline clip-path="url(#clip910)" style="stroke:#000000; stroke-linecap:round; stroke-linejoin:round; stroke-width:4; stroke-opacity:1; fill:none" points="193.936,1423.18 2352.76,1423.18 "/>
<polyline clip-path="url(#clip910)" style="stroke:#000000; stroke-linecap:round; stroke-linejoin:round; stroke-width:4; stroke-opacity:1; fill:none" points="193.936,1423.18 193.936,1404.28 "/>
<polyline clip-path="url(#clip910)" style="stroke:#000000; stroke-linecap:round; stroke-linejoin:round; stroke-width:4; stroke-opacity:1; fill:none" points="733.641,1423.18 733.641,1404.28 "/>
<polyline clip-path="url(#clip910)" style="stroke:#000000; stroke-linecap:round; stroke-linejoin:round; stroke-width:4; stroke-opacity:1; fill:none" points="1273.35,1423.18 1273.35,1404.28 "/>
<polyline clip-path="url(#clip910)" style="stroke:#000000; stroke-linecap:round; stroke-linejoin:round; stroke-width:4; stroke-opacity:1; fill:none" points="1813.05,1423.18 1813.05,1404.28 "/>
<polyline clip-path="url(#clip910)" style="stroke:#000000; stroke-linecap:round; stroke-linejoin:round; stroke-width:4; stroke-opacity:1; fill:none" points="2352.76,1423.18 2352.76,1404.28 "/>
<path clip-path="url(#clip910)" d="M140.464 1468.75 L170.14 1468.75 L170.14 1472.69 L140.464 1472.69 L140.464 1468.75 Z" fill="#000000" fill-rule="nonzero" fill-opacity="1" /><path clip-path="url(#clip910)" d="M181.043 1481.64 L188.681 1481.64 L188.681 1455.28 L180.371 1456.95 L180.371 1452.69 L188.635 1451.02 L193.311 1451.02 L193.311 1481.64 L200.95 1481.64 L200.95 1485.58 L181.043 1485.58 L181.043 1481.64 Z" fill="#000000" fill-rule="nonzero" fill-opacity="1" /><path clip-path="url(#clip910)" d="M210.394 1479.7 L215.278 1479.7 L215.278 1485.58 L210.394 1485.58 L210.394 1479.7 Z" fill="#000000" fill-rule="nonzero" fill-opacity="1" /><path clip-path="url(#clip910)" d="M235.464 1454.1 Q231.852 1454.1 230.024 1457.66 Q228.218 1461.2 228.218 1468.33 Q228.218 1475.44 230.024 1479.01 Q231.852 1482.55 235.464 1482.55 Q239.098 1482.55 240.903 1479.01 Q242.732 1475.44 242.732 1468.33 Q242.732 1461.2 240.903 1457.66 Q239.098 1454.1 235.464 1454.1 M235.464 1450.39 Q241.274 1450.39 244.329 1455 Q247.408 1459.58 247.408 1468.33 Q247.408 1477.06 244.329 1481.67 Q241.274 1486.25 235.464 1486.25 Q229.653 1486.25 226.575 1481.67 Q223.519 1477.06 223.519 1468.33 Q223.519 1459.58 226.575 1455 Q229.653 1450.39 235.464 1450.39 Z" fill="#000000" fill-rule="nonzero" fill-opacity="1" /><path clip-path="url(#clip910)" d="M680.667 1468.75 L710.342 1468.75 L710.342 1472.69 L680.667 1472.69 L680.667 1468.75 Z" fill="#000000" fill-rule="nonzero" fill-opacity="1" /><path clip-path="url(#clip910)" d="M730.435 1454.1 Q726.824 1454.1 724.995 1457.66 Q723.19 1461.2 723.19 1468.33 Q723.19 1475.44 724.995 1479.01 Q726.824 1482.55 730.435 1482.55 Q734.069 1482.55 735.875 1479.01 Q737.703 1475.44 737.703 1468.33 Q737.703 1461.2 735.875 1457.66 Q734.069 1454.1 730.435 1454.1 M730.435 1450.39 Q736.245 1450.39 739.301 1455 Q742.379 1459.58 742.379 1468.33 Q742.379 1477.06 739.301 1481.67 Q736.245 1486.25 730.435 1486.25 Q724.625 1486.25 721.546 1481.67 Q718.491 1477.06 718.491 1468.33 Q718.491 1459.58 721.546 1455 Q724.625 1450.39 730.435 1450.39 Z" fill="#000000" fill-rule="nonzero" fill-opacity="1" /><path clip-path="url(#clip910)" d="M750.597 1479.7 L755.481 1479.7 L755.481 1485.58 L750.597 1485.58 L750.597 1479.7 Z" fill="#000000" fill-rule="nonzero" fill-opacity="1" /><path clip-path="url(#clip910)" d="M765.713 1451.02 L784.069 1451.02 L784.069 1454.96 L769.995 1454.96 L769.995 1463.43 Q771.013 1463.08 772.032 1462.92 Q773.05 1462.73 774.069 1462.73 Q779.856 1462.73 783.236 1465.9 Q786.615 1469.08 786.615 1474.49 Q786.615 1480.07 783.143 1483.17 Q779.671 1486.25 773.351 1486.25 Q771.175 1486.25 768.907 1485.88 Q766.662 1485.51 764.254 1484.77 L764.254 1480.07 Q766.338 1481.2 768.56 1481.76 Q770.782 1482.32 773.259 1482.32 Q777.263 1482.32 779.601 1480.21 Q781.939 1478.1 781.939 1474.49 Q781.939 1470.88 779.601 1468.77 Q777.263 1466.67 773.259 1466.67 Q771.384 1466.67 769.509 1467.08 Q767.657 1467.5 765.713 1468.38 L765.713 1451.02 Z" fill="#000000" fill-rule="nonzero" fill-opacity="1" /><path clip-path="url(#clip910)" d="M1250.73 1454.1 Q1247.12 1454.1 1245.29 1457.66 Q1243.49 1461.2 1243.49 1468.33 Q1243.49 1475.44 1245.29 1479.01 Q1247.12 1482.55 1250.73 1482.55 Q1254.36 1482.55 1256.17 1479.01 Q1258 1475.44 1258 1468.33 Q1258 1461.2 1256.17 1457.66 Q1254.36 1454.1 1250.73 1454.1 M1250.73 1450.39 Q1256.54 1450.39 1259.6 1455 Q1262.67 1459.58 1262.67 1468.33 Q1262.67 1477.06 1259.6 1481.67 Q1256.54 1486.25 1250.73 1486.25 Q1244.92 1486.25 1241.84 1481.67 Q1238.79 1477.06 1238.79 1468.33 Q1238.79 1459.58 1241.84 1455 Q1244.92 1450.39 1250.73 1450.39 Z" fill="#000000" fill-rule="nonzero" fill-opacity="1" /><path clip-path="url(#clip910)" d="M1270.89 1479.7 L1275.78 1479.7 L1275.78 1485.58 L1270.89 1485.58 L1270.89 1479.7 Z" fill="#000000" fill-rule="nonzero" fill-opacity="1" /><path clip-path="url(#clip910)" d="M1295.96 1454.1 Q1292.35 1454.1 1290.52 1457.66 Q1288.72 1461.2 1288.72 1468.33 Q1288.72 1475.44 1290.52 1479.01 Q1292.35 1482.55 1295.96 1482.55 Q1299.6 1482.55 1301.4 1479.01 Q1303.23 1475.44 1303.23 1468.33 Q1303.23 1461.2 1301.4 1457.66 Q1299.6 1454.1 1295.96 1454.1 M1295.96 1450.39 Q1301.77 1450.39 1304.83 1455 Q1307.91 1459.58 1307.91 1468.33 Q1307.91 1477.06 1304.83 1481.67 Q1301.77 1486.25 1295.96 1486.25 Q1290.15 1486.25 1287.07 1481.67 Q1284.02 1477.06 1284.02 1468.33 Q1284.02 1459.58 1287.07 1455 Q1290.15 1450.39 1295.96 1450.39 Z" fill="#000000" fill-rule="nonzero" fill-opacity="1" /><path clip-path="url(#clip910)" d="M1790.93 1454.1 Q1787.32 1454.1 1785.49 1457.66 Q1783.69 1461.2 1783.69 1468.33 Q1783.69 1475.44 1785.49 1479.01 Q1787.32 1482.55 1790.93 1482.55 Q1794.57 1482.55 1796.37 1479.01 Q1798.2 1475.44 1798.2 1468.33 Q1798.2 1461.2 1796.37 1457.66 Q1794.57 1454.1 1790.93 1454.1 M1790.93 1450.39 Q1796.74 1450.39 1799.8 1455 Q1802.88 1459.58 1802.88 1468.33 Q1802.88 1477.06 1799.8 1481.67 Q1796.74 1486.25 1790.93 1486.25 Q1785.12 1486.25 1782.04 1481.67 Q1778.99 1477.06 1778.99 1468.33 Q1778.99 1459.58 1782.04 1455 Q1785.12 1450.39 1790.93 1450.39 Z" fill="#000000" fill-rule="nonzero" fill-opacity="1" /><path clip-path="url(#clip910)" d="M1811.09 1479.7 L1815.98 1479.7 L1815.98 1485.58 L1811.09 1485.58 L1811.09 1479.7 Z" fill="#000000" fill-rule="nonzero" fill-opacity="1" /><path clip-path="url(#clip910)" d="M1826.21 1451.02 L1844.57 1451.02 L1844.57 1454.96 L1830.49 1454.96 L1830.49 1463.43 Q1831.51 1463.08 1832.53 1462.92 Q1833.55 1462.73 1834.57 1462.73 Q1840.35 1462.73 1843.73 1465.9 Q1847.11 1469.08 1847.11 1474.49 Q1847.11 1480.07 1843.64 1483.17 Q1840.17 1486.25 1833.85 1486.25 Q1831.67 1486.25 1829.41 1485.88 Q1827.16 1485.51 1824.75 1484.77 L1824.75 1480.07 Q1826.84 1481.2 1829.06 1481.76 Q1831.28 1482.32 1833.76 1482.32 Q1837.76 1482.32 1840.1 1480.21 Q1842.44 1478.1 1842.44 1474.49 Q1842.44 1470.88 1840.1 1468.77 Q1837.76 1466.67 1833.76 1466.67 Q1831.88 1466.67 1830.01 1467.08 Q1828.16 1467.5 1826.21 1468.38 L1826.21 1451.02 Z" fill="#000000" fill-rule="nonzero" fill-opacity="1" /><path clip-path="url(#clip910)" d="M2319.91 1481.64 L2327.55 1481.64 L2327.55 1455.28 L2319.24 1456.95 L2319.24 1452.69 L2327.5 1451.02 L2332.18 1451.02 L2332.18 1481.64 L2339.82 1481.64 L2339.82 1485.58 L2319.91 1485.58 L2319.91 1481.64 Z" fill="#000000" fill-rule="nonzero" fill-opacity="1" /><path clip-path="url(#clip910)" d="M2349.26 1479.7 L2354.14 1479.7 L2354.14 1485.58 L2349.26 1485.58 L2349.26 1479.7 Z" fill="#000000" fill-rule="nonzero" fill-opacity="1" /><path clip-path="url(#clip910)" d="M2374.33 1454.1 Q2370.72 1454.1 2368.89 1457.66 Q2367.08 1461.2 2367.08 1468.33 Q2367.08 1475.44 2368.89 1479.01 Q2370.72 1482.55 2374.33 1482.55 Q2377.96 1482.55 2379.77 1479.01 Q2381.6 1475.44 2381.6 1468.33 Q2381.6 1461.2 2379.77 1457.66 Q2377.96 1454.1 2374.33 1454.1 M2374.33 1450.39 Q2380.14 1450.39 2383.2 1455 Q2386.27 1459.58 2386.27 1468.33 Q2386.27 1477.06 2383.2 1481.67 Q2380.14 1486.25 2374.33 1486.25 Q2368.52 1486.25 2365.44 1481.67 Q2362.39 1477.06 2362.39 1468.33 Q2362.39 1459.58 2365.44 1455 Q2368.52 1450.39 2374.33 1450.39 Z" fill="#000000" fill-rule="nonzero" fill-opacity="1" /><path clip-path="url(#clip910)" d="M1272.41 1522.27 L1272.41 1532.4 L1284.47 1532.4 L1284.47 1536.95 L1272.41 1536.95 L1272.41 1556.3 Q1272.41 1560.66 1273.58 1561.9 Q1274.79 1563.14 1278.45 1563.14 L1284.47 1563.14 L1284.47 1568.04 L1278.45 1568.04 Q1271.67 1568.04 1269.1 1565.53 Q1266.52 1562.98 1266.52 1556.3 L1266.52 1536.95 L1262.22 1536.95 L1262.22 1532.4 L1266.52 1532.4 L1266.52 1522.27 L1272.41 1522.27 Z" fill="#000000" fill-rule="nonzero" fill-opacity="1" /><polyline clip-path="url(#clip910)" style="stroke:#000000; stroke-linecap:round; stroke-linejoin:round; stroke-width:4; stroke-opacity:1; fill:none" points="193.936,1423.18 193.936,47.2441 "/>
<polyline clip-path="url(#clip910)" style="stroke:#000000; stroke-linecap:round; stroke-linejoin:round; stroke-width:4; stroke-opacity:1; fill:none" points="193.936,1384.24 212.834,1384.24 "/>
<polyline clip-path="url(#clip910)" style="stroke:#000000; stroke-linecap:round; stroke-linejoin:round; stroke-width:4; stroke-opacity:1; fill:none" points="193.936,1059.8 212.834,1059.8 "/>
<polyline clip-path="url(#clip910)" style="stroke:#000000; stroke-linecap:round; stroke-linejoin:round; stroke-width:4; stroke-opacity:1; fill:none" points="193.936,735.358 212.834,735.358 "/>
<polyline clip-path="url(#clip910)" style="stroke:#000000; stroke-linecap:round; stroke-linejoin:round; stroke-width:4; stroke-opacity:1; fill:none" points="193.936,410.918 212.834,410.918 "/>
<polyline clip-path="url(#clip910)" style="stroke:#000000; stroke-linecap:round; stroke-linejoin:round; stroke-width:4; stroke-opacity:1; fill:none" points="193.936,86.478 212.834,86.478 "/>
<path clip-path="url(#clip910)" d="M50.9921 1384.69 L80.6679 1384.69 L80.6679 1388.62 L50.9921 1388.62 L50.9921 1384.69 Z" fill="#000000" fill-rule="nonzero" fill-opacity="1" /><path clip-path="url(#clip910)" d="M94.7882 1397.58 L111.108 1397.58 L111.108 1401.52 L89.1632 1401.52 L89.1632 1397.58 Q91.8252 1394.83 96.4085 1390.2 Q101.015 1385.55 102.196 1384.2 Q104.441 1381.68 105.321 1379.94 Q106.223 1378.19 106.223 1376.5 Q106.223 1373.74 104.279 1372 Q102.358 1370.27 99.2558 1370.27 Q97.0567 1370.27 94.603 1371.03 Q92.1725 1371.8 89.3947 1373.35 L89.3947 1368.62 Q92.2188 1367.49 94.6724 1366.91 Q97.1261 1366.33 99.1632 1366.33 Q104.534 1366.33 107.728 1369.02 Q110.922 1371.7 110.922 1376.19 Q110.922 1378.32 110.112 1380.25 Q109.325 1382.14 107.219 1384.74 Q106.64 1385.41 103.538 1388.62 Q100.436 1391.82 94.7882 1397.58 Z" fill="#000000" fill-rule="nonzero" fill-opacity="1" /><path clip-path="url(#clip910)" d="M120.922 1395.64 L125.807 1395.64 L125.807 1401.52 L120.922 1401.52 L120.922 1395.64 Z" fill="#000000" fill-rule="nonzero" fill-opacity="1" /><path clip-path="url(#clip910)" d="M145.992 1370.04 Q142.381 1370.04 140.552 1373.6 Q138.746 1377.14 138.746 1384.27 Q138.746 1391.38 140.552 1394.94 Q142.381 1398.49 145.992 1398.49 Q149.626 1398.49 151.431 1394.94 Q153.26 1391.38 153.26 1384.27 Q153.26 1377.14 151.431 1373.6 Q149.626 1370.04 145.992 1370.04 M145.992 1366.33 Q151.802 1366.33 154.857 1370.94 Q157.936 1375.52 157.936 1384.27 Q157.936 1393 154.857 1397.61 Q151.802 1402.19 145.992 1402.19 Q140.181 1402.19 137.103 1397.61 Q134.047 1393 134.047 1384.27 Q134.047 1375.52 137.103 1370.94 Q140.181 1366.33 145.992 1366.33 Z" fill="#000000" fill-rule="nonzero" fill-opacity="1" /><path clip-path="url(#clip910)" d="M51.9875 1060.25 L81.6633 1060.25 L81.6633 1064.18 L51.9875 1064.18 L51.9875 1060.25 Z" fill="#000000" fill-rule="nonzero" fill-opacity="1" /><path clip-path="url(#clip910)" d="M92.566 1073.14 L100.205 1073.14 L100.205 1046.78 L91.8947 1048.44 L91.8947 1044.18 L100.159 1042.52 L104.834 1042.52 L104.834 1073.14 L112.473 1073.14 L112.473 1077.08 L92.566 1077.08 L92.566 1073.14 Z" fill="#000000" fill-rule="nonzero" fill-opacity="1" /><path clip-path="url(#clip910)" d="M121.918 1071.2 L126.802 1071.2 L126.802 1077.08 L121.918 1077.08 L121.918 1071.2 Z" fill="#000000" fill-rule="nonzero" fill-opacity="1" /><path clip-path="url(#clip910)" d="M137.033 1042.52 L155.39 1042.52 L155.39 1046.45 L141.316 1046.45 L141.316 1054.93 Q142.334 1054.58 143.353 1054.42 Q144.371 1054.23 145.39 1054.23 Q151.177 1054.23 154.556 1057.4 Q157.936 1060.57 157.936 1065.99 Q157.936 1071.57 154.464 1074.67 Q150.992 1077.75 144.672 1077.75 Q142.496 1077.75 140.228 1077.38 Q137.982 1077.01 135.575 1076.27 L135.575 1071.57 Q137.658 1072.7 139.881 1073.26 Q142.103 1073.81 144.58 1073.81 Q148.584 1073.81 150.922 1071.71 Q153.26 1069.6 153.26 1065.99 Q153.26 1062.38 150.922 1060.27 Q148.584 1058.17 144.58 1058.17 Q142.705 1058.17 140.83 1058.58 Q138.978 1059 137.033 1059.88 L137.033 1042.52 Z" fill="#000000" fill-rule="nonzero" fill-opacity="1" /><path clip-path="url(#clip910)" d="M50.9921 735.81 L80.6679 735.81 L80.6679 739.745 L50.9921 739.745 L50.9921 735.81 Z" fill="#000000" fill-rule="nonzero" fill-opacity="1" /><path clip-path="url(#clip910)" d="M91.5706 748.703 L99.2095 748.703 L99.2095 722.337 L90.8993 724.004 L90.8993 719.745 L99.1632 718.078 L103.839 718.078 L103.839 748.703 L111.478 748.703 L111.478 752.638 L91.5706 752.638 L91.5706 748.703 Z" fill="#000000" fill-rule="nonzero" fill-opacity="1" /><path clip-path="url(#clip910)" d="M120.922 746.759 L125.807 746.759 L125.807 752.638 L120.922 752.638 L120.922 746.759 Z" fill="#000000" fill-rule="nonzero" fill-opacity="1" /><path clip-path="url(#clip910)" d="M145.992 721.157 Q142.381 721.157 140.552 724.722 Q138.746 728.263 138.746 735.393 Q138.746 742.499 140.552 746.064 Q142.381 749.606 145.992 749.606 Q149.626 749.606 151.431 746.064 Q153.26 742.499 153.26 735.393 Q153.26 728.263 151.431 724.722 Q149.626 721.157 145.992 721.157 M145.992 717.453 Q151.802 717.453 154.857 722.06 Q157.936 726.643 157.936 735.393 Q157.936 744.12 154.857 748.726 Q151.802 753.309 145.992 753.309 Q140.181 753.309 137.103 748.726 Q134.047 744.12 134.047 735.393 Q134.047 726.643 137.103 722.06 Q140.181 717.453 145.992 717.453 Z" fill="#000000" fill-rule="nonzero" fill-opacity="1" /><path clip-path="url(#clip910)" d="M51.9875 411.369 L81.6633 411.369 L81.6633 415.305 L51.9875 415.305 L51.9875 411.369 Z" fill="#000000" fill-rule="nonzero" fill-opacity="1" /><path clip-path="url(#clip910)" d="M101.756 396.717 Q98.1447 396.717 96.316 400.282 Q94.5104 403.823 94.5104 410.953 Q94.5104 418.059 96.316 421.624 Q98.1447 425.166 101.756 425.166 Q105.39 425.166 107.196 421.624 Q109.024 418.059 109.024 410.953 Q109.024 403.823 107.196 400.282 Q105.39 396.717 101.756 396.717 M101.756 393.013 Q107.566 393.013 110.621 397.62 Q113.7 402.203 113.7 410.953 Q113.7 419.68 110.621 424.286 Q107.566 428.869 101.756 428.869 Q95.9456 428.869 92.8669 424.286 Q89.8114 419.68 89.8114 410.953 Q89.8114 402.203 92.8669 397.62 Q95.9456 393.013 101.756 393.013 Z" fill="#000000" fill-rule="nonzero" fill-opacity="1" /><path clip-path="url(#clip910)" d="M121.918 422.318 L126.802 422.318 L126.802 428.198 L121.918 428.198 L121.918 422.318 Z" fill="#000000" fill-rule="nonzero" fill-opacity="1" /><path clip-path="url(#clip910)" d="M137.033 393.638 L155.39 393.638 L155.39 397.573 L141.316 397.573 L141.316 406.045 Q142.334 405.698 143.353 405.536 Q144.371 405.351 145.39 405.351 Q151.177 405.351 154.556 408.522 Q157.936 411.694 157.936 417.11 Q157.936 422.689 154.464 425.791 Q150.992 428.869 144.672 428.869 Q142.496 428.869 140.228 428.499 Q137.982 428.129 135.575 427.388 L135.575 422.689 Q137.658 423.823 139.881 424.379 Q142.103 424.934 144.58 424.934 Q148.584 424.934 150.922 422.828 Q153.26 420.721 153.26 417.11 Q153.26 413.499 150.922 411.393 Q148.584 409.286 144.58 409.286 Q142.705 409.286 140.83 409.703 Q138.978 410.119 137.033 410.999 L137.033 393.638 Z" fill="#000000" fill-rule="nonzero" fill-opacity="1" /><path clip-path="url(#clip910)" d="M100.76 72.2767 Q97.1493 72.2767 95.3206 75.8415 Q93.515 79.3831 93.515 86.5127 Q93.515 93.6192 95.3206 97.184 Q97.1493 100.726 100.76 100.726 Q104.395 100.726 106.2 97.184 Q108.029 93.6192 108.029 86.5127 Q108.029 79.3831 106.2 75.8415 Q104.395 72.2767 100.76 72.2767 M100.76 68.573 Q106.571 68.573 109.626 73.1795 Q112.705 77.7628 112.705 86.5127 Q112.705 95.2395 109.626 99.846 Q106.571 104.429 100.76 104.429 Q94.9502 104.429 91.8715 99.846 Q88.816 95.2395 88.816 86.5127 Q88.816 77.7628 91.8715 73.1795 Q94.9502 68.573 100.76 68.573 Z" fill="#000000" fill-rule="nonzero" fill-opacity="1" /><path clip-path="url(#clip910)" d="M120.922 97.8784 L125.807 97.8784 L125.807 103.758 L120.922 103.758 L120.922 97.8784 Z" fill="#000000" fill-rule="nonzero" fill-opacity="1" /><path clip-path="url(#clip910)" d="M145.992 72.2767 Q142.381 72.2767 140.552 75.8415 Q138.746 79.3831 138.746 86.5127 Q138.746 93.6192 140.552 97.184 Q142.381 100.726 145.992 100.726 Q149.626 100.726 151.431 97.184 Q153.26 93.6192 153.26 86.5127 Q153.26 79.3831 151.431 75.8415 Q149.626 72.2767 145.992 72.2767 M145.992 68.573 Q151.802 68.573 154.857 73.1795 Q157.936 77.7628 157.936 86.5127 Q157.936 95.2395 154.857 99.846 Q151.802 104.429 145.992 104.429 Q140.181 104.429 137.103 99.846 Q134.047 95.2395 134.047 86.5127 Q134.047 77.7628 137.103 73.1795 Q140.181 68.573 145.992 68.573 Z" fill="#000000" fill-rule="nonzero" fill-opacity="1" /><polyline clip-path="url(#clip911)" style="stroke:#009af9; stroke-linecap:round; stroke-linejoin:round; stroke-width:4; stroke-opacity:1; fill:none" points="193.936,1384.24 197.676,1384.2 201.415,1384.08 205.155,1383.89 208.894,1383.62 212.383,1383.3 215.82,1382.92 219.257,1382.48 222.694,1381.97 226.001,1381.41 229.29,1380.81 232.579,1380.14 235.863,1379.41 239.057,1378.65 242.251,1377.83 245.446,1376.96 248.62,1376.04 251.746,1375.08 254.873,1374.06 257.999,1372.99 261.095,1371.88 264.169,1370.73 267.244,1369.52 270.319,1368.27 273.355,1366.98 276.388,1365.64 279.422,1364.26 282.445,1362.83 285.445,1361.36 288.445,1359.85 291.445,1358.28 294.425,1356.68 297.397,1355.04 300.37,1353.35 303.337,1351.62 306.286,1349.86 309.236,1348.04 312.185,1346.19 315.12,1344.29 318.049,1342.36 320.978,1340.38 323.904,1338.37 326.816,1336.31 329.728,1334.22 332.64,1332.08 335.541,1329.91 338.438,1327.69 341.336,1325.44 344.229,1323.14 347.113,1320.82 349.998,1318.45 352.882,1316.04 355.756,1313.59 358.629,1311.11 361.503,1308.59 364.371,1306.03 367.234,1303.44 370.098,1300.8 372.96,1298.13 375.815,1295.43 378.67,1292.69 381.525,1289.91 384.373,1287.09 387.221,1284.24 390.068,1281.36 392.912,1278.44 395.753,1275.48 398.593,1272.49 401.433,1269.46 404.267,1266.41 407.102,1263.31 409.936,1260.18 412.766,1257.02 415.596,1253.83 418.425,1250.59 421.252,1247.33 424.077,1244.04 426.902,1240.71 429.726,1237.35 432.547,1233.95 435.368,1230.53 438.188,1227.07 441.006,1223.58 443.824,1220.06 446.642,1216.5 449.456,1212.92 452.271,1209.31 455.085,1205.66 457.898,1201.98 460.709,1198.28 463.521,1194.54 466.331,1190.78 469.141,1186.98 471.95,1183.16 474.758,1179.31 477.566,1175.42 480.373,1171.51 483.18,1167.57 485.985,1163.61 488.791,1159.61 491.596,1155.59 494.4,1151.54 497.204,1147.46 500.008,1143.36 502.81,1139.23 505.612,1135.08 508.414,1130.9 511.214,1126.69 514.015,1122.46 516.816,1118.2 519.615,1113.92 522.415,1109.61 525.214,1105.28 528.013,1100.93 530.811,1096.55 533.609,1092.15 536.406,1087.72 539.203,1083.28 542,1078.81 544.795,1074.31 547.59,1069.8 550.386,1065.27 553.18,1060.71 555.974,1056.14 558.767,1051.54 561.56,1046.92 564.353,1042.29 567.145,1037.63 569.936,1032.96 572.727,1028.26 575.517,1023.55 578.306,1018.82 581.095,1014.08 583.883,1009.31 586.669,1004.53 589.455,999.737 592.241,994.925 595.025,990.097 597.809,985.253 600.592,980.395 603.373,975.524 606.154,970.636 608.933,965.738 611.711,960.826 614.488,955.901 617.262,950.966 620.036,946.019 622.809,941.058 625.579,936.091 628.348,931.111 631.116,926.12 633.881,921.124 636.645,916.116 639.407,911.101 642.164,906.083 644.922,901.053 647.674,896.021 650.425,890.983 653.176,885.935 655.919,880.891 658.663,875.837 661.403,870.781 664.136,865.728 666.87,860.666 669.595,855.612 672.318,850.556 675.039,845.495 677.749,840.448 680.459,835.394 683.162,830.348 685.856,825.311 688.551,820.269 691.226,815.257 693.899,810.246 696.564,805.245 699.212,800.27 701.861,795.291 704.482,790.36 707.097,785.438 709.699,780.537 712.268,775.696 714.837,770.852 717.36,766.095 719.869,761.36 722.353,756.672 724.774,752.102 727.195,747.532 729.523,743.135 731.824,738.79 734.113,734.467 736.354,730.234 738.596,726.001 740.874,721.7 743.178,717.349 745.482,712.999 747.857,708.518 750.235,704.033 752.636,699.504 755.084,694.888 757.533,690.274 760.031,685.568 762.551,680.825 765.074,676.078 767.66,671.217 770.245,666.36 772.859,661.455 775.51,656.482 778.161,651.515 780.865,646.455 783.584,641.371 786.311,636.278 789.095,631.085 791.879,625.9 794.692,620.665 797.541,615.374 800.39,610.092 803.292,604.719 806.207,599.331 809.132,593.935 812.114,588.443 815.096,582.963 818.112,577.434 821.161,571.854 824.21,566.288 827.316,560.631 830.434,554.969 833.564,549.298 836.751,543.54 839.938,537.799 843.164,532.004 846.425,526.165 849.686,520.345 853.012,514.428 856.347,508.517 859.7,502.595 863.111,496.593 866.522,490.615 869.981,484.578 873.471,478.512 876.961,472.473 880.531,466.324 884.103,460.199 887.705,454.054 891.362,447.845 895.02,441.669 898.743,435.416 902.491,429.159 906.249,422.918 910.092,416.579 913.934,410.278 917.828,403.934 921.77,397.556 925.712,391.222 929.753,384.776 933.801,378.369 937.889,371.946 942.049,365.465 946.209,359.037 950.465,352.517 954.746,346.021 959.06,339.534 963.47,332.967 967.88,326.467 972.394,319.883 976.946,313.316 981.532,306.775 986.241,300.138 990.95,293.583 995.786,286.938 1000.67,280.318 1005.61,273.719 1010.69,267.025 1015.77,260.434 1021.04,253.702 1026.36,247.038 1031.79,240.339 1037.38,233.578 1043.01,226.91 1048.95,220.015 1054.89,213.274 1061.22,206.266 1067.63,199.348 1074.45,192.202 1081.48,185.046 1088.92,177.736 1096.59,170.464 1104.71,163.077 1112.99,155.877 1121.42,148.884 1130.03,142.113 1138.89,135.531 1147.87,129.269 1157.19,123.206 1166.67,117.501 1176.56,112.055 1186.87,106.921 1197.87,102.069 1209.23,97.7445 1216.55,95.3239 1221.35,93.8944 1224.95,92.9054 1227.95,92.1322 1230.58,91.4985 1232.83,90.9844 1235,90.5152 1236.92,90.1206 1238.81,89.7538 1240.6,89.4223 1242.33,89.1187 1244.07,88.8311 1245.81,88.5581 1247.55,88.3013 1249.47,88.0377 1251.46,87.7828 1253.23,87.5734 1254.81,87.4002 1256.38,87.239 1257.77,87.1058 1259.13,86.9849 1260.48,86.8724 1261.86,86.7661 1263.25,86.6674 1264.64,86.5773 1266.03,86.4958 1267.67,86.4109 1269.38,86.336 1271.08,86.2753 1272.86,86.2281 1274.77,86.1965 1276.68,86.1857 1278.51,86.1959 1280.11,86.222 1281.71,86.2644 1283.3,86.3234 1284.9,86.399 1286.49,86.4909 1288.08,86.5994 1289.67,86.7241 1291.42,86.8801 1293.2,87.0582 1294.98,87.2556 1296.91,87.4913 1298.91,87.7584 1300.86,88.04 1302.62,88.3138 1304.38,88.6051 1306.19,88.9218 1308.06,89.267 1309.92,89.6313 1312.02,90.0654 1314.18,90.5349 1316.61,91.0957 1319.27,91.7461 1322.55,92.6006 1326.43,93.687 1331.84,95.3394 1341.76,98.7786 1353,103.316 1363.39,108.114 1373.08,113.106 1382.37,118.355 1391.35,123.851 1400.02,129.563 1408.47,135.498 1416.71,141.632 1424.75,147.943 1432.62,154.442 1440.38,161.134 1448.06,168.059 1455.31,174.849 1462.48,181.813 1469.09,188.446 1475.26,194.819 1481.33,201.259 1487.11,207.537 1492.88,213.964 1498.4,220.245 1503.89,226.628 1509.25,232.992 1514.51,239.344 1519.74,245.781 1524.79,252.104 1529.85,258.531 1534.77,264.899 1539.64,271.288 1544.47,277.719 1549.18,284.071 1553.89,290.508 1558.48,296.869 1563.04,303.26 1567.56,309.671 1571.98,316.017 1576.41,322.432 1580.73,328.767 1585.03,335.129 1589.29,341.503 1593.47,347.811 1597.65,354.177 1601.75,360.469 1605.82,366.775 1609.87,373.095 1613.84,379.341 1617.81,385.635 1621.71,391.865 1625.58,398.093 1629.43,404.34 1633.21,410.501 1636.99,416.702 1640.72,422.854 1644.41,428.984 1648.1,435.145 1651.7,441.205 1655.31,447.297 1658.88,453.357 1662.41,459.374 1665.94,465.421 1669.4,471.378 1672.85,477.346 1676.28,483.302 1679.65,489.192 1683.03,495.106 1686.35,500.952 1689.66,506.783 1692.95,512.62 1696.19,518.369 1699.42,524.137 1702.62,529.859 1705.79,535.543 1708.96,541.244 1712.06,546.85 1715.16,552.464 1718.24,558.053 1721.28,563.577 1724.32,569.116 1727.31,574.58 1730.28,580.025 1733.24,585.467 1736.15,590.82 1739.06,596.184 1741.94,601.498 1744.79,606.767 1747.64,612.045 1750.43,617.226 1753.21,622.404 1755.98,627.555 1758.71,632.632 1761.43,637.716 1764.11,642.726 1766.77,647.708 1769.43,652.684 1772.03,657.559 1774.63,662.439 1777.2,667.264 1779.74,672.032 1782.28,676.804 1784.76,681.474 1787.24,686.133 1789.69,690.759 1792.1,695.298 1794.51,699.84 1796.87,704.294 1799.21,708.709 1801.55,713.113 1803.82,717.4 1806.09,721.688 1808.32,725.905 1810.52,730.054 1812.71,734.204 1814.9,738.334 1817.09,742.462 1819.31,746.666 1821.61,750.992 1823.9,755.319 1826.27,759.791 1828.65,764.279 1831.05,768.815 1833.49,773.414 1835.93,778.011 1838.41,782.694 1840.9,787.377 1843.41,792.09 1845.93,796.832 1848.45,801.572 1851,806.361 1853.55,811.147 1856.11,815.952 1858.69,820.775 1861.26,825.593 1863.86,830.44 1866.45,835.282 1869.05,840.134 1871.66,844.997 1874.28,849.854 1876.9,854.73 1879.53,859.6 1882.16,864.472 1884.8,869.351 1887.44,874.222 1890.08,879.102 1892.73,883.98 1895.39,888.851 1898.05,893.729 1900.71,898.597 1903.38,903.464 1906.05,908.33 1908.72,913.184 1911.4,918.042 1914.08,922.891 1916.76,927.732 1919.44,932.571 1922.13,937.399 1924.82,942.22 1927.52,947.034 1930.21,951.836 1932.91,956.633 1935.61,961.419 1938.31,966.192 1941.02,970.96 1943.72,975.714 1946.43,980.455 1949.14,985.188 1951.86,989.904 1954.57,994.61 1957.29,999.303 1960,1003.98 1962.72,1008.65 1965.44,1013.3 1968.17,1017.93 1970.89,1022.55 1973.62,1027.16 1976.34,1031.74 1979.07,1036.32 1981.8,1040.87 1984.53,1045.41 1987.27,1049.93 1990,1054.43 1992.73,1058.92 1995.47,1063.39 1998.21,1067.83 2000.95,1072.26 2003.69,1076.67 2006.43,1081.06 2009.17,1085.43 2011.91,1089.78 2014.65,1094.1 2017.4,1098.41 2020.15,1102.7 2022.89,1106.96 2025.64,1111.2 2028.39,1115.42 2031.14,1119.61 2033.9,1123.79 2036.65,1127.93 2039.4,1132.06 2042.16,1136.16 2044.92,1140.24 2047.67,1144.29 2050.43,1148.32 2053.19,1152.32 2055.95,1156.3 2058.71,1160.25 2061.48,1164.18 2064.24,1168.08 2067.01,1171.95 2069.77,1175.8 2072.54,1179.62 2075.31,1183.41 2078.08,1187.18 2080.85,1190.92 2083.63,1194.63 2086.4,1198.31 2089.17,1201.96 2091.95,1205.59 2094.73,1209.18 2097.51,1212.75 2100.29,1216.29 2103.07,1219.8 2105.86,1223.27 2108.65,1226.72 2111.43,1230.14 2114.22,1233.52 2117.01,1236.88 2119.8,1240.21 2122.6,1243.5 2125.4,1246.76 2128.19,1249.99 2130.99,1253.19 2133.8,1256.36 2136.6,1259.49 2139.41,1262.59 2142.22,1265.66 2145.03,1268.69 2147.84,1271.69 2150.65,1274.66 2153.47,1277.6 2156.29,1280.5 2159.11,1283.37 2161.94,1286.2 2164.77,1288.99 2167.6,1291.76 2170.43,1294.48 2173.27,1297.18 2176.11,1299.83 2178.95,1302.46 2181.8,1305.04 2184.65,1307.59 2187.5,1310.1 2190.36,1312.58 2193.22,1315.02 2196.08,1317.42 2198.95,1319.78 2201.82,1322.11 2204.7,1324.4 2207.58,1326.65 2210.46,1328.86 2213.36,1331.04 2216.25,1333.18 2219.15,1335.28 2222.06,1337.34 2224.97,1339.36 2227.89,1341.34 2230.81,1343.27 2233.74,1345.18 2236.67,1347.04 2239.61,1348.85 2242.57,1350.64 2245.52,1352.37 2248.48,1354.06 2251.46,1355.72 2254.44,1357.33 2257.42,1358.9 2260.42,1360.43 2263.43,1361.91 2266.45,1363.35 2269.46,1364.75 2272.52,1366.1 2275.57,1367.41 2278.62,1368.67 2281.7,1369.89 2284.8,1371.07 2287.89,1372.19 2291,1373.27 2294.16,1374.3 2297.31,1375.29 2300.46,1376.22 2303.67,1377.11 2306.9,1377.95 2310.13,1378.73 2313.38,1379.46 2316.72,1380.15 2320.05,1380.78 2323.38,1381.35 2326.82,1381.87 2330.32,1382.34 2333.81,1382.73 2337.31,1383.06 2341.16,1383.35 2345.02,1383.55 2348.89,1383.68 2352.76,1383.72 "/>
<path clip-path="url(#clip910)" d="M1975.82 196.789 L2280.8 196.789 L2280.8 93.1086 L1975.82 93.1086  Z" fill="#ffffff" fill-rule="evenodd" fill-opacity="1"/>
<polyline clip-path="url(#clip910)" style="stroke:#000000; stroke-linecap:round; stroke-linejoin:round; stroke-width:4; stroke-opacity:1; fill:none" points="1975.82,196.789 2280.8,196.789 2280.8,93.1086 1975.82,93.1086 1975.82,196.789 "/>
<polyline clip-path="url(#clip910)" style="stroke:#009af9; stroke-linecap:round; stroke-linejoin:round; stroke-width:4; stroke-opacity:1; fill:none" points="1999.8,144.949 2143.72,144.949 "/>
<path clip-path="url(#clip910)" d="M2167.71 151.997 L2167.71 136.303 L2171.97 136.303 L2171.97 151.835 Q2171.97 155.516 2173.41 157.368 Q2174.84 159.196 2177.71 159.196 Q2181.16 159.196 2183.15 156.997 Q2185.17 154.798 2185.17 151.002 L2185.17 136.303 L2189.42 136.303 L2189.42 162.229 L2185.17 162.229 L2185.17 158.247 Q2183.61 160.608 2181.55 161.766 Q2179.52 162.9 2176.81 162.9 Q2172.34 162.9 2170.03 160.122 Q2167.71 157.344 2167.71 151.997 M2178.43 135.678 L2178.43 135.678 Z" fill="#000000" fill-rule="nonzero" fill-opacity="1" /><path clip-path="url(#clip910)" d="M2197.8 126.21 L2207.62 126.21 L2207.62 129.52 L2202.06 129.52 L2202.06 165.168 L2207.62 165.168 L2207.62 168.479 L2197.8 168.479 L2197.8 126.21 Z" fill="#000000" fill-rule="nonzero" fill-opacity="1" /><path clip-path="url(#clip910)" d="M2218.1 158.293 L2225.74 158.293 L2225.74 131.928 L2217.43 133.595 L2217.43 129.335 L2225.7 127.669 L2230.37 127.669 L2230.37 158.293 L2238.01 158.293 L2238.01 162.229 L2218.1 162.229 L2218.1 158.293 Z" fill="#000000" fill-rule="nonzero" fill-opacity="1" /><path clip-path="url(#clip910)" d="M2256.81 126.21 L2256.81 168.479 L2246.99 168.479 L2246.99 165.168 L2252.53 165.168 L2252.53 129.52 L2246.99 129.52 L2246.99 126.21 L2256.81 126.21 Z" fill="#000000" fill-rule="nonzero" fill-opacity="1" /></svg>
