<?xml version="1.0" encoding="utf-8"?>
<svg xmlns="http://www.w3.org/2000/svg" xmlns:xlink="http://www.w3.org/1999/xlink" width="600" height="400" viewBox="0 0 2400 1600">
<defs>
  <clipPath id="clip200">
    <rect x="0" y="0" width="2400" height="1600"/>
  </clipPath>
</defs>
<path clip-path="url(#clip200)" d="M0 1600 L2400 1600 L2400 0 L0 0  Z" fill="#ffffff" fill-rule="evenodd" fill-opacity="1"/>
<defs>
  <clipPath id="clip201">
    <rect x="480" y="0" width="1681" height="1600"/>
  </clipPath>
</defs>
<path clip-path="url(#clip200)" d="M194.422 1423.18 L2352.76 1423.18 L2352.76 47.2441 L194.422 47.2441  Z" fill="#ffffff" fill-rule="evenodd" fill-opacity="1"/>
<defs>
  <clipPath id="clip202">
    <rect x="194" y="47" width="2159" height="1377"/>
  </clipPath>
</defs>
<polyline clip-path="url(#clip202)" style="stroke:#000000; stroke-linecap:round; stroke-linejoin:round; stroke-width:2; stroke-opacity:0.1; fill:none" points="194.422,1423.18 194.422,47.2441 "/>
<polyline clip-path="url(#clip202)" style="stroke:#000000; stroke-linecap:round; stroke-linejoin:round; stroke-width:2; stroke-opacity:0.1; fill:none" points="626.089,1423.18 626.089,47.2441 "/>
<polyline clip-path="url(#clip202)" style="stroke:#000000; stroke-linecap:round; stroke-linejoin:round; stroke-width:2; stroke-opacity:0.1; fill:none" points="1057.76,1423.18 1057.76,47.2441 "/>
<polyline clip-path="url(#clip202)" style="stroke:#000000; stroke-linecap:round; stroke-linejoin:round; stroke-width:2; stroke-opacity:0.1; fill:none" points="1489.42,1423.18 1489.42,47.2441 "/>
<polyline clip-path="url(#clip202)" style="stroke:#000000; stroke-linecap:round; stroke-linejoin:round; stroke-width:2; stroke-opacity:0.1; fill:none" points="1921.09,1423.18 1921.09,47.2441 "/>
<polyline clip-path="url(#clip202)" style="stroke:#000000; stroke-linecap:round; stroke-linejoin:round; stroke-width:2; stroke-opacity:0.1; fill:none" points="2352.76,1423.18 2352.76,47.2441 "/>
<polyline clip-path="url(#clip202)" style="stroke:#000000; stroke-linecap:round; stroke-linejoin:round; stroke-width:2; stroke-opacity:0.1; fill:none" points="194.422,1327.32 2352.76,1327.32 "/>
<polyline clip-path="url(#clip202)" style="stroke:#000000; stroke-linecap:round; stroke-linejoin:round; stroke-width:2; stroke-opacity:0.1; fill:none" points="194.422,1139.44 2352.76,1139.44 "/>
<polyline clip-path="url(#clip202)" style="stroke:#000000; stroke-linecap:round; stroke-linejoin:round; stroke-width:2; stroke-opacity:0.1; fill:none" points="194.422,951.554 2352.76,951.554 "/>
<polyline clip-path="url(#clip202)" style="stroke:#000000; stroke-linecap:round; stroke-linejoin:round; stroke-width:2; stroke-opacity:0.1; fill:none" points="194.422,763.67 2352.76,763.67 "/>
<polyline clip-path="url(#clip202)" style="stroke:#000000; stroke-linecap:round; stroke-linejoin:round; stroke-width:2; stroke-opacity:0.1; fill:none" points="194.422,575.786 2352.76,575.786 "/>
<polyline clip-path="url(#clip202)" style="stroke:#000000; stroke-linecap:round; stroke-linejoin:round; stroke-width:2; stroke-opacity:0.1; fill:none" points="194.422,387.902 2352.76,387.902 "/>
<polyline clip-path="url(#clip202)" style="stroke:#000000; stroke-linecap:round; stroke-linejoin:round; stroke-width:2; stroke-opacity:0.1; fill:none" points="194.422,200.017 2352.76,200.017 "/>
<polyline clip-path="url(#clip200)" style="stroke:#000000; stroke-linecap:round; stroke-linejoin:round; stroke-width:4; stroke-opacity:1; fill:none" points="194.422,1423.18 2352.76,1423.18 "/>
<polyline clip-path="url(#clip200)" style="stroke:#000000; stroke-linecap:round; stroke-linejoin:round; stroke-width:4; stroke-opacity:1; fill:none" points="194.422,1423.18 194.422,1404.28 "/>
<polyline clip-path="url(#clip200)" style="stroke:#000000; stroke-linecap:round; stroke-linejoin:round; stroke-width:4; stroke-opacity:1; fill:none" points="626.089,1423.18 626.089,1404.28 "/>
<polyline clip-path="url(#clip200)" style="stroke:#000000; stroke-linecap:round; stroke-linejoin:round; stroke-width:4; stroke-opacity:1; fill:none" points="1057.76,1423.18 1057.76,1404.28 "/>
<polyline clip-path="url(#clip200)" style="stroke:#000000; stroke-linecap:round; stroke-linejoin:round; stroke-width:4; stroke-opacity:1; fill:none" points="1489.42,1423.18 1489.42,1404.28 "/>
<polyline clip-path="url(#clip200)" style="stroke:#000000; stroke-linecap:round; stroke-linejoin:round; stroke-width:4; stroke-opacity:1; fill:none" points="1921.09,1423.18 1921.09,1404.28 "/>
<polyline clip-path="url(#clip200)" style="stroke:#000000; stroke-linecap:round; stroke-linejoin:round; stroke-width:4; stroke-opacity:1; fill:none" points="2352.76,1423.18 2352.76,1404.28 "/>
<path clip-path="url(#clip200)" d="M171.806 1454.1 Q168.195 1454.1 166.367 1457.66 Q164.561 1461.2 164.561 1468.33 Q164.561 1475.44 166.367 1479.01 Q168.195 1482.55 171.806 1482.55 Q175.441 1482.55 177.246 1479.01 Q179.075 1475.44 179.075 1468.33 Q179.075 1461.2 177.246 1457.66 Q175.441 1454.1 171.806 1454.1 M171.806 1450.39 Q177.617 1450.39 180.672 1455 Q183.751 1459.58 183.751 1468.33 Q183.751 1477.06 180.672 1481.67 Q177.617 1486.25 171.806 1486.25 Q165.996 1486.25 162.918 1481.67 Q159.862 1477.06 159.862 1468.33 Q159.862 1459.58 162.918 1455 Q165.996 1450.39 171.806 1450.39 Z" fill="#000000" fill-rule="nonzero" fill-opacity="1" /><path clip-path="url(#clip200)" d="M191.968 1479.7 L196.853 1479.7 L196.853 1485.58 L191.968 1485.58 L191.968 1479.7 Z" fill="#000000" fill-rule="nonzero" fill-opacity="1" /><path clip-path="url(#clip200)" d="M217.038 1454.1 Q213.427 1454.1 211.598 1457.66 Q209.792 1461.2 209.792 1468.33 Q209.792 1475.44 211.598 1479.01 Q213.427 1482.55 217.038 1482.55 Q220.672 1482.55 222.478 1479.01 Q224.306 1475.44 224.306 1468.33 Q224.306 1461.2 222.478 1457.66 Q220.672 1454.1 217.038 1454.1 M217.038 1450.39 Q222.848 1450.39 225.903 1455 Q228.982 1459.58 228.982 1468.33 Q228.982 1477.06 225.903 1481.67 Q222.848 1486.25 217.038 1486.25 Q211.228 1486.25 208.149 1481.67 Q205.093 1477.06 205.093 1468.33 Q205.093 1459.58 208.149 1455 Q211.228 1450.39 217.038 1450.39 Z" fill="#000000" fill-rule="nonzero" fill-opacity="1" /><path clip-path="url(#clip200)" d="M604.272 1454.1 Q600.661 1454.1 598.832 1457.66 Q597.027 1461.2 597.027 1468.33 Q597.027 1475.44 598.832 1479.01 Q600.661 1482.55 604.272 1482.55 Q607.906 1482.55 609.712 1479.01 Q611.54 1475.44 611.54 1468.33 Q611.54 1461.2 609.712 1457.66 Q607.906 1454.1 604.272 1454.1 M604.272 1450.39 Q610.082 1450.39 613.138 1455 Q616.216 1459.58 616.216 1468.33 Q616.216 1477.06 613.138 1481.67 Q610.082 1486.25 604.272 1486.25 Q598.462 1486.25 595.383 1481.67 Q592.327 1477.06 592.327 1468.33 Q592.327 1459.58 595.383 1455 Q598.462 1450.39 604.272 1450.39 Z" fill="#000000" fill-rule="nonzero" fill-opacity="1" /><path clip-path="url(#clip200)" d="M624.434 1479.7 L629.318 1479.7 L629.318 1485.58 L624.434 1485.58 L624.434 1479.7 Z" fill="#000000" fill-rule="nonzero" fill-opacity="1" /><path clip-path="url(#clip200)" d="M643.531 1481.64 L659.85 1481.64 L659.85 1485.58 L637.906 1485.58 L637.906 1481.64 Q640.568 1478.89 645.151 1474.26 Q649.758 1469.61 650.938 1468.27 Q653.184 1465.74 654.063 1464.01 Q654.966 1462.25 654.966 1460.56 Q654.966 1457.8 653.022 1456.07 Q651.1 1454.33 647.998 1454.33 Q645.799 1454.33 643.346 1455.09 Q640.915 1455.86 638.137 1457.41 L638.137 1452.69 Q640.961 1451.55 643.415 1450.97 Q645.869 1450.39 647.906 1450.39 Q653.276 1450.39 656.471 1453.08 Q659.665 1455.77 659.665 1460.26 Q659.665 1462.39 658.855 1464.31 Q658.068 1466.2 655.961 1468.8 Q655.383 1469.47 652.281 1472.69 Q649.179 1475.88 643.531 1481.64 Z" fill="#000000" fill-rule="nonzero" fill-opacity="1" /><path clip-path="url(#clip200)" d="M1034.9 1454.1 Q1031.29 1454.1 1029.46 1457.66 Q1027.65 1461.2 1027.65 1468.33 Q1027.65 1475.44 1029.46 1479.01 Q1031.29 1482.55 1034.9 1482.55 Q1038.53 1482.55 1040.34 1479.01 Q1042.17 1475.44 1042.17 1468.33 Q1042.17 1461.2 1040.34 1457.66 Q1038.53 1454.1 1034.9 1454.1 M1034.9 1450.39 Q1040.71 1450.39 1043.76 1455 Q1046.84 1459.58 1046.84 1468.33 Q1046.84 1477.06 1043.76 1481.67 Q1040.71 1486.25 1034.9 1486.25 Q1029.09 1486.25 1026.01 1481.67 Q1022.95 1477.06 1022.95 1468.33 Q1022.95 1459.58 1026.01 1455 Q1029.09 1450.39 1034.9 1450.39 Z" fill="#000000" fill-rule="nonzero" fill-opacity="1" /><path clip-path="url(#clip200)" d="M1055.06 1479.7 L1059.94 1479.7 L1059.94 1485.58 L1055.06 1485.58 L1055.06 1479.7 Z" fill="#000000" fill-rule="nonzero" fill-opacity="1" /><path clip-path="url(#clip200)" d="M1082.98 1455.09 L1071.17 1473.54 L1082.98 1473.54 L1082.98 1455.09 M1081.75 1451.02 L1087.63 1451.02 L1087.63 1473.54 L1092.56 1473.54 L1092.56 1477.43 L1087.63 1477.43 L1087.63 1485.58 L1082.98 1485.58 L1082.98 1477.43 L1067.37 1477.43 L1067.37 1472.92 L1081.75 1451.02 Z" fill="#000000" fill-rule="nonzero" fill-opacity="1" /><path clip-path="url(#clip200)" d="M1466.73 1454.1 Q1463.11 1454.1 1461.29 1457.66 Q1459.48 1461.2 1459.48 1468.33 Q1459.48 1475.44 1461.29 1479.01 Q1463.11 1482.55 1466.73 1482.55 Q1470.36 1482.55 1472.17 1479.01 Q1473.99 1475.44 1473.99 1468.33 Q1473.99 1461.2 1472.17 1457.66 Q1470.36 1454.1 1466.73 1454.1 M1466.73 1450.39 Q1472.54 1450.39 1475.59 1455 Q1478.67 1459.58 1478.67 1468.33 Q1478.67 1477.06 1475.59 1481.67 Q1472.54 1486.25 1466.73 1486.25 Q1460.92 1486.25 1457.84 1481.67 Q1454.78 1477.06 1454.78 1468.33 Q1454.78 1459.58 1457.84 1455 Q1460.92 1450.39 1466.73 1450.39 Z" fill="#000000" fill-rule="nonzero" fill-opacity="1" /><path clip-path="url(#clip200)" d="M1486.89 1479.7 L1491.77 1479.7 L1491.77 1485.58 L1486.89 1485.58 L1486.89 1479.7 Z" fill="#000000" fill-rule="nonzero" fill-opacity="1" /><path clip-path="url(#clip200)" d="M1512.54 1466.44 Q1509.39 1466.44 1507.54 1468.59 Q1505.71 1470.74 1505.71 1474.49 Q1505.71 1478.22 1507.54 1480.39 Q1509.39 1482.55 1512.54 1482.55 Q1515.68 1482.55 1517.51 1480.39 Q1519.36 1478.22 1519.36 1474.49 Q1519.36 1470.74 1517.51 1468.59 Q1515.68 1466.44 1512.54 1466.44 M1521.82 1451.78 L1521.82 1456.04 Q1520.06 1455.21 1518.25 1454.77 Q1516.47 1454.33 1514.71 1454.33 Q1510.08 1454.33 1507.63 1457.45 Q1505.2 1460.58 1504.85 1466.9 Q1506.22 1464.89 1508.28 1463.82 Q1510.34 1462.73 1512.81 1462.73 Q1518.02 1462.73 1521.03 1465.9 Q1524.06 1469.05 1524.06 1474.49 Q1524.06 1479.82 1520.92 1483.03 Q1517.77 1486.25 1512.54 1486.25 Q1506.54 1486.25 1503.37 1481.67 Q1500.2 1477.06 1500.2 1468.33 Q1500.2 1460.14 1504.09 1455.28 Q1507.98 1450.39 1514.53 1450.39 Q1516.29 1450.39 1518.07 1450.74 Q1519.87 1451.09 1521.82 1451.78 Z" fill="#000000" fill-rule="nonzero" fill-opacity="1" /><path clip-path="url(#clip200)" d="M1898.52 1454.1 Q1894.91 1454.1 1893.08 1457.66 Q1891.27 1461.2 1891.27 1468.33 Q1891.27 1475.44 1893.08 1479.01 Q1894.91 1482.55 1898.52 1482.55 Q1902.15 1482.55 1903.96 1479.01 Q1905.79 1475.44 1905.79 1468.33 Q1905.79 1461.2 1903.96 1457.66 Q1902.15 1454.1 1898.52 1454.1 M1898.52 1450.39 Q1904.33 1450.39 1907.39 1455 Q1910.46 1459.58 1910.46 1468.33 Q1910.46 1477.06 1907.39 1481.67 Q1904.33 1486.25 1898.52 1486.25 Q1892.71 1486.25 1889.63 1481.67 Q1886.58 1477.06 1886.58 1468.33 Q1886.58 1459.58 1889.63 1455 Q1892.71 1450.39 1898.52 1450.39 Z" fill="#000000" fill-rule="nonzero" fill-opacity="1" /><path clip-path="url(#clip200)" d="M1918.68 1479.7 L1923.57 1479.7 L1923.57 1485.58 L1918.68 1485.58 L1918.68 1479.7 Z" fill="#000000" fill-rule="nonzero" fill-opacity="1" /><path clip-path="url(#clip200)" d="M1943.75 1469.17 Q1940.42 1469.17 1938.5 1470.95 Q1936.6 1472.73 1936.6 1475.86 Q1936.6 1478.98 1938.5 1480.77 Q1940.42 1482.55 1943.75 1482.55 Q1947.08 1482.55 1949.01 1480.77 Q1950.93 1478.96 1950.93 1475.86 Q1950.93 1472.73 1949.01 1470.95 Q1947.11 1469.17 1943.75 1469.17 M1939.08 1467.18 Q1936.07 1466.44 1934.38 1464.38 Q1932.71 1462.32 1932.71 1459.35 Q1932.71 1455.21 1935.65 1452.8 Q1938.61 1450.39 1943.75 1450.39 Q1948.91 1450.39 1951.85 1452.8 Q1954.79 1455.21 1954.79 1459.35 Q1954.79 1462.32 1953.1 1464.38 Q1951.44 1466.44 1948.45 1467.18 Q1951.83 1467.96 1953.7 1470.26 Q1955.6 1472.55 1955.6 1475.86 Q1955.6 1480.88 1952.52 1483.57 Q1949.47 1486.25 1943.75 1486.25 Q1938.03 1486.25 1934.95 1483.57 Q1931.9 1480.88 1931.9 1475.86 Q1931.9 1472.55 1933.8 1470.26 Q1935.7 1467.96 1939.08 1467.18 M1937.36 1459.79 Q1937.36 1462.48 1939.03 1463.98 Q1940.72 1465.49 1943.75 1465.49 Q1946.76 1465.49 1948.45 1463.98 Q1950.16 1462.48 1950.16 1459.79 Q1950.16 1457.11 1948.45 1455.6 Q1946.76 1454.1 1943.75 1454.1 Q1940.72 1454.1 1939.03 1455.6 Q1937.36 1457.11 1937.36 1459.79 Z" fill="#000000" fill-rule="nonzero" fill-opacity="1" /><path clip-path="url(#clip200)" d="M2319.91 1481.64 L2327.55 1481.64 L2327.55 1455.28 L2319.24 1456.95 L2319.24 1452.69 L2327.5 1451.02 L2332.18 1451.02 L2332.18 1481.64 L2339.82 1481.64 L2339.82 1485.58 L2319.91 1485.58 L2319.91 1481.64 Z" fill="#000000" fill-rule="nonzero" fill-opacity="1" /><path clip-path="url(#clip200)" d="M2349.26 1479.7 L2354.14 1479.7 L2354.14 1485.58 L2349.26 1485.58 L2349.26 1479.7 Z" fill="#000000" fill-rule="nonzero" fill-opacity="1" /><path clip-path="url(#clip200)" d="M2374.33 1454.1 Q2370.72 1454.1 2368.89 1457.66 Q2367.08 1461.2 2367.08 1468.33 Q2367.08 1475.44 2368.89 1479.01 Q2370.72 1482.55 2374.33 1482.55 Q2377.96 1482.55 2379.77 1479.01 Q2381.6 1475.44 2381.6 1468.33 Q2381.6 1461.2 2379.77 1457.66 Q2377.96 1454.1 2374.33 1454.1 M2374.33 1450.39 Q2380.14 1450.39 2383.2 1455 Q2386.27 1459.58 2386.27 1468.33 Q2386.27 1477.06 2383.2 1481.67 Q2380.14 1486.25 2374.33 1486.25 Q2368.52 1486.25 2365.44 1481.67 Q2362.39 1477.06 2362.39 1468.33 Q2362.39 1459.58 2365.44 1455 Q2368.52 1450.39 2374.33 1450.39 Z" fill="#000000" fill-rule="nonzero" fill-opacity="1" /><path clip-path="url(#clip200)" d="M1272.65 1522.27 L1272.65 1532.4 L1284.71 1532.4 L1284.71 1536.95 L1272.65 1536.95 L1272.65 1556.3 Q1272.65 1560.66 1273.83 1561.9 Q1275.04 1563.14 1278.7 1563.14 L1284.71 1563.14 L1284.71 1568.04 L1278.7 1568.04 Q1271.92 1568.04 1269.34 1565.53 Q1266.76 1562.98 1266.76 1556.3 L1266.76 1536.95 L1262.46 1536.95 L1262.46 1532.4 L1266.76 1532.4 L1266.76 1522.27 L1272.65 1522.27 Z" fill="#000000" fill-rule="nonzero" fill-opacity="1" /><polyline clip-path="url(#clip200)" style="stroke:#000000; stroke-linecap:round; stroke-linejoin:round; stroke-width:4; stroke-opacity:1; fill:none" points="194.422,1423.18 194.422,47.2441 "/>
<polyline clip-path="url(#clip200)" style="stroke:#000000; stroke-linecap:round; stroke-linejoin:round; stroke-width:4; stroke-opacity:1; fill:none" points="194.422,1327.32 213.32,1327.32 "/>
<polyline clip-path="url(#clip200)" style="stroke:#000000; stroke-linecap:round; stroke-linejoin:round; stroke-width:4; stroke-opacity:1; fill:none" points="194.422,1139.44 213.32,1139.44 "/>
<polyline clip-path="url(#clip200)" style="stroke:#000000; stroke-linecap:round; stroke-linejoin:round; stroke-width:4; stroke-opacity:1; fill:none" points="194.422,951.554 213.32,951.554 "/>
<polyline clip-path="url(#clip200)" style="stroke:#000000; stroke-linecap:round; stroke-linejoin:round; stroke-width:4; stroke-opacity:1; fill:none" points="194.422,763.67 213.32,763.67 "/>
<polyline clip-path="url(#clip200)" style="stroke:#000000; stroke-linecap:round; stroke-linejoin:round; stroke-width:4; stroke-opacity:1; fill:none" points="194.422,575.786 213.32,575.786 "/>
<polyline clip-path="url(#clip200)" style="stroke:#000000; stroke-linecap:round; stroke-linejoin:round; stroke-width:4; stroke-opacity:1; fill:none" points="194.422,387.902 213.32,387.902 "/>
<polyline clip-path="url(#clip200)" style="stroke:#000000; stroke-linecap:round; stroke-linejoin:round; stroke-width:4; stroke-opacity:1; fill:none" points="194.422,200.017 213.32,200.017 "/>
<path clip-path="url(#clip200)" d="M50.9921 1327.77 L80.6679 1327.77 L80.6679 1331.71 L50.9921 1331.71 L50.9921 1327.77 Z" fill="#000000" fill-rule="nonzero" fill-opacity="1" /><path clip-path="url(#clip200)" d="M100.76 1313.12 Q97.1493 1313.12 95.3206 1316.69 Q93.515 1320.23 93.515 1327.36 Q93.515 1334.46 95.3206 1338.03 Q97.1493 1341.57 100.76 1341.57 Q104.395 1341.57 106.2 1338.03 Q108.029 1334.46 108.029 1327.36 Q108.029 1320.23 106.2 1316.69 Q104.395 1313.12 100.76 1313.12 M100.76 1309.42 Q106.571 1309.42 109.626 1314.02 Q112.705 1318.61 112.705 1327.36 Q112.705 1336.08 109.626 1340.69 Q106.571 1345.27 100.76 1345.27 Q94.9502 1345.27 91.8715 1340.69 Q88.816 1336.08 88.816 1327.36 Q88.816 1318.61 91.8715 1314.02 Q94.9502 1309.42 100.76 1309.42 Z" fill="#000000" fill-rule="nonzero" fill-opacity="1" /><path clip-path="url(#clip200)" d="M120.922 1338.72 L125.807 1338.72 L125.807 1344.6 L120.922 1344.6 L120.922 1338.72 Z" fill="#000000" fill-rule="nonzero" fill-opacity="1" /><path clip-path="url(#clip200)" d="M148.839 1314.12 L137.033 1332.57 L148.839 1332.57 L148.839 1314.12 M147.612 1310.04 L153.492 1310.04 L153.492 1332.57 L158.422 1332.57 L158.422 1336.45 L153.492 1336.45 L153.492 1344.6 L148.839 1344.6 L148.839 1336.45 L133.237 1336.45 L133.237 1331.94 L147.612 1310.04 Z" fill="#000000" fill-rule="nonzero" fill-opacity="1" /><path clip-path="url(#clip200)" d="M53.0754 1139.89 L82.7512 1139.89 L82.7512 1143.82 L53.0754 1143.82 L53.0754 1139.89 Z" fill="#000000" fill-rule="nonzero" fill-opacity="1" /><path clip-path="url(#clip200)" d="M102.844 1125.24 Q99.2326 1125.24 97.4039 1128.8 Q95.5984 1132.34 95.5984 1139.47 Q95.5984 1146.58 97.4039 1150.14 Q99.2326 1153.69 102.844 1153.69 Q106.478 1153.69 108.283 1150.14 Q110.112 1146.58 110.112 1139.47 Q110.112 1132.34 108.283 1128.8 Q106.478 1125.24 102.844 1125.24 M102.844 1121.53 Q108.654 1121.53 111.709 1126.14 Q114.788 1130.72 114.788 1139.47 Q114.788 1148.2 111.709 1152.81 Q108.654 1157.39 102.844 1157.39 Q97.0335 1157.39 93.9549 1152.81 Q90.8993 1148.2 90.8993 1139.47 Q90.8993 1130.72 93.9549 1126.14 Q97.0335 1121.53 102.844 1121.53 Z" fill="#000000" fill-rule="nonzero" fill-opacity="1" /><path clip-path="url(#clip200)" d="M123.006 1150.84 L127.89 1150.84 L127.89 1156.72 L123.006 1156.72 L123.006 1150.84 Z" fill="#000000" fill-rule="nonzero" fill-opacity="1" /><path clip-path="url(#clip200)" d="M142.103 1152.78 L158.422 1152.78 L158.422 1156.72 L136.478 1156.72 L136.478 1152.78 Q139.14 1150.03 143.723 1145.4 Q148.33 1140.75 149.51 1139.4 Q151.755 1136.88 152.635 1135.14 Q153.538 1133.39 153.538 1131.7 Q153.538 1128.94 151.593 1127.2 Q149.672 1125.47 146.57 1125.47 Q144.371 1125.47 141.918 1126.23 Q139.487 1127 136.709 1128.55 L136.709 1123.82 Q139.533 1122.69 141.987 1122.11 Q144.441 1121.53 146.478 1121.53 Q151.848 1121.53 155.042 1124.22 Q158.237 1126.9 158.237 1131.39 Q158.237 1133.52 157.427 1135.45 Q156.64 1137.34 154.533 1139.94 Q153.955 1140.61 150.853 1143.82 Q147.751 1147.02 142.103 1152.78 Z" fill="#000000" fill-rule="nonzero" fill-opacity="1" /><path clip-path="url(#clip200)" d="M101.246 937.353 Q97.6354 937.353 95.8067 940.918 Q94.0012 944.459 94.0012 951.589 Q94.0012 958.695 95.8067 962.26 Q97.6354 965.802 101.246 965.802 Q104.881 965.802 106.686 962.26 Q108.515 958.695 108.515 951.589 Q108.515 944.459 106.686 940.918 Q104.881 937.353 101.246 937.353 M101.246 933.649 Q107.057 933.649 110.112 938.256 Q113.191 942.839 113.191 951.589 Q113.191 960.316 110.112 964.922 Q107.057 969.505 101.246 969.505 Q95.4363 969.505 92.3576 964.922 Q89.3021 960.316 89.3021 951.589 Q89.3021 942.839 92.3576 938.256 Q95.4363 933.649 101.246 933.649 Z" fill="#000000" fill-rule="nonzero" fill-opacity="1" /><path clip-path="url(#clip200)" d="M121.408 962.954 L126.293 962.954 L126.293 968.834 L121.408 968.834 L121.408 962.954 Z" fill="#000000" fill-rule="nonzero" fill-opacity="1" /><path clip-path="url(#clip200)" d="M146.478 937.353 Q142.867 937.353 141.038 940.918 Q139.232 944.459 139.232 951.589 Q139.232 958.695 141.038 962.26 Q142.867 965.802 146.478 965.802 Q150.112 965.802 151.918 962.26 Q153.746 958.695 153.746 951.589 Q153.746 944.459 151.918 940.918 Q150.112 937.353 146.478 937.353 M146.478 933.649 Q152.288 933.649 155.343 938.256 Q158.422 942.839 158.422 951.589 Q158.422 960.316 155.343 964.922 Q152.288 969.505 146.478 969.505 Q140.668 969.505 137.589 964.922 Q134.533 960.316 134.533 951.589 Q134.533 942.839 137.589 938.256 Q140.668 933.649 146.478 933.649 Z" fill="#000000" fill-rule="nonzero" fill-opacity="1" /><path clip-path="url(#clip200)" d="M102.844 749.469 Q99.2326 749.469 97.4039 753.033 Q95.5984 756.575 95.5984 763.705 Q95.5984 770.811 97.4039 774.376 Q99.2326 777.917 102.844 777.917 Q106.478 777.917 108.283 774.376 Q110.112 770.811 110.112 763.705 Q110.112 756.575 108.283 753.033 Q106.478 749.469 102.844 749.469 M102.844 745.765 Q108.654 745.765 111.709 750.371 Q114.788 754.955 114.788 763.705 Q114.788 772.431 111.709 777.038 Q108.654 781.621 102.844 781.621 Q97.0335 781.621 93.9549 777.038 Q90.8993 772.431 90.8993 763.705 Q90.8993 754.955 93.9549 750.371 Q97.0335 745.765 102.844 745.765 Z" fill="#000000" fill-rule="nonzero" fill-opacity="1" /><path clip-path="url(#clip200)" d="M123.006 775.07 L127.89 775.07 L127.89 780.95 L123.006 780.95 L123.006 775.07 Z" fill="#000000" fill-rule="nonzero" fill-opacity="1" /><path clip-path="url(#clip200)" d="M142.103 777.015 L158.422 777.015 L158.422 780.95 L136.478 780.95 L136.478 777.015 Q139.14 774.26 143.723 769.631 Q148.33 764.978 149.51 763.635 Q151.755 761.112 152.635 759.376 Q153.538 757.617 153.538 755.927 Q153.538 753.172 151.593 751.436 Q149.672 749.7 146.57 749.7 Q144.371 749.7 141.918 750.464 Q139.487 751.228 136.709 752.779 L136.709 748.057 Q139.533 746.922 141.987 746.344 Q144.441 745.765 146.478 745.765 Q151.848 745.765 155.042 748.45 Q158.237 751.135 158.237 755.626 Q158.237 757.756 157.427 759.677 Q156.64 761.575 154.533 764.168 Q153.955 764.839 150.853 768.056 Q147.751 771.251 142.103 777.015 Z" fill="#000000" fill-rule="nonzero" fill-opacity="1" /><path clip-path="url(#clip200)" d="M100.76 561.584 Q97.1493 561.584 95.3206 565.149 Q93.515 568.691 93.515 575.82 Q93.515 582.927 95.3206 586.492 Q97.1493 590.033 100.76 590.033 Q104.395 590.033 106.2 586.492 Q108.029 582.927 108.029 575.82 Q108.029 568.691 106.2 565.149 Q104.395 561.584 100.76 561.584 M100.76 557.881 Q106.571 557.881 109.626 562.487 Q112.705 567.07 112.705 575.82 Q112.705 584.547 109.626 589.154 Q106.571 593.737 100.76 593.737 Q94.9502 593.737 91.8715 589.154 Q88.816 584.547 88.816 575.82 Q88.816 567.07 91.8715 562.487 Q94.9502 557.881 100.76 557.881 Z" fill="#000000" fill-rule="nonzero" fill-opacity="1" /><path clip-path="url(#clip200)" d="M120.922 587.186 L125.807 587.186 L125.807 593.066 L120.922 593.066 L120.922 587.186 Z" fill="#000000" fill-rule="nonzero" fill-opacity="1" /><path clip-path="url(#clip200)" d="M148.839 562.58 L137.033 581.029 L148.839 581.029 L148.839 562.58 M147.612 558.506 L153.492 558.506 L153.492 581.029 L158.422 581.029 L158.422 584.918 L153.492 584.918 L153.492 593.066 L148.839 593.066 L148.839 584.918 L133.237 584.918 L133.237 580.404 L147.612 558.506 Z" fill="#000000" fill-rule="nonzero" fill-opacity="1" /><path clip-path="url(#clip200)" d="M101.084 373.7 Q97.4734 373.7 95.6447 377.265 Q93.8391 380.807 93.8391 387.936 Q93.8391 395.043 95.6447 398.607 Q97.4734 402.149 101.084 402.149 Q104.719 402.149 106.524 398.607 Q108.353 395.043 108.353 387.936 Q108.353 380.807 106.524 377.265 Q104.719 373.7 101.084 373.7 M101.084 369.997 Q106.895 369.997 109.95 374.603 Q113.029 379.186 113.029 387.936 Q113.029 396.663 109.95 401.27 Q106.895 405.853 101.084 405.853 Q95.2743 405.853 92.1956 401.27 Q89.1401 396.663 89.1401 387.936 Q89.1401 379.186 92.1956 374.603 Q95.2743 369.997 101.084 369.997 Z" fill="#000000" fill-rule="nonzero" fill-opacity="1" /><path clip-path="url(#clip200)" d="M121.246 399.302 L126.131 399.302 L126.131 405.182 L121.246 405.182 L121.246 399.302 Z" fill="#000000" fill-rule="nonzero" fill-opacity="1" /><path clip-path="url(#clip200)" d="M146.894 386.038 Q143.746 386.038 141.894 388.191 Q140.066 390.344 140.066 394.094 Q140.066 397.82 141.894 399.996 Q143.746 402.149 146.894 402.149 Q150.043 402.149 151.871 399.996 Q153.723 397.82 153.723 394.094 Q153.723 390.344 151.871 388.191 Q150.043 386.038 146.894 386.038 M156.177 371.385 L156.177 375.645 Q154.417 374.811 152.612 374.372 Q150.83 373.932 149.07 373.932 Q144.441 373.932 141.987 377.057 Q139.556 380.182 139.209 386.501 Q140.575 384.487 142.635 383.422 Q144.695 382.334 147.172 382.334 Q152.38 382.334 155.39 385.506 Q158.422 388.654 158.422 394.094 Q158.422 399.418 155.274 402.635 Q152.126 405.853 146.894 405.853 Q140.899 405.853 137.728 401.27 Q134.556 396.663 134.556 387.936 Q134.556 379.742 138.445 374.881 Q142.334 369.997 148.885 369.997 Q150.644 369.997 152.427 370.344 Q154.232 370.691 156.177 371.385 Z" fill="#000000" fill-rule="nonzero" fill-opacity="1" /><path clip-path="url(#clip200)" d="M101.339 185.816 Q97.728 185.816 95.8993 189.381 Q94.0937 192.922 94.0937 200.052 Q94.0937 207.159 95.8993 210.723 Q97.728 214.265 101.339 214.265 Q104.973 214.265 106.779 210.723 Q108.608 207.159 108.608 200.052 Q108.608 192.922 106.779 189.381 Q104.973 185.816 101.339 185.816 M101.339 182.112 Q107.149 182.112 110.205 186.719 Q113.283 191.302 113.283 200.052 Q113.283 208.779 110.205 213.385 Q107.149 217.969 101.339 217.969 Q95.5289 217.969 92.4502 213.385 Q89.3947 208.779 89.3947 200.052 Q89.3947 191.302 92.4502 186.719 Q95.5289 182.112 101.339 182.112 Z" fill="#000000" fill-rule="nonzero" fill-opacity="1" /><path clip-path="url(#clip200)" d="M121.501 211.418 L126.385 211.418 L126.385 217.297 L121.501 217.297 L121.501 211.418 Z" fill="#000000" fill-rule="nonzero" fill-opacity="1" /><path clip-path="url(#clip200)" d="M146.57 200.885 Q143.237 200.885 141.316 202.668 Q139.418 204.45 139.418 207.575 Q139.418 210.7 141.316 212.483 Q143.237 214.265 146.57 214.265 Q149.904 214.265 151.825 212.483 Q153.746 210.677 153.746 207.575 Q153.746 204.45 151.825 202.668 Q149.927 200.885 146.57 200.885 M141.894 198.895 Q138.885 198.154 137.195 196.094 Q135.529 194.034 135.529 191.071 Q135.529 186.927 138.469 184.52 Q141.431 182.112 146.57 182.112 Q151.732 182.112 154.672 184.52 Q157.612 186.927 157.612 191.071 Q157.612 194.034 155.922 196.094 Q154.255 198.154 151.269 198.895 Q154.649 199.682 156.524 201.973 Q158.422 204.265 158.422 207.575 Q158.422 212.598 155.343 215.283 Q152.288 217.969 146.57 217.969 Q140.853 217.969 137.774 215.283 Q134.719 212.598 134.719 207.575 Q134.719 204.265 136.617 201.973 Q138.515 199.682 141.894 198.895 M140.181 191.51 Q140.181 194.196 141.848 195.7 Q143.538 197.205 146.57 197.205 Q149.58 197.205 151.269 195.7 Q152.982 194.196 152.982 191.51 Q152.982 188.825 151.269 187.321 Q149.58 185.816 146.57 185.816 Q143.538 185.816 141.848 187.321 Q140.181 188.825 140.181 191.51 Z" fill="#000000" fill-rule="nonzero" fill-opacity="1" /><polyline clip-path="url(#clip202)" style="stroke:#009af9; stroke-linecap:round; stroke-linejoin:round; stroke-width:4; stroke-opacity:1; fill:none" points="194.422,951.554 216.005,950.854 237.589,950.197 259.172,949.581 280.755,949.006 302.339,948.471 323.922,947.975 345.505,947.517 367.089,947.096 388.672,946.711 410.255,946.362 431.839,946.047 453.422,945.766 475.005,945.519 496.589,945.303 518.172,945.118 539.756,944.963 561.339,944.838 582.922,944.742 604.506,944.673 626.089,944.631 647.672,944.615 669.256,944.624 690.839,944.658 712.422,944.714 734.006,944.793 755.589,944.894 777.172,945.016 798.756,945.157 820.339,945.318 841.922,945.496 863.506,945.692 885.089,945.905 906.672,946.133 928.256,946.376 949.839,946.632 971.422,946.902 993.006,947.184 1014.59,947.476 1036.17,947.78 1057.76,948.093 1079.34,948.414 1100.92,948.743 1122.51,949.08 1144.09,949.422 1165.67,949.769 1187.26,950.121 1208.84,950.476 1230.42,950.834 1252.01,951.194 1273.59,951.554 1295.17,951.914 1316.76,952.274 1338.34,952.632 1359.92,952.987 1381.51,953.339 1403.09,953.686 1424.67,954.029 1446.26,954.365 1467.84,954.694 1489.42,955.016 1511.01,955.328 1532.59,955.632 1554.17,955.925 1575.76,956.206 1597.34,956.476 1618.92,956.732 1640.51,956.975 1662.09,957.203 1683.67,957.416 1705.26,957.612 1726.84,957.79 1748.42,957.951 1770.01,958.092 1791.59,958.214 1813.17,958.315 1834.76,958.394 1856.34,958.451 1877.92,958.484 1899.51,958.493 1921.09,958.477 1942.67,958.435 1964.26,958.366 1985.84,958.27 2007.42,958.145 2029.01,957.99 2050.59,957.805 2072.17,957.59 2093.76,957.342 2115.34,957.061 2136.92,956.746 2158.51,956.397 2180.09,956.012 2201.67,955.591 2223.26,955.133 2244.84,954.637 2266.42,954.102 2288.01,953.527 2309.59,952.911 2331.17,952.254 2352.76,951.554 "/>
<polyline clip-path="url(#clip202)" style="stroke:#e26f46; stroke-linecap:round; stroke-linejoin:round; stroke-width:4; stroke-opacity:1; fill:none" points="194.422,879.44 216.005,883.724 237.589,887.921 259.172,892.031 280.755,896.055 302.339,899.993 323.922,903.843 345.505,907.608 367.089,911.286 388.672,914.877 410.255,918.382 431.839,921.8 453.422,925.131 475.005,928.377 496.589,931.535 518.172,934.607 539.756,937.593 561.339,940.492 582.922,943.304 604.506,946.03 626.089,948.67 647.672,951.222 669.256,953.689 690.839,956.068 712.422,958.362 734.006,960.568 755.589,962.688 777.172,964.722 798.756,966.669 820.339,968.53 841.922,970.304 863.506,971.991 885.089,973.592 906.672,975.107 928.256,976.534 949.839,977.876 971.422,979.13 993.006,980.299 1014.59,981.38 1036.17,982.376 1057.76,983.284 1079.34,984.106 1100.92,984.842 1122.51,985.491 1144.09,986.053 1165.67,986.529 1187.26,986.919 1208.84,987.222 1230.42,987.438 1252.01,987.568 1273.59,987.611 1295.17,987.568 1316.76,987.438 1338.34,987.222 1359.92,986.919 1381.51,986.529 1403.09,986.053 1424.67,985.491 1446.26,984.842 1467.84,984.106 1489.42,983.284 1511.01,982.376 1532.59,981.38 1554.17,980.299 1575.76,979.13 1597.34,977.876 1618.92,976.534 1640.51,975.107 1662.09,973.592 1683.67,971.991 1705.26,970.304 1726.84,968.53 1748.42,966.669 1770.01,964.722 1791.59,962.688 1813.17,960.568 1834.76,958.362 1856.34,956.068 1877.92,953.689 1899.51,951.222 1921.09,948.67 1942.67,946.03 1964.26,943.304 1985.84,940.492 2007.42,937.593 2029.01,934.607 2050.59,931.535 2072.17,928.377 2093.76,925.131 2115.34,921.8 2136.92,918.382 2158.51,914.877 2180.09,911.286 2201.67,907.608 2223.26,903.843 2244.84,899.993 2266.42,896.055 2288.01,892.031 2309.59,887.921 2331.17,883.724 2352.76,879.44 "/>
<polyline clip-path="url(#clip202)" style="stroke:#3da44d; stroke-linecap:round; stroke-linejoin:round; stroke-width:4; stroke-opacity:1; fill:none" points="194.422,1384.24 216.005,1375.58 237.589,1366.93 259.172,1358.28 280.755,1349.62 302.339,1340.97 323.922,1332.32 345.505,1323.66 367.089,1315.01 388.672,1306.36 410.255,1297.7 431.839,1289.05 453.422,1280.39 475.005,1271.74 496.589,1263.09 518.172,1254.43 539.756,1245.78 561.339,1237.13 582.922,1228.47 604.506,1219.82 626.089,1211.16 647.672,1202.51 669.256,1193.86 690.839,1185.2 712.422,1176.55 734.006,1167.9 755.589,1159.24 777.172,1150.59 798.756,1141.94 820.339,1133.28 841.922,1124.63 863.506,1115.97 885.089,1107.32 906.672,1098.67 928.256,1090.01 949.839,1081.36 971.422,1072.71 993.006,1064.05 1014.59,1055.4 1036.17,1046.74 1057.76,1038.09 1079.34,1029.44 1100.92,1020.78 1122.51,1012.13 1144.09,1003.48 1165.67,994.822 1187.26,986.169 1208.84,977.515 1230.42,968.861 1252.01,960.208 1273.59,951.554 1295.17,942.9 1316.76,934.247 1338.34,925.593 1359.92,916.939 1381.51,908.286 1403.09,899.632 1424.67,890.978 1446.26,882.325 1467.84,873.671 1489.42,865.017 1511.01,856.364 1532.59,847.71 1554.17,839.056 1575.76,830.402 1597.34,821.749 1618.92,813.095 1640.51,804.441 1662.09,795.788 1683.67,787.134 1705.26,778.48 1726.84,769.827 1748.42,761.173 1770.01,752.519 1791.59,743.866 1813.17,735.212 1834.76,726.558 1856.34,717.905 1877.92,709.251 1899.51,700.597 1921.09,691.944 1942.67,683.29 1964.26,674.636 1985.84,665.982 2007.42,657.329 2029.01,648.675 2050.59,640.021 2072.17,631.368 2093.76,622.714 2115.34,614.06 2136.92,605.407 2158.51,596.753 2180.09,588.099 2201.67,579.446 2223.26,570.792 2244.84,562.138 2266.42,553.485 2288.01,544.831 2309.59,536.177 2331.17,527.524 2352.76,518.87 "/>
<polyline clip-path="url(#clip202)" style="stroke:#c271d2; stroke-linecap:round; stroke-linejoin:round; stroke-width:4; stroke-opacity:1; fill:none" points="194.422,86.1857 216.005,86.1857 237.589,86.1857 259.172,86.1857 280.755,86.1857 302.339,86.1857 323.922,86.1857 345.505,86.1857 367.089,86.1857 388.672,86.1857 410.255,86.1857 431.839,86.1857 453.422,86.1857 475.005,86.1857 496.589,86.1857 518.172,86.1857 539.756,86.1857 561.339,86.1857 582.922,86.1857 604.506,86.1857 626.089,86.1857 647.672,86.1857 669.256,86.1857 690.839,86.1857 712.422,86.1857 734.006,86.1857 755.589,86.1857 777.172,86.1857 798.756,86.1857 820.339,86.1857 841.922,86.1857 863.506,86.1857 885.089,86.1857 906.672,86.1857 928.256,86.1857 949.839,86.1857 971.422,86.1857 993.006,86.1857 1014.59,86.1857 1036.17,86.1857 1057.76,86.1857 1079.34,86.1857 1100.92,86.1857 1122.51,86.1857 1144.09,86.1857 1165.67,86.1857 1187.26,86.1857 1208.84,86.1857 1230.42,86.1857 1252.01,86.1857 1273.59,86.1857 1295.17,86.1857 1316.76,86.1857 1338.34,86.1857 1359.92,86.1857 1381.51,86.1857 1403.09,86.1857 1424.67,86.1857 1446.26,86.1857 1467.84,86.1857 1489.42,86.1857 1511.01,86.1857 1532.59,86.1857 1554.17,86.1857 1575.76,86.1857 1597.34,86.1857 1618.92,86.1857 1640.51,86.1857 1662.09,86.1857 1683.67,86.1857 1705.26,86.1857 1726.84,86.1857 1748.42,86.1857 1770.01,86.1857 1791.59,86.1857 1813.17,86.1857 1834.76,86.1857 1856.34,86.1857 1877.92,86.1857 1899.51,86.1857 1921.09,86.1857 1942.67,86.1857 1964.26,86.1857 1985.84,86.1857 2007.42,86.1857 2029.01,86.1857 2050.59,86.1857 2072.17,86.1857 2093.76,86.1857 2115.34,86.1857 2136.92,86.1857 2158.51,86.1857 2180.09,86.1857 2201.67,86.1857 2223.26,86.1857 2244.84,86.1857 2266.42,86.1857 2288.01,86.1857 2309.59,86.1857 2331.17,86.1857 2352.76,86.1857 "/>
<path clip-path="url(#clip200)" d="M1975.88 1377.32 L2280.81 1377.32 L2280.81 1118.12 L1975.88 1118.12  Z" fill="#ffffff" fill-rule="evenodd" fill-opacity="1"/>
<polyline clip-path="url(#clip200)" style="stroke:#000000; stroke-linecap:round; stroke-linejoin:round; stroke-width:4; stroke-opacity:1; fill:none" points="1975.88,1377.32 2280.81,1377.32 2280.81,1118.12 1975.88,1118.12 1975.88,1377.32 "/>
<polyline clip-path="url(#clip200)" style="stroke:#009af9; stroke-linecap:round; stroke-linejoin:round; stroke-width:4; stroke-opacity:1; fill:none" points="1999.86,1169.96 2143.75,1169.96 "/>
<path clip-path="url(#clip200)" d="M2167.73 1177 L2167.73 1161.31 L2171.99 1161.31 L2171.99 1176.84 Q2171.99 1180.52 2173.43 1182.37 Q2174.86 1184.2 2177.73 1184.2 Q2181.18 1184.2 2183.17 1182 Q2185.19 1179.8 2185.19 1176.01 L2185.19 1161.31 L2189.45 1161.31 L2189.45 1187.24 L2185.19 1187.24 L2185.19 1183.25 Q2183.64 1185.61 2181.58 1186.77 Q2179.54 1187.91 2176.83 1187.91 Q2172.36 1187.91 2170.05 1185.13 Q2167.73 1182.35 2167.73 1177 M2178.45 1160.68 L2178.45 1160.68 Z" fill="#000000" fill-rule="nonzero" fill-opacity="1" /><path clip-path="url(#clip200)" d="M2197.83 1151.22 L2207.64 1151.22 L2207.64 1154.53 L2202.08 1154.53 L2202.08 1190.18 L2207.64 1190.18 L2207.64 1193.49 L2197.83 1193.49 L2197.83 1151.22 Z" fill="#000000" fill-rule="nonzero" fill-opacity="1" /><path clip-path="url(#clip200)" d="M2218.13 1183.3 L2225.77 1183.3 L2225.77 1156.93 L2217.46 1158.6 L2217.46 1154.34 L2225.72 1152.68 L2230.39 1152.68 L2230.39 1183.3 L2238.03 1183.3 L2238.03 1187.24 L2218.13 1187.24 L2218.13 1183.3 Z" fill="#000000" fill-rule="nonzero" fill-opacity="1" /><path clip-path="url(#clip200)" d="M2256.83 1151.22 L2256.83 1193.49 L2247.02 1193.49 L2247.02 1190.18 L2252.55 1190.18 L2252.55 1154.53 L2247.02 1154.53 L2247.02 1151.22 L2256.83 1151.22 Z" fill="#000000" fill-rule="nonzero" fill-opacity="1" /><polyline clip-path="url(#clip200)" style="stroke:#e26f46; stroke-linecap:round; stroke-linejoin:round; stroke-width:4; stroke-opacity:1; fill:none" points="1999.86,1221.8 2143.75,1221.8 "/>
<path clip-path="url(#clip200)" d="M2167.73 1228.84 L2167.73 1213.15 L2171.99 1213.15 L2171.99 1228.68 Q2171.99 1232.36 2173.43 1234.21 Q2174.86 1236.04 2177.73 1236.04 Q2181.18 1236.04 2183.17 1233.84 Q2185.19 1231.64 2185.19 1227.85 L2185.19 1213.15 L2189.45 1213.15 L2189.45 1239.08 L2185.19 1239.08 L2185.19 1235.09 Q2183.64 1237.45 2181.58 1238.61 Q2179.54 1239.75 2176.83 1239.75 Q2172.36 1239.75 2170.05 1236.97 Q2167.73 1234.19 2167.73 1228.84 M2178.45 1212.52 L2178.45 1212.52 Z" fill="#000000" fill-rule="nonzero" fill-opacity="1" /><path clip-path="url(#clip200)" d="M2197.83 1203.06 L2207.64 1203.06 L2207.64 1206.37 L2202.08 1206.37 L2202.08 1242.02 L2207.64 1242.02 L2207.64 1245.33 L2197.83 1245.33 L2197.83 1203.06 Z" fill="#000000" fill-rule="nonzero" fill-opacity="1" /><path clip-path="url(#clip200)" d="M2221.34 1235.14 L2237.66 1235.14 L2237.66 1239.08 L2215.72 1239.08 L2215.72 1235.14 Q2218.38 1232.39 2222.96 1227.76 Q2227.57 1223.1 2228.75 1221.76 Q2231 1219.24 2231.88 1217.5 Q2232.78 1215.74 2232.78 1214.05 Q2232.78 1211.3 2230.83 1209.56 Q2228.91 1207.83 2225.81 1207.83 Q2223.61 1207.83 2221.16 1208.59 Q2218.73 1209.35 2215.95 1210.9 L2215.95 1206.18 Q2218.77 1205.05 2221.23 1204.47 Q2223.68 1203.89 2225.72 1203.89 Q2231.09 1203.89 2234.28 1206.58 Q2237.48 1209.26 2237.48 1213.75 Q2237.48 1215.88 2236.67 1217.8 Q2235.88 1219.7 2233.77 1222.29 Q2233.2 1222.96 2230.09 1226.18 Q2226.99 1229.38 2221.34 1235.14 Z" fill="#000000" fill-rule="nonzero" fill-opacity="1" /><path clip-path="url(#clip200)" d="M2256.83 1203.06 L2256.83 1245.33 L2247.02 1245.33 L2247.02 1242.02 L2252.55 1242.02 L2252.55 1206.37 L2247.02 1206.37 L2247.02 1203.06 L2256.83 1203.06 Z" fill="#000000" fill-rule="nonzero" fill-opacity="1" /><polyline clip-path="url(#clip200)" style="stroke:#3da44d; stroke-linecap:round; stroke-linejoin:round; stroke-width:4; stroke-opacity:1; fill:none" points="1999.86,1273.64 2143.75,1273.64 "/>
<path clip-path="url(#clip200)" d="M2167.73 1280.68 L2167.73 1264.99 L2171.99 1264.99 L2171.99 1280.52 Q2171.99 1284.2 2173.43 1286.05 Q2174.86 1287.88 2177.73 1287.88 Q2181.18 1287.88 2183.17 1285.68 Q2185.19 1283.48 2185.19 1279.69 L2185.19 1264.99 L2189.45 1264.99 L2189.45 1290.92 L2185.19 1290.92 L2185.19 1286.93 Q2183.64 1289.29 2181.58 1290.45 Q2179.54 1291.59 2176.83 1291.59 Q2172.36 1291.59 2170.05 1288.81 Q2167.73 1286.03 2167.73 1280.68 M2178.45 1264.36 L2178.45 1264.36 Z" fill="#000000" fill-rule="nonzero" fill-opacity="1" /><path clip-path="url(#clip200)" d="M2197.83 1254.9 L2207.64 1254.9 L2207.64 1258.21 L2202.08 1258.21 L2202.08 1293.86 L2207.64 1293.86 L2207.64 1297.17 L2197.83 1297.17 L2197.83 1254.9 Z" fill="#000000" fill-rule="nonzero" fill-opacity="1" /><path clip-path="url(#clip200)" d="M2231.48 1272.28 Q2234.84 1273 2236.71 1275.27 Q2238.61 1277.54 2238.61 1280.87 Q2238.61 1285.98 2235.09 1288.79 Q2231.58 1291.59 2225.09 1291.59 Q2222.92 1291.59 2220.6 1291.15 Q2218.31 1290.73 2215.86 1289.87 L2215.86 1285.36 Q2217.8 1286.49 2220.12 1287.07 Q2222.43 1287.65 2224.96 1287.65 Q2229.35 1287.65 2231.64 1285.92 Q2233.96 1284.18 2233.96 1280.87 Q2233.96 1277.81 2231.81 1276.1 Q2229.68 1274.36 2225.86 1274.36 L2221.83 1274.36 L2221.83 1270.52 L2226.04 1270.52 Q2229.49 1270.52 2231.32 1269.16 Q2233.15 1267.77 2233.15 1265.17 Q2233.15 1262.51 2231.25 1261.1 Q2229.38 1259.67 2225.86 1259.67 Q2223.94 1259.67 2221.74 1260.08 Q2219.54 1260.5 2216.9 1261.38 L2216.9 1257.21 Q2219.56 1256.47 2221.88 1256.1 Q2224.21 1255.73 2226.27 1255.73 Q2231.6 1255.73 2234.7 1258.16 Q2237.8 1260.57 2237.8 1264.69 Q2237.8 1267.56 2236.16 1269.55 Q2234.52 1271.52 2231.48 1272.28 Z" fill="#000000" fill-rule="nonzero" fill-opacity="1" /><path clip-path="url(#clip200)" d="M2256.83 1254.9 L2256.83 1297.17 L2247.02 1297.17 L2247.02 1293.86 L2252.55 1293.86 L2252.55 1258.21 L2247.02 1258.21 L2247.02 1254.9 L2256.83 1254.9 Z" fill="#000000" fill-rule="nonzero" fill-opacity="1" /><polyline clip-path="url(#clip200)" style="stroke:#c271d2; stroke-linecap:round; stroke-linejoin:round; stroke-width:4; stroke-opacity:1; fill:none" points="1999.86,1325.48 2143.75,1325.48 "/>
<path clip-path="url(#clip200)" d="M2167.73 1332.52 L2167.73 1316.83 L2171.99 1316.83 L2171.99 1332.36 Q2171.99 1336.04 2173.43 1337.89 Q2174.86 1339.72 2177.73 1339.72 Q2181.18 1339.72 2183.17 1337.52 Q2185.19 1335.32 2185.19 1331.53 L2185.19 1316.83 L2189.45 1316.83 L2189.45 1342.76 L2185.19 1342.76 L2185.19 1338.77 Q2183.64 1341.13 2181.58 1342.29 Q2179.54 1343.43 2176.83 1343.43 Q2172.36 1343.43 2170.05 1340.65 Q2167.73 1337.87 2167.73 1332.52 M2178.45 1316.2 L2178.45 1316.2 Z" fill="#000000" fill-rule="nonzero" fill-opacity="1" /><path clip-path="url(#clip200)" d="M2197.83 1306.74 L2207.64 1306.74 L2207.64 1310.05 L2202.08 1310.05 L2202.08 1345.7 L2207.64 1345.7 L2207.64 1349.01 L2197.83 1349.01 L2197.83 1306.74 Z" fill="#000000" fill-rule="nonzero" fill-opacity="1" /><path clip-path="url(#clip200)" d="M2230.16 1312.27 L2218.36 1330.72 L2230.16 1330.72 L2230.16 1312.27 M2228.94 1308.2 L2234.82 1308.2 L2234.82 1330.72 L2239.75 1330.72 L2239.75 1334.61 L2234.82 1334.61 L2234.82 1342.76 L2230.16 1342.76 L2230.16 1334.61 L2214.56 1334.61 L2214.56 1330.09 L2228.94 1308.2 Z" fill="#000000" fill-rule="nonzero" fill-opacity="1" /><path clip-path="url(#clip200)" d="M2256.83 1306.74 L2256.83 1349.01 L2247.02 1349.01 L2247.02 1345.7 L2252.55 1345.7 L2252.55 1310.05 L2247.02 1310.05 L2247.02 1306.74 L2256.83 1306.74 Z" fill="#000000" fill-rule="nonzero" fill-opacity="1" /></svg>
