<?xml version="1.0" encoding="utf-8"?>
<svg xmlns="http://www.w3.org/2000/svg" xmlns:xlink="http://www.w3.org/1999/xlink" width="600" height="400" viewBox="0 0 2400 1600">
<defs>
  <clipPath id="clip480">
    <rect x="0" y="0" width="2400" height="1600"/>
  </clipPath>
</defs>
<path clip-path="url(#clip480)" d="M0 1600 L2400 1600 L2400 0 L0 0  Z" fill="#ffffff" fill-rule="evenodd" fill-opacity="1"/>
<defs>
  <clipPath id="clip481">
    <rect x="480" y="0" width="1681" height="1600"/>
  </clipPath>
</defs>
<path clip-path="url(#clip480)" d="M147.478 1423.18 L2352.76 1423.18 L2352.76 47.2441 L147.478 47.2441  Z" fill="#ffffff" fill-rule="evenodd" fill-opacity="1"/>
<defs>
  <clipPath id="clip482">
    <rect x="147" y="47" width="2206" height="1377"/>
  </clipPath>
</defs>
<polyline clip-path="url(#clip482)" style="stroke:#000000; stroke-linecap:round; stroke-linejoin:round; stroke-width:2; stroke-opacity:0.1; fill:none" points="147.478,1423.18 147.478,47.2441 "/>
<polyline clip-path="url(#clip482)" style="stroke:#000000; stroke-linecap:round; stroke-linejoin:round; stroke-width:2; stroke-opacity:0.1; fill:none" points="698.797,1423.18 698.797,47.2441 "/>
<polyline clip-path="url(#clip482)" style="stroke:#000000; stroke-linecap:round; stroke-linejoin:round; stroke-width:2; stroke-opacity:0.1; fill:none" points="1250.12,1423.18 1250.12,47.2441 "/>
<polyline clip-path="url(#clip482)" style="stroke:#000000; stroke-linecap:round; stroke-linejoin:round; stroke-width:2; stroke-opacity:0.1; fill:none" points="1801.44,1423.18 1801.44,47.2441 "/>
<polyline clip-path="url(#clip482)" style="stroke:#000000; stroke-linecap:round; stroke-linejoin:round; stroke-width:2; stroke-opacity:0.1; fill:none" points="2352.76,1423.18 2352.76,47.2441 "/>
<polyline clip-path="url(#clip482)" style="stroke:#000000; stroke-linecap:round; stroke-linejoin:round; stroke-width:2; stroke-opacity:0.1; fill:none" points="147.478,1384.24 2352.76,1384.24 "/>
<polyline clip-path="url(#clip482)" style="stroke:#000000; stroke-linecap:round; stroke-linejoin:round; stroke-width:2; stroke-opacity:0.1; fill:none" points="147.478,1059.21 2352.76,1059.21 "/>
<polyline clip-path="url(#clip482)" style="stroke:#000000; stroke-linecap:round; stroke-linejoin:round; stroke-width:2; stroke-opacity:0.1; fill:none" points="147.478,734.182 2352.76,734.182 "/>
<polyline clip-path="url(#clip482)" style="stroke:#000000; stroke-linecap:round; stroke-linejoin:round; stroke-width:2; stroke-opacity:0.1; fill:none" points="147.478,409.153 2352.76,409.153 "/>
<polyline clip-path="url(#clip482)" style="stroke:#000000; stroke-linecap:round; stroke-linejoin:round; stroke-width:2; stroke-opacity:0.1; fill:none" points="147.478,84.125 2352.76,84.125 "/>
<polyline clip-path="url(#clip480)" style="stroke:#000000; stroke-linecap:round; stroke-linejoin:round; stroke-width:4; stroke-opacity:1; fill:none" points="147.478,1423.18 2352.76,1423.18 "/>
<polyline clip-path="url(#clip480)" style="stroke:#000000; stroke-linecap:round; stroke-linejoin:round; stroke-width:4; stroke-opacity:1; fill:none" points="147.478,1423.18 147.478,1404.28 "/>
<polyline clip-path="url(#clip480)" style="stroke:#000000; stroke-linecap:round; stroke-linejoin:round; stroke-width:4; stroke-opacity:1; fill:none" points="698.797,1423.18 698.797,1404.28 "/>
<polyline clip-path="url(#clip480)" style="stroke:#000000; stroke-linecap:round; stroke-linejoin:round; stroke-width:4; stroke-opacity:1; fill:none" points="1250.12,1423.18 1250.12,1404.28 "/>
<polyline clip-path="url(#clip480)" style="stroke:#000000; stroke-linecap:round; stroke-linejoin:round; stroke-width:4; stroke-opacity:1; fill:none" points="1801.44,1423.18 1801.44,1404.28 "/>
<polyline clip-path="url(#clip480)" style="stroke:#000000; stroke-linecap:round; stroke-linejoin:round; stroke-width:4; stroke-opacity:1; fill:none" points="2352.76,1423.18 2352.76,1404.28 "/>
<path clip-path="url(#clip480)" d="M94.006 1468.75 L123.682 1468.75 L123.682 1472.69 L94.006 1472.69 L94.006 1468.75 Z" fill="#000000" fill-rule="nonzero" fill-opacity="1" /><path clip-path="url(#clip480)" d="M134.584 1481.64 L142.223 1481.64 L142.223 1455.28 L133.913 1456.95 L133.913 1452.69 L142.177 1451.02 L146.853 1451.02 L146.853 1481.64 L154.492 1481.64 L154.492 1485.58 L134.584 1485.58 L134.584 1481.64 Z" fill="#000000" fill-rule="nonzero" fill-opacity="1" /><path clip-path="url(#clip480)" d="M163.936 1479.7 L168.82 1479.7 L168.82 1485.58 L163.936 1485.58 L163.936 1479.7 Z" fill="#000000" fill-rule="nonzero" fill-opacity="1" /><path clip-path="url(#clip480)" d="M189.005 1454.1 Q185.394 1454.1 183.566 1457.66 Q181.76 1461.2 181.76 1468.33 Q181.76 1475.44 183.566 1479.01 Q185.394 1482.55 189.005 1482.55 Q192.64 1482.55 194.445 1479.01 Q196.274 1475.44 196.274 1468.33 Q196.274 1461.2 194.445 1457.66 Q192.64 1454.1 189.005 1454.1 M189.005 1450.39 Q194.816 1450.39 197.871 1455 Q200.95 1459.58 200.95 1468.33 Q200.95 1477.06 197.871 1481.67 Q194.816 1486.25 189.005 1486.25 Q183.195 1486.25 180.117 1481.67 Q177.061 1477.06 177.061 1468.33 Q177.061 1459.58 180.117 1455 Q183.195 1450.39 189.005 1450.39 Z" fill="#000000" fill-rule="nonzero" fill-opacity="1" /><path clip-path="url(#clip480)" d="M645.823 1468.75 L675.499 1468.75 L675.499 1472.69 L645.823 1472.69 L645.823 1468.75 Z" fill="#000000" fill-rule="nonzero" fill-opacity="1" /><path clip-path="url(#clip480)" d="M695.591 1454.1 Q691.98 1454.1 690.152 1457.66 Q688.346 1461.2 688.346 1468.33 Q688.346 1475.44 690.152 1479.01 Q691.98 1482.55 695.591 1482.55 Q699.226 1482.55 701.031 1479.01 Q702.86 1475.44 702.86 1468.33 Q702.86 1461.2 701.031 1457.66 Q699.226 1454.1 695.591 1454.1 M695.591 1450.39 Q701.402 1450.39 704.457 1455 Q707.536 1459.58 707.536 1468.33 Q707.536 1477.06 704.457 1481.67 Q701.402 1486.25 695.591 1486.25 Q689.781 1486.25 686.703 1481.67 Q683.647 1477.06 683.647 1468.33 Q683.647 1459.58 686.703 1455 Q689.781 1450.39 695.591 1450.39 Z" fill="#000000" fill-rule="nonzero" fill-opacity="1" /><path clip-path="url(#clip480)" d="M715.753 1479.7 L720.638 1479.7 L720.638 1485.58 L715.753 1485.58 L715.753 1479.7 Z" fill="#000000" fill-rule="nonzero" fill-opacity="1" /><path clip-path="url(#clip480)" d="M730.869 1451.02 L749.225 1451.02 L749.225 1454.96 L735.151 1454.96 L735.151 1463.43 Q736.17 1463.08 737.188 1462.92 Q738.207 1462.73 739.225 1462.73 Q745.012 1462.73 748.392 1465.9 Q751.772 1469.08 751.772 1474.49 Q751.772 1480.07 748.299 1483.17 Q744.827 1486.25 738.508 1486.25 Q736.332 1486.25 734.063 1485.88 Q731.818 1485.51 729.411 1484.77 L729.411 1480.07 Q731.494 1481.2 733.716 1481.76 Q735.938 1482.32 738.415 1482.32 Q742.42 1482.32 744.758 1480.21 Q747.096 1478.1 747.096 1474.49 Q747.096 1470.88 744.758 1468.77 Q742.42 1466.67 738.415 1466.67 Q736.54 1466.67 734.665 1467.08 Q732.813 1467.5 730.869 1468.38 L730.869 1451.02 Z" fill="#000000" fill-rule="nonzero" fill-opacity="1" /><path clip-path="url(#clip480)" d="M1227.5 1454.1 Q1223.89 1454.1 1222.06 1457.66 Q1220.26 1461.2 1220.26 1468.33 Q1220.26 1475.44 1222.06 1479.01 Q1223.89 1482.55 1227.5 1482.55 Q1231.14 1482.55 1232.94 1479.01 Q1234.77 1475.44 1234.77 1468.33 Q1234.77 1461.2 1232.94 1457.66 Q1231.14 1454.1 1227.5 1454.1 M1227.5 1450.39 Q1233.31 1450.39 1236.37 1455 Q1239.45 1459.58 1239.45 1468.33 Q1239.45 1477.06 1236.37 1481.67 Q1233.31 1486.25 1227.5 1486.25 Q1221.69 1486.25 1218.61 1481.67 Q1215.56 1477.06 1215.56 1468.33 Q1215.56 1459.58 1218.61 1455 Q1221.69 1450.39 1227.5 1450.39 Z" fill="#000000" fill-rule="nonzero" fill-opacity="1" /><path clip-path="url(#clip480)" d="M1247.66 1479.7 L1252.55 1479.7 L1252.55 1485.58 L1247.66 1485.58 L1247.66 1479.7 Z" fill="#000000" fill-rule="nonzero" fill-opacity="1" /><path clip-path="url(#clip480)" d="M1272.73 1454.1 Q1269.12 1454.1 1267.29 1457.66 Q1265.49 1461.2 1265.49 1468.33 Q1265.49 1475.44 1267.29 1479.01 Q1269.12 1482.55 1272.73 1482.55 Q1276.37 1482.55 1278.17 1479.01 Q1280 1475.44 1280 1468.33 Q1280 1461.2 1278.17 1457.66 Q1276.37 1454.1 1272.73 1454.1 M1272.73 1450.39 Q1278.54 1450.39 1281.6 1455 Q1284.68 1459.58 1284.68 1468.33 Q1284.68 1477.06 1281.6 1481.67 Q1278.54 1486.25 1272.73 1486.25 Q1266.92 1486.25 1263.84 1481.67 Q1260.79 1477.06 1260.79 1468.33 Q1260.79 1459.58 1263.84 1455 Q1266.92 1450.39 1272.73 1450.39 Z" fill="#000000" fill-rule="nonzero" fill-opacity="1" /><path clip-path="url(#clip480)" d="M1779.32 1454.1 Q1775.71 1454.1 1773.88 1457.66 Q1772.07 1461.2 1772.07 1468.33 Q1772.07 1475.44 1773.88 1479.01 Q1775.71 1482.55 1779.32 1482.55 Q1782.95 1482.55 1784.76 1479.01 Q1786.59 1475.44 1786.59 1468.33 Q1786.59 1461.2 1784.76 1457.66 Q1782.95 1454.1 1779.32 1454.1 M1779.32 1450.39 Q1785.13 1450.39 1788.18 1455 Q1791.26 1459.58 1791.26 1468.33 Q1791.26 1477.06 1788.18 1481.67 Q1785.13 1486.25 1779.32 1486.25 Q1773.51 1486.25 1770.43 1481.67 Q1767.37 1477.06 1767.37 1468.33 Q1767.37 1459.58 1770.43 1455 Q1773.51 1450.39 1779.32 1450.39 Z" fill="#000000" fill-rule="nonzero" fill-opacity="1" /><path clip-path="url(#clip480)" d="M1799.48 1479.7 L1804.36 1479.7 L1804.36 1485.58 L1799.48 1485.58 L1799.48 1479.7 Z" fill="#000000" fill-rule="nonzero" fill-opacity="1" /><path clip-path="url(#clip480)" d="M1814.6 1451.02 L1832.95 1451.02 L1832.95 1454.96 L1818.88 1454.96 L1818.88 1463.43 Q1819.9 1463.08 1820.92 1462.92 Q1821.93 1462.73 1822.95 1462.73 Q1828.74 1462.73 1832.12 1465.9 Q1835.5 1469.08 1835.5 1474.49 Q1835.5 1480.07 1832.03 1483.17 Q1828.55 1486.25 1822.23 1486.25 Q1820.06 1486.25 1817.79 1485.88 Q1815.55 1485.51 1813.14 1484.77 L1813.14 1480.07 Q1815.22 1481.2 1817.44 1481.76 Q1819.67 1482.32 1822.14 1482.32 Q1826.15 1482.32 1828.48 1480.21 Q1830.82 1478.1 1830.82 1474.49 Q1830.82 1470.88 1828.48 1468.77 Q1826.15 1466.67 1822.14 1466.67 Q1820.27 1466.67 1818.39 1467.08 Q1816.54 1467.5 1814.6 1468.38 L1814.6 1451.02 Z" fill="#000000" fill-rule="nonzero" fill-opacity="1" /><path clip-path="url(#clip480)" d="M2319.91 1481.64 L2327.55 1481.64 L2327.55 1455.28 L2319.24 1456.95 L2319.24 1452.69 L2327.5 1451.02 L2332.18 1451.02 L2332.18 1481.64 L2339.82 1481.64 L2339.82 1485.58 L2319.91 1485.58 L2319.91 1481.64 Z" fill="#000000" fill-rule="nonzero" fill-opacity="1" /><path clip-path="url(#clip480)" d="M2349.26 1479.7 L2354.14 1479.7 L2354.14 1485.58 L2349.26 1485.58 L2349.26 1479.7 Z" fill="#000000" fill-rule="nonzero" fill-opacity="1" /><path clip-path="url(#clip480)" d="M2374.33 1454.1 Q2370.72 1454.1 2368.89 1457.66 Q2367.08 1461.2 2367.08 1468.33 Q2367.08 1475.44 2368.89 1479.01 Q2370.72 1482.55 2374.33 1482.55 Q2377.96 1482.55 2379.77 1479.01 Q2381.6 1475.44 2381.6 1468.33 Q2381.6 1461.2 2379.77 1457.66 Q2377.96 1454.1 2374.33 1454.1 M2374.33 1450.39 Q2380.14 1450.39 2383.2 1455 Q2386.27 1459.58 2386.27 1468.33 Q2386.27 1477.06 2383.2 1481.67 Q2380.14 1486.25 2374.33 1486.25 Q2368.52 1486.25 2365.44 1481.67 Q2362.39 1477.06 2362.39 1468.33 Q2362.39 1459.58 2365.44 1455 Q2368.52 1450.39 2374.33 1450.39 Z" fill="#000000" fill-rule="nonzero" fill-opacity="1" /><path clip-path="url(#clip480)" d="M1249.18 1522.27 L1249.18 1532.4 L1261.24 1532.4 L1261.24 1536.95 L1249.18 1536.95 L1249.18 1556.3 Q1249.18 1560.66 1250.36 1561.9 Q1251.57 1563.14 1255.23 1563.14 L1261.24 1563.14 L1261.24 1568.04 L1255.23 1568.04 Q1248.45 1568.04 1245.87 1565.53 Q1243.29 1562.98 1243.29 1556.3 L1243.29 1536.95 L1238.99 1536.95 L1238.99 1532.4 L1243.29 1532.4 L1243.29 1522.27 L1249.18 1522.27 Z" fill="#000000" fill-rule="nonzero" fill-opacity="1" /><polyline clip-path="url(#clip480)" style="stroke:#000000; stroke-linecap:round; stroke-linejoin:round; stroke-width:4; stroke-opacity:1; fill:none" points="147.478,1423.18 147.478,47.2441 "/>
<polyline clip-path="url(#clip480)" style="stroke:#000000; stroke-linecap:round; stroke-linejoin:round; stroke-width:4; stroke-opacity:1; fill:none" points="147.478,1384.24 166.376,1384.24 "/>
<polyline clip-path="url(#clip480)" style="stroke:#000000; stroke-linecap:round; stroke-linejoin:round; stroke-width:4; stroke-opacity:1; fill:none" points="147.478,1059.21 166.376,1059.21 "/>
<polyline clip-path="url(#clip480)" style="stroke:#000000; stroke-linecap:round; stroke-linejoin:round; stroke-width:4; stroke-opacity:1; fill:none" points="147.478,734.182 166.376,734.182 "/>
<polyline clip-path="url(#clip480)" style="stroke:#000000; stroke-linecap:round; stroke-linejoin:round; stroke-width:4; stroke-opacity:1; fill:none" points="147.478,409.153 166.376,409.153 "/>
<polyline clip-path="url(#clip480)" style="stroke:#000000; stroke-linecap:round; stroke-linejoin:round; stroke-width:4; stroke-opacity:1; fill:none" points="147.478,84.125 166.376,84.125 "/>
<path clip-path="url(#clip480)" d="M51.3625 1384.69 L81.0383 1384.69 L81.0383 1388.62 L51.3625 1388.62 L51.3625 1384.69 Z" fill="#000000" fill-rule="nonzero" fill-opacity="1" /><path clip-path="url(#clip480)" d="M95.1586 1397.58 L111.478 1397.58 L111.478 1401.52 L89.5336 1401.52 L89.5336 1397.58 Q92.1956 1394.83 96.7789 1390.2 Q101.385 1385.55 102.566 1384.2 Q104.811 1381.68 105.691 1379.94 Q106.594 1378.19 106.594 1376.5 Q106.594 1373.74 104.649 1372 Q102.728 1370.27 99.6261 1370.27 Q97.4271 1370.27 94.9734 1371.03 Q92.5428 1371.8 89.7651 1373.35 L89.7651 1368.62 Q92.5891 1367.49 95.0428 1366.91 Q97.4965 1366.33 99.5335 1366.33 Q104.904 1366.33 108.098 1369.02 Q111.293 1371.7 111.293 1376.19 Q111.293 1378.32 110.483 1380.25 Q109.696 1382.14 107.589 1384.74 Q107.01 1385.41 103.909 1388.62 Q100.807 1391.82 95.1586 1397.58 Z" fill="#000000" fill-rule="nonzero" fill-opacity="1" /><path clip-path="url(#clip480)" d="M50.9921 1059.66 L80.6679 1059.66 L80.6679 1063.6 L50.9921 1063.6 L50.9921 1059.66 Z" fill="#000000" fill-rule="nonzero" fill-opacity="1" /><path clip-path="url(#clip480)" d="M91.5706 1072.55 L99.2095 1072.55 L99.2095 1046.19 L90.8993 1047.86 L90.8993 1043.6 L99.1632 1041.93 L103.839 1041.93 L103.839 1072.55 L111.478 1072.55 L111.478 1076.49 L91.5706 1076.49 L91.5706 1072.55 Z" fill="#000000" fill-rule="nonzero" fill-opacity="1" /><path clip-path="url(#clip480)" d="M99.5335 719.98 Q95.9224 719.98 94.0937 723.545 Q92.2882 727.087 92.2882 734.216 Q92.2882 741.323 94.0937 744.888 Q95.9224 748.429 99.5335 748.429 Q103.168 748.429 104.973 744.888 Q106.802 741.323 106.802 734.216 Q106.802 727.087 104.973 723.545 Q103.168 719.98 99.5335 719.98 M99.5335 716.277 Q105.344 716.277 108.399 720.883 Q111.478 725.466 111.478 734.216 Q111.478 742.943 108.399 747.55 Q105.344 752.133 99.5335 752.133 Q93.7234 752.133 90.6447 747.55 Q87.5892 742.943 87.5892 734.216 Q87.5892 725.466 90.6447 720.883 Q93.7234 716.277 99.5335 716.277 Z" fill="#000000" fill-rule="nonzero" fill-opacity="1" /><path clip-path="url(#clip480)" d="M91.5706 422.498 L99.2095 422.498 L99.2095 396.133 L90.8993 397.799 L90.8993 393.54 L99.1632 391.873 L103.839 391.873 L103.839 422.498 L111.478 422.498 L111.478 426.433 L91.5706 426.433 L91.5706 422.498 Z" fill="#000000" fill-rule="nonzero" fill-opacity="1" /><path clip-path="url(#clip480)" d="M95.1586 97.4698 L111.478 97.4698 L111.478 101.405 L89.5336 101.405 L89.5336 97.4698 Q92.1956 94.7152 96.7789 90.0856 Q101.385 85.4329 102.566 84.0903 Q104.811 81.5671 105.691 79.831 Q106.594 78.0718 106.594 76.382 Q106.594 73.6274 104.649 71.8913 Q102.728 70.1552 99.6261 70.1552 Q97.4271 70.1552 94.9734 70.9191 Q92.5428 71.6829 89.7651 73.2339 L89.7651 68.5117 Q92.5891 67.3774 95.0428 66.7987 Q97.4965 66.22 99.5335 66.22 Q104.904 66.22 108.098 68.9052 Q111.293 71.5903 111.293 76.0811 Q111.293 78.2107 110.483 80.132 Q109.696 82.0301 107.589 84.6227 Q107.01 85.294 103.909 88.5116 Q100.807 91.706 95.1586 97.4698 Z" fill="#000000" fill-rule="nonzero" fill-opacity="1" /><polyline clip-path="url(#clip482)" style="stroke:#009af9; stroke-linecap:round; stroke-linejoin:round; stroke-width:4; stroke-opacity:1; fill:none" points="147.478,1384.24 158.984,1384.06 170.495,1383.54 182.065,1382.66 193.487,1381.45 203.903,1380.05 214.334,1378.36 224.795,1376.38 235.026,1374.18 245.08,1371.75 255.171,1369.06 265.238,1366.11 275.097,1362.99 284.978,1359.61 294.882,1355.99 304.663,1352.18 314.416,1348.16 324.209,1343.9 333.943,1339.44 343.621,1334.79 353.343,1329.91 363.04,1324.84 372.679,1319.6 382.352,1314.14 392.026,1308.48 401.639,1302.68 411.282,1296.67 420.939,1290.48 430.541,1284.14 440.171,1277.62 449.821,1270.92 459.419,1264.1 469.047,1257.1 478.693,1249.94 488.284,1242.68 497.905,1235.26 507.539,1227.69 517.122,1220.04 526.74,1212.24 536.354,1204.33 545.909,1196.36 555.501,1188.25 565.061,1180.08 574.569,1171.87 584.109,1163.54 593.562,1155.21 602.968,1146.86 612.38,1138.43 621.617,1130.11 630.812,1121.78 639.938,1113.46 648.816,1105.34 657.591,1097.28 666.129,1089.42 674.385,1081.8 682.383,1074.41 689.927,1067.42 697.174,1060.71 704.189,1054.22 711.506,1047.44 719.012,1040.5 726.712,1033.39 734.894,1025.84 743.308,1018.1 751.88,1010.24 761.001,1001.91 770.305,993.447 779.774,984.884 789.824,975.856 800.042,966.747 810.55,957.461 821.514,947.869 832.753,938.149 844.471,928.148 856.564,917.98 868.931,907.754 882.108,897.067 895.634,886.334 909.842,875.337 924.733,864.134 940.299,852.8 957.071,841.042 974.793,829.16 994.795,816.456 1017.23,803.143 1042.97,789.168 1071.69,775.285 1101.58,762.855 1132.39,752.295 1166.18,743.431 1183.65,739.992 1190.47,738.864 1195.19,738.154 1198.61,737.674 1201.34,737.313 1203.67,737.015 1205.69,736.764 1207.23,736.572 1208.78,736.375 1210.35,736.165 1212.62,735.817 1214.88,735.364 1217.54,734.564 1220.34,733.102 1223.93,729.376 1227.94,720.43 1232.27,700.33 1236.33,665.812 1240.58,608.488 1245.09,523.368 1249.97,412.5 1253.29,335.464 1257.02,256.82 1261.05,188.696 1265.19,140.236 1269.45,110.493 1273.84,95.0899 1277.85,89.0087 1281.37,86.9057 1284.33,86.2908 1287.01,86.1857 1289.5,86.2845 1291.95,86.4794 1294.36,86.7235 1296.86,87.0108 1299.7,87.3651 1302.84,87.7862 1306.66,88.3332 1311.97,89.1591 1321.18,90.7649 1349.05,96.9526 1380.96,106.451 1409.98,117.263 1437.18,129.207 1462.81,141.999 1486.36,155.015 1507.12,167.438 1525.33,179.029 1542.43,190.482 1558.35,201.61 1573.53,212.62 1588.03,223.477 1601.83,234.111 1615.29,244.737 1627.93,254.939 1640.3,265.117 1652.24,275.115 1663.76,284.905 1675.06,294.63 1685.8,303.992 1696.33,313.264 1706.61,322.401 1716.45,331.22 1726.09,339.913 1735.41,348.366 1744.43,356.598 1753.28,364.7 1761.69,372.421 1769.88,379.972 1777.94,387.415 1785.41,394.317 1792.72,401.084 1799.89,407.724 1806.81,414.128 1814.01,420.794 1821.53,427.754 1829.48,435.095 1837.66,442.642 1846.13,450.428 1854.78,458.363 1863.53,466.353 1872.52,474.536 1881.56,482.706 1890.68,490.911 1899.9,499.146 1909.13,507.323 1918.46,515.525 1927.8,523.661 1937.15,531.725 1946.58,539.765 1955.98,547.691 1965.42,555.544 1974.88,563.316 1984.32,570.953 1993.8,578.511 2003.29,585.945 2012.75,593.234 2022.27,600.431 2031.77,607.471 2041.26,614.363 2050.8,621.135 2060.31,627.73 2069.83,634.174 2079.39,640.478 2088.91,646.59 2098.46,652.541 2108.05,658.332 2117.6,663.919 2127.19,669.338 2136.82,674.583 2146.41,679.611 2156.06,684.461 2165.74,689.125 2175.4,693.561 2185.12,697.807 2194.89,701.856 2204.64,705.668 2214.46,709.274 2224.38,712.68 2234.27,715.837 2244.22,718.765 2254.36,721.494 2264.49,723.958 2274.61,726.158 2285.16,728.171 2295.69,729.896 2306.22,731.329 2317.54,732.547 2329.29,733.455 2341.02,734 2352.76,734.182 "/>
<path clip-path="url(#clip480)" d="M1969.62 196.789 L2279.25 196.789 L2279.25 93.1086 L1969.62 93.1086  Z" fill="#ffffff" fill-rule="evenodd" fill-opacity="1"/>
<polyline clip-path="url(#clip480)" style="stroke:#000000; stroke-linecap:round; stroke-linejoin:round; stroke-width:4; stroke-opacity:1; fill:none" points="1969.62,196.789 2279.25,196.789 2279.25,93.1086 1969.62,93.1086 1969.62,196.789 "/>
<polyline clip-path="url(#clip480)" style="stroke:#009af9; stroke-linecap:round; stroke-linejoin:round; stroke-width:4; stroke-opacity:1; fill:none" points="1994.13,144.949 2141.14,144.949 "/>
<path clip-path="url(#clip480)" d="M2165.65 151.997 L2165.65 136.303 L2169.91 136.303 L2169.91 151.835 Q2169.91 155.516 2171.34 157.368 Q2172.78 159.196 2175.65 159.196 Q2179.1 159.196 2181.09 156.997 Q2183.1 154.798 2183.1 151.002 L2183.1 136.303 L2187.36 136.303 L2187.36 162.229 L2183.1 162.229 L2183.1 158.247 Q2181.55 160.608 2179.49 161.766 Q2177.45 162.9 2174.74 162.9 Q2170.28 162.9 2167.96 160.122 Q2165.65 157.344 2165.65 151.997 M2176.36 135.678 L2176.36 135.678 Z" fill="#000000" fill-rule="nonzero" fill-opacity="1" /><path clip-path="url(#clip480)" d="M2195.74 126.21 L2205.55 126.21 L2205.55 129.52 L2200 129.52 L2200 165.168 L2205.55 165.168 L2205.55 168.479 L2195.74 168.479 L2195.74 126.21 Z" fill="#000000" fill-rule="nonzero" fill-opacity="1" /><path clip-path="url(#clip480)" d="M2216.04 158.293 L2223.68 158.293 L2223.68 131.928 L2215.37 133.595 L2215.37 129.335 L2223.63 127.669 L2228.31 127.669 L2228.31 158.293 L2235.95 158.293 L2235.95 162.229 L2216.04 162.229 L2216.04 158.293 Z" fill="#000000" fill-rule="nonzero" fill-opacity="1" /><path clip-path="url(#clip480)" d="M2254.74 126.21 L2254.74 168.479 L2244.93 168.479 L2244.93 165.168 L2250.46 165.168 L2250.46 129.52 L2244.93 129.52 L2244.93 126.21 L2254.74 126.21 Z" fill="#000000" fill-rule="nonzero" fill-opacity="1" /></svg>
