<?xml version="1.0" encoding="utf-8"?>
<svg xmlns="http://www.w3.org/2000/svg" xmlns:xlink="http://www.w3.org/1999/xlink" width="600" height="400" viewBox="0 0 2400 1600">
<defs>
  <clipPath id="clip880">
    <rect x="0" y="0" width="2400" height="1600"/>
  </clipPath>
</defs>
<path clip-path="url(#clip880)" d="M0 1600 L2400 1600 L2400 0 L0 0  Z" fill="#ffffff" fill-rule="evenodd" fill-opacity="1"/>
<defs>
  <clipPath id="clip881">
    <rect x="149" y="47" width="2205" height="1377"/>
  </clipPath>
</defs>
<path clip-path="url(#clip880)" d="M149.191 1423.18 L2352.76 1423.18 L2352.76 47.2441 L149.191 47.2441  Z" fill="#ffffff" fill-rule="evenodd" fill-opacity="1"/>
<polyline clip-path="url(#clip881)" style="stroke:#000000; stroke-linecap:round; stroke-linejoin:round; stroke-width:2; stroke-opacity:0.1; fill:none" points="149.191,1423.18 149.191,47.2441 "/>
<polyline clip-path="url(#clip881)" style="stroke:#000000; stroke-linecap:round; stroke-linejoin:round; stroke-width:2; stroke-opacity:0.1; fill:none" points="850.607,1423.18 850.607,47.2441 "/>
<polyline clip-path="url(#clip881)" style="stroke:#000000; stroke-linecap:round; stroke-linejoin:round; stroke-width:2; stroke-opacity:0.1; fill:none" points="1552.02,1423.18 1552.02,47.2441 "/>
<polyline clip-path="url(#clip881)" style="stroke:#000000; stroke-linecap:round; stroke-linejoin:round; stroke-width:2; stroke-opacity:0.1; fill:none" points="2253.44,1423.18 2253.44,47.2441 "/>
<polyline clip-path="url(#clip881)" style="stroke:#000000; stroke-linecap:round; stroke-linejoin:round; stroke-width:2; stroke-opacity:0.1; fill:none" points="149.191,1276.85 2352.76,1276.85 "/>
<polyline clip-path="url(#clip881)" style="stroke:#000000; stroke-linecap:round; stroke-linejoin:round; stroke-width:2; stroke-opacity:0.1; fill:none" points="149.191,1013.71 2352.76,1013.71 "/>
<polyline clip-path="url(#clip881)" style="stroke:#000000; stroke-linecap:round; stroke-linejoin:round; stroke-width:2; stroke-opacity:0.1; fill:none" points="149.191,750.569 2352.76,750.569 "/>
<polyline clip-path="url(#clip881)" style="stroke:#000000; stroke-linecap:round; stroke-linejoin:round; stroke-width:2; stroke-opacity:0.1; fill:none" points="149.191,487.429 2352.76,487.429 "/>
<polyline clip-path="url(#clip881)" style="stroke:#000000; stroke-linecap:round; stroke-linejoin:round; stroke-width:2; stroke-opacity:0.1; fill:none" points="149.191,224.288 2352.76,224.288 "/>
<polyline clip-path="url(#clip880)" style="stroke:#000000; stroke-linecap:round; stroke-linejoin:round; stroke-width:4; stroke-opacity:1; fill:none" points="149.191,1423.18 2352.76,1423.18 "/>
<polyline clip-path="url(#clip880)" style="stroke:#000000; stroke-linecap:round; stroke-linejoin:round; stroke-width:4; stroke-opacity:1; fill:none" points="149.191,1423.18 149.191,1404.28 "/>
<polyline clip-path="url(#clip880)" style="stroke:#000000; stroke-linecap:round; stroke-linejoin:round; stroke-width:4; stroke-opacity:1; fill:none" points="850.607,1423.18 850.607,1404.28 "/>
<polyline clip-path="url(#clip880)" style="stroke:#000000; stroke-linecap:round; stroke-linejoin:round; stroke-width:4; stroke-opacity:1; fill:none" points="1552.02,1423.18 1552.02,1404.28 "/>
<polyline clip-path="url(#clip880)" style="stroke:#000000; stroke-linecap:round; stroke-linejoin:round; stroke-width:4; stroke-opacity:1; fill:none" points="2253.44,1423.18 2253.44,1404.28 "/>
<path clip-path="url(#clip880)" d="M126.575 1454.1 Q122.964 1454.1 121.135 1457.66 Q119.33 1461.2 119.33 1468.33 Q119.33 1475.44 121.135 1479.01 Q122.964 1482.55 126.575 1482.55 Q130.209 1482.55 132.015 1479.01 Q133.844 1475.44 133.844 1468.33 Q133.844 1461.2 132.015 1457.66 Q130.209 1454.1 126.575 1454.1 M126.575 1450.39 Q132.385 1450.39 135.441 1455 Q138.52 1459.58 138.52 1468.33 Q138.52 1477.06 135.441 1481.67 Q132.385 1486.25 126.575 1486.25 Q120.765 1486.25 117.686 1481.67 Q114.631 1477.06 114.631 1468.33 Q114.631 1459.58 117.686 1455 Q120.765 1450.39 126.575 1450.39 Z" fill="#000000" fill-rule="nonzero" fill-opacity="1" /><path clip-path="url(#clip880)" d="M146.737 1479.7 L151.621 1479.7 L151.621 1485.58 L146.737 1485.58 L146.737 1479.7 Z" fill="#000000" fill-rule="nonzero" fill-opacity="1" /><path clip-path="url(#clip880)" d="M171.806 1454.1 Q168.195 1454.1 166.367 1457.66 Q164.561 1461.2 164.561 1468.33 Q164.561 1475.44 166.367 1479.01 Q168.195 1482.55 171.806 1482.55 Q175.441 1482.55 177.246 1479.01 Q179.075 1475.44 179.075 1468.33 Q179.075 1461.2 177.246 1457.66 Q175.441 1454.1 171.806 1454.1 M171.806 1450.39 Q177.617 1450.39 180.672 1455 Q183.751 1459.58 183.751 1468.33 Q183.751 1477.06 180.672 1481.67 Q177.617 1486.25 171.806 1486.25 Q165.996 1486.25 162.918 1481.67 Q159.862 1477.06 159.862 1468.33 Q159.862 1459.58 162.918 1455 Q165.996 1450.39 171.806 1450.39 Z" fill="#000000" fill-rule="nonzero" fill-opacity="1" /><path clip-path="url(#clip880)" d="M828.489 1454.1 Q824.878 1454.1 823.05 1457.66 Q821.244 1461.2 821.244 1468.33 Q821.244 1475.44 823.05 1479.01 Q824.878 1482.55 828.489 1482.55 Q832.124 1482.55 833.929 1479.01 Q835.758 1475.44 835.758 1468.33 Q835.758 1461.2 833.929 1457.66 Q832.124 1454.1 828.489 1454.1 M828.489 1450.39 Q834.3 1450.39 837.355 1455 Q840.434 1459.58 840.434 1468.33 Q840.434 1477.06 837.355 1481.67 Q834.3 1486.25 828.489 1486.25 Q822.679 1486.25 819.601 1481.67 Q816.545 1477.06 816.545 1468.33 Q816.545 1459.58 819.601 1455 Q822.679 1450.39 828.489 1450.39 Z" fill="#000000" fill-rule="nonzero" fill-opacity="1" /><path clip-path="url(#clip880)" d="M848.651 1479.7 L853.536 1479.7 L853.536 1485.58 L848.651 1485.58 L848.651 1479.7 Z" fill="#000000" fill-rule="nonzero" fill-opacity="1" /><path clip-path="url(#clip880)" d="M863.767 1451.02 L882.123 1451.02 L882.123 1454.96 L868.049 1454.96 L868.049 1463.43 Q869.068 1463.08 870.086 1462.92 Q871.105 1462.73 872.123 1462.73 Q877.91 1462.73 881.29 1465.9 Q884.67 1469.08 884.67 1474.49 Q884.67 1480.07 881.198 1483.17 Q877.725 1486.25 871.406 1486.25 Q869.23 1486.25 866.961 1485.88 Q864.716 1485.51 862.309 1484.77 L862.309 1480.07 Q864.392 1481.2 866.614 1481.76 Q868.836 1482.32 871.313 1482.32 Q875.318 1482.32 877.656 1480.21 Q879.994 1478.1 879.994 1474.49 Q879.994 1470.88 877.656 1468.77 Q875.318 1466.67 871.313 1466.67 Q869.438 1466.67 867.563 1467.08 Q865.711 1467.5 863.767 1468.38 L863.767 1451.02 Z" fill="#000000" fill-rule="nonzero" fill-opacity="1" /><path clip-path="url(#clip880)" d="M1519.18 1481.64 L1526.82 1481.64 L1526.82 1455.28 L1518.51 1456.95 L1518.51 1452.69 L1526.77 1451.02 L1531.45 1451.02 L1531.45 1481.64 L1539.08 1481.64 L1539.08 1485.58 L1519.18 1485.58 L1519.18 1481.64 Z" fill="#000000" fill-rule="nonzero" fill-opacity="1" /><path clip-path="url(#clip880)" d="M1548.53 1479.7 L1553.41 1479.7 L1553.41 1485.58 L1548.53 1485.58 L1548.53 1479.7 Z" fill="#000000" fill-rule="nonzero" fill-opacity="1" /><path clip-path="url(#clip880)" d="M1573.6 1454.1 Q1569.99 1454.1 1568.16 1457.66 Q1566.35 1461.2 1566.35 1468.33 Q1566.35 1475.44 1568.16 1479.01 Q1569.99 1482.55 1573.6 1482.55 Q1577.23 1482.55 1579.04 1479.01 Q1580.87 1475.44 1580.87 1468.33 Q1580.87 1461.2 1579.04 1457.66 Q1577.23 1454.1 1573.6 1454.1 M1573.6 1450.39 Q1579.41 1450.39 1582.46 1455 Q1585.54 1459.58 1585.54 1468.33 Q1585.54 1477.06 1582.46 1481.67 Q1579.41 1486.25 1573.6 1486.25 Q1567.79 1486.25 1564.71 1481.67 Q1561.65 1477.06 1561.65 1468.33 Q1561.65 1459.58 1564.71 1455 Q1567.79 1450.39 1573.6 1450.39 Z" fill="#000000" fill-rule="nonzero" fill-opacity="1" /><path clip-path="url(#clip880)" d="M2221.09 1481.64 L2228.73 1481.64 L2228.73 1455.28 L2220.42 1456.95 L2220.42 1452.69 L2228.68 1451.02 L2233.36 1451.02 L2233.36 1481.64 L2241 1481.64 L2241 1485.58 L2221.09 1485.58 L2221.09 1481.64 Z" fill="#000000" fill-rule="nonzero" fill-opacity="1" /><path clip-path="url(#clip880)" d="M2250.44 1479.7 L2255.33 1479.7 L2255.33 1485.58 L2250.44 1485.58 L2250.44 1479.7 Z" fill="#000000" fill-rule="nonzero" fill-opacity="1" /><path clip-path="url(#clip880)" d="M2265.56 1451.02 L2283.91 1451.02 L2283.91 1454.96 L2269.84 1454.96 L2269.84 1463.43 Q2270.86 1463.08 2271.88 1462.92 Q2272.9 1462.73 2273.91 1462.73 Q2279.7 1462.73 2283.08 1465.9 Q2286.46 1469.08 2286.46 1474.49 Q2286.46 1480.07 2282.99 1483.17 Q2279.52 1486.25 2273.2 1486.25 Q2271.02 1486.25 2268.75 1485.88 Q2266.51 1485.51 2264.1 1484.77 L2264.1 1480.07 Q2266.18 1481.2 2268.41 1481.76 Q2270.63 1482.32 2273.1 1482.32 Q2277.11 1482.32 2279.45 1480.21 Q2281.79 1478.1 2281.79 1474.49 Q2281.79 1470.88 2279.45 1468.77 Q2277.11 1466.67 2273.1 1466.67 Q2271.23 1466.67 2269.35 1467.08 Q2267.5 1467.5 2265.56 1468.38 L2265.56 1451.02 Z" fill="#000000" fill-rule="nonzero" fill-opacity="1" /><path clip-path="url(#clip880)" d="M1250.03 1522.27 L1250.03 1532.4 L1262.1 1532.4 L1262.1 1536.95 L1250.03 1536.95 L1250.03 1556.3 Q1250.03 1560.66 1251.21 1561.9 Q1252.42 1563.14 1256.08 1563.14 L1262.1 1563.14 L1262.1 1568.04 L1256.08 1568.04 Q1249.3 1568.04 1246.72 1565.53 Q1244.15 1562.98 1244.15 1556.3 L1244.15 1536.95 L1239.85 1536.95 L1239.85 1532.4 L1244.15 1532.4 L1244.15 1522.27 L1250.03 1522.27 Z" fill="#000000" fill-rule="nonzero" fill-opacity="1" /><polyline clip-path="url(#clip880)" style="stroke:#000000; stroke-linecap:round; stroke-linejoin:round; stroke-width:4; stroke-opacity:1; fill:none" points="149.191,1423.18 149.191,47.2441 "/>
<polyline clip-path="url(#clip880)" style="stroke:#000000; stroke-linecap:round; stroke-linejoin:round; stroke-width:4; stroke-opacity:1; fill:none" points="149.191,1276.85 168.089,1276.85 "/>
<polyline clip-path="url(#clip880)" style="stroke:#000000; stroke-linecap:round; stroke-linejoin:round; stroke-width:4; stroke-opacity:1; fill:none" points="149.191,1013.71 168.089,1013.71 "/>
<polyline clip-path="url(#clip880)" style="stroke:#000000; stroke-linecap:round; stroke-linejoin:round; stroke-width:4; stroke-opacity:1; fill:none" points="149.191,750.569 168.089,750.569 "/>
<polyline clip-path="url(#clip880)" style="stroke:#000000; stroke-linecap:round; stroke-linejoin:round; stroke-width:4; stroke-opacity:1; fill:none" points="149.191,487.429 168.089,487.429 "/>
<polyline clip-path="url(#clip880)" style="stroke:#000000; stroke-linecap:round; stroke-linejoin:round; stroke-width:4; stroke-opacity:1; fill:none" points="149.191,224.288 168.089,224.288 "/>
<path clip-path="url(#clip880)" d="M50.9921 1277.3 L80.6679 1277.3 L80.6679 1281.24 L50.9921 1281.24 L50.9921 1277.3 Z" fill="#000000" fill-rule="nonzero" fill-opacity="1" /><path clip-path="url(#clip880)" d="M103.608 1263.64 L91.8021 1282.09 L103.608 1282.09 L103.608 1263.64 M102.381 1259.57 L108.26 1259.57 L108.26 1282.09 L113.191 1282.09 L113.191 1285.98 L108.26 1285.98 L108.26 1294.13 L103.608 1294.13 L103.608 1285.98 L88.0058 1285.98 L88.0058 1281.47 L102.381 1259.57 Z" fill="#000000" fill-rule="nonzero" fill-opacity="1" /><path clip-path="url(#clip880)" d="M53.0754 1014.16 L82.7512 1014.16 L82.7512 1018.1 L53.0754 1018.1 L53.0754 1014.16 Z" fill="#000000" fill-rule="nonzero" fill-opacity="1" /><path clip-path="url(#clip880)" d="M96.8715 1027.05 L113.191 1027.05 L113.191 1030.99 L91.2465 1030.99 L91.2465 1027.05 Q93.9086 1024.3 98.4919 1019.67 Q103.098 1015.02 104.279 1013.68 Q106.524 1011.15 107.404 1009.42 Q108.307 1007.66 108.307 1005.97 Q108.307 1003.21 106.362 1001.48 Q104.441 999.74 101.339 999.74 Q99.14 999.74 96.6863 1000.5 Q94.2558 1001.27 91.478 1002.82 L91.478 998.097 Q94.3021 996.962 96.7558 996.384 Q99.2095 995.805 101.246 995.805 Q106.617 995.805 109.811 998.49 Q113.006 1001.18 113.006 1005.67 Q113.006 1007.8 112.196 1009.72 Q111.408 1011.62 109.302 1014.21 Q108.723 1014.88 105.621 1018.1 Q102.52 1021.29 96.8715 1027.05 Z" fill="#000000" fill-rule="nonzero" fill-opacity="1" /><path clip-path="url(#clip880)" d="M101.246 736.368 Q97.6354 736.368 95.8067 739.933 Q94.0012 743.475 94.0012 750.604 Q94.0012 757.711 95.8067 761.275 Q97.6354 764.817 101.246 764.817 Q104.881 764.817 106.686 761.275 Q108.515 757.711 108.515 750.604 Q108.515 743.475 106.686 739.933 Q104.881 736.368 101.246 736.368 M101.246 732.664 Q107.057 732.664 110.112 737.271 Q113.191 741.854 113.191 750.604 Q113.191 759.331 110.112 763.937 Q107.057 768.521 101.246 768.521 Q95.4363 768.521 92.3576 763.937 Q89.3021 759.331 89.3021 750.604 Q89.3021 741.854 92.3576 737.271 Q95.4363 732.664 101.246 732.664 Z" fill="#000000" fill-rule="nonzero" fill-opacity="1" /><path clip-path="url(#clip880)" d="M96.8715 500.774 L113.191 500.774 L113.191 504.709 L91.2465 504.709 L91.2465 500.774 Q93.9086 498.019 98.4919 493.389 Q103.098 488.737 104.279 487.394 Q106.524 484.871 107.404 483.135 Q108.307 481.376 108.307 479.686 Q108.307 476.931 106.362 475.195 Q104.441 473.459 101.339 473.459 Q99.14 473.459 96.6863 474.223 Q94.2558 474.987 91.478 476.538 L91.478 471.815 Q94.3021 470.681 96.7558 470.102 Q99.2095 469.524 101.246 469.524 Q106.617 469.524 109.811 472.209 Q113.006 474.894 113.006 479.385 Q113.006 481.514 112.196 483.436 Q111.408 485.334 109.302 487.926 Q108.723 488.598 105.621 491.815 Q102.52 495.01 96.8715 500.774 Z" fill="#000000" fill-rule="nonzero" fill-opacity="1" /><path clip-path="url(#clip880)" d="M103.608 211.082 L91.8021 229.531 L103.608 229.531 L103.608 211.082 M102.381 207.008 L108.26 207.008 L108.26 229.531 L113.191 229.531 L113.191 233.42 L108.26 233.42 L108.26 241.568 L103.608 241.568 L103.608 233.42 L88.0058 233.42 L88.0058 228.906 L102.381 207.008 Z" fill="#000000" fill-rule="nonzero" fill-opacity="1" /><polyline clip-path="url(#clip881)" style="stroke:#009af9; stroke-linecap:round; stroke-linejoin:round; stroke-width:4; stroke-opacity:1; fill:none" points="149.191,592.377 172.967,581.292 196.743,570.562 220.741,560.099 244.739,550.012 268.821,540.268 292.903,530.905 316.324,522.161 339.746,513.772 360.697,506.565 381.649,499.634 401.315,493.375 420.982,487.352 438.915,482.061 456.848,476.957 474.603,472.086 492.359,467.391 509.121,463.118 525.883,458.995 542.612,455.027 559.342,451.203 575.833,447.569 592.325,444.069 608.794,440.702 625.262,437.461 643.144,434.082 661.025,430.843 679.218,427.688 697.412,424.67 713.223,422.157 729.034,419.743 744.656,417.451 760.278,415.252 775.942,413.136 791.605,411.109 807.285,409.165 822.964,407.304 839.048,405.481 855.132,403.742 871.579,402.049 888.027,400.439 905.071,398.858 922.115,397.363 939.939,395.889 957.762,394.505 976.752,393.128 995.742,391.847 1015.89,390.593 1036.04,389.444 1060.01,388.211 1083.98,387.12 1108.56,386.146 1133.15,385.317 1157.2,384.642 1181.25,384.102 1205.1,383.696 1228.96,383.42 1252.68,383.272 1276.41,383.251 1300.01,383.355 1323.61,383.586 1347,383.938 1370.38,384.415 1393.88,385.021 1417.37,385.756 1440.97,386.626 1464.57,387.629 1488.42,388.782 1512.26,390.077 1536.23,391.526 1560.21,393.126 1584.23,394.885 1608.25,396.805 1632.26,398.89 1656.27,401.145 1680.09,403.557 1703.92,406.149 1727.59,408.91 1751.27,411.861 1774.77,414.986 1798.27,418.313 1821.65,421.829 1845.03,425.561 1868.54,429.54 1892.06,433.754 1915.77,438.247 1939.47,442.995 1963.24,448.023 1987.01,453.327 2010.95,458.96 2034.9,464.894 2059,471.18 2083.1,477.789 2107.23,484.741 2131.36,492.036 2152.61,498.752 2173.85,505.747 2193.83,512.58 2213.8,519.667 2231.78,526.27 2249.77,533.084 2267.64,540.062 2285.51,547.25 2302.32,554.203 2319.13,561.341 2335.94,568.662 2352.76,576.165 "/>
<polyline clip-path="url(#clip881)" style="stroke:#e26f46; stroke-linecap:round; stroke-linejoin:round; stroke-width:4; stroke-opacity:1; fill:none" points="149.191,86.1857 172.967,106.902 196.743,128.128 220.741,149.911 244.739,171.907 268.821,194.058 292.903,216.166 316.324,237.523 339.746,258.65 360.697,277.294 381.649,295.648 401.315,312.579 420.982,329.194 438.915,344.05 456.848,358.611 474.603,372.726 492.359,386.534 509.121,399.281 525.883,411.744 542.612,423.899 559.342,435.768 575.833,447.191 592.325,458.34 608.794,469.2 625.262,479.792 643.144,490.992 661.025,501.886 679.218,512.662 697.412,523.135 713.223,531.996 729.034,540.64 744.656,548.973 760.278,557.104 775.942,565.061 791.605,572.828 807.285,580.418 822.964,587.83 839.048,595.255 855.132,602.506 871.579,609.749 888.027,616.824 905.071,623.987 922.115,630.986 939.939,638.14 957.762,645.133 976.752,652.417 995.742,659.54 1015.89,666.934 1036.04,674.173 1060.01,682.599 1083.98,690.846 1108.56,699.141 1133.15,707.291 1157.2,715.144 1181.25,722.902 1205.1,730.523 1228.96,738.09 1252.68,745.584 1276.41,753.065 1300.01,760.514 1323.61,767.988 1347,775.439 1370.38,782.953 1393.88,790.585 1417.37,798.319 1440.97,806.214 1464.57,814.252 1488.42,822.538 1512.26,831.013 1536.23,839.746 1560.21,848.713 1584.23,857.956 1608.25,867.479 1632.26,877.297 1656.27,887.441 1680.09,897.85 1703.92,908.624 1727.59,919.716 1751.27,931.211 1774.77,943.043 1798.27,955.315 1821.65,967.977 1845.03,981.112 1868.54,994.825 1892.06,1009.05 1915.77,1023.93 1939.47,1039.35 1963.24,1055.38 1987.01,1071.98 2010.95,1089.29 2034.9,1107.18 2059,1125.76 2083.1,1144.92 2107.23,1164.64 2131.36,1184.89 2152.61,1203.12 2173.85,1221.7 2193.83,1239.43 2213.8,1257.4 2231.78,1273.74 2249.77,1290.19 2267.64,1306.6 2285.51,1323.04 2302.32,1338.49 2319.13,1353.87 2335.94,1369.13 2352.76,1384.24 "/>
<path clip-path="url(#clip880)" d="M1969.85 248.629 L2279.3 248.629 L2279.3 93.1086 L1969.85 93.1086  Z" fill="#ffffff" fill-rule="evenodd" fill-opacity="1"/>
<polyline clip-path="url(#clip880)" style="stroke:#000000; stroke-linecap:round; stroke-linejoin:round; stroke-width:4; stroke-opacity:1; fill:none" points="1969.85,248.629 2279.3,248.629 2279.3,93.1086 1969.85,93.1086 1969.85,248.629 "/>
<polyline clip-path="url(#clip880)" style="stroke:#009af9; stroke-linecap:round; stroke-linejoin:round; stroke-width:4; stroke-opacity:1; fill:none" points="1994.33,144.949 2141.24,144.949 "/>
<path clip-path="url(#clip880)" d="M2165.72 151.997 L2165.72 136.303 L2169.98 136.303 L2169.98 151.835 Q2169.98 155.516 2171.42 157.368 Q2172.85 159.196 2175.72 159.196 Q2179.17 159.196 2181.16 156.997 Q2183.18 154.798 2183.18 151.002 L2183.18 136.303 L2187.44 136.303 L2187.44 162.229 L2183.18 162.229 L2183.18 158.247 Q2181.63 160.608 2179.57 161.766 Q2177.53 162.9 2174.82 162.9 Q2170.35 162.9 2168.04 160.122 Q2165.72 157.344 2165.72 151.997 M2176.44 135.678 L2176.44 135.678 Z" fill="#000000" fill-rule="nonzero" fill-opacity="1" /><path clip-path="url(#clip880)" d="M2195.82 126.21 L2205.63 126.21 L2205.63 129.52 L2200.07 129.52 L2200.07 165.168 L2205.63 165.168 L2205.63 168.479 L2195.82 168.479 L2195.82 126.21 Z" fill="#000000" fill-rule="nonzero" fill-opacity="1" /><path clip-path="url(#clip880)" d="M2216.12 158.293 L2223.76 158.293 L2223.76 131.928 L2215.44 133.595 L2215.44 129.335 L2223.71 127.669 L2228.38 127.669 L2228.38 158.293 L2236.02 158.293 L2236.02 162.229 L2216.12 162.229 L2216.12 158.293 Z" fill="#000000" fill-rule="nonzero" fill-opacity="1" /><path clip-path="url(#clip880)" d="M2254.82 126.21 L2254.82 168.479 L2245 168.479 L2245 165.168 L2250.54 165.168 L2250.54 129.52 L2245 129.52 L2245 126.21 L2254.82 126.21 Z" fill="#000000" fill-rule="nonzero" fill-opacity="1" /><polyline clip-path="url(#clip880)" style="stroke:#e26f46; stroke-linecap:round; stroke-linejoin:round; stroke-width:4; stroke-opacity:1; fill:none" points="1994.33,196.789 2141.24,196.789 "/>
<path clip-path="url(#clip880)" d="M2165.72 203.837 L2165.72 188.143 L2169.98 188.143 L2169.98 203.675 Q2169.98 207.356 2171.42 209.208 Q2172.85 211.036 2175.72 211.036 Q2179.17 211.036 2181.16 208.837 Q2183.18 206.638 2183.18 202.842 L2183.18 188.143 L2187.44 188.143 L2187.44 214.069 L2183.18 214.069 L2183.18 210.087 Q2181.63 212.448 2179.57 213.606 Q2177.53 214.74 2174.82 214.74 Q2170.35 214.74 2168.04 211.962 Q2165.72 209.184 2165.72 203.837 M2176.44 187.518 L2176.44 187.518 Z" fill="#000000" fill-rule="nonzero" fill-opacity="1" /><path clip-path="url(#clip880)" d="M2195.82 178.05 L2205.63 178.05 L2205.63 181.36 L2200.07 181.36 L2200.07 217.008 L2205.63 217.008 L2205.63 220.319 L2195.82 220.319 L2195.82 178.05 Z" fill="#000000" fill-rule="nonzero" fill-opacity="1" /><path clip-path="url(#clip880)" d="M2219.33 210.133 L2235.65 210.133 L2235.65 214.069 L2213.71 214.069 L2213.71 210.133 Q2216.37 207.379 2220.95 202.749 Q2225.56 198.096 2226.74 196.754 Q2228.99 194.231 2229.87 192.495 Q2230.77 190.735 2230.77 189.046 Q2230.77 186.291 2228.82 184.555 Q2226.9 182.819 2223.8 182.819 Q2221.6 182.819 2219.15 183.583 Q2216.72 184.347 2213.94 185.897 L2213.94 181.175 Q2216.76 180.041 2219.22 179.462 Q2221.67 178.884 2223.71 178.884 Q2229.08 178.884 2232.27 181.569 Q2235.47 184.254 2235.47 188.745 Q2235.47 190.874 2234.66 192.796 Q2233.87 194.694 2231.76 197.286 Q2231.19 197.958 2228.08 201.175 Q2224.98 204.37 2219.33 210.133 Z" fill="#000000" fill-rule="nonzero" fill-opacity="1" /><path clip-path="url(#clip880)" d="M2254.82 178.05 L2254.82 220.319 L2245 220.319 L2245 217.008 L2250.54 217.008 L2250.54 181.36 L2245 181.36 L2245 178.05 L2254.82 178.05 Z" fill="#000000" fill-rule="nonzero" fill-opacity="1" /></svg>
